<?xml version="1.0" encoding="UTF-8" standalone="no"?>
<!DOCTYPE svg PUBLIC "-//W3C//DTD SVG 1.1//EN"
 "http://www.w3.org/Graphics/SVG/1.1/DTD/svg11.dtd">
<!-- Generated by graphviz version 2.38.0 (20140413.2041)
 -->
<!-- Title: AstropyCoordinateTransformGraph Pages: 1 -->
<svg width="475pt" height="795pt"
 viewBox="0.00 0.00 475.48 794.92" xmlns="http://www.w3.org/2000/svg" xmlns:xlink="http://www.w3.org/1999/xlink">
<g id="graph0" class="graph" transform="scale(1 1) rotate(0) translate(4 790.921)">
<title>AstropyCoordinateTransformGraph</title>
<polygon fill="white" stroke="none" points="-4,4 -4,-790.921 471.48,-790.921 471.48,4 -4,4"/>
<!-- FK4 -->
<g id="node1" class="node"><title>FK4</title>
<ellipse fill="none" stroke="black" cx="276.062" cy="-760.051" rx="31.2258" ry="26.7407"/>
<text text-anchor="middle" x="276.062" y="-763.851" font-family="Times,serif" font-size="14.00">FK4</text>
<text text-anchor="middle" x="276.062" y="-748.851" font-family="Times,serif" font-size="14.00">`fk4`</text>
</g>
<!-- FK4&#45;&gt;FK4 -->
<g id="edge1" class="edge"><title>FK4&#45;&gt;FK4</title>
<path fill="none" stroke="black" d="M305.306,-769.779C316.204,-770.098 325.175,-766.856 325.175,-760.051 325.175,-755.585 321.312,-752.654 315.576,-751.256"/>
<polygon fill="black" stroke="black" points="315.582,-747.742 305.306,-750.322 314.948,-754.713 315.582,-747.742"/>
<text text-anchor="middle" x="334.175" y="-756.351" font-family="Times,serif" font-size="14.00">1.0</text>
</g>
<!-- FK4NoETerms -->
<g id="node2" class="node"><title>FK4NoETerms</title>
<ellipse fill="none" stroke="black" cx="276.062" cy="-655.311" rx="71.3357" ry="26.7407"/>
<text text-anchor="middle" x="276.062" y="-659.111" font-family="Times,serif" font-size="14.00">FK4NoETerms</text>
<text text-anchor="middle" x="276.062" y="-644.111" font-family="Times,serif" font-size="14.00">`fk4noeterms`</text>
</g>
<!-- FK4&#45;&gt;FK4NoETerms -->
<g id="edge2" class="edge"><title>FK4&#45;&gt;FK4NoETerms</title>
<path fill="none" stroke="black" d="M263.576,-735.037C260.889,-728.741 258.444,-721.845 257.062,-715.181 255.438,-707.343 256.37,-699.079 258.507,-691.301"/>
<polygon fill="black" stroke="black" points="261.84,-692.373 261.758,-681.779 255.215,-690.112 261.84,-692.373"/>
<text text-anchor="middle" x="266.062" y="-703.981" font-family="Times,serif" font-size="14.00">1.0</text>
</g>
<!-- FK4NoETerms&#45;&gt;FK4 -->
<g id="edge26" class="edge"><title>FK4NoETerms&#45;&gt;FK4</title>
<path fill="none" stroke="black" d="M276.062,-682.228C276.062,-694.516 276.062,-709.405 276.062,-722.791"/>
<polygon fill="black" stroke="black" points="272.563,-723.125 276.062,-733.125 279.563,-723.125 272.563,-723.125"/>
<text text-anchor="middle" x="285.062" y="-703.981" font-family="Times,serif" font-size="14.00">1.0</text>
</g>
<!-- FK4NoETerms&#45;&gt;FK4NoETerms -->
<g id="edge29" class="edge"><title>FK4NoETerms&#45;&gt;FK4NoETerms</title>
<path fill="none" stroke="black" d="M343.135,-664.627C356.201,-663.545 365.48,-660.44 365.48,-655.311 365.48,-651.624 360.687,-648.983 353.139,-647.388"/>
<polygon fill="black" stroke="black" points="353.522,-643.907 343.135,-645.995 352.557,-650.84 353.522,-643.907"/>
<text text-anchor="middle" x="374.48" y="-651.611" font-family="Times,serif" font-size="14.00">1.0</text>
</g>
<!-- FK5 -->
<g id="node9" class="node"><title>FK5</title>
<ellipse fill="none" stroke="black" cx="276.062" cy="-445.831" rx="31.2258" ry="26.7407"/>
<text text-anchor="middle" x="276.062" y="-449.631" font-family="Times,serif" font-size="14.00">FK5</text>
<text text-anchor="middle" x="276.062" y="-434.631" font-family="Times,serif" font-size="14.00">`fk5`</text>
</g>
<!-- FK4NoETerms&#45;&gt;FK5 -->
<g id="edge27" class="edge"><title>FK4NoETerms&#45;&gt;FK5</title>
<path fill="none" stroke="black" d="M244.179,-631.067C228.281,-617.446 210.651,-598.745 202.062,-577.441 193.133,-555.288 193.133,-545.853 202.062,-523.701 210.673,-502.34 228.374,-483.596 244.305,-469.966"/>
<polygon fill="black" stroke="black" points="246.901,-472.364 252.417,-463.318 242.464,-466.95 246.901,-472.364"/>
<text text-anchor="middle" x="211.062" y="-546.871" font-family="Times,serif" font-size="14.00">1.0</text>
</g>
<!-- Galactic -->
<g id="node10" class="node"><title>Galactic</title>
<ellipse fill="none" stroke="black" cx="277.062" cy="-550.571" rx="48.1667" ry="26.7407"/>
<text text-anchor="middle" x="277.062" y="-554.371" font-family="Times,serif" font-size="14.00">Galactic</text>
<text text-anchor="middle" x="277.062" y="-539.371" font-family="Times,serif" font-size="14.00">`galactic`</text>
</g>
<!-- FK4NoETerms&#45;&gt;Galactic -->
<g id="edge28" class="edge"><title>FK4NoETerms&#45;&gt;Galactic</title>
<path fill="none" stroke="black" d="M260.153,-628.89C255.558,-618.651 252.413,-606.634 255.062,-595.441 255.828,-592.207 256.871,-588.941 258.088,-585.726"/>
<polygon fill="black" stroke="black" points="261.398,-586.892 262.165,-576.325 254.976,-584.107 261.398,-586.892"/>
<text text-anchor="middle" x="264.062" y="-599.241" font-family="Times,serif" font-size="14.00">1.0</text>
</g>
<!-- AltAz -->
<g id="node3" class="node"><title>AltAz</title>
<ellipse fill="none" stroke="black" cx="36.0624" cy="-131.61" rx="36.125" ry="26.7407"/>
<text text-anchor="middle" x="36.0624" y="-135.41" font-family="Times,serif" font-size="14.00">AltAz</text>
<text text-anchor="middle" x="36.0624" y="-120.41" font-family="Times,serif" font-size="14.00">`altaz`</text>
</g>
<!-- AltAz&#45;&gt;AltAz -->
<g id="edge4" class="edge"><title>AltAz&#45;&gt;AltAz</title>
<path fill="none" stroke="black" d="M69.8515,-141.36C81.1145,-141.36 90.1249,-138.11 90.1249,-131.61 90.1249,-127.243 86.0574,-124.343 79.9722,-122.91"/>
<polygon fill="black" stroke="black" points="80.1592,-119.411 69.8515,-121.86 79.437,-126.373 80.1592,-119.411"/>
<text text-anchor="middle" x="99.1249" y="-127.91" font-family="Times,serif" font-size="14.00">1.0</text>
</g>
<!-- CIRS -->
<g id="node4" class="node"><title>CIRS</title>
<ellipse fill="none" stroke="black" cx="130.062" cy="-236.35" rx="33.4697" ry="26.7407"/>
<text text-anchor="middle" x="130.062" y="-240.15" font-family="Times,serif" font-size="14.00">CIRS</text>
<text text-anchor="middle" x="130.062" y="-225.15" font-family="Times,serif" font-size="14.00">`cirs`</text>
</g>
<!-- AltAz&#45;&gt;CIRS -->
<g id="edge3" class="edge"><title>AltAz&#45;&gt;CIRS</title>
<path fill="none" stroke="black" d="M55.8378,-154.224C69.6791,-169.353 88.3283,-189.736 103.47,-206.286"/>
<polygon fill="black" stroke="black" points="101.253,-209.047 110.586,-214.062 106.418,-204.322 101.253,-209.047"/>
<text text-anchor="middle" x="98.0624" y="-180.28" font-family="Times,serif" font-size="14.00">1.0</text>
</g>
<!-- CIRS&#45;&gt;AltAz -->
<g id="edge25" class="edge"><title>CIRS&#45;&gt;AltAz</title>
<path fill="none" stroke="black" d="M100.635,-223.859C85.4566,-216.604 67.7302,-205.862 56.0624,-191.48 50.5391,-184.672 46.5074,-176.258 43.5767,-167.943"/>
<polygon fill="black" stroke="black" points="46.9047,-166.857 40.6188,-158.329 40.2142,-168.916 46.9047,-166.857"/>
<text text-anchor="middle" x="65.0624" y="-180.28" font-family="Times,serif" font-size="14.00">1.0</text>
</g>
<!-- CIRS&#45;&gt;CIRS -->
<g id="edge24" class="edge"><title>CIRS&#45;&gt;CIRS</title>
<path fill="none" stroke="black" d="M161.077,-246.091C172.215,-246.3 181.296,-243.053 181.296,-236.35 181.296,-231.847 177.197,-228.903 171.129,-227.52"/>
<polygon fill="black" stroke="black" points="171.352,-224.026 161.077,-226.61 170.721,-230.997 171.352,-224.026"/>
<text text-anchor="middle" x="190.296" y="-232.65" font-family="Times,serif" font-size="14.00">1.0</text>
</g>
<!-- ITRS -->
<g id="node5" class="node"><title>ITRS</title>
<ellipse fill="none" stroke="black" cx="159.062" cy="-131.61" rx="32.5538" ry="26.7407"/>
<text text-anchor="middle" x="159.062" y="-135.41" font-family="Times,serif" font-size="14.00">ITRS</text>
<text text-anchor="middle" x="159.062" y="-120.41" font-family="Times,serif" font-size="14.00">`itrs`</text>
</g>
<!-- CIRS&#45;&gt;ITRS -->
<g id="edge23" class="edge"><title>CIRS&#45;&gt;ITRS</title>
<path fill="none" stroke="black" d="M122.108,-210.149C120.005,-199.509 119.248,-187.14 123.062,-176.48 125.061,-170.894 128.111,-165.508 131.608,-160.538"/>
<polygon fill="black" stroke="black" points="134.409,-162.639 137.807,-152.604 128.893,-158.329 134.409,-162.639"/>
<text text-anchor="middle" x="132.062" y="-180.28" font-family="Times,serif" font-size="14.00">1.0</text>
</g>
<!-- ICRS -->
<g id="node8" class="node"><title>ICRS</title>
<ellipse fill="none" stroke="black" cx="276.062" cy="-341.09" rx="33.4697" ry="26.7407"/>
<text text-anchor="middle" x="276.062" y="-344.89" font-family="Times,serif" font-size="14.00">ICRS</text>
<text text-anchor="middle" x="276.062" y="-329.89" font-family="Times,serif" font-size="14.00">`icrs`</text>
</g>
<!-- CIRS&#45;&gt;ICRS -->
<g id="edge22" class="edge"><title>CIRS&#45;&gt;ICRS</title>
<path fill="none" stroke="black" d="M154.951,-254.864C179.219,-271.942 216.277,-298.019 243.009,-316.83"/>
<polygon fill="black" stroke="black" points="241.103,-319.769 251.296,-322.662 245.132,-314.045 241.103,-319.769"/>
<text text-anchor="middle" x="221.062" y="-285.02" font-family="Times,serif" font-size="14.00">1.0</text>
</g>
<!-- ITRS&#45;&gt;CIRS -->
<g id="edge7" class="edge"><title>ITRS&#45;&gt;CIRS</title>
<path fill="none" stroke="black" d="M153.528,-158.25C151.143,-168.626 148.185,-180.682 145.062,-191.48 144.196,-194.477 143.248,-197.571 142.264,-200.665"/>
<polygon fill="black" stroke="black" points="138.853,-199.834 139.047,-210.427 145.501,-202.024 138.853,-199.834"/>
<text text-anchor="middle" x="158.062" y="-180.28" font-family="Times,serif" font-size="14.00">1.0</text>
</g>
<!-- ITRS&#45;&gt;ITRS -->
<g id="edge6" class="edge"><title>ITRS&#45;&gt;ITRS</title>
<path fill="none" stroke="black" d="M189.399,-141.345C200.497,-141.609 209.589,-138.364 209.589,-131.61 209.589,-127.072 205.485,-124.119 199.426,-122.749"/>
<polygon fill="black" stroke="black" points="199.665,-119.256 189.399,-121.875 199.057,-126.23 199.665,-119.256"/>
<text text-anchor="middle" x="218.589" y="-127.91" font-family="Times,serif" font-size="14.00">1.0</text>
</g>
<!-- GCRS -->
<g id="node6" class="node"><title>GCRS</title>
<ellipse fill="none" stroke="black" cx="235.062" cy="-26.8701" rx="36.5405" ry="26.7407"/>
<text text-anchor="middle" x="235.062" y="-30.6701" font-family="Times,serif" font-size="14.00">GCRS</text>
<text text-anchor="middle" x="235.062" y="-15.6701" font-family="Times,serif" font-size="14.00">`gcrs`</text>
</g>
<!-- ITRS&#45;&gt;GCRS -->
<g id="edge5" class="edge"><title>ITRS&#45;&gt;GCRS</title>
<path fill="none" stroke="black" d="M157.941,-104.644C158.598,-93.7518 160.918,-81.4009 167.062,-71.7401 173.777,-61.1819 184.05,-52.6603 194.593,-46.0361"/>
<polygon fill="black" stroke="black" points="196.539,-48.9539 203.44,-40.9151 193.032,-42.8957 196.539,-48.9539"/>
<text text-anchor="middle" x="179.562" y="-75.5401" font-family="Times,serif" font-size="14.00">1.01</text>
</g>
<!-- GCRS&#45;&gt;ITRS -->
<g id="edge21" class="edge"><title>GCRS&#45;&gt;ITRS</title>
<path fill="none" stroke="black" d="M218.392,-50.85C210.454,-61.7525 200.805,-74.9455 192.062,-86.7401 188.799,-91.1426 185.337,-95.7806 181.93,-100.326"/>
<polygon fill="black" stroke="black" points="179.119,-98.2403 175.911,-108.338 184.716,-102.445 179.119,-98.2403"/>
<text text-anchor="middle" x="215.562" y="-75.5401" font-family="Times,serif" font-size="14.00">1.01</text>
</g>
<!-- GCRS&#45;&gt;GCRS -->
<g id="edge20" class="edge"><title>GCRS&#45;&gt;GCRS</title>
<path fill="none" stroke="black" d="M269.56,-36.6195C280.846,-36.5691 289.832,-33.3193 289.832,-26.8701 289.832,-22.537 285.775,-19.6482 279.691,-18.2037"/>
<polygon fill="black" stroke="black" points="279.876,-14.7036 269.56,-17.1207 279.132,-21.6639 279.876,-14.7036"/>
<text text-anchor="middle" x="298.832" y="-23.1701" font-family="Times,serif" font-size="14.00">1.0</text>
</g>
<!-- GCRS&#45;&gt;ICRS -->
<g id="edge19" class="edge"><title>GCRS&#45;&gt;ICRS</title>
<path fill="none" stroke="black" d="M248.108,-52.4964C251.022,-58.662 253.888,-65.3445 256.062,-71.7401 260.889,-85.9351 260.269,-90.0096 263.062,-104.74 277.767,-182.296 280.054,-202.34 283.062,-281.22 283.316,-287.882 283.589,-289.575 283.062,-296.22 282.86,-298.777 282.592,-301.409 282.279,-304.055"/>
<polygon fill="black" stroke="black" points="278.78,-303.808 280.891,-314.191 285.715,-304.758 278.78,-303.808"/>
<text text-anchor="middle" x="287.062" y="-180.28" font-family="Times,serif" font-size="14.00">1.0</text>
</g>
<!-- Galactocentric -->
<g id="node7" class="node"><title>Galactocentric</title>
<ellipse fill="none" stroke="black" cx="396.062" cy="-236.35" rx="71.3357" ry="26.7407"/>
<text text-anchor="middle" x="396.062" y="-240.15" font-family="Times,serif" font-size="14.00">Galactocentric</text>
<text text-anchor="middle" x="396.062" y="-225.15" font-family="Times,serif" font-size="14.00">`galactocentric`</text>
</g>
<!-- Galactocentric&#45;&gt;ICRS -->
<g id="edge8" class="edge"><title>Galactocentric&#45;&gt;ICRS</title>
<path fill="none" stroke="black" d="M386.255,-263.094C380.994,-274.329 373.604,-287.011 364.062,-296.22 350.509,-309.302 332.29,-319.257 315.946,-326.35"/>
<polygon fill="black" stroke="black" points="314.506,-323.158 306.589,-330.198 317.168,-329.632 314.506,-323.158"/>
<text text-anchor="middle" x="385.062" y="-285.02" font-family="Times,serif" font-size="14.00">1.0</text>
</g>
<!-- ICRS&#45;&gt;CIRS -->
<g id="edge12" class="edge"><title>ICRS&#45;&gt;CIRS</title>
<path fill="none" stroke="black" d="M244.182,-332.928C220.833,-326.423 189.445,-314.927 167.062,-296.22 158.709,-289.239 151.65,-279.872 146.009,-270.665"/>
<polygon fill="black" stroke="black" points="149.041,-268.915 141.04,-261.97 142.964,-272.389 149.041,-268.915"/>
<text text-anchor="middle" x="176.062" y="-285.02" font-family="Times,serif" font-size="14.00">1.0</text>
</g>
<!-- ICRS&#45;&gt;GCRS -->
<g id="edge9" class="edge"><title>ICRS&#45;&gt;GCRS</title>
<path fill="none" stroke="black" d="M272.672,-314.274C265.366,-258.639 248.124,-127.332 239.766,-63.691"/>
<polygon fill="black" stroke="black" points="243.229,-63.1753 238.456,-53.7162 236.288,-64.0868 243.229,-63.1753"/>
<text text-anchor="middle" x="266.062" y="-180.28" font-family="Times,serif" font-size="14.00">1.0</text>
</g>
<!-- ICRS&#45;&gt;Galactocentric -->
<g id="edge10" class="edge"><title>ICRS&#45;&gt;Galactocentric</title>
<path fill="none" stroke="black" d="M297.541,-320.481C310.34,-308.909 326.981,-294.061 342.062,-281.22 347.315,-276.748 352.911,-272.089 358.436,-267.547"/>
<polygon fill="black" stroke="black" points="360.903,-270.051 366.433,-261.014 356.474,-264.63 360.903,-270.051"/>
<text text-anchor="middle" x="351.062" y="-285.02" font-family="Times,serif" font-size="14.00">1.0</text>
</g>
<!-- ICRS&#45;&gt;FK5 -->
<g id="edge11" class="edge"><title>ICRS&#45;&gt;FK5</title>
<path fill="none" stroke="black" d="M276.062,-368.008C276.062,-380.296 276.062,-395.184 276.062,-408.57"/>
<polygon fill="black" stroke="black" points="272.563,-408.905 276.062,-418.905 279.563,-408.905 272.563,-408.905"/>
<text text-anchor="middle" x="285.062" y="-389.76" font-family="Times,serif" font-size="14.00">1.0</text>
</g>
<!-- FK5&#45;&gt;FK4NoETerms -->
<g id="edge18" class="edge"><title>FK5&#45;&gt;FK4NoETerms</title>
<path fill="none" stroke="black" d="M296.417,-466.206C309.98,-480.598 326.629,-501.507 334.062,-523.701 341.648,-546.348 341.648,-554.793 334.062,-577.441 328.566,-593.851 318.031,-609.558 307.432,-622.448"/>
<polygon fill="black" stroke="black" points="304.728,-620.225 300.868,-630.091 310.038,-624.785 304.728,-620.225"/>
<text text-anchor="middle" x="349.062" y="-546.871" font-family="Times,serif" font-size="14.00">1.0</text>
</g>
<!-- FK5&#45;&gt;ICRS -->
<g id="edge15" class="edge"><title>FK5&#45;&gt;ICRS</title>
<path fill="none" stroke="black" d="M260.905,-422.319C255.391,-411.519 251.147,-398.277 254.062,-385.96 254.938,-382.26 256.177,-378.517 257.626,-374.859"/>
<polygon fill="black" stroke="black" points="260.944,-376.015 261.846,-365.458 254.558,-373.148 260.944,-376.015"/>
<text text-anchor="middle" x="263.062" y="-389.76" font-family="Times,serif" font-size="14.00">1.0</text>
</g>
<!-- FK5&#45;&gt;FK5 -->
<g id="edge17" class="edge"><title>FK5&#45;&gt;FK5</title>
<path fill="none" stroke="black" d="M305.306,-455.559C316.204,-455.878 325.175,-452.635 325.175,-445.831 325.175,-441.365 321.312,-438.433 315.576,-437.036"/>
<polygon fill="black" stroke="black" points="315.582,-433.522 305.306,-436.102 314.948,-440.493 315.582,-433.522"/>
<text text-anchor="middle" x="334.175" y="-442.131" font-family="Times,serif" font-size="14.00">1.0</text>
</g>
<!-- FK5&#45;&gt;Galactic -->
<g id="edge16" class="edge"><title>FK5&#45;&gt;Galactic</title>
<path fill="none" stroke="black" d="M276.315,-472.748C276.434,-485.036 276.579,-499.924 276.71,-513.31"/>
<polygon fill="black" stroke="black" points="273.213,-513.68 276.81,-523.645 280.213,-513.611 273.213,-513.68"/>
<text text-anchor="middle" x="286.062" y="-494.501" font-family="Times,serif" font-size="14.00">1.0</text>
</g>
<!-- Galactic&#45;&gt;FK4NoETerms -->
<g id="edge14" class="edge"><title>Galactic&#45;&gt;FK4NoETerms</title>
<path fill="none" stroke="black" d="M276.81,-577.488C276.691,-589.776 276.546,-604.665 276.415,-618.05"/>
<polygon fill="black" stroke="black" points="272.912,-618.351 276.315,-628.385 279.912,-618.42 272.912,-618.351"/>
<text text-anchor="middle" x="286.062" y="-599.241" font-family="Times,serif" font-size="14.00">1.0</text>
</g>
<!-- Galactic&#45;&gt;FK5 -->
<g id="edge13" class="edge"><title>Galactic&#45;&gt;FK5</title>
<path fill="none" stroke="black" d="M263.511,-524.69C260.846,-518.646 258.448,-512.081 257.062,-505.701 255.211,-497.177 256.447,-488.136 258.997,-479.764"/>
<polygon fill="black" stroke="black" points="262.306,-480.908 262.489,-470.315 255.74,-478.482 262.306,-480.908"/>
<text text-anchor="middle" x="266.062" y="-494.501" font-family="Times,serif" font-size="14.00">1.0</text>
</g>
</g>
</svg>
