<?xml version="1.0" encoding="UTF-8" standalone="no"?>
<!DOCTYPE svg PUBLIC "-//W3C//DTD SVG 1.1//EN"
 "http://www.w3.org/Graphics/SVG/1.1/DTD/svg11.dtd">
<!-- Generated by graphviz version 2.38.0 (20140413.2041)
 -->
<!-- Title: AstropyCoordinateTransformGraph Pages: 1 -->
<svg width="355pt" height="690pt"
 viewBox="0.00 0.00 355.42 690.18" xmlns="http://www.w3.org/2000/svg" xmlns:xlink="http://www.w3.org/1999/xlink">
<g id="graph0" class="graph" transform="scale(1 1) rotate(0) translate(4 686.181)">
<title>AstropyCoordinateTransformGraph</title>
<polygon fill="white" stroke="none" points="-4,4 -4,-686.181 351.418,-686.181 351.418,4 -4,4"/>
<!-- FK4NoETerms -->
<g id="node1" class="node"><title>FK4NoETerms</title>
<ellipse fill="none" stroke="black" cx="216.418" cy="-655.311" rx="71.3357" ry="26.7407"/>
<text text-anchor="middle" x="216.418" y="-659.111" font-family="Times,serif" font-size="14.00">FK4NoETerms</text>
<text text-anchor="middle" x="216.418" y="-644.111" font-family="Times,serif" font-size="14.00">`fk4noeterms`</text>
</g>
<!-- FK4NoETerms&#45;&gt;FK4NoETerms -->
<g id="edge1" class="edge"><title>FK4NoETerms&#45;&gt;FK4NoETerms</title>
<path fill="none" stroke="black" d="M283.49,-664.627C296.557,-663.545 305.836,-660.44 305.836,-655.311 305.836,-651.624 301.042,-648.983 293.494,-647.388"/>
<polygon fill="black" stroke="black" points="293.877,-643.907 283.49,-645.995 292.912,-650.84 293.877,-643.907"/>
<text text-anchor="middle" x="314.836" y="-651.611" font-family="Times,serif" font-size="14.00">1.0</text>
</g>
<!-- FK4 -->
<g id="node2" class="node"><title>FK4</title>
<ellipse fill="none" stroke="black" cx="97.4178" cy="-550.571" rx="31.2258" ry="26.7407"/>
<text text-anchor="middle" x="97.4178" y="-554.371" font-family="Times,serif" font-size="14.00">FK4</text>
<text text-anchor="middle" x="97.4178" y="-539.371" font-family="Times,serif" font-size="14.00">`fk4`</text>
</g>
<!-- FK4NoETerms&#45;&gt;FK4 -->
<g id="edge2" class="edge"><title>FK4NoETerms&#45;&gt;FK4</title>
<path fill="none" stroke="black" d="M156.842,-640.42C140.057,-633.854 123.186,-624.292 111.418,-610.441 105.953,-604.009 102.54,-595.816 100.428,-587.602"/>
<polygon fill="black" stroke="black" points="103.839,-586.808 98.4477,-577.687 96.9745,-588.179 103.839,-586.808"/>
<text text-anchor="middle" x="120.418" y="-599.241" font-family="Times,serif" font-size="14.00">1.0</text>
</g>
<!-- FK5 -->
<g id="node3" class="node"><title>FK5</title>
<ellipse fill="none" stroke="black" cx="213.418" cy="-550.571" rx="31.2258" ry="26.7407"/>
<text text-anchor="middle" x="213.418" y="-554.371" font-family="Times,serif" font-size="14.00">FK5</text>
<text text-anchor="middle" x="213.418" y="-539.371" font-family="Times,serif" font-size="14.00">`fk5`</text>
</g>
<!-- FK4NoETerms&#45;&gt;FK5 -->
<g id="edge3" class="edge"><title>FK4NoETerms&#45;&gt;FK5</title>
<path fill="none" stroke="black" d="M203.153,-628.438C200.778,-622.658 198.664,-616.455 197.418,-610.441 195.706,-602.183 196.607,-593.367 198.661,-585.139"/>
<polygon fill="black" stroke="black" points="202.041,-586.058 201.641,-575.47 195.351,-583.996 202.041,-586.058"/>
<text text-anchor="middle" x="206.418" y="-599.241" font-family="Times,serif" font-size="14.00">1.0</text>
</g>
<!-- Galactic -->
<g id="node4" class="node"><title>Galactic</title>
<ellipse fill="none" stroke="black" cx="297.418" cy="-445.831" rx="48.1667" ry="26.7407"/>
<text text-anchor="middle" x="297.418" y="-449.631" font-family="Times,serif" font-size="14.00">Galactic</text>
<text text-anchor="middle" x="297.418" y="-434.631" font-family="Times,serif" font-size="14.00">`galactic`</text>
</g>
<!-- FK4NoETerms&#45;&gt;Galactic -->
<g id="edge4" class="edge"><title>FK4NoETerms&#45;&gt;Galactic</title>
<path fill="none" stroke="black" d="M247.181,-630.684C262.662,-616.951 280.081,-598.265 289.418,-577.441 302.793,-547.611 303.659,-510.049 301.853,-482.872"/>
<polygon fill="black" stroke="black" points="305.32,-482.321 301.016,-472.64 298.343,-482.892 305.32,-482.321"/>
<text text-anchor="middle" x="310.418" y="-546.871" font-family="Times,serif" font-size="14.00">1.0</text>
</g>
<!-- FK4&#45;&gt;FK4NoETerms -->
<g id="edge21" class="edge"><title>FK4&#45;&gt;FK4NoETerms</title>
<path fill="none" stroke="black" d="M118.933,-570.146C136.221,-585.072 160.862,-606.346 181.044,-623.77"/>
<polygon fill="black" stroke="black" points="178.961,-626.596 188.818,-630.482 183.536,-621.298 178.961,-626.596"/>
<text text-anchor="middle" x="173.418" y="-599.241" font-family="Times,serif" font-size="14.00">1.0</text>
</g>
<!-- FK4&#45;&gt;FK4 -->
<g id="edge20" class="edge"><title>FK4&#45;&gt;FK4</title>
<path fill="none" stroke="black" d="M126.662,-560.299C137.56,-560.618 146.53,-557.375 146.53,-550.571 146.53,-546.105 142.667,-543.173 136.931,-541.776"/>
<polygon fill="black" stroke="black" points="136.937,-538.262 126.662,-540.842 136.303,-545.233 136.937,-538.262"/>
<text text-anchor="middle" x="155.53" y="-546.871" font-family="Times,serif" font-size="14.00">1.0</text>
</g>
<!-- FK5&#45;&gt;FK4NoETerms -->
<g id="edge11" class="edge"><title>FK5&#45;&gt;FK4NoETerms</title>
<path fill="none" stroke="black" d="M214.725,-577.547C214.987,-583.43 215.237,-589.649 215.418,-595.441 215.646,-602.732 215.825,-610.534 215.964,-617.994"/>
<polygon fill="black" stroke="black" points="212.468,-618.285 216.135,-628.225 219.467,-618.167 212.468,-618.285"/>
<text text-anchor="middle" x="225.418" y="-599.241" font-family="Times,serif" font-size="14.00">1.0</text>
</g>
<!-- FK5&#45;&gt;FK5 -->
<g id="edge14" class="edge"><title>FK5&#45;&gt;FK5</title>
<path fill="none" stroke="black" d="M242.662,-560.299C253.56,-560.618 262.53,-557.375 262.53,-550.571 262.53,-546.105 258.667,-543.173 252.931,-541.776"/>
<polygon fill="black" stroke="black" points="252.937,-538.262 242.662,-540.842 252.303,-545.233 252.937,-538.262"/>
<text text-anchor="middle" x="271.53" y="-546.871" font-family="Times,serif" font-size="14.00">1.0</text>
</g>
<!-- FK5&#45;&gt;Galactic -->
<g id="edge12" class="edge"><title>FK5&#45;&gt;Galactic</title>
<path fill="none" stroke="black" d="M223.147,-525.003C228.228,-513.88 235.124,-500.959 243.418,-490.701 248.221,-484.76 253.947,-479.076 259.847,-473.886"/>
<polygon fill="black" stroke="black" points="262.498,-476.233 267.93,-467.136 258.011,-470.86 262.498,-476.233"/>
<text text-anchor="middle" x="252.418" y="-494.501" font-family="Times,serif" font-size="14.00">1.0</text>
</g>
<!-- ICRS -->
<g id="node5" class="node"><title>ICRS</title>
<ellipse fill="none" stroke="black" cx="186.418" cy="-445.831" rx="33.4697" ry="26.7407"/>
<text text-anchor="middle" x="186.418" y="-449.631" font-family="Times,serif" font-size="14.00">ICRS</text>
<text text-anchor="middle" x="186.418" y="-434.631" font-family="Times,serif" font-size="14.00">`icrs`</text>
</g>
<!-- FK5&#45;&gt;ICRS -->
<g id="edge13" class="edge"><title>FK5&#45;&gt;ICRS</title>
<path fill="none" stroke="black" d="M192.362,-530.546C185.976,-523.45 179.769,-514.872 176.418,-505.701 173.641,-498.101 173.487,-489.663 174.614,-481.605"/>
<polygon fill="black" stroke="black" points="178.067,-482.189 176.627,-471.693 171.207,-480.796 178.067,-482.189"/>
<text text-anchor="middle" x="185.418" y="-494.501" font-family="Times,serif" font-size="14.00">1.0</text>
</g>
<!-- Galactic&#45;&gt;FK4NoETerms -->
<g id="edge15" class="edge"><title>Galactic&#45;&gt;FK4NoETerms</title>
<path fill="none" stroke="black" d="M310.899,-471.823C323.546,-498.816 338.442,-542.627 323.418,-577.441 313.545,-600.319 292.699,-617.646 272.006,-630.003"/>
<polygon fill="black" stroke="black" points="270.16,-627.026 263.18,-634.997 273.607,-633.119 270.16,-627.026"/>
<text text-anchor="middle" x="338.418" y="-546.871" font-family="Times,serif" font-size="14.00">1.0</text>
</g>
<!-- Galactic&#45;&gt;FK5 -->
<g id="edge16" class="edge"><title>Galactic&#45;&gt;FK5</title>
<path fill="none" stroke="black" d="M284.163,-471.93C277.912,-482.787 269.954,-495.349 261.418,-505.701 256.065,-512.192 249.76,-518.622 243.511,-524.477"/>
<polygon fill="black" stroke="black" points="240.767,-522.24 235.703,-531.545 245.465,-527.429 240.767,-522.24"/>
<text text-anchor="middle" x="282.418" y="-494.501" font-family="Times,serif" font-size="14.00">1.0</text>
</g>
<!-- ICRS&#45;&gt;FK5 -->
<g id="edge7" class="edge"><title>ICRS&#45;&gt;FK5</title>
<path fill="none" stroke="black" d="M193.109,-472.291C196.454,-485.02 200.555,-500.624 204.193,-514.469"/>
<polygon fill="black" stroke="black" points="200.817,-515.392 206.744,-524.174 207.587,-513.613 200.817,-515.392"/>
<text text-anchor="middle" x="211.418" y="-494.501" font-family="Times,serif" font-size="14.00">1.0</text>
</g>
<!-- Galactocentric -->
<g id="node6" class="node"><title>Galactocentric</title>
<ellipse fill="none" stroke="black" cx="71.4178" cy="-341.09" rx="71.3357" ry="26.7407"/>
<text text-anchor="middle" x="71.4178" y="-344.89" font-family="Times,serif" font-size="14.00">Galactocentric</text>
<text text-anchor="middle" x="71.4178" y="-329.89" font-family="Times,serif" font-size="14.00">`galactocentric`</text>
</g>
<!-- ICRS&#45;&gt;Galactocentric -->
<g id="edge5" class="edge"><title>ICRS&#45;&gt;Galactocentric</title>
<path fill="none" stroke="black" d="M154.712,-437.197C134.104,-430.723 108.068,-419.459 91.4178,-400.96 85.5529,-394.444 81.3963,-386.137 78.4544,-377.831"/>
<polygon fill="black" stroke="black" points="81.7816,-376.743 75.5292,-368.189 75.0831,-378.775 81.7816,-376.743"/>
<text text-anchor="middle" x="100.418" y="-389.76" font-family="Times,serif" font-size="14.00">1.0</text>
</g>
<!-- CIRS -->
<g id="node7" class="node"><title>CIRS</title>
<ellipse fill="none" stroke="black" cx="239.418" cy="-131.61" rx="33.4697" ry="26.7407"/>
<text text-anchor="middle" x="239.418" y="-135.41" font-family="Times,serif" font-size="14.00">CIRS</text>
<text text-anchor="middle" x="239.418" y="-120.41" font-family="Times,serif" font-size="14.00">`cirs`</text>
</g>
<!-- ICRS&#45;&gt;CIRS -->
<g id="edge6" class="edge"><title>ICRS&#45;&gt;CIRS</title>
<path fill="none" stroke="black" d="M182.966,-419.078C177.984,-375.052 171.596,-282.953 193.418,-209.48 198.285,-193.092 207.454,-176.605 216.332,-163.126"/>
<polygon fill="black" stroke="black" points="219.316,-164.962 222.077,-154.733 213.54,-161.008 219.316,-164.962"/>
<text text-anchor="middle" x="189.418" y="-285.02" font-family="Times,serif" font-size="14.00">1.0</text>
</g>
<!-- GCRS -->
<g id="node8" class="node"><title>GCRS</title>
<ellipse fill="none" stroke="black" cx="235.418" cy="-341.09" rx="36.5405" ry="26.7407"/>
<text text-anchor="middle" x="235.418" y="-344.89" font-family="Times,serif" font-size="14.00">GCRS</text>
<text text-anchor="middle" x="235.418" y="-329.89" font-family="Times,serif" font-size="14.00">`gcrs`</text>
</g>
<!-- ICRS&#45;&gt;GCRS -->
<g id="edge8" class="edge"><title>ICRS&#45;&gt;GCRS</title>
<path fill="none" stroke="black" d="M192.333,-419.236C195.264,-408.645 199.288,-396.42 204.418,-385.96 206.459,-381.797 208.877,-377.597 211.448,-373.53"/>
<polygon fill="black" stroke="black" points="214.568,-375.162 217.235,-364.908 208.756,-371.261 214.568,-375.162"/>
<text text-anchor="middle" x="213.418" y="-389.76" font-family="Times,serif" font-size="14.00">1.0</text>
</g>
<!-- Galactocentric&#45;&gt;ICRS -->
<g id="edge22" class="edge"><title>Galactocentric&#45;&gt;ICRS</title>
<path fill="none" stroke="black" d="M98.5074,-366.292C115.964,-381.887 138.67,-402.173 156.633,-418.221"/>
<polygon fill="black" stroke="black" points="154.727,-421.212 164.516,-425.264 159.391,-415.992 154.727,-421.212"/>
<text text-anchor="middle" x="145.418" y="-389.76" font-family="Times,serif" font-size="14.00">1.0</text>
</g>
<!-- CIRS&#45;&gt;ICRS -->
<g id="edge24" class="edge"><title>CIRS&#45;&gt;ICRS</title>
<path fill="none" stroke="black" d="M263.882,-150.072C281.172,-163.976 303.047,-185.105 313.418,-209.48 327.134,-241.718 327.652,-350.089 317.418,-367.96 312.042,-377.348 259.734,-406.284 222.869,-425.851"/>
<polygon fill="black" stroke="black" points="221.074,-422.841 213.867,-430.607 224.344,-429.03 221.074,-422.841"/>
<text text-anchor="middle" x="333.418" y="-285.02" font-family="Times,serif" font-size="14.00">1.0</text>
</g>
<!-- CIRS&#45;&gt;CIRS -->
<g id="edge23" class="edge"><title>CIRS&#45;&gt;CIRS</title>
<path fill="none" stroke="black" d="M270.432,-141.351C281.571,-141.56 290.652,-138.313 290.652,-131.61 290.652,-127.107 286.552,-124.163 280.484,-122.78"/>
<polygon fill="black" stroke="black" points="280.707,-119.286 270.432,-121.87 280.076,-126.257 280.707,-119.286"/>
<text text-anchor="middle" x="299.652" y="-127.91" font-family="Times,serif" font-size="14.00">1.0</text>
</g>
<!-- AltAz -->
<g id="node9" class="node"><title>AltAz</title>
<ellipse fill="none" stroke="black" cx="239.418" cy="-26.8701" rx="36.125" ry="26.7407"/>
<text text-anchor="middle" x="239.418" y="-30.6701" font-family="Times,serif" font-size="14.00">AltAz</text>
<text text-anchor="middle" x="239.418" y="-15.6701" font-family="Times,serif" font-size="14.00">`altaz`</text>
</g>
<!-- CIRS&#45;&gt;AltAz -->
<g id="edge25" class="edge"><title>CIRS&#45;&gt;AltAz</title>
<path fill="none" stroke="black" d="M225.202,-107.242C222.002,-100.822 219.066,-93.7048 217.418,-86.7401 215.377,-78.1167 216.845,-69.0395 219.802,-60.6645"/>
<polygon fill="black" stroke="black" points="223.124,-61.7956 223.835,-51.2246 216.687,-59.0454 223.124,-61.7956"/>
<text text-anchor="middle" x="226.418" y="-75.5401" font-family="Times,serif" font-size="14.00">1.0</text>
</g>
<!-- ITRS -->
<g id="node10" class="node"><title>ITRS</title>
<ellipse fill="none" stroke="black" cx="235.418" cy="-236.35" rx="32.5538" ry="26.7407"/>
<text text-anchor="middle" x="235.418" y="-240.15" font-family="Times,serif" font-size="14.00">ITRS</text>
<text text-anchor="middle" x="235.418" y="-225.15" font-family="Times,serif" font-size="14.00">`itrs`</text>
</g>
<!-- CIRS&#45;&gt;ITRS -->
<g id="edge26" class="edge"><title>CIRS&#45;&gt;ITRS</title>
<path fill="none" stroke="black" d="M239.262,-158.701C239.126,-168.926 238.875,-180.757 238.418,-191.48 238.31,-194.016 238.179,-196.634 238.033,-199.268"/>
<polygon fill="black" stroke="black" points="234.532,-199.186 237.415,-209.381 241.519,-199.614 234.532,-199.186"/>
<text text-anchor="middle" x="248.418" y="-180.28" font-family="Times,serif" font-size="14.00">1.0</text>
</g>
<!-- GCRS&#45;&gt;ICRS -->
<g id="edge27" class="edge"><title>GCRS&#45;&gt;ICRS</title>
<path fill="none" stroke="black" d="M232.413,-367.88C230.5,-378.503 227.403,-390.699 222.418,-400.96 219.825,-406.297 216.46,-411.55 212.83,-416.464"/>
<polygon fill="black" stroke="black" points="210.032,-414.359 206.559,-424.369 215.516,-418.71 210.032,-414.359"/>
<text text-anchor="middle" x="237.418" y="-389.76" font-family="Times,serif" font-size="14.00">1.0</text>
</g>
<!-- GCRS&#45;&gt;GCRS -->
<g id="edge29" class="edge"><title>GCRS&#45;&gt;GCRS</title>
<path fill="none" stroke="black" d="M269.916,-350.84C281.201,-350.789 290.187,-347.54 290.187,-341.09 290.187,-336.757 286.131,-333.869 280.046,-332.424"/>
<polygon fill="black" stroke="black" points="280.231,-328.924 269.916,-331.341 279.487,-335.884 280.231,-328.924"/>
<text text-anchor="middle" x="299.187" y="-337.39" font-family="Times,serif" font-size="14.00">1.0</text>
</g>
<!-- GCRS&#45;&gt;ITRS -->
<g id="edge28" class="edge"><title>GCRS&#45;&gt;ITRS</title>
<path fill="none" stroke="black" d="M224.395,-315.368C220.972,-304.917 218.533,-292.561 220.418,-281.22 220.929,-278.143 221.63,-274.993 222.45,-271.862"/>
<polygon fill="black" stroke="black" points="225.876,-272.622 225.394,-262.038 219.17,-270.612 225.876,-272.622"/>
<text text-anchor="middle" x="232.918" y="-285.02" font-family="Times,serif" font-size="14.00">1.01</text>
</g>
<!-- AltAz&#45;&gt;CIRS -->
<g id="edge9" class="edge"><title>AltAz&#45;&gt;CIRS</title>
<path fill="none" stroke="black" d="M239.418,-53.7874C239.418,-66.0756 239.418,-80.964 239.418,-94.3498"/>
<polygon fill="black" stroke="black" points="235.918,-94.6845 239.418,-104.685 242.918,-94.6845 235.918,-94.6845"/>
<text text-anchor="middle" x="248.418" y="-75.5401" font-family="Times,serif" font-size="14.00">1.0</text>
</g>
<!-- AltAz&#45;&gt;AltAz -->
<g id="edge10" class="edge"><title>AltAz&#45;&gt;AltAz</title>
<path fill="none" stroke="black" d="M273.207,-36.6201C284.47,-36.6201 293.48,-33.3701 293.48,-26.8701 293.48,-22.5029 289.413,-19.6028 283.328,-18.1698"/>
<polygon fill="black" stroke="black" points="283.515,-14.6705 273.207,-17.1201 282.792,-21.6332 283.515,-14.6705"/>
<text text-anchor="middle" x="302.48" y="-23.1701" font-family="Times,serif" font-size="14.00">1.0</text>
</g>
<!-- ITRS&#45;&gt;CIRS -->
<g id="edge17" class="edge"><title>ITRS&#45;&gt;CIRS</title>
<path fill="none" stroke="black" d="M224.146,-211.119C220.546,-200.534 218.042,-187.944 220.418,-176.48 221.13,-173.044 222.125,-169.546 223.29,-166.101"/>
<polygon fill="black" stroke="black" points="226.612,-167.214 226.931,-156.624 220.078,-164.704 226.612,-167.214"/>
<text text-anchor="middle" x="229.418" y="-180.28" font-family="Times,serif" font-size="14.00">1.0</text>
</g>
<!-- ITRS&#45;&gt;GCRS -->
<g id="edge19" class="edge"><title>ITRS&#45;&gt;GCRS</title>
<path fill="none" stroke="black" d="M244.919,-262.547C246.784,-268.579 248.458,-275.059 249.418,-281.22 250.631,-289.015 249.928,-297.303 248.329,-305.123"/>
<polygon fill="black" stroke="black" points="244.876,-304.499 245.795,-315.054 251.659,-306.229 244.876,-304.499"/>
<text text-anchor="middle" x="262.918" y="-285.02" font-family="Times,serif" font-size="14.00">1.01</text>
</g>
<!-- ITRS&#45;&gt;ITRS -->
<g id="edge18" class="edge"><title>ITRS&#45;&gt;ITRS</title>
<path fill="none" stroke="black" d="M265.754,-246.085C276.853,-246.349 285.945,-243.104 285.945,-236.35 285.945,-231.813 281.84,-228.859 275.781,-227.489"/>
<polygon fill="black" stroke="black" points="276.02,-223.997 265.754,-226.615 275.413,-230.97 276.02,-223.997"/>
<text text-anchor="middle" x="294.945" y="-232.65" font-family="Times,serif" font-size="14.00">1.0</text>
</g>
</g>
</svg>
