<?xml version="1.0" encoding="UTF-8" standalone="no"?>
<!DOCTYPE svg PUBLIC "-//W3C//DTD SVG 1.1//EN"
 "http://www.w3.org/Graphics/SVG/1.1/DTD/svg11.dtd">
<!-- Generated by graphviz version 2.38.0 (20140413.2041)
 -->
<!-- Title: inheritancecc8b866a55 Pages: 1 -->
<svg width="576pt" height="211pt"
 viewBox="0.00 0.00 576.00 210.54" xmlns="http://www.w3.org/2000/svg" xmlns:xlink="http://www.w3.org/1999/xlink">
<g id="graph0" class="graph" transform="scale(0.993103 0.993103) rotate(0) translate(4 208)">
<title>inheritancecc8b866a55</title>
<polygon fill="white" stroke="none" points="-4,4 -4,-208 576,-208 576,4 -4,4"/>
<!-- Chebyshev1D -->
<g id="node1" class="node"><title>Chebyshev1D</title>
<g id="a_node1"><a xlink:href="../api/astropy.modeling.polynomial.Chebyshev1D.html#astropy.modeling.polynomial.Chebyshev1D" xlink:title="1D Chebyshev polynomial of the 1st kind.">
<polygon fill="none" stroke="black" stroke-width="0.5" points="572,-204 489,-204 489,-185 572,-185 572,-204"/>
<text text-anchor="middle" x="530.5" y="-192" font-family="Vera Sans, DejaVu Sans, Liberation Sans, Arial, Helvetica, sans" font-size="10.00">Chebyshev1D</text>
</a>
</g>
</g>
<!-- PolynomialModel -->
<g id="node2" class="node"><title>PolynomialModel</title>
<g id="a_node2"><a xlink:href="../api/astropy.modeling.polynomial.PolynomialModel.html#astropy.modeling.polynomial.PolynomialModel" xlink:title="Base class for polynomial models.">
<polygon fill="none" stroke="black" stroke-width="0.5" points="442,-130 345,-130 345,-111 442,-111 442,-130"/>
<text text-anchor="middle" x="393.5" y="-118" font-family="Vera Sans, DejaVu Sans, Liberation Sans, Arial, Helvetica, sans" font-size="10.00">PolynomialModel</text>
</a>
</g>
</g>
<!-- PolynomialModel&#45;&gt;Chebyshev1D -->
<g id="edge1" class="edge"><title>PolynomialModel&#45;&gt;Chebyshev1D</title>
<path fill="none" stroke="black" stroke-width="0.5" d="M409.576,-130.178C427.973,-141.813 460.193,-161.627 489,-176.5 493.117,-178.626 497.538,-180.747 501.893,-182.749"/>
<polygon fill="black" stroke="black" stroke-width="0.5" points="501.297,-184.4 506.574,-184.869 502.741,-181.212 501.297,-184.4"/>
</g>
<!-- Legendre1D -->
<g id="node8" class="node"><title>Legendre1D</title>
<g id="a_node8"><a xlink:href="../api/astropy.modeling.polynomial.Legendre1D.html#astropy.modeling.polynomial.Legendre1D" xlink:title="1D Legendre polynomial.">
<polygon fill="none" stroke="black" stroke-width="0.5" points="568,-167 493,-167 493,-148 568,-148 568,-167"/>
<text text-anchor="middle" x="530.5" y="-155" font-family="Vera Sans, DejaVu Sans, Liberation Sans, Arial, Helvetica, sans" font-size="10.00">Legendre1D</text>
</a>
</g>
</g>
<!-- PolynomialModel&#45;&gt;Legendre1D -->
<g id="edge5" class="edge"><title>PolynomialModel&#45;&gt;Legendre1D</title>
<path fill="none" stroke="black" stroke-width="0.5" d="M429.266,-130.028C447.547,-135.039 470.055,-141.208 489.107,-146.429"/>
<polygon fill="black" stroke="black" stroke-width="0.5" points="489.098,-148.241 494.383,-147.875 490.023,-144.866 489.098,-148.241"/>
</g>
<!-- Polynomial1D -->
<g id="node11" class="node"><title>Polynomial1D</title>
<g id="a_node11"><a xlink:href="../api/astropy.modeling.polynomial.Polynomial1D.html#astropy.modeling.polynomial.Polynomial1D" xlink:title="1D Polynomial model.">
<polygon fill="none" stroke="black" stroke-width="0.5" points="571.5,-130 489.5,-130 489.5,-111 571.5,-111 571.5,-130"/>
<text text-anchor="middle" x="530.5" y="-118" font-family="Vera Sans, DejaVu Sans, Liberation Sans, Arial, Helvetica, sans" font-size="10.00">Polynomial1D</text>
</a>
</g>
</g>
<!-- PolynomialModel&#45;&gt;Polynomial1D -->
<g id="edge8" class="edge"><title>PolynomialModel&#45;&gt;Polynomial1D</title>
<path fill="none" stroke="black" stroke-width="0.5" d="M442.096,-120.5C455.767,-120.5 470.635,-120.5 484.166,-120.5"/>
<polygon fill="black" stroke="black" stroke-width="0.5" points="484.478,-122.25 489.478,-120.5 484.478,-118.75 484.478,-122.25"/>
</g>
<!-- Polynomial2D -->
<g id="node12" class="node"><title>Polynomial2D</title>
<g id="a_node12"><a xlink:href="../api/astropy.modeling.polynomial.Polynomial2D.html#astropy.modeling.polynomial.Polynomial2D" xlink:title="2D Polynomial &#160;model.">
<polygon fill="none" stroke="black" stroke-width="0.5" points="571.5,-93 489.5,-93 489.5,-74 571.5,-74 571.5,-93"/>
<text text-anchor="middle" x="530.5" y="-81" font-family="Vera Sans, DejaVu Sans, Liberation Sans, Arial, Helvetica, sans" font-size="10.00">Polynomial2D</text>
</a>
</g>
</g>
<!-- PolynomialModel&#45;&gt;Polynomial2D -->
<g id="edge9" class="edge"><title>PolynomialModel&#45;&gt;Polynomial2D</title>
<path fill="none" stroke="black" stroke-width="0.5" d="M429.266,-110.972C447.547,-105.961 470.055,-99.7924 489.107,-94.5707"/>
<polygon fill="black" stroke="black" stroke-width="0.5" points="490.023,-96.1342 494.383,-93.1247 489.098,-92.7587 490.023,-96.1342"/>
</g>
<!-- Chebyshev2D -->
<g id="node3" class="node"><title>Chebyshev2D</title>
<g id="a_node3"><a xlink:href="../api/astropy.modeling.polynomial.Chebyshev2D.html#astropy.modeling.polynomial.Chebyshev2D" xlink:title="2D Chebyshev polynomial of the 1st kind.">
<polygon fill="none" stroke="black" stroke-width="0.5" points="572,-56 489,-56 489,-37 572,-37 572,-56"/>
<text text-anchor="middle" x="530.5" y="-44" font-family="Vera Sans, DejaVu Sans, Liberation Sans, Arial, Helvetica, sans" font-size="10.00">Chebyshev2D</text>
</a>
</g>
</g>
<!-- OrthoPolynomialBase -->
<g id="node4" class="node"><title>OrthoPolynomialBase</title>
<g id="a_node4"><a xlink:href="../api/astropy.modeling.polynomial.OrthoPolynomialBase.html#astropy.modeling.polynomial.OrthoPolynomialBase" xlink:title="This is a base class for the 2D Chebyshev and Legendre models.">
<polygon fill="none" stroke="black" stroke-width="0.5" points="453,-56 334,-56 334,-37 453,-37 453,-56"/>
<text text-anchor="middle" x="393.5" y="-44" font-family="Vera Sans, DejaVu Sans, Liberation Sans, Arial, Helvetica, sans" font-size="10.00">OrthoPolynomialBase</text>
</a>
</g>
</g>
<!-- OrthoPolynomialBase&#45;&gt;Chebyshev2D -->
<g id="edge2" class="edge"><title>OrthoPolynomialBase&#45;&gt;Chebyshev2D</title>
<path fill="none" stroke="black" stroke-width="0.5" d="M453.32,-46.5C463.485,-46.5 473.918,-46.5 483.674,-46.5"/>
<polygon fill="black" stroke="black" stroke-width="0.5" points="483.709,-48.2501 488.709,-46.5 483.709,-44.7501 483.709,-48.2501"/>
</g>
<!-- Legendre2D -->
<g id="node9" class="node"><title>Legendre2D</title>
<g id="a_node9"><a xlink:href="../api/astropy.modeling.polynomial.Legendre2D.html#astropy.modeling.polynomial.Legendre2D" xlink:title="Legendre 2D polynomial.">
<polygon fill="none" stroke="black" stroke-width="0.5" points="568,-19 493,-19 493,-0 568,-0 568,-19"/>
<text text-anchor="middle" x="530.5" y="-7" font-family="Vera Sans, DejaVu Sans, Liberation Sans, Arial, Helvetica, sans" font-size="10.00">Legendre2D</text>
</a>
</g>
</g>
<!-- OrthoPolynomialBase&#45;&gt;Legendre2D -->
<g id="edge6" class="edge"><title>OrthoPolynomialBase&#45;&gt;Legendre2D</title>
<path fill="none" stroke="black" stroke-width="0.5" d="M429.266,-36.9716C447.547,-31.9612 470.055,-25.7924 489.107,-20.5707"/>
<polygon fill="black" stroke="black" stroke-width="0.5" points="490.023,-22.1342 494.383,-19.1247 489.098,-18.7587 490.023,-22.1342"/>
</g>
<!-- FittableModel -->
<g id="node5" class="node"><title>FittableModel</title>
<g id="a_node5"><a xlink:href="../api/astropy.modeling.FittableModel.html#astropy.modeling.FittableModel" xlink:title="Base class for models that can be fitted using the built&#45;in fitting">
<polygon fill="none" stroke="black" stroke-width="0.5" points="170,-93 90,-93 90,-74 170,-74 170,-93"/>
<text text-anchor="middle" x="130" y="-81" font-family="Vera Sans, DejaVu Sans, Liberation Sans, Arial, Helvetica, sans" font-size="10.00">FittableModel</text>
</a>
</g>
</g>
<!-- PolynomialBase -->
<g id="node10" class="node"><title>PolynomialBase</title>
<g id="a_node10"><a xlink:title="Base class for all polynomial&#45;like models with an arbitrary number of">
<polygon fill="none" stroke="black" stroke-width="0.5" points="298,-93 206,-93 206,-74 298,-74 298,-93"/>
<text text-anchor="middle" x="252" y="-81" font-family="Vera Sans, DejaVu Sans, Liberation Sans, Arial, Helvetica, sans" font-size="10.00">PolynomialBase</text>
</a>
</g>
</g>
<!-- FittableModel&#45;&gt;PolynomialBase -->
<g id="edge10" class="edge"><title>FittableModel&#45;&gt;PolynomialBase</title>
<path fill="none" stroke="black" stroke-width="0.5" d="M170.292,-83.5C179.955,-83.5 190.434,-83.5 200.542,-83.5"/>
<polygon fill="black" stroke="black" stroke-width="0.5" points="200.788,-85.2501 205.788,-83.5 200.788,-81.7501 200.788,-85.2501"/>
</g>
<!-- Model -->
<g id="node6" class="node"><title>Model</title>
<g id="a_node6"><a xlink:href="../api/astropy.modeling.Model.html#astropy.modeling.Model" xlink:title="Base class for all models.">
<polygon fill="none" stroke="black" stroke-width="0.5" points="54,-56 0,-56 0,-37 54,-37 54,-56"/>
<text text-anchor="middle" x="27" y="-44" font-family="Vera Sans, DejaVu Sans, Liberation Sans, Arial, Helvetica, sans" font-size="10.00">Model</text>
</a>
</g>
</g>
<!-- Model&#45;&gt;FittableModel -->
<g id="edge3" class="edge"><title>Model&#45;&gt;FittableModel</title>
<path fill="none" stroke="black" stroke-width="0.5" d="M54.01,-56.0284C67.3362,-60.9103 83.6646,-66.892 97.6786,-72.0258"/>
<polygon fill="black" stroke="black" stroke-width="0.5" points="97.4302,-73.7985 102.727,-73.8753 98.6342,-70.5121 97.4302,-73.7985"/>
</g>
<!-- InverseSIP -->
<g id="node7" class="node"><title>InverseSIP</title>
<g id="a_node7"><a xlink:href="../api/astropy.modeling.polynomial.InverseSIP.html#astropy.modeling.polynomial.InverseSIP" xlink:title="Inverse Simple Imaging Polynomial">
<polygon fill="none" stroke="black" stroke-width="0.5" points="163,-56 97,-56 97,-37 163,-37 163,-56"/>
<text text-anchor="middle" x="130" y="-44" font-family="Vera Sans, DejaVu Sans, Liberation Sans, Arial, Helvetica, sans" font-size="10.00">InverseSIP</text>
</a>
</g>
</g>
<!-- Model&#45;&gt;InverseSIP -->
<g id="edge4" class="edge"><title>Model&#45;&gt;InverseSIP</title>
<path fill="none" stroke="black" stroke-width="0.5" d="M54.01,-46.5C65.4659,-46.5 79.1403,-46.5 91.6559,-46.5"/>
<polygon fill="black" stroke="black" stroke-width="0.5" points="91.9389,-48.2501 96.9389,-46.5 91.9389,-44.7501 91.9389,-48.2501"/>
</g>
<!-- SIP -->
<g id="node13" class="node"><title>SIP</title>
<g id="a_node13"><a xlink:href="../api/astropy.modeling.polynomial.SIP.html#astropy.modeling.polynomial.SIP" xlink:title="Simple Imaging Polynomial (SIP) model.">
<polygon fill="none" stroke="black" stroke-width="0.5" points="157,-19 103,-19 103,-0 157,-0 157,-19"/>
<text text-anchor="middle" x="130" y="-7" font-family="Vera Sans, DejaVu Sans, Liberation Sans, Arial, Helvetica, sans" font-size="10.00">SIP</text>
</a>
</g>
</g>
<!-- Model&#45;&gt;SIP -->
<g id="edge12" class="edge"><title>Model&#45;&gt;SIP</title>
<path fill="none" stroke="black" stroke-width="0.5" d="M54.01,-36.9716C67.3362,-32.0897 83.6646,-26.108 97.6786,-20.9742"/>
<polygon fill="black" stroke="black" stroke-width="0.5" points="98.6342,-22.4879 102.727,-19.1247 97.4302,-19.2015 98.6342,-22.4879"/>
</g>
<!-- PolynomialBase&#45;&gt;PolynomialModel -->
<g id="edge11" class="edge"><title>PolynomialBase&#45;&gt;PolynomialModel</title>
<path fill="none" stroke="black" stroke-width="0.5" d="M288.925,-93.0284C307.977,-98.0816 331.471,-104.313 351.265,-109.563"/>
<polygon fill="black" stroke="black" stroke-width="0.5" points="350.931,-111.285 356.212,-110.875 351.828,-107.902 350.931,-111.285"/>
</g>
<!-- PolynomialBase&#45;&gt;OrthoPolynomialBase -->
<g id="edge7" class="edge"><title>PolynomialBase&#45;&gt;OrthoPolynomialBase</title>
<path fill="none" stroke="black" stroke-width="0.5" d="M288.925,-73.9716C307.977,-68.9184 331.471,-62.6869 351.265,-57.437"/>
<polygon fill="black" stroke="black" stroke-width="0.5" points="351.828,-59.0982 356.212,-56.1247 350.931,-55.7151 351.828,-59.0982"/>
</g>
</g>
</svg>
