<?xml version="1.0" encoding="UTF-8" standalone="no"?>
<!DOCTYPE svg PUBLIC "-//W3C//DTD SVG 1.1//EN"
 "http://www.w3.org/Graphics/SVG/1.1/DTD/svg11.dtd">
<!-- Generated by graphviz version 2.38.0 (20140413.2041)
 -->
<!-- Title: inheritance8586cda724 Pages: 1 -->
<svg width="437pt" height="212pt"
 viewBox="0.00 0.00 437.00 212.00" xmlns="http://www.w3.org/2000/svg" xmlns:xlink="http://www.w3.org/1999/xlink">
<g id="graph0" class="graph" transform="scale(1 1) rotate(0) translate(4 208)">
<title>inheritance8586cda724</title>
<polygon fill="white" stroke="none" points="-4,4 -4,-208 433,-208 433,4 -4,4"/>
<!-- Fittable1DModel -->
<g id="node1" class="node"><title>Fittable1DModel</title>
<g id="a_node1"><a xlink:href="../api/astropy.modeling.Fittable1DModel.html#astropy.modeling.Fittable1DModel" xlink:title="Base class for one&#45;dimensional fittable models.">
<polygon fill="none" stroke="black" stroke-width="0.5" points="405,-130 312,-130 312,-111 405,-111 405,-130"/>
<text text-anchor="middle" x="358.5" y="-118" font-family="Vera Sans, DejaVu Sans, Liberation Sans, Arial, Helvetica, sans" font-size="10.00">Fittable1DModel</text>
</a>
</g>
</g>
<!-- FittableModel -->
<g id="node2" class="node"><title>FittableModel</title>
<g id="a_node2"><a xlink:href="../api/astropy.modeling.FittableModel.html#astropy.modeling.FittableModel" xlink:title="Base class for models that can be fitted using the built&#45;in fitting">
<polygon fill="none" stroke="black" stroke-width="0.5" points="241,-93 161,-93 161,-74 241,-74 241,-93"/>
<text text-anchor="middle" x="201" y="-81" font-family="Vera Sans, DejaVu Sans, Liberation Sans, Arial, Helvetica, sans" font-size="10.00">FittableModel</text>
</a>
</g>
</g>
<!-- FittableModel&#45;&gt;Fittable1DModel -->
<g id="edge1" class="edge"><title>FittableModel&#45;&gt;Fittable1DModel</title>
<path fill="none" stroke="black" stroke-width="0.5" d="M241.239,-92.8367C262.903,-97.9915 289.905,-104.416 312.431,-109.776"/>
<polygon fill="black" stroke="black" stroke-width="0.5" points="312.192,-111.518 317.461,-110.973 313.002,-108.113 312.192,-111.518"/>
</g>
<!-- Fittable2DModel -->
<g id="node3" class="node"><title>Fittable2DModel</title>
<g id="a_node3"><a xlink:href="../api/astropy.modeling.Fittable2DModel.html#astropy.modeling.Fittable2DModel" xlink:title="Base class for two&#45;dimensional fittable models.">
<polygon fill="none" stroke="black" stroke-width="0.5" points="405,-93 312,-93 312,-74 405,-74 405,-93"/>
<text text-anchor="middle" x="358.5" y="-81" font-family="Vera Sans, DejaVu Sans, Liberation Sans, Arial, Helvetica, sans" font-size="10.00">Fittable2DModel</text>
</a>
</g>
</g>
<!-- FittableModel&#45;&gt;Fittable2DModel -->
<g id="edge2" class="edge"><title>FittableModel&#45;&gt;Fittable2DModel</title>
<path fill="none" stroke="black" stroke-width="0.5" d="M241.239,-83.5C261.147,-83.5 285.56,-83.5 306.868,-83.5"/>
<polygon fill="black" stroke="black" stroke-width="0.5" points="306.928,-85.2501 311.928,-83.5 306.928,-81.7501 306.928,-85.2501"/>
</g>
<!-- Model -->
<g id="node4" class="node"><title>Model</title>
<g id="a_node4"><a xlink:href="../api/astropy.modeling.Model.html#astropy.modeling.Model" xlink:title="Base class for all models.">
<polygon fill="none" stroke="black" stroke-width="0.5" points="84,-56 30,-56 30,-37 84,-37 84,-56"/>
<text text-anchor="middle" x="57" y="-44" font-family="Vera Sans, DejaVu Sans, Liberation Sans, Arial, Helvetica, sans" font-size="10.00">Model</text>
</a>
</g>
</g>
<!-- Model&#45;&gt;FittableModel -->
<g id="edge3" class="edge"><title>Model&#45;&gt;FittableModel</title>
<path fill="none" stroke="black" stroke-width="0.5" d="M84.045,-53.2864C104.825,-58.701 134.334,-66.3898 158.382,-72.6559"/>
<polygon fill="black" stroke="black" stroke-width="0.5" points="158.146,-74.4027 163.426,-73.9701 159.029,-71.0158 158.146,-74.4027"/>
</g>
<!-- _CompositeModel -->
<g id="node11" class="node"><title>_CompositeModel</title>
<g id="a_node11"><a xlink:title="Base class for all composite models.">
<polygon fill="none" stroke="black" stroke-width="0.5" points="252,-56 150,-56 150,-37 252,-37 252,-56"/>
<text text-anchor="middle" x="201" y="-44" font-family="Vera Sans, DejaVu Sans, Liberation Sans, Arial, Helvetica, sans" font-size="10.00">_CompositeModel</text>
</a>
</g>
</g>
<!-- Model&#45;&gt;_CompositeModel -->
<g id="edge7" class="edge"><title>Model&#45;&gt;_CompositeModel</title>
<path fill="none" stroke="black" stroke-width="0.5" d="M84.045,-46.5C101.022,-46.5 123.824,-46.5 144.714,-46.5"/>
<polygon fill="black" stroke="black" stroke-width="0.5" points="144.98,-48.2501 149.98,-46.5 144.98,-44.7501 144.98,-48.2501"/>
</g>
<!-- InputParameterError -->
<g id="node5" class="node"><title>InputParameterError</title>
<g id="a_node5"><a xlink:href="../api/astropy.modeling.InputParameterError.html#astropy.modeling.InputParameterError" xlink:title="Used for incorrect input parameter values and definitions.">
<polygon fill="none" stroke="black" stroke-width="0.5" points="114,-93 0,-93 0,-74 114,-74 114,-93"/>
<text text-anchor="middle" x="57" y="-81" font-family="Vera Sans, DejaVu Sans, Liberation Sans, Arial, Helvetica, sans" font-size="10.00">InputParameterError</text>
</a>
</g>
</g>
<!-- LabeledInput -->
<g id="node6" class="node"><title>LabeledInput</title>
<g id="a_node6"><a xlink:href="../api/astropy.modeling.LabeledInput.html#astropy.modeling.LabeledInput" xlink:title=".. deprecated:: 1.0">
<polygon fill="none" stroke="black" stroke-width="0.5" points="240,-130 162,-130 162,-111 240,-111 240,-130"/>
<text text-anchor="middle" x="201" y="-118" font-family="Vera Sans, DejaVu Sans, Liberation Sans, Arial, Helvetica, sans" font-size="10.00">LabeledInput</text>
</a>
</g>
</g>
<!-- OrderedDict -->
<g id="node7" class="node"><title>OrderedDict</title>
<g id="a_node7"><a xlink:title="Dictionary that remembers insertion order">
<polygon fill="none" stroke="black" stroke-width="0.5" points="94,-130 20,-130 20,-111 94,-111 94,-130"/>
<text text-anchor="middle" x="57" y="-118" font-family="Vera Sans, DejaVu Sans, Liberation Sans, Arial, Helvetica, sans" font-size="10.00">OrderedDict</text>
</a>
</g>
</g>
<!-- OrderedDict&#45;&gt;LabeledInput -->
<g id="edge4" class="edge"><title>OrderedDict&#45;&gt;LabeledInput</title>
<path fill="none" stroke="black" stroke-width="0.5" d="M94.2,-120.5C113.289,-120.5 136.837,-120.5 156.868,-120.5"/>
<polygon fill="black" stroke="black" stroke-width="0.5" points="156.88,-122.25 161.88,-120.5 156.879,-118.75 156.88,-122.25"/>
</g>
<!-- ModelDefinitionError -->
<g id="node8" class="node"><title>ModelDefinitionError</title>
<g id="a_node8"><a xlink:href="../api/astropy.modeling.ModelDefinitionError.html#astropy.modeling.ModelDefinitionError" xlink:title="Used for incorrect models definitions">
<polygon fill="none" stroke="black" stroke-width="0.5" points="113.5,-167 0.5,-167 0.5,-148 113.5,-148 113.5,-167"/>
<text text-anchor="middle" x="57" y="-155" font-family="Vera Sans, DejaVu Sans, Liberation Sans, Arial, Helvetica, sans" font-size="10.00">ModelDefinitionError</text>
</a>
</g>
</g>
<!-- Parameter -->
<g id="node9" class="node"><title>Parameter</title>
<g id="a_node9"><a xlink:href="../api/astropy.modeling.Parameter.html#astropy.modeling.Parameter" xlink:title="Wraps individual parameters.">
<polygon fill="none" stroke="black" stroke-width="0.5" points="90.5,-204 23.5,-204 23.5,-185 90.5,-185 90.5,-204"/>
<text text-anchor="middle" x="57" y="-192" font-family="Vera Sans, DejaVu Sans, Liberation Sans, Arial, Helvetica, sans" font-size="10.00">Parameter</text>
</a>
</g>
</g>
<!-- SerialCompositeModel -->
<g id="node10" class="node"><title>SerialCompositeModel</title>
<g id="a_node10"><a xlink:href="../api/astropy.modeling.SerialCompositeModel.html#astropy.modeling.SerialCompositeModel" xlink:title=".. deprecated:: 1.0">
<polygon fill="none" stroke="black" stroke-width="0.5" points="420.5,-56 296.5,-56 296.5,-37 420.5,-37 420.5,-56"/>
<text text-anchor="middle" x="358.5" y="-44" font-family="Vera Sans, DejaVu Sans, Liberation Sans, Arial, Helvetica, sans" font-size="10.00">SerialCompositeModel</text>
</a>
</g>
</g>
<!-- _CompositeModel&#45;&gt;SerialCompositeModel -->
<g id="edge5" class="edge"><title>_CompositeModel&#45;&gt;SerialCompositeModel</title>
<path fill="none" stroke="black" stroke-width="0.5" d="M252.057,-46.5C264.52,-46.5 278.074,-46.5 291.185,-46.5"/>
<polygon fill="black" stroke="black" stroke-width="0.5" points="291.379,-48.2501 296.379,-46.5 291.379,-44.7501 291.379,-48.2501"/>
</g>
<!-- SummedCompositeModel -->
<g id="node12" class="node"><title>SummedCompositeModel</title>
<g id="a_node12"><a xlink:href="../api/astropy.modeling.SummedCompositeModel.html#astropy.modeling.SummedCompositeModel" xlink:title=".. deprecated:: 1.0">
<polygon fill="none" stroke="black" stroke-width="0.5" points="429,-19 288,-19 288,-0 429,-0 429,-19"/>
<text text-anchor="middle" x="358.5" y="-7" font-family="Vera Sans, DejaVu Sans, Liberation Sans, Arial, Helvetica, sans" font-size="10.00">SummedCompositeModel</text>
</a>
</g>
</g>
<!-- _CompositeModel&#45;&gt;SummedCompositeModel -->
<g id="edge6" class="edge"><title>_CompositeModel&#45;&gt;SummedCompositeModel</title>
<path fill="none" stroke="black" stroke-width="0.5" d="M242.045,-36.9716C263.546,-31.8557 290.122,-25.532 312.355,-20.2419"/>
<polygon fill="black" stroke="black" stroke-width="0.5" points="312.862,-21.9203 317.321,-19.0604 312.051,-18.5154 312.862,-21.9203"/>
</g>
</g>
</svg>
