<?xml version="1.0" encoding="UTF-8" standalone="no"?>
<!DOCTYPE svg PUBLIC "-//W3C//DTD SVG 1.1//EN"
 "http://www.w3.org/Graphics/SVG/1.1/DTD/svg11.dtd">
<!-- Generated by graphviz version 2.38.0 (20140413.2041)
 -->
<!-- Title: inheritance79e8321c3f Pages: 1 -->
<svg width="478pt" height="582pt"
 viewBox="0.00 0.00 478.00 582.00" xmlns="http://www.w3.org/2000/svg" xmlns:xlink="http://www.w3.org/1999/xlink">
<g id="graph0" class="graph" transform="scale(1 1) rotate(0) translate(4 578)">
<title>inheritance79e8321c3f</title>
<polygon fill="white" stroke="none" points="-4,4 -4,-578 474,-578 474,4 -4,4"/>
<!-- AffineTransformation2D -->
<g id="node1" class="node"><title>AffineTransformation2D</title>
<g id="a_node1"><a xlink:href="../api/astropy.modeling.projections.AffineTransformation2D.html#astropy.modeling.projections.AffineTransformation2D" xlink:title="Perform an affine transformation in 2 dimensions.">
<polygon fill="none" stroke="black" stroke-width="0.5" points="218,-333 90,-333 90,-314 218,-314 218,-333"/>
<text text-anchor="middle" x="154" y="-321" font-family="Vera Sans, DejaVu Sans, Liberation Sans, Arial, Helvetica, sans" font-size="10.00">AffineTransformation2D</text>
</a>
</g>
</g>
<!-- Model -->
<g id="node2" class="node"><title>Model</title>
<g id="a_node2"><a xlink:href="../api/astropy.modeling.Model.html#astropy.modeling.Model" xlink:title="Base class for all models.">
<polygon fill="none" stroke="black" stroke-width="0.5" points="54,-314 0,-314 0,-295 54,-295 54,-314"/>
<text text-anchor="middle" x="27" y="-302" font-family="Vera Sans, DejaVu Sans, Liberation Sans, Arial, Helvetica, sans" font-size="10.00">Model</text>
</a>
</g>
</g>
<!-- Model&#45;&gt;AffineTransformation2D -->
<g id="edge1" class="edge"><title>Model&#45;&gt;AffineTransformation2D</title>
<path fill="none" stroke="black" stroke-width="0.5" d="M54.2041,-308.483C63.3922,-309.88 74.1819,-311.52 85.1928,-313.193"/>
<polygon fill="black" stroke="black" stroke-width="0.5" points="85.0563,-314.943 90.2625,-313.964 85.5823,-311.482 85.0563,-314.943"/>
</g>
<!-- Projection -->
<g id="node4" class="node"><title>Projection</title>
<g id="a_node4"><a xlink:href="../api/astropy.modeling.projections.Projection.html#astropy.modeling.projections.Projection" xlink:title="Base class for all sky projections.">
<polygon fill="none" stroke="black" stroke-width="0.5" points="186,-296 122,-296 122,-277 186,-277 186,-296"/>
<text text-anchor="middle" x="154" y="-284" font-family="Vera Sans, DejaVu Sans, Liberation Sans, Arial, Helvetica, sans" font-size="10.00">Projection</text>
</a>
</g>
</g>
<!-- Model&#45;&gt;Projection -->
<g id="edge20" class="edge"><title>Model&#45;&gt;Projection</title>
<path fill="none" stroke="black" stroke-width="0.5" d="M54.2041,-300.727C72.4192,-298.104 96.9288,-294.574 116.978,-291.687"/>
<polygon fill="black" stroke="black" stroke-width="0.5" points="117.274,-293.413 121.973,-290.968 116.775,-289.948 117.274,-293.413"/>
</g>
<!-- Cylindrical -->
<g id="node3" class="node"><title>Cylindrical</title>
<g id="a_node3"><a xlink:href="../api/astropy.modeling.projections.Cylindrical.html#astropy.modeling.projections.Cylindrical" xlink:title="Base class for Cylindrical projections.">
<polygon fill="none" stroke="black" stroke-width="0.5" points="337,-278 272,-278 272,-259 337,-259 337,-278"/>
<text text-anchor="middle" x="304.5" y="-266" font-family="Vera Sans, DejaVu Sans, Liberation Sans, Arial, Helvetica, sans" font-size="10.00">Cylindrical</text>
</a>
</g>
</g>
<!-- Pix2Sky_CAR -->
<g id="node8" class="node"><title>Pix2Sky_CAR</title>
<g id="a_node8"><a xlink:href="../api/astropy.modeling.projections.Pix2Sky_CAR.html#astropy.modeling.projections.Pix2Sky_CAR" xlink:title="CAR: Plate carrée projection &#45; pixel to sky.">
<polygon fill="none" stroke="black" stroke-width="0.5" points="469.5,-352 391.5,-352 391.5,-333 469.5,-333 469.5,-352"/>
<text text-anchor="middle" x="430.5" y="-340" font-family="Vera Sans, DejaVu Sans, Liberation Sans, Arial, Helvetica, sans" font-size="10.00">Pix2Sky_CAR</text>
</a>
</g>
</g>
<!-- Cylindrical&#45;&gt;Pix2Sky_CAR -->
<g id="edge7" class="edge"><title>Cylindrical&#45;&gt;Pix2Sky_CAR</title>
<path fill="none" stroke="black" stroke-width="0.5" d="M336.62,-278.077C342.954,-280.668 349.39,-283.802 355,-287.5 374.156,-300.127 372.303,-311.202 391,-324.5 394.059,-326.676 397.423,-328.697 400.849,-330.541"/>
<polygon fill="black" stroke="black" stroke-width="0.5" points="400.29,-332.22 405.538,-332.941 401.885,-329.105 400.29,-332.22"/>
</g>
<!-- Pix2Sky_CEA -->
<g id="node9" class="node"><title>Pix2Sky_CEA</title>
<g id="a_node9"><a xlink:href="../api/astropy.modeling.projections.Pix2Sky_CEA.html#astropy.modeling.projections.Pix2Sky_CEA" xlink:title="CEA : Cylindrical equal area projection &#45; pixel to sky.">
<polygon fill="none" stroke="black" stroke-width="0.5" points="469.5,-315 391.5,-315 391.5,-296 469.5,-296 469.5,-315"/>
<text text-anchor="middle" x="430.5" y="-303" font-family="Vera Sans, DejaVu Sans, Liberation Sans, Arial, Helvetica, sans" font-size="10.00">Pix2Sky_CEA</text>
</a>
</g>
</g>
<!-- Cylindrical&#45;&gt;Pix2Sky_CEA -->
<g id="edge9" class="edge"><title>Cylindrical&#45;&gt;Pix2Sky_CEA</title>
<path fill="none" stroke="black" stroke-width="0.5" d="M337.111,-277.932C354.033,-282.982 374.967,-289.228 392.627,-294.498"/>
<polygon fill="black" stroke="black" stroke-width="0.5" points="392.224,-296.203 397.515,-295.956 393.224,-292.85 392.224,-296.203"/>
</g>
<!-- Pix2Sky_CYP -->
<g id="node10" class="node"><title>Pix2Sky_CYP</title>
<g id="a_node10"><a xlink:href="../api/astropy.modeling.projections.Pix2Sky_CYP.html#astropy.modeling.projections.Pix2Sky_CYP" xlink:title="CYP : Cylindrical perspective &#45; pixel to sky.">
<polygon fill="none" stroke="black" stroke-width="0.5" points="469,-426 392,-426 392,-407 469,-407 469,-426"/>
<text text-anchor="middle" x="430.5" y="-414" font-family="Vera Sans, DejaVu Sans, Liberation Sans, Arial, Helvetica, sans" font-size="10.00">Pix2Sky_CYP</text>
</a>
</g>
</g>
<!-- Cylindrical&#45;&gt;Pix2Sky_CYP -->
<g id="edge11" class="edge"><title>Cylindrical&#45;&gt;Pix2Sky_CYP</title>
<path fill="none" stroke="black" stroke-width="0.5" d="M337.105,-275.834C343.701,-278.589 350.122,-282.357 355,-287.5 390.69,-325.129 356.664,-359.63 391,-398.5 392.832,-400.574 394.953,-402.426 397.24,-404.078"/>
<polygon fill="black" stroke="black" stroke-width="0.5" points="396.359,-405.592 401.507,-406.838 398.259,-402.653 396.359,-405.592"/>
</g>
<!-- Pix2Sky_MER -->
<g id="node11" class="node"><title>Pix2Sky_MER</title>
<g id="a_node11"><a xlink:href="../api/astropy.modeling.projections.Pix2Sky_MER.html#astropy.modeling.projections.Pix2Sky_MER" xlink:title="MER: Mercator &#45; pixel to sky.">
<polygon fill="none" stroke="black" stroke-width="0.5" points="470,-389 391,-389 391,-370 470,-370 470,-389"/>
<text text-anchor="middle" x="430.5" y="-377" font-family="Vera Sans, DejaVu Sans, Liberation Sans, Arial, Helvetica, sans" font-size="10.00">Pix2Sky_MER</text>
</a>
</g>
</g>
<!-- Cylindrical&#45;&gt;Pix2Sky_MER -->
<g id="edge13" class="edge"><title>Cylindrical&#45;&gt;Pix2Sky_MER</title>
<path fill="none" stroke="black" stroke-width="0.5" d="M337.114,-276.565C343.557,-279.27 349.912,-282.833 355,-287.5 381.953,-312.223 364.939,-335.838 391,-361.5 393.103,-363.571 395.489,-365.434 398.018,-367.104"/>
<polygon fill="black" stroke="black" stroke-width="0.5" points="397.505,-368.836 402.694,-369.904 399.303,-365.834 397.505,-368.836"/>
</g>
<!-- Sky2Pix_CAR -->
<g id="node17" class="node"><title>Sky2Pix_CAR</title>
<g id="a_node17"><a xlink:href="../api/astropy.modeling.projections.Sky2Pix_CAR.html#astropy.modeling.projections.Sky2Pix_CAR" xlink:title="CAR: Plate carrée projection &#45; sky to pixel.">
<polygon fill="none" stroke="black" stroke-width="0.5" points="469.5,-56 391.5,-56 391.5,-37 469.5,-37 469.5,-56"/>
<text text-anchor="middle" x="430.5" y="-44" font-family="Vera Sans, DejaVu Sans, Liberation Sans, Arial, Helvetica, sans" font-size="10.00">Sky2Pix_CAR</text>
</a>
</g>
</g>
<!-- Cylindrical&#45;&gt;Sky2Pix_CAR -->
<g id="edge25" class="edge"><title>Cylindrical&#45;&gt;Sky2Pix_CAR</title>
<path fill="none" stroke="black" stroke-width="0.5" d="M311.455,-258.854C321.429,-242.413 341.72,-207.709 355,-176.5 375.472,-128.389 356.436,-103.732 391,-64.5 392.829,-62.4239 394.948,-60.5698 397.234,-58.9171"/>
<polygon fill="black" stroke="black" stroke-width="0.5" points="398.253,-60.3418 401.5,-56.1557 396.351,-57.4037 398.253,-60.3418"/>
</g>
<!-- Sky2Pix_CEA -->
<g id="node18" class="node"><title>Sky2Pix_CEA</title>
<g id="a_node18"><a xlink:href="../api/astropy.modeling.projections.Sky2Pix_CEA.html#astropy.modeling.projections.Sky2Pix_CEA" xlink:title="CEA: Cylindrical equal area projection &#45; sky to pixel.">
<polygon fill="none" stroke="black" stroke-width="0.5" points="469.5,-19 391.5,-19 391.5,-0 469.5,-0 469.5,-19"/>
<text text-anchor="middle" x="430.5" y="-7" font-family="Vera Sans, DejaVu Sans, Liberation Sans, Arial, Helvetica, sans" font-size="10.00">Sky2Pix_CEA</text>
</a>
</g>
</g>
<!-- Cylindrical&#45;&gt;Sky2Pix_CEA -->
<g id="edge27" class="edge"><title>Cylindrical&#45;&gt;Sky2Pix_CEA</title>
<path fill="none" stroke="black" stroke-width="0.5" d="M311.709,-258.956C322.055,-242.666 342.883,-208.178 355,-176.5 379.34,-112.869 347.884,-80.248 391,-27.5 392.608,-25.5327 394.48,-23.7689 396.516,-22.1895"/>
<polygon fill="black" stroke="black" stroke-width="0.5" points="397.751,-23.4653 400.894,-19.2005 395.778,-20.5748 397.751,-23.4653"/>
</g>
<!-- Sky2Pix_CYP -->
<g id="node19" class="node"><title>Sky2Pix_CYP</title>
<g id="a_node19"><a xlink:href="../api/astropy.modeling.projections.Sky2Pix_CYP.html#astropy.modeling.projections.Sky2Pix_CYP" xlink:title="CYP : Cylindrical Perspective &#45; sky to pixel.">
<polygon fill="none" stroke="black" stroke-width="0.5" points="469,-130 392,-130 392,-111 469,-111 469,-130"/>
<text text-anchor="middle" x="430.5" y="-118" font-family="Vera Sans, DejaVu Sans, Liberation Sans, Arial, Helvetica, sans" font-size="10.00">Sky2Pix_CYP</text>
</a>
</g>
</g>
<!-- Cylindrical&#45;&gt;Sky2Pix_CYP -->
<g id="edge29" class="edge"><title>Cylindrical&#45;&gt;Sky2Pix_CYP</title>
<path fill="none" stroke="black" stroke-width="0.5" d="M309.644,-258.704C320.066,-235.099 349.528,-174.377 391,-138.5 393.49,-136.346 396.282,-134.396 399.195,-132.644"/>
<polygon fill="black" stroke="black" stroke-width="0.5" points="400.329,-134.016 403.845,-130.054 398.626,-130.958 400.329,-134.016"/>
</g>
<!-- Sky2Pix_MER -->
<g id="node20" class="node"><title>Sky2Pix_MER</title>
<g id="a_node20"><a xlink:href="../api/astropy.modeling.projections.Sky2Pix_MER.html#astropy.modeling.projections.Sky2Pix_MER" xlink:title="MER: Mercator &#45; sky to pixel.">
<polygon fill="none" stroke="black" stroke-width="0.5" points="470,-93 391,-93 391,-74 470,-74 470,-93"/>
<text text-anchor="middle" x="430.5" y="-81" font-family="Vera Sans, DejaVu Sans, Liberation Sans, Arial, Helvetica, sans" font-size="10.00">Sky2Pix_MER</text>
</a>
</g>
</g>
<!-- Cylindrical&#45;&gt;Sky2Pix_MER -->
<g id="edge31" class="edge"><title>Cylindrical&#45;&gt;Sky2Pix_MER</title>
<path fill="none" stroke="black" stroke-width="0.5" d="M310.85,-258.908C320.091,-242.262 339.54,-206.892 355,-176.5 371.764,-143.544 364.722,-127.511 391,-101.5 393.098,-99.4237 395.48,-97.5568 398.006,-95.8845"/>
<polygon fill="black" stroke="black" stroke-width="0.5" points="399.291,-97.1542 402.679,-93.0815 397.491,-94.1527 399.291,-97.1542"/>
</g>
<!-- Projection&#45;&gt;Cylindrical -->
<g id="edge2" class="edge"><title>Projection&#45;&gt;Cylindrical</title>
<path fill="none" stroke="black" stroke-width="0.5" d="M186.13,-282.727C209.633,-279.878 241.957,-275.96 266.733,-272.957"/>
<polygon fill="black" stroke="black" stroke-width="0.5" points="267.146,-274.669 271.899,-272.33 266.725,-271.195 267.146,-274.669"/>
</g>
<!-- Pix2SkyProjection -->
<g id="node5" class="node"><title>Pix2SkyProjection</title>
<g id="a_node5"><a xlink:href="../api/astropy.modeling.projections.Pix2SkyProjection.html#astropy.modeling.projections.Pix2SkyProjection" xlink:title="Base class for all Pix2Sky projections.">
<polygon fill="none" stroke="black" stroke-width="0.5" points="355,-426 254,-426 254,-407 355,-407 355,-426"/>
<text text-anchor="middle" x="304.5" y="-414" font-family="Vera Sans, DejaVu Sans, Liberation Sans, Arial, Helvetica, sans" font-size="10.00">Pix2SkyProjection</text>
</a>
</g>
</g>
<!-- Projection&#45;&gt;Pix2SkyProjection -->
<g id="edge3" class="edge"><title>Projection&#45;&gt;Pix2SkyProjection</title>
<path fill="none" stroke="black" stroke-width="0.5" d="M186.194,-291.843C196.925,-294.697 208.595,-299.015 218,-305.5 255.391,-331.283 283.723,-378.505 296.319,-402.176"/>
<polygon fill="black" stroke="black" stroke-width="0.5" points="294.897,-403.234 298.766,-406.854 297.999,-401.612 294.897,-403.234"/>
</g>
<!-- Zenithal -->
<g id="node7" class="node"><title>Zenithal</title>
<g id="a_node7"><a xlink:href="../api/astropy.modeling.projections.Zenithal.html#astropy.modeling.projections.Zenithal" xlink:title="Base class for all Zenithal projections.">
<polygon fill="none" stroke="black" stroke-width="0.5" points="332.5,-315 276.5,-315 276.5,-296 332.5,-296 332.5,-315"/>
<text text-anchor="middle" x="304.5" y="-303" font-family="Vera Sans, DejaVu Sans, Liberation Sans, Arial, Helvetica, sans" font-size="10.00">Zenithal</text>
</a>
</g>
</g>
<!-- Projection&#45;&gt;Zenithal -->
<g id="edge38" class="edge"><title>Projection&#45;&gt;Zenithal</title>
<path fill="none" stroke="black" stroke-width="0.5" d="M186.13,-290.483C211.062,-293.673 245.921,-298.133 271.165,-301.363"/>
<polygon fill="black" stroke="black" stroke-width="0.5" points="271.217,-303.134 276.399,-302.033 271.662,-299.662 271.217,-303.134"/>
</g>
<!-- Sky2PixProjection -->
<g id="node15" class="node"><title>Sky2PixProjection</title>
<g id="a_node15"><a xlink:href="../api/astropy.modeling.projections.Sky2PixProjection.html#astropy.modeling.projections.Sky2PixProjection" xlink:title="Base class for all Sky2Pix projections.">
<polygon fill="none" stroke="black" stroke-width="0.5" points="355,-167 254,-167 254,-148 355,-148 355,-167"/>
<text text-anchor="middle" x="304.5" y="-155" font-family="Vera Sans, DejaVu Sans, Liberation Sans, Arial, Helvetica, sans" font-size="10.00">Sky2PixProjection</text>
</a>
</g>
</g>
<!-- Projection&#45;&gt;Sky2PixProjection -->
<g id="edge21" class="edge"><title>Projection&#45;&gt;Sky2PixProjection</title>
<path fill="none" stroke="black" stroke-width="0.5" d="M166.162,-276.804C192.499,-253.925 258.543,-196.554 288.411,-170.607"/>
<polygon fill="black" stroke="black" stroke-width="0.5" points="289.582,-171.909 292.209,-167.308 287.286,-169.266 289.582,-171.909"/>
</g>
<!-- Pix2Sky_AZP -->
<g id="node6" class="node"><title>Pix2Sky_AZP</title>
<g id="a_node6"><a xlink:href="../api/astropy.modeling.projections.Pix2Sky_AZP.html#astropy.modeling.projections.Pix2Sky_AZP" xlink:title="AZP : Zenithal perspective projection &#45; pixel to sky.">
<polygon fill="none" stroke="black" stroke-width="0.5" points="470,-500 391,-500 391,-481 470,-481 470,-500"/>
<text text-anchor="middle" x="430.5" y="-488" font-family="Vera Sans, DejaVu Sans, Liberation Sans, Arial, Helvetica, sans" font-size="10.00">Pix2Sky_AZP</text>
</a>
</g>
</g>
<!-- Pix2SkyProjection&#45;&gt;Pix2Sky_AZP -->
<g id="edge4" class="edge"><title>Pix2SkyProjection&#45;&gt;Pix2Sky_AZP</title>
<path fill="none" stroke="black" stroke-width="0.5" d="M318.753,-426.035C335.252,-437.702 364.498,-457.724 391,-472.5 394.798,-474.618 398.888,-476.714 402.934,-478.687"/>
<polygon fill="black" stroke="black" stroke-width="0.5" points="402.378,-480.361 407.644,-480.941 403.889,-477.204 402.378,-480.361"/>
</g>
<!-- Pix2SkyProjection&#45;&gt;Pix2Sky_CAR -->
<g id="edge6" class="edge"><title>Pix2SkyProjection&#45;&gt;Pix2Sky_CAR</title>
<path fill="none" stroke="black" stroke-width="0.5" d="M319.418,-406.852C336.095,-395.456 365.041,-376.192 391,-361.5 395.192,-359.127 399.721,-356.742 404.15,-354.501"/>
<polygon fill="black" stroke="black" stroke-width="0.5" points="405.202,-355.932 408.895,-352.134 403.64,-352.8 405.202,-355.932"/>
</g>
<!-- Pix2SkyProjection&#45;&gt;Pix2Sky_CEA -->
<g id="edge8" class="edge"><title>Pix2SkyProjection&#45;&gt;Pix2Sky_CEA</title>
<path fill="none" stroke="black" stroke-width="0.5" d="M312.564,-406.814C326.119,-388.755 357.426,-349.509 391,-324.5 394.437,-321.94 398.272,-319.571 402.154,-317.437"/>
<polygon fill="black" stroke="black" stroke-width="0.5" points="403.098,-318.918 406.71,-315.042 401.47,-315.819 403.098,-318.918"/>
</g>
<!-- Pix2SkyProjection&#45;&gt;Pix2Sky_CYP -->
<g id="edge10" class="edge"><title>Pix2SkyProjection&#45;&gt;Pix2Sky_CYP</title>
<path fill="none" stroke="black" stroke-width="0.5" d="M355.221,-416.5C365.664,-416.5 376.59,-416.5 386.751,-416.5"/>
<polygon fill="black" stroke="black" stroke-width="0.5" points="386.988,-418.25 391.988,-416.5 386.988,-414.75 386.988,-418.25"/>
</g>
<!-- Pix2SkyProjection&#45;&gt;Pix2Sky_MER -->
<g id="edge12" class="edge"><title>Pix2SkyProjection&#45;&gt;Pix2Sky_MER</title>
<path fill="none" stroke="black" stroke-width="0.5" d="M337.433,-406.972C354.225,-401.961 374.898,-395.792 392.398,-390.571"/>
<polygon fill="black" stroke="black" stroke-width="0.5" points="392.953,-392.231 397.244,-389.125 391.953,-388.878 392.953,-392.231"/>
</g>
<!-- Pix2Sky_SIN -->
<g id="node12" class="node"><title>Pix2Sky_SIN</title>
<g id="a_node12"><a xlink:href="../api/astropy.modeling.projections.Pix2Sky_SIN.html#astropy.modeling.projections.Pix2Sky_SIN" xlink:title="SIN : Slant orthographic projection &#45; pixel to sky.">
<polygon fill="none" stroke="black" stroke-width="0.5" points="468,-463 393,-463 393,-444 468,-444 468,-463"/>
<text text-anchor="middle" x="430.5" y="-451" font-family="Vera Sans, DejaVu Sans, Liberation Sans, Arial, Helvetica, sans" font-size="10.00">Pix2Sky_SIN</text>
</a>
</g>
</g>
<!-- Pix2SkyProjection&#45;&gt;Pix2Sky_SIN -->
<g id="edge14" class="edge"><title>Pix2SkyProjection&#45;&gt;Pix2Sky_SIN</title>
<path fill="none" stroke="black" stroke-width="0.5" d="M337.433,-426.028C354.225,-431.039 374.898,-437.208 392.398,-442.429"/>
<polygon fill="black" stroke="black" stroke-width="0.5" points="391.953,-444.122 397.244,-443.875 392.953,-440.769 391.953,-444.122"/>
</g>
<!-- Pix2Sky_STG -->
<g id="node13" class="node"><title>Pix2Sky_STG</title>
<g id="a_node13"><a xlink:href="../api/astropy.modeling.projections.Pix2Sky_STG.html#astropy.modeling.projections.Pix2Sky_STG" xlink:title="STG : Stereographic Projection &#45; pixel to sky.">
<polygon fill="none" stroke="black" stroke-width="0.5" points="469.5,-574 391.5,-574 391.5,-555 469.5,-555 469.5,-574"/>
<text text-anchor="middle" x="430.5" y="-562" font-family="Vera Sans, DejaVu Sans, Liberation Sans, Arial, Helvetica, sans" font-size="10.00">Pix2Sky_STG</text>
</a>
</g>
</g>
<!-- Pix2SkyProjection&#45;&gt;Pix2Sky_STG -->
<g id="edge16" class="edge"><title>Pix2SkyProjection&#45;&gt;Pix2Sky_STG</title>
<path fill="none" stroke="black" stroke-width="0.5" d="M309.644,-426.296C320.066,-449.901 349.528,-510.623 391,-546.5 393.49,-548.654 396.282,-550.604 399.195,-552.356"/>
<polygon fill="black" stroke="black" stroke-width="0.5" points="398.626,-554.042 403.845,-554.946 400.329,-550.984 398.626,-554.042"/>
</g>
<!-- Pix2Sky_TAN -->
<g id="node14" class="node"><title>Pix2Sky_TAN</title>
<g id="a_node14"><a xlink:href="../api/astropy.modeling.projections.Pix2Sky_TAN.html#astropy.modeling.projections.Pix2Sky_TAN" xlink:title="TAN : Gnomonic projection &#45; pixel to sky.">
<polygon fill="none" stroke="black" stroke-width="0.5" points="469,-537 392,-537 392,-518 469,-518 469,-537"/>
<text text-anchor="middle" x="430.5" y="-525" font-family="Vera Sans, DejaVu Sans, Liberation Sans, Arial, Helvetica, sans" font-size="10.00">Pix2Sky_TAN</text>
</a>
</g>
</g>
<!-- Pix2SkyProjection&#45;&gt;Pix2Sky_TAN -->
<g id="edge18" class="edge"><title>Pix2SkyProjection&#45;&gt;Pix2Sky_TAN</title>
<path fill="none" stroke="black" stroke-width="0.5" d="M312.282,-426.079C325.599,-444.327 356.856,-484.481 391,-509.5 393.946,-511.659 397.192,-513.656 400.512,-515.473"/>
<polygon fill="black" stroke="black" stroke-width="0.5" points="399.821,-517.085 405.064,-517.837 401.434,-513.979 399.821,-517.085"/>
</g>
<!-- Zenithal&#45;&gt;Pix2Sky_AZP -->
<g id="edge5" class="edge"><title>Zenithal&#45;&gt;Pix2Sky_AZP</title>
<path fill="none" stroke="black" stroke-width="0.5" d="M310.82,-315.213C320.016,-332.066 339.398,-367.857 355,-398.5 371.595,-431.093 364.939,-446.838 391,-472.5 393.103,-474.571 395.489,-476.434 398.018,-478.104"/>
<polygon fill="black" stroke="black" stroke-width="0.5" points="397.505,-479.836 402.694,-480.904 399.303,-476.834 397.505,-479.836"/>
</g>
<!-- Zenithal&#45;&gt;Pix2Sky_SIN -->
<g id="edge15" class="edge"><title>Zenithal&#45;&gt;Pix2Sky_SIN</title>
<path fill="none" stroke="black" stroke-width="0.5" d="M309.644,-315.296C320.066,-338.901 349.528,-399.623 391,-435.5 393.49,-437.654 396.282,-439.604 399.195,-441.356"/>
<polygon fill="black" stroke="black" stroke-width="0.5" points="398.626,-443.042 403.845,-443.946 400.329,-439.984 398.626,-443.042"/>
</g>
<!-- Zenithal&#45;&gt;Pix2Sky_STG -->
<g id="edge17" class="edge"><title>Zenithal&#45;&gt;Pix2Sky_STG</title>
<path fill="none" stroke="black" stroke-width="0.5" d="M311.697,-315.16C322.026,-331.646 342.827,-366.536 355,-398.5 379.092,-461.764 348.117,-494.119 391,-546.5 392.61,-548.466 394.483,-550.229 396.52,-551.808"/>
<polygon fill="black" stroke="black" stroke-width="0.5" points="395.782,-553.423 400.898,-554.796 397.755,-550.532 395.782,-553.423"/>
</g>
<!-- Zenithal&#45;&gt;Pix2Sky_TAN -->
<g id="edge19" class="edge"><title>Zenithal&#45;&gt;Pix2Sky_TAN</title>
<path fill="none" stroke="black" stroke-width="0.5" d="M311.437,-315.265C321.384,-331.904 341.638,-367.015 355,-398.5 375.262,-446.241 356.664,-470.63 391,-509.5 392.832,-511.574 394.953,-513.426 397.24,-515.078"/>
<polygon fill="black" stroke="black" stroke-width="0.5" points="396.359,-516.592 401.507,-517.838 398.259,-513.653 396.359,-516.592"/>
</g>
<!-- Sky2Pix_AZP -->
<g id="node16" class="node"><title>Sky2Pix_AZP</title>
<g id="a_node16"><a xlink:href="../api/astropy.modeling.projections.Sky2Pix_AZP.html#astropy.modeling.projections.Sky2Pix_AZP" xlink:title="AZP : Zenital perspective projection &#45; sky to pixel.">
<polygon fill="none" stroke="black" stroke-width="0.5" points="470,-204 391,-204 391,-185 470,-185 470,-204"/>
<text text-anchor="middle" x="430.5" y="-192" font-family="Vera Sans, DejaVu Sans, Liberation Sans, Arial, Helvetica, sans" font-size="10.00">Sky2Pix_AZP</text>
</a>
</g>
</g>
<!-- Zenithal&#45;&gt;Sky2Pix_AZP -->
<g id="edge23" class="edge"><title>Zenithal&#45;&gt;Sky2Pix_AZP</title>
<path fill="none" stroke="black" stroke-width="0.5" d="M332.721,-299.737C340.599,-297.04 348.75,-293.131 355,-287.5 382.171,-263.017 365.211,-239.435 391,-213.5 393.529,-210.956 396.468,-208.698 399.573,-206.707"/>
<polygon fill="black" stroke="black" stroke-width="0.5" points="400.474,-208.207 403.888,-204.156 398.693,-205.194 400.474,-208.207"/>
</g>
<!-- Sky2Pix_SIN -->
<g id="node21" class="node"><title>Sky2Pix_SIN</title>
<g id="a_node21"><a xlink:href="../api/astropy.modeling.projections.Sky2Pix_SIN.html#astropy.modeling.projections.Sky2Pix_SIN" xlink:title="SIN : Slant orthographic projection &#45; sky to pixel.">
<polygon fill="none" stroke="black" stroke-width="0.5" points="468,-167 393,-167 393,-148 468,-148 468,-167"/>
<text text-anchor="middle" x="430.5" y="-155" font-family="Vera Sans, DejaVu Sans, Liberation Sans, Arial, Helvetica, sans" font-size="10.00">Sky2Pix_SIN</text>
</a>
</g>
</g>
<!-- Zenithal&#45;&gt;Sky2Pix_SIN -->
<g id="edge33" class="edge"><title>Zenithal&#45;&gt;Sky2Pix_SIN</title>
<path fill="none" stroke="black" stroke-width="0.5" d="M332.707,-300.427C340.77,-297.753 349.03,-293.684 355,-287.5 391.023,-250.188 357.076,-215.73 391,-176.5 393.112,-174.058 395.611,-171.898 398.306,-169.996"/>
<polygon fill="black" stroke="black" stroke-width="0.5" points="399.398,-171.375 402.675,-167.213 397.518,-168.423 399.398,-171.375"/>
</g>
<!-- Sky2Pix_STG -->
<g id="node22" class="node"><title>Sky2Pix_STG</title>
<g id="a_node22"><a xlink:href="../api/astropy.modeling.projections.Sky2Pix_STG.html#astropy.modeling.projections.Sky2Pix_STG" xlink:title="STG : Stereographic Projection &#45; sky to pixel.">
<polygon fill="none" stroke="black" stroke-width="0.5" points="469.5,-278 391.5,-278 391.5,-259 469.5,-259 469.5,-278"/>
<text text-anchor="middle" x="430.5" y="-266" font-family="Vera Sans, DejaVu Sans, Liberation Sans, Arial, Helvetica, sans" font-size="10.00">Sky2Pix_STG</text>
</a>
</g>
</g>
<!-- Zenithal&#45;&gt;Sky2Pix_STG -->
<g id="edge35" class="edge"><title>Zenithal&#45;&gt;Sky2Pix_STG</title>
<path fill="none" stroke="black" stroke-width="0.5" d="M332.712,-297.38C350.326,-292.125 373.478,-285.216 392.722,-279.474"/>
<polygon fill="black" stroke="black" stroke-width="0.5" points="393.233,-281.148 397.524,-278.041 392.232,-277.794 393.233,-281.148"/>
</g>
<!-- Sky2Pix_TAN -->
<g id="node23" class="node"><title>Sky2Pix_TAN</title>
<g id="a_node23"><a xlink:href="../api/astropy.modeling.projections.Sky2Pix_TAN.html#astropy.modeling.projections.Sky2Pix_TAN" xlink:title="TAN : Gnomonic Projection &#45; sky to pixel.">
<polygon fill="none" stroke="black" stroke-width="0.5" points="469,-241 392,-241 392,-222 469,-222 469,-241"/>
<text text-anchor="middle" x="430.5" y="-229" font-family="Vera Sans, DejaVu Sans, Liberation Sans, Arial, Helvetica, sans" font-size="10.00">Sky2Pix_TAN</text>
</a>
</g>
</g>
<!-- Zenithal&#45;&gt;Sky2Pix_TAN -->
<g id="edge37" class="edge"><title>Zenithal&#45;&gt;Sky2Pix_TAN</title>
<path fill="none" stroke="black" stroke-width="0.5" d="M332.743,-298.063C340.281,-295.361 348.242,-291.869 355,-287.5 374.268,-275.043 372.444,-263.994 391,-250.5 394.466,-247.979 398.318,-245.632 402.206,-243.508"/>
<polygon fill="black" stroke="black" stroke-width="0.5" points="403.15,-244.99 406.768,-241.12 401.526,-241.889 403.15,-244.99"/>
</g>
<!-- Sky2PixProjection&#45;&gt;Sky2Pix_AZP -->
<g id="edge22" class="edge"><title>Sky2PixProjection&#45;&gt;Sky2Pix_AZP</title>
<path fill="none" stroke="black" stroke-width="0.5" d="M337.433,-167.028C354.225,-172.039 374.898,-178.208 392.398,-183.429"/>
<polygon fill="black" stroke="black" stroke-width="0.5" points="391.953,-185.122 397.244,-184.875 392.953,-181.769 391.953,-185.122"/>
</g>
<!-- Sky2PixProjection&#45;&gt;Sky2Pix_CAR -->
<g id="edge24" class="edge"><title>Sky2PixProjection&#45;&gt;Sky2Pix_CAR</title>
<path fill="none" stroke="black" stroke-width="0.5" d="M312.282,-147.921C325.599,-129.673 356.856,-89.5189 391,-64.5 393.946,-62.3413 397.192,-60.3444 400.512,-58.5275"/>
<polygon fill="black" stroke="black" stroke-width="0.5" points="401.434,-60.0208 405.064,-56.1631 399.821,-56.9148 401.434,-60.0208"/>
</g>
<!-- Sky2PixProjection&#45;&gt;Sky2Pix_CEA -->
<g id="edge26" class="edge"><title>Sky2PixProjection&#45;&gt;Sky2Pix_CEA</title>
<path fill="none" stroke="black" stroke-width="0.5" d="M309.644,-147.704C320.066,-124.099 349.528,-63.3768 391,-27.5 393.49,-25.3458 396.282,-23.3957 399.195,-21.6439"/>
<polygon fill="black" stroke="black" stroke-width="0.5" points="400.329,-23.0155 403.845,-19.0537 398.626,-19.9578 400.329,-23.0155"/>
</g>
<!-- Sky2PixProjection&#45;&gt;Sky2Pix_CYP -->
<g id="edge28" class="edge"><title>Sky2PixProjection&#45;&gt;Sky2Pix_CYP</title>
<path fill="none" stroke="black" stroke-width="0.5" d="M337.433,-147.972C354.225,-142.961 374.898,-136.792 392.398,-131.571"/>
<polygon fill="black" stroke="black" stroke-width="0.5" points="392.953,-133.231 397.244,-130.125 391.953,-129.878 392.953,-133.231"/>
</g>
<!-- Sky2PixProjection&#45;&gt;Sky2Pix_MER -->
<g id="edge30" class="edge"><title>Sky2PixProjection&#45;&gt;Sky2Pix_MER</title>
<path fill="none" stroke="black" stroke-width="0.5" d="M318.753,-147.965C335.252,-136.298 364.498,-116.276 391,-101.5 394.798,-99.3824 398.888,-97.2858 402.934,-95.3127"/>
<polygon fill="black" stroke="black" stroke-width="0.5" points="403.889,-96.7961 407.644,-93.0594 402.378,-93.6389 403.889,-96.7961"/>
</g>
<!-- Sky2PixProjection&#45;&gt;Sky2Pix_SIN -->
<g id="edge32" class="edge"><title>Sky2PixProjection&#45;&gt;Sky2Pix_SIN</title>
<path fill="none" stroke="black" stroke-width="0.5" d="M355.221,-157.5C365.991,-157.5 377.276,-157.5 387.705,-157.5"/>
<polygon fill="black" stroke="black" stroke-width="0.5" points="387.75,-159.25 392.749,-157.5 387.749,-155.75 387.75,-159.25"/>
</g>
<!-- Sky2PixProjection&#45;&gt;Sky2Pix_STG -->
<g id="edge34" class="edge"><title>Sky2PixProjection&#45;&gt;Sky2Pix_STG</title>
<path fill="none" stroke="black" stroke-width="0.5" d="M312.282,-167.079C325.599,-185.327 356.856,-225.481 391,-250.5 393.946,-252.659 397.192,-254.656 400.512,-256.473"/>
<polygon fill="black" stroke="black" stroke-width="0.5" points="399.821,-258.085 405.064,-258.837 401.434,-254.979 399.821,-258.085"/>
</g>
<!-- Sky2PixProjection&#45;&gt;Sky2Pix_TAN -->
<g id="edge36" class="edge"><title>Sky2PixProjection&#45;&gt;Sky2Pix_TAN</title>
<path fill="none" stroke="black" stroke-width="0.5" d="M318.753,-167.035C335.252,-178.702 364.498,-198.724 391,-213.5 394.798,-215.618 398.888,-217.714 402.934,-219.687"/>
<polygon fill="black" stroke="black" stroke-width="0.5" points="402.378,-221.361 407.644,-221.941 403.889,-218.204 402.378,-221.361"/>
</g>
</g>
</svg>
