<?xml version="1.0" encoding="UTF-8" standalone="no"?>
<!DOCTYPE svg PUBLIC "-//W3C//DTD SVG 1.1//EN"
 "http://www.w3.org/Graphics/SVG/1.1/DTD/svg11.dtd">
<!-- Generated by graphviz version 2.38.0 (20140413.2041)
 -->
<!-- Title: inheritance8c2e51a893 Pages: 1 -->
<svg width="384pt" height="138pt"
 viewBox="0.00 0.00 384.00 138.00" xmlns="http://www.w3.org/2000/svg" xmlns:xlink="http://www.w3.org/1999/xlink">
<g id="graph0" class="graph" transform="scale(1 1) rotate(0) translate(4 134)">
<title>inheritance8c2e51a893</title>
<polygon fill="white" stroke="none" points="-4,4 -4,-134 380,-134 380,4 -4,4"/>
<!-- BaseVOError -->
<g id="node1" class="node"><title>BaseVOError</title>
<g id="a_node1"><a xlink:href="../../api/astropy.vo.client.exceptions.BaseVOError.html#astropy.vo.client.exceptions.BaseVOError" xlink:title="Base class for VO exceptions.">
<polygon fill="none" stroke="black" stroke-width="0.5" points="78,-92 0,-92 0,-73 78,-73 78,-92"/>
<text text-anchor="middle" x="39" y="-80" font-family="Vera Sans, DejaVu Sans, Liberation Sans, Arial, Helvetica, sans" font-size="10.00">BaseVOError</text>
</a>
</g>
</g>
<!-- ConeSearchError -->
<g id="node2" class="node"><title>ConeSearchError</title>
<g id="a_node2"><a xlink:href="../../api/astropy.vo.client.exceptions.ConeSearchError.html#astropy.vo.client.exceptions.ConeSearchError" xlink:title="General Cone Search exception.">
<polygon fill="none" stroke="black" stroke-width="0.5" points="212,-111 114,-111 114,-92 212,-92 212,-111"/>
<text text-anchor="middle" x="163" y="-99" font-family="Vera Sans, DejaVu Sans, Liberation Sans, Arial, Helvetica, sans" font-size="10.00">ConeSearchError</text>
</a>
</g>
</g>
<!-- BaseVOError&#45;&gt;ConeSearchError -->
<g id="edge1" class="edge"><title>BaseVOError&#45;&gt;ConeSearchError</title>
<path fill="none" stroke="black" stroke-width="0.5" d="M78.2668,-88.4596C87.9954,-89.9747 98.6243,-91.63 108.945,-93.2373"/>
<polygon fill="black" stroke="black" stroke-width="0.5" points="108.771,-94.9813 113.981,-94.0216 109.31,-91.5229 108.771,-94.9813"/>
</g>
<!-- VOSError -->
<g id="node4" class="node"><title>VOSError</title>
<g id="a_node4"><a xlink:href="../../api/astropy.vo.client.exceptions.VOSError.html#astropy.vo.client.exceptions.VOSError" xlink:title="General VO service exception.">
<polygon fill="none" stroke="black" stroke-width="0.5" points="193.5,-74 132.5,-74 132.5,-55 193.5,-55 193.5,-74"/>
<text text-anchor="middle" x="163" y="-62" font-family="Vera Sans, DejaVu Sans, Liberation Sans, Arial, Helvetica, sans" font-size="10.00">VOSError</text>
</a>
</g>
</g>
<!-- BaseVOError&#45;&gt;VOSError -->
<g id="edge6" class="edge"><title>BaseVOError&#45;&gt;VOSError</title>
<path fill="none" stroke="black" stroke-width="0.5" d="M78.2668,-76.8541C93.9626,-74.5383 112.002,-71.8768 127.307,-69.6186"/>
<polygon fill="black" stroke="black" stroke-width="0.5" points="127.695,-71.3305 132.386,-68.8693 127.184,-67.868 127.695,-71.3305"/>
</g>
<!-- DuplicateCatalogName -->
<g id="node3" class="node"><title>DuplicateCatalogName</title>
<g id="a_node3"><a xlink:href="../../api/astropy.vo.client.exceptions.DuplicateCatalogName.html#astropy.vo.client.exceptions.DuplicateCatalogName" xlink:title="VO catalog of the same title already exists.">
<polygon fill="none" stroke="black" stroke-width="0.5" points="376,-130 248,-130 248,-111 376,-111 376,-130"/>
<text text-anchor="middle" x="312" y="-118" font-family="Vera Sans, DejaVu Sans, Liberation Sans, Arial, Helvetica, sans" font-size="10.00">DuplicateCatalogName</text>
</a>
</g>
</g>
<!-- VOSError&#45;&gt;DuplicateCatalogName -->
<g id="edge2" class="edge"><title>VOSError&#45;&gt;DuplicateCatalogName</title>
<path fill="none" stroke="black" stroke-width="0.5" d="M189.627,-74.0486C196.924,-76.9277 204.835,-80.2031 212,-83.5 228.435,-91.0627 231.212,-95.7565 248,-102.5 254.309,-105.034 261.105,-107.366 267.818,-109.452"/>
<polygon fill="black" stroke="black" stroke-width="0.5" points="267.633,-111.224 272.926,-110.999 268.648,-107.875 267.633,-111.224"/>
</g>
<!-- DuplicateCatalogURL -->
<g id="node5" class="node"><title>DuplicateCatalogURL</title>
<g id="a_node5"><a xlink:href="../../api/astropy.vo.client.exceptions.DuplicateCatalogURL.html#astropy.vo.client.exceptions.DuplicateCatalogURL" xlink:title="VO catalog of the same access URL already exists.">
<polygon fill="none" stroke="black" stroke-width="0.5" points="370.5,-93 253.5,-93 253.5,-74 370.5,-74 370.5,-93"/>
<text text-anchor="middle" x="312" y="-81" font-family="Vera Sans, DejaVu Sans, Liberation Sans, Arial, Helvetica, sans" font-size="10.00">DuplicateCatalogURL</text>
</a>
</g>
</g>
<!-- VOSError&#45;&gt;DuplicateCatalogURL -->
<g id="edge3" class="edge"><title>VOSError&#45;&gt;DuplicateCatalogURL</title>
<path fill="none" stroke="black" stroke-width="0.5" d="M193.748,-68.3449C209.391,-70.3669 229.192,-72.9262 248.048,-75.3633"/>
<polygon fill="black" stroke="black" stroke-width="0.5" points="248.154,-77.1415 253.337,-76.0469 248.602,-73.6704 248.154,-77.1415"/>
</g>
<!-- InvalidAccessURL -->
<g id="node6" class="node"><title>InvalidAccessURL</title>
<g id="a_node6"><a xlink:href="../../api/astropy.vo.client.exceptions.InvalidAccessURL.html#astropy.vo.client.exceptions.InvalidAccessURL" xlink:title="Invalid access URL.">
<polygon fill="none" stroke="black" stroke-width="0.5" points="361.5,-56 262.5,-56 262.5,-37 361.5,-37 361.5,-56"/>
<text text-anchor="middle" x="312" y="-44" font-family="Vera Sans, DejaVu Sans, Liberation Sans, Arial, Helvetica, sans" font-size="10.00">InvalidAccessURL</text>
</a>
</g>
</g>
<!-- VOSError&#45;&gt;InvalidAccessURL -->
<g id="edge4" class="edge"><title>VOSError&#45;&gt;InvalidAccessURL</title>
<path fill="none" stroke="black" stroke-width="0.5" d="M193.748,-60.8574C212,-58.6225 235.911,-55.6946 257.377,-53.0661"/>
<polygon fill="black" stroke="black" stroke-width="0.5" points="257.738,-54.7851 262.488,-52.4402 257.312,-51.311 257.738,-54.7851"/>
</g>
<!-- MissingCatalog -->
<g id="node7" class="node"><title>MissingCatalog</title>
<g id="a_node7"><a xlink:href="../../api/astropy.vo.client.exceptions.MissingCatalog.html#astropy.vo.client.exceptions.MissingCatalog" xlink:title="VO catalog is missing.">
<polygon fill="none" stroke="black" stroke-width="0.5" points="356.5,-19 267.5,-19 267.5,-0 356.5,-0 356.5,-19"/>
<text text-anchor="middle" x="312" y="-7" font-family="Vera Sans, DejaVu Sans, Liberation Sans, Arial, Helvetica, sans" font-size="10.00">MissingCatalog</text>
</a>
</g>
</g>
<!-- VOSError&#45;&gt;MissingCatalog -->
<g id="edge5" class="edge"><title>VOSError&#45;&gt;MissingCatalog</title>
<path fill="none" stroke="black" stroke-width="0.5" d="M184.454,-54.9707C201.306,-47.3056 225.933,-36.5277 248,-28.5 255.646,-25.7185 263.913,-23.0142 271.865,-20.5593"/>
<polygon fill="black" stroke="black" stroke-width="0.5" points="272.495,-22.1969 276.767,-19.0646 271.474,-18.8491 272.495,-22.1969"/>
</g>
</g>
</svg>
