<?xml version="1.0" encoding="UTF-8" standalone="no"?>
<!DOCTYPE svg PUBLIC "-//W3C//DTD SVG 1.1//EN"
 "http://www.w3.org/Graphics/SVG/1.1/DTD/svg11.dtd">
<!-- Generated by graphviz version 2.38.0 (20140413.2041)
 -->
<!-- Title: inheritance2d0d457931 Pages: 1 -->
<svg width="237pt" height="156pt"
 viewBox="0.00 0.00 237.00 156.00" xmlns="http://www.w3.org/2000/svg" xmlns:xlink="http://www.w3.org/1999/xlink">
<g id="graph0" class="graph" transform="scale(1 1) rotate(0) translate(4 152)">
<title>inheritance2d0d457931</title>
<polygon fill="white" stroke="none" points="-4,4 -4,-152 233,-152 233,4 -4,4"/>
<!-- Fitter -->
<g id="node1" class="node"><title>Fitter</title>
<g id="a_node1"><a xlink:href="../api/astropy.modeling.fitting.Fitter.html#astropy.modeling.fitting.Fitter" xlink:title="Base class for all fitters.">
<polygon fill="none" stroke="black" stroke-width="0.5" points="74.5,-37 20.5,-37 20.5,-18 74.5,-18 74.5,-37"/>
<text text-anchor="middle" x="47.5" y="-25" font-family="Vera Sans, DejaVu Sans, Liberation Sans, Arial, Helvetica, sans" font-size="10.00">Fitter</text>
</a>
</g>
</g>
<!-- SLSQPLSQFitter -->
<g id="node5" class="node"><title>SLSQPLSQFitter</title>
<g id="a_node5"><a xlink:href="../api/astropy.modeling.fitting.SLSQPLSQFitter.html#astropy.modeling.fitting.SLSQPLSQFitter" xlink:title="SLSQP optimization algorithm and least squares statistic.">
<polygon fill="none" stroke="black" stroke-width="0.5" points="226,-56 134,-56 134,-37 226,-37 226,-56"/>
<text text-anchor="middle" x="180" y="-44" font-family="Vera Sans, DejaVu Sans, Liberation Sans, Arial, Helvetica, sans" font-size="10.00">SLSQPLSQFitter</text>
</a>
</g>
</g>
<!-- Fitter&#45;&gt;SLSQPLSQFitter -->
<g id="edge1" class="edge"><title>Fitter&#45;&gt;SLSQPLSQFitter</title>
<path fill="none" stroke="black" stroke-width="0.5" d="M74.595,-31.2993C90.0965,-33.5562 110.277,-36.4943 128.758,-39.1851"/>
<polygon fill="black" stroke="black" stroke-width="0.5" points="128.721,-40.948 133.921,-39.9368 129.225,-37.4846 128.721,-40.948"/>
</g>
<!-- SimplexLSQFitter -->
<g id="node6" class="node"><title>SimplexLSQFitter</title>
<g id="a_node6"><a xlink:href="../api/astropy.modeling.fitting.SimplexLSQFitter.html#astropy.modeling.fitting.SimplexLSQFitter" xlink:title="Simplex algorithm and least squares statistic.">
<polygon fill="none" stroke="black" stroke-width="0.5" points="229,-19 131,-19 131,-0 229,-0 229,-19"/>
<text text-anchor="middle" x="180" y="-7" font-family="Vera Sans, DejaVu Sans, Liberation Sans, Arial, Helvetica, sans" font-size="10.00">SimplexLSQFitter</text>
</a>
</g>
</g>
<!-- Fitter&#45;&gt;SimplexLSQFitter -->
<g id="edge2" class="edge"><title>Fitter&#45;&gt;SimplexLSQFitter</title>
<path fill="none" stroke="black" stroke-width="0.5" d="M74.595,-23.9007C89.1551,-21.8924 107.843,-19.3148 125.374,-16.8967"/>
<polygon fill="black" stroke="black" stroke-width="0.5" points="126.058,-18.569 130.772,-16.1522 125.579,-15.1019 126.058,-18.569"/>
</g>
<!-- JointFitter -->
<g id="node2" class="node"><title>JointFitter</title>
<g id="a_node2"><a xlink:href="../api/astropy.modeling.fitting.JointFitter.html#astropy.modeling.fitting.JointFitter" xlink:title="Fit models which share a parameter.">
<polygon fill="none" stroke="black" stroke-width="0.5" points="78,-74 17,-74 17,-55 78,-55 78,-74"/>
<text text-anchor="middle" x="47.5" y="-62" font-family="Vera Sans, DejaVu Sans, Liberation Sans, Arial, Helvetica, sans" font-size="10.00">JointFitter</text>
</a>
</g>
</g>
<!-- LevMarLSQFitter -->
<g id="node3" class="node"><title>LevMarLSQFitter</title>
<g id="a_node3"><a xlink:href="../api/astropy.modeling.fitting.LevMarLSQFitter.html#astropy.modeling.fitting.LevMarLSQFitter" xlink:title="Levenberg&#45;Marquardt algorithm and least squares statistic.">
<polygon fill="none" stroke="black" stroke-width="0.5" points="95,-111 0,-111 0,-92 95,-92 95,-111"/>
<text text-anchor="middle" x="47.5" y="-99" font-family="Vera Sans, DejaVu Sans, Liberation Sans, Arial, Helvetica, sans" font-size="10.00">LevMarLSQFitter</text>
</a>
</g>
</g>
<!-- LinearLSQFitter -->
<g id="node4" class="node"><title>LinearLSQFitter</title>
<g id="a_node4"><a xlink:href="../api/astropy.modeling.fitting.LinearLSQFitter.html#astropy.modeling.fitting.LinearLSQFitter" xlink:title="A class performing a linear least square fitting.">
<polygon fill="none" stroke="black" stroke-width="0.5" points="92,-148 3,-148 3,-129 92,-129 92,-148"/>
<text text-anchor="middle" x="47.5" y="-136" font-family="Vera Sans, DejaVu Sans, Liberation Sans, Arial, Helvetica, sans" font-size="10.00">LinearLSQFitter</text>
</a>
</g>
</g>
</g>
</svg>
