<?xml version="1.0" encoding="UTF-8" standalone="no"?>
<!DOCTYPE svg PUBLIC "-//W3C//DTD SVG 1.1//EN"
 "http://www.w3.org/Graphics/SVG/1.1/DTD/svg11.dtd">
<!-- Generated by graphviz version 2.38.0 (20140413.2041)
 -->
<!-- Title: inheritancec9cb64a97e Pages: 1 -->
<svg width="576pt" height="399pt"
 viewBox="0.00 0.00 576.00 399.19" xmlns="http://www.w3.org/2000/svg" xmlns:xlink="http://www.w3.org/1999/xlink">
<g id="graph0" class="graph" transform="scale(0.785812 0.785812) rotate(0) translate(4 504)">
<title>inheritancec9cb64a97e</title>
<polygon fill="white" stroke="none" points="-4,4 -4,-504 729,-504 729,4 -4,4"/>
<!-- OperandTypeError -->
<g id="node1" class="node"><title>OperandTypeError</title>
<g id="a_node1"><a xlink:href="../api/astropy.time.OperandTypeError.html#astropy.time.OperandTypeError" xlink:title="OperandTypeError">
<polygon fill="none" stroke="black" stroke-width="0.5" points="102,-19 0,-19 0,-0 102,-0 102,-19"/>
<text text-anchor="middle" x="51" y="-7" font-family="Vera Sans, DejaVu Sans, Liberation Sans, Arial, Helvetica, sans" font-size="10.00">OperandTypeError</text>
</a>
</g>
</g>
<!-- ScaleValueError -->
<g id="node2" class="node"><title>ScaleValueError</title>
<g id="a_node2"><a xlink:href="../api/astropy.time.ScaleValueError.html#astropy.time.ScaleValueError" xlink:title="ScaleValueError">
<polygon fill="none" stroke="black" stroke-width="0.5" points="97,-56 5,-56 5,-37 97,-37 97,-56"/>
<text text-anchor="middle" x="51" y="-44" font-family="Vera Sans, DejaVu Sans, Liberation Sans, Arial, Helvetica, sans" font-size="10.00">ScaleValueError</text>
</a>
</g>
</g>
<!-- Time -->
<g id="node3" class="node"><title>Time</title>
<g id="a_node3"><a xlink:href="../api/astropy.time.Time.html#astropy.time.Time" xlink:title="Represent and manipulate times and dates for astronomy.">
<polygon fill="none" stroke="black" stroke-width="0.5" points="78,-93 24,-93 24,-74 78,-74 78,-93"/>
<text text-anchor="middle" x="51" y="-81" font-family="Vera Sans, DejaVu Sans, Liberation Sans, Arial, Helvetica, sans" font-size="10.00">Time</text>
</a>
</g>
</g>
<!-- TimeDelta -->
<g id="node14" class="node"><title>TimeDelta</title>
<g id="a_node14"><a xlink:href="../api/astropy.time.TimeDelta.html#astropy.time.TimeDelta" xlink:title="Represent the time difference between two times.">
<polygon fill="none" stroke="black" stroke-width="0.5" points="220.5,-93 155.5,-93 155.5,-74 220.5,-74 220.5,-93"/>
<text text-anchor="middle" x="188" y="-81" font-family="Vera Sans, DejaVu Sans, Liberation Sans, Arial, Helvetica, sans" font-size="10.00">TimeDelta</text>
</a>
</g>
</g>
<!-- Time&#45;&gt;TimeDelta -->
<g id="edge6" class="edge"><title>Time&#45;&gt;TimeDelta</title>
<path fill="none" stroke="black" stroke-width="0.5" d="M78.0294,-83.5C98.5444,-83.5 127.404,-83.5 150.269,-83.5"/>
<polygon fill="black" stroke="black" stroke-width="0.5" points="150.349,-85.2501 155.348,-83.5 150.348,-81.7501 150.349,-85.2501"/>
</g>
<!-- TimeBesselianEpoch -->
<g id="node4" class="node"><title>TimeBesselianEpoch</title>
<g id="a_node4"><a xlink:href="../api/astropy.time.TimeBesselianEpoch.html#astropy.time.TimeBesselianEpoch" xlink:title="Besselian Epoch year as floating point value(s) like 1950.0">
<polygon fill="none" stroke="black" stroke-width="0.5" points="389,-500 274,-500 274,-481 389,-481 389,-500"/>
<text text-anchor="middle" x="331.5" y="-488" font-family="Vera Sans, DejaVu Sans, Liberation Sans, Arial, Helvetica, sans" font-size="10.00">TimeBesselianEpoch</text>
</a>
</g>
</g>
<!-- TimeEpochDate -->
<g id="node5" class="node"><title>TimeEpochDate</title>
<g id="a_node5"><a xlink:href="../api/astropy.time.TimeEpochDate.html#astropy.time.TimeEpochDate" xlink:title="Base class for support floating point Besselian and Julian epoch dates">
<polygon fill="none" stroke="black" stroke-width="0.5" points="234,-463 142,-463 142,-444 234,-444 234,-463"/>
<text text-anchor="middle" x="188" y="-451" font-family="Vera Sans, DejaVu Sans, Liberation Sans, Arial, Helvetica, sans" font-size="10.00">TimeEpochDate</text>
</a>
</g>
</g>
<!-- TimeEpochDate&#45;&gt;TimeBesselianEpoch -->
<g id="edge1" class="edge"><title>TimeEpochDate&#45;&gt;TimeBesselianEpoch</title>
<path fill="none" stroke="black" stroke-width="0.5" d="M225.44,-463.028C244.765,-468.082 268.596,-474.313 288.673,-479.563"/>
<polygon fill="black" stroke="black" stroke-width="0.5" points="288.412,-481.303 293.692,-480.875 289.297,-477.917 288.412,-481.303"/>
</g>
<!-- TimeJulianEpoch -->
<g id="node23" class="node"><title>TimeJulianEpoch</title>
<g id="a_node23"><a xlink:href="../api/astropy.time.TimeJulianEpoch.html#astropy.time.TimeJulianEpoch" xlink:title="Julian Epoch year as floating point value(s) like 2000.0">
<polygon fill="none" stroke="black" stroke-width="0.5" points="378.5,-463 284.5,-463 284.5,-444 378.5,-444 378.5,-463"/>
<text text-anchor="middle" x="331.5" y="-451" font-family="Vera Sans, DejaVu Sans, Liberation Sans, Arial, Helvetica, sans" font-size="10.00">TimeJulianEpoch</text>
</a>
</g>
</g>
<!-- TimeEpochDate&#45;&gt;TimeJulianEpoch -->
<g id="edge17" class="edge"><title>TimeEpochDate&#45;&gt;TimeJulianEpoch</title>
<path fill="none" stroke="black" stroke-width="0.5" d="M234.161,-453.5C248.423,-453.5 264.29,-453.5 278.963,-453.5"/>
<polygon fill="black" stroke="black" stroke-width="0.5" points="279.31,-455.25 284.31,-453.5 279.31,-451.75 279.31,-455.25"/>
</g>
<!-- TimeBesselianEpochString -->
<g id="node6" class="node"><title>TimeBesselianEpochString</title>
<g id="a_node6"><a xlink:href="../api/astropy.time.TimeBesselianEpochString.html#astropy.time.TimeBesselianEpochString" xlink:title="Besselian Epoch year as string value(s) like &#39;B1950.0&#39;">
<polygon fill="none" stroke="black" stroke-width="0.5" points="725,-314 582,-314 582,-295 725,-295 725,-314"/>
<text text-anchor="middle" x="653.5" y="-302" font-family="Vera Sans, DejaVu Sans, Liberation Sans, Arial, Helvetica, sans" font-size="10.00">TimeBesselianEpochString</text>
</a>
</g>
</g>
<!-- TimeEpochDateString -->
<g id="node7" class="node"><title>TimeEpochDateString</title>
<g id="a_node7"><a xlink:href="../api/astropy.time.TimeEpochDateString.html#astropy.time.TimeEpochDateString" xlink:title="Base class to support string Besselian and Julian epoch dates">
<polygon fill="none" stroke="black" stroke-width="0.5" points="546,-296 425,-296 425,-277 546,-277 546,-296"/>
<text text-anchor="middle" x="485.5" y="-284" font-family="Vera Sans, DejaVu Sans, Liberation Sans, Arial, Helvetica, sans" font-size="10.00">TimeEpochDateString</text>
</a>
</g>
</g>
<!-- TimeEpochDateString&#45;&gt;TimeBesselianEpochString -->
<g id="edge2" class="edge"><title>TimeEpochDateString&#45;&gt;TimeBesselianEpochString</title>
<path fill="none" stroke="black" stroke-width="0.5" d="M546.43,-292.998C556.326,-294.072 566.698,-295.196 576.918,-296.304"/>
<polygon fill="black" stroke="black" stroke-width="0.5" points="576.761,-298.048 581.921,-296.847 577.138,-294.568 576.761,-298.048"/>
</g>
<!-- TimeJulianEpochString -->
<g id="node24" class="node"><title>TimeJulianEpochString</title>
<g id="a_node24"><a xlink:href="../api/astropy.time.TimeJulianEpochString.html#astropy.time.TimeJulianEpochString" xlink:title="Julian Epoch year as string value(s) like &#39;J2000.0&#39;">
<polygon fill="none" stroke="black" stroke-width="0.5" points="714.5,-277 592.5,-277 592.5,-258 714.5,-258 714.5,-277"/>
<text text-anchor="middle" x="653.5" y="-265" font-family="Vera Sans, DejaVu Sans, Liberation Sans, Arial, Helvetica, sans" font-size="10.00">TimeJulianEpochString</text>
</a>
</g>
</g>
<!-- TimeEpochDateString&#45;&gt;TimeJulianEpochString -->
<g id="edge18" class="edge"><title>TimeEpochDateString&#45;&gt;TimeJulianEpochString</title>
<path fill="none" stroke="black" stroke-width="0.5" d="M546.43,-279.641C559.629,-278.13 573.675,-276.522 587.079,-274.988"/>
<polygon fill="black" stroke="black" stroke-width="0.5" points="587.611,-276.689 592.38,-274.381 587.213,-273.211 587.611,-276.689"/>
</g>
<!-- TimeCxcSec -->
<g id="node8" class="node"><title>TimeCxcSec</title>
<g id="a_node8"><a xlink:href="../api/astropy.time.TimeCxcSec.html#astropy.time.TimeCxcSec" xlink:title="Chandra X&#45;ray Center seconds from 1998&#45;01&#45;01 00:00:00 TT.">
<polygon fill="none" stroke="black" stroke-width="0.5" points="369,-426 294,-426 294,-407 369,-407 369,-426"/>
<text text-anchor="middle" x="331.5" y="-414" font-family="Vera Sans, DejaVu Sans, Liberation Sans, Arial, Helvetica, sans" font-size="10.00">TimeCxcSec</text>
</a>
</g>
</g>
<!-- TimeFromEpoch -->
<g id="node9" class="node"><title>TimeFromEpoch</title>
<g id="a_node9"><a xlink:href="../api/astropy.time.TimeFromEpoch.html#astropy.time.TimeFromEpoch" xlink:title="Base class for times that represent the interval from a particular">
<polygon fill="none" stroke="black" stroke-width="0.5" points="234.5,-352 141.5,-352 141.5,-333 234.5,-333 234.5,-352"/>
<text text-anchor="middle" x="188" y="-340" font-family="Vera Sans, DejaVu Sans, Liberation Sans, Arial, Helvetica, sans" font-size="10.00">TimeFromEpoch</text>
</a>
</g>
</g>
<!-- TimeFromEpoch&#45;&gt;TimeCxcSec -->
<g id="edge3" class="edge"><title>TimeFromEpoch&#45;&gt;TimeCxcSec</title>
<path fill="none" stroke="black" stroke-width="0.5" d="M201.311,-352.188C217.293,-364.384 246.412,-385.327 274,-398.5 279.226,-400.995 284.883,-403.263 290.529,-405.283"/>
<polygon fill="black" stroke="black" stroke-width="0.5" points="289.963,-406.938 295.26,-406.921 291.108,-403.631 289.963,-406.938"/>
</g>
<!-- TimeGPS -->
<g id="node19" class="node"><title>TimeGPS</title>
<g id="a_node19"><a xlink:href="../api/astropy.time.TimeGPS.html#astropy.time.TimeGPS" xlink:title="GPS time: seconds from 1980&#45;01&#45;06 00:00:00 UTC">
<polygon fill="none" stroke="black" stroke-width="0.5" points="361.5,-389 301.5,-389 301.5,-370 361.5,-370 361.5,-389"/>
<text text-anchor="middle" x="331.5" y="-377" font-family="Vera Sans, DejaVu Sans, Liberation Sans, Arial, Helvetica, sans" font-size="10.00">TimeGPS</text>
</a>
</g>
</g>
<!-- TimeFromEpoch&#45;&gt;TimeGPS -->
<g id="edge13" class="edge"><title>TimeFromEpoch&#45;&gt;TimeGPS</title>
<path fill="none" stroke="black" stroke-width="0.5" d="M225.44,-352.028C247.273,-357.737 274.857,-364.95 296.282,-370.553"/>
<polygon fill="black" stroke="black" stroke-width="0.5" points="296.03,-372.295 301.31,-371.867 296.915,-368.909 296.03,-372.295"/>
</g>
<!-- TimePlotDate -->
<g id="node26" class="node"><title>TimePlotDate</title>
<g id="a_node26"><a xlink:href="../api/astropy.time.TimePlotDate.html#astropy.time.TimePlotDate" xlink:title="Matplotlib `~matplotlib.pyplot.plot_date` input:">
<polygon fill="none" stroke="black" stroke-width="0.5" points="372,-352 291,-352 291,-333 372,-333 372,-352"/>
<text text-anchor="middle" x="331.5" y="-340" font-family="Vera Sans, DejaVu Sans, Liberation Sans, Arial, Helvetica, sans" font-size="10.00">TimePlotDate</text>
</a>
</g>
</g>
<!-- TimeFromEpoch&#45;&gt;TimePlotDate -->
<g id="edge20" class="edge"><title>TimeFromEpoch&#45;&gt;TimePlotDate</title>
<path fill="none" stroke="black" stroke-width="0.5" d="M234.55,-342.5C250.81,-342.5 269.111,-342.5 285.338,-342.5"/>
<polygon fill="black" stroke="black" stroke-width="0.5" points="285.755,-344.25 290.755,-342.5 285.755,-340.75 285.755,-344.25"/>
</g>
<!-- TimeUnix -->
<g id="node27" class="node"><title>TimeUnix</title>
<g id="a_node27"><a xlink:href="../api/astropy.time.TimeUnix.html#astropy.time.TimeUnix" xlink:title="Unix time: seconds from 1970&#45;01&#45;01 00:00:00 UTC.">
<polygon fill="none" stroke="black" stroke-width="0.5" points="362,-315 301,-315 301,-296 362,-296 362,-315"/>
<text text-anchor="middle" x="331.5" y="-303" font-family="Vera Sans, DejaVu Sans, Liberation Sans, Arial, Helvetica, sans" font-size="10.00">TimeUnix</text>
</a>
</g>
</g>
<!-- TimeFromEpoch&#45;&gt;TimeUnix -->
<g id="edge23" class="edge"><title>TimeFromEpoch&#45;&gt;TimeUnix</title>
<path fill="none" stroke="black" stroke-width="0.5" d="M225.44,-332.972C247.121,-327.302 274.474,-320.15 295.835,-314.564"/>
<polygon fill="black" stroke="black" stroke-width="0.5" points="296.456,-316.211 300.85,-313.253 295.57,-312.825 296.456,-316.211"/>
</g>
<!-- TimeDatetime -->
<g id="node10" class="node"><title>TimeDatetime</title>
<g id="a_node10"><a xlink:href="../api/astropy.time.TimeDatetime.html#astropy.time.TimeDatetime" xlink:title="Represent date as Python standard library `~datetime.datetime` object">
<polygon fill="none" stroke="black" stroke-width="0.5" points="374,-278 289,-278 289,-259 374,-259 374,-278"/>
<text text-anchor="middle" x="331.5" y="-266" font-family="Vera Sans, DejaVu Sans, Liberation Sans, Arial, Helvetica, sans" font-size="10.00">TimeDatetime</text>
</a>
</g>
</g>
<!-- TimeUnique -->
<g id="node11" class="node"><title>TimeUnique</title>
<g id="a_node11"><a xlink:title="Base class for time formats that can uniquely create a time object">
<polygon fill="none" stroke="black" stroke-width="0.5" points="225,-278 151,-278 151,-259 225,-259 225,-278"/>
<text text-anchor="middle" x="188" y="-266" font-family="Vera Sans, DejaVu Sans, Liberation Sans, Arial, Helvetica, sans" font-size="10.00">TimeUnique</text>
</a>
</g>
</g>
<!-- TimeUnique&#45;&gt;TimeDatetime -->
<g id="edge4" class="edge"><title>TimeUnique&#45;&gt;TimeDatetime</title>
<path fill="none" stroke="black" stroke-width="0.5" d="M225.073,-268.5C242.885,-268.5 264.595,-268.5 283.673,-268.5"/>
<polygon fill="black" stroke="black" stroke-width="0.5" points="283.979,-270.25 288.979,-268.5 283.979,-266.75 283.979,-270.25"/>
</g>
<!-- TimeString -->
<g id="node18" class="node"><title>TimeString</title>
<g id="a_node18"><a xlink:href="../api/astropy.time.TimeString.html#astropy.time.TimeString" xlink:title="Base class for string&#45;like time representations.">
<polygon fill="none" stroke="black" stroke-width="0.5" points="365.5,-241 297.5,-241 297.5,-222 365.5,-222 365.5,-241"/>
<text text-anchor="middle" x="331.5" y="-229" font-family="Vera Sans, DejaVu Sans, Liberation Sans, Arial, Helvetica, sans" font-size="10.00">TimeString</text>
</a>
</g>
</g>
<!-- TimeUnique&#45;&gt;TimeString -->
<g id="edge21" class="edge"><title>TimeUnique&#45;&gt;TimeString</title>
<path fill="none" stroke="black" stroke-width="0.5" d="M225.073,-259.068C245.691,-253.676 271.53,-246.92 292.467,-241.445"/>
<polygon fill="black" stroke="black" stroke-width="0.5" points="293.008,-243.112 297.403,-240.154 292.123,-239.726 293.008,-243.112"/>
</g>
<!-- TimeDecimalYear -->
<g id="node12" class="node"><title>TimeDecimalYear</title>
<g id="a_node12"><a xlink:href="../api/astropy.time.TimeDecimalYear.html#astropy.time.TimeDecimalYear" xlink:title="Time as a decimal year, with integer values corresponding to midnight">
<polygon fill="none" stroke="black" stroke-width="0.5" points="237,-241 139,-241 139,-222 237,-222 237,-241"/>
<text text-anchor="middle" x="188" y="-229" font-family="Vera Sans, DejaVu Sans, Liberation Sans, Arial, Helvetica, sans" font-size="10.00">TimeDecimalYear</text>
</a>
</g>
</g>
<!-- TimeFormat -->
<g id="node13" class="node"><title>TimeFormat</title>
<g id="a_node13"><a xlink:href="../api/astropy.time.TimeFormat.html#astropy.time.TimeFormat" xlink:title="Base class for time representations.">
<polygon fill="none" stroke="black" stroke-width="0.5" points="88,-241 14,-241 14,-222 88,-222 88,-241"/>
<text text-anchor="middle" x="51" y="-229" font-family="Vera Sans, DejaVu Sans, Liberation Sans, Arial, Helvetica, sans" font-size="10.00">TimeFormat</text>
</a>
</g>
</g>
<!-- TimeFormat&#45;&gt;TimeEpochDate -->
<g id="edge10" class="edge"><title>TimeFormat&#45;&gt;TimeEpochDate</title>
<path fill="none" stroke="black" stroke-width="0.5" d="M57.8008,-241.039C79.1342,-276.121 153.307,-398.093 178.529,-439.569"/>
<polygon fill="black" stroke="black" stroke-width="0.5" points="177.128,-440.634 181.221,-443.996 180.118,-438.815 177.128,-440.634"/>
</g>
<!-- TimeFormat&#45;&gt;TimeFromEpoch -->
<g id="edge12" class="edge"><title>TimeFormat&#45;&gt;TimeFromEpoch</title>
<path fill="none" stroke="black" stroke-width="0.5" d="M63.9803,-241.351C88.3592,-261.395 143.739,-306.93 171.098,-329.425"/>
<polygon fill="black" stroke="black" stroke-width="0.5" points="170.266,-331.006 175.239,-332.83 172.489,-328.303 170.266,-331.006"/>
</g>
<!-- TimeFormat&#45;&gt;TimeUnique -->
<g id="edge22" class="edge"><title>TimeFormat&#45;&gt;TimeUnique</title>
<path fill="none" stroke="black" stroke-width="0.5" d="M86.7659,-241.028C105.047,-246.039 127.555,-252.208 146.607,-257.429"/>
<polygon fill="black" stroke="black" stroke-width="0.5" points="146.598,-259.241 151.883,-258.875 147.523,-255.866 146.598,-259.241"/>
</g>
<!-- TimeFormat&#45;&gt;TimeDecimalYear -->
<g id="edge5" class="edge"><title>TimeFormat&#45;&gt;TimeDecimalYear</title>
<path fill="none" stroke="black" stroke-width="0.5" d="M88.1775,-231.5C102.141,-231.5 118.403,-231.5 133.656,-231.5"/>
<polygon fill="black" stroke="black" stroke-width="0.5" points="133.785,-233.25 138.785,-231.5 133.785,-229.75 133.785,-233.25"/>
</g>
<!-- TimeDeltaFormat -->
<g id="node15" class="node"><title>TimeDeltaFormat</title>
<g id="a_node15"><a xlink:href="../api/astropy.time.TimeDeltaFormat.html#astropy.time.TimeDeltaFormat" xlink:title="Base class for time delta representations">
<polygon fill="none" stroke="black" stroke-width="0.5" points="238,-204 138,-204 138,-185 238,-185 238,-204"/>
<text text-anchor="middle" x="188" y="-192" font-family="Vera Sans, DejaVu Sans, Liberation Sans, Arial, Helvetica, sans" font-size="10.00">TimeDeltaFormat</text>
</a>
</g>
</g>
<!-- TimeFormat&#45;&gt;TimeDeltaFormat -->
<g id="edge7" class="edge"><title>TimeFormat&#45;&gt;TimeDeltaFormat</title>
<path fill="none" stroke="black" stroke-width="0.5" d="M86.7659,-221.972C105.047,-216.961 127.555,-210.792 146.607,-205.571"/>
<polygon fill="black" stroke="black" stroke-width="0.5" points="147.523,-207.134 151.883,-204.125 146.598,-203.759 147.523,-207.134"/>
</g>
<!-- TimeJD -->
<g id="node22" class="node"><title>TimeJD</title>
<g id="a_node22"><a xlink:href="../api/astropy.time.TimeJD.html#astropy.time.TimeJD" xlink:title="Julian Date time format.">
<polygon fill="none" stroke="black" stroke-width="0.5" points="215,-167 161,-167 161,-148 215,-148 215,-167"/>
<text text-anchor="middle" x="188" y="-155" font-family="Vera Sans, DejaVu Sans, Liberation Sans, Arial, Helvetica, sans" font-size="10.00">TimeJD</text>
</a>
</g>
</g>
<!-- TimeFormat&#45;&gt;TimeJD -->
<g id="edge16" class="edge"><title>TimeFormat&#45;&gt;TimeJD</title>
<path fill="none" stroke="black" stroke-width="0.5" d="M64.8524,-221.804C81.1993,-209.791 110.603,-189.232 138,-175.5 143.633,-172.676 149.821,-170.059 155.847,-167.744"/>
<polygon fill="black" stroke="black" stroke-width="0.5" points="156.784,-169.262 160.855,-165.872 155.559,-165.983 156.784,-169.262"/>
</g>
<!-- TimeMJD -->
<g id="node25" class="node"><title>TimeMJD</title>
<g id="a_node25"><a xlink:href="../api/astropy.time.TimeMJD.html#astropy.time.TimeMJD" xlink:title="Modified Julian Date time format.">
<polygon fill="none" stroke="black" stroke-width="0.5" points="217,-130 159,-130 159,-111 217,-111 217,-130"/>
<text text-anchor="middle" x="188" y="-118" font-family="Vera Sans, DejaVu Sans, Liberation Sans, Arial, Helvetica, sans" font-size="10.00">TimeMJD</text>
</a>
</g>
</g>
<!-- TimeFormat&#45;&gt;TimeMJD -->
<g id="edge19" class="edge"><title>TimeFormat&#45;&gt;TimeMJD</title>
<path fill="none" stroke="black" stroke-width="0.5" d="M58.4444,-221.943C71.4208,-203.375 102.509,-162.174 138,-138.5 142.948,-135.2 148.579,-132.409 154.218,-130.082"/>
<polygon fill="black" stroke="black" stroke-width="0.5" points="154.921,-131.687 158.941,-128.237 153.647,-128.426 154.921,-131.687"/>
</g>
<!-- TimeDeltaJD -->
<g id="node16" class="node"><title>TimeDeltaJD</title>
<g id="a_node16"><a xlink:href="../api/astropy.time.TimeDeltaJD.html#astropy.time.TimeDeltaJD" xlink:title="Time delta in Julian days (86400 SI seconds)">
<polygon fill="none" stroke="black" stroke-width="0.5" points="369,-204 294,-204 294,-185 369,-185 369,-204"/>
<text text-anchor="middle" x="331.5" y="-192" font-family="Vera Sans, DejaVu Sans, Liberation Sans, Arial, Helvetica, sans" font-size="10.00">TimeDeltaJD</text>
</a>
</g>
</g>
<!-- TimeDeltaFormat&#45;&gt;TimeDeltaJD -->
<g id="edge8" class="edge"><title>TimeDeltaFormat&#45;&gt;TimeDeltaJD</title>
<path fill="none" stroke="black" stroke-width="0.5" d="M238.093,-194.5C254.587,-194.5 272.819,-194.5 288.7,-194.5"/>
<polygon fill="black" stroke="black" stroke-width="0.5" points="288.99,-196.25 293.99,-194.5 288.99,-192.75 288.99,-196.25"/>
</g>
<!-- TimeDeltaSec -->
<g id="node17" class="node"><title>TimeDeltaSec</title>
<g id="a_node17"><a xlink:href="../api/astropy.time.TimeDeltaSec.html#astropy.time.TimeDeltaSec" xlink:title="Time delta in SI seconds">
<polygon fill="none" stroke="black" stroke-width="0.5" points="373,-167 290,-167 290,-148 373,-148 373,-167"/>
<text text-anchor="middle" x="331.5" y="-155" font-family="Vera Sans, DejaVu Sans, Liberation Sans, Arial, Helvetica, sans" font-size="10.00">TimeDeltaSec</text>
</a>
</g>
</g>
<!-- TimeDeltaFormat&#45;&gt;TimeDeltaSec -->
<g id="edge9" class="edge"><title>TimeDeltaFormat&#45;&gt;TimeDeltaSec</title>
<path fill="none" stroke="black" stroke-width="0.5" d="M225.44,-184.972C244.765,-179.918 268.596,-173.687 288.673,-168.437"/>
<polygon fill="black" stroke="black" stroke-width="0.5" points="289.297,-170.083 293.692,-167.125 288.412,-166.697 289.297,-170.083"/>
</g>
<!-- TimeString&#45;&gt;TimeEpochDateString -->
<g id="edge11" class="edge"><title>TimeString&#45;&gt;TimeEpochDateString</title>
<path fill="none" stroke="black" stroke-width="0.5" d="M363.578,-241.087C371.92,-243.894 380.878,-247.123 389,-250.5 405.518,-257.368 408.379,-261.886 425,-268.5 431.153,-270.948 437.774,-273.257 444.286,-275.352"/>
<polygon fill="black" stroke="black" stroke-width="0.5" points="443.941,-277.078 449.235,-276.912 444.993,-273.74 443.941,-277.078"/>
</g>
<!-- TimeISO -->
<g id="node20" class="node"><title>TimeISO</title>
<g id="a_node20"><a xlink:href="../api/astropy.time.TimeISO.html#astropy.time.TimeISO" xlink:title="ISO 8601 compliant date&#45;time format &quot;YYYY&#45;MM&#45;DD HH:MM:SS.sss...&quot;.">
<polygon fill="none" stroke="black" stroke-width="0.5" points="513.5,-259 457.5,-259 457.5,-240 513.5,-240 513.5,-259"/>
<text text-anchor="middle" x="485.5" y="-247" font-family="Vera Sans, DejaVu Sans, Liberation Sans, Arial, Helvetica, sans" font-size="10.00">TimeISO</text>
</a>
</g>
</g>
<!-- TimeString&#45;&gt;TimeISO -->
<g id="edge14" class="edge"><title>TimeString&#45;&gt;TimeISO</title>
<path fill="none" stroke="black" stroke-width="0.5" d="M365.857,-235.45C391.475,-238.484 426.651,-242.649 452.042,-245.656"/>
<polygon fill="black" stroke="black" stroke-width="0.5" points="452.134,-247.429 457.305,-246.28 452.545,-243.954 452.134,-247.429"/>
</g>
<!-- TimeISOT -->
<g id="node21" class="node"><title>TimeISOT</title>
<g id="a_node21"><a xlink:href="../api/astropy.time.TimeISOT.html#astropy.time.TimeISOT" xlink:title="ISO 8601 compliant date&#45;time format &quot;YYYY&#45;MM&#45;DDTHH:MM:SS.sss...&quot;.">
<polygon fill="none" stroke="black" stroke-width="0.5" points="516.5,-222 454.5,-222 454.5,-203 516.5,-203 516.5,-222"/>
<text text-anchor="middle" x="485.5" y="-210" font-family="Vera Sans, DejaVu Sans, Liberation Sans, Arial, Helvetica, sans" font-size="10.00">TimeISOT</text>
</a>
</g>
</g>
<!-- TimeString&#45;&gt;TimeISOT -->
<g id="edge15" class="edge"><title>TimeString&#45;&gt;TimeISOT</title>
<path fill="none" stroke="black" stroke-width="0.5" d="M365.857,-227.33C390.496,-224.25 423.977,-220.065 449.089,-216.926"/>
<polygon fill="black" stroke="black" stroke-width="0.5" points="449.571,-218.63 454.315,-216.273 449.136,-215.157 449.571,-218.63"/>
</g>
<!-- TimeYearDayTime -->
<g id="node28" class="node"><title>TimeYearDayTime</title>
<g id="a_node28"><a xlink:href="../api/astropy.time.TimeYearDayTime.html#astropy.time.TimeYearDayTime" xlink:title="Year, day&#45;of&#45;year and time as &quot;YYYY:DOY:HH:MM:SS.sss...&quot;.">
<polygon fill="none" stroke="black" stroke-width="0.5" points="536,-185 435,-185 435,-166 536,-166 536,-185"/>
<text text-anchor="middle" x="485.5" y="-173" font-family="Vera Sans, DejaVu Sans, Liberation Sans, Arial, Helvetica, sans" font-size="10.00">TimeYearDayTime</text>
</a>
</g>
</g>
<!-- TimeString&#45;&gt;TimeYearDayTime -->
<g id="edge24" class="edge"><title>TimeString&#45;&gt;TimeYearDayTime</title>
<path fill="none" stroke="black" stroke-width="0.5" d="M363.923,-221.933C372.181,-219.148 381.01,-215.925 389,-212.5 405.628,-205.371 408.265,-200.373 425,-193.5 431.046,-191.017 437.561,-188.701 443.986,-186.613"/>
<polygon fill="black" stroke="black" stroke-width="0.5" points="444.636,-188.243 448.871,-185.061 443.576,-184.907 444.636,-188.243"/>
</g>
</g>
</svg>
