<?xml version="1.0" encoding="UTF-8" standalone="no"?>
<!DOCTYPE svg PUBLIC "-//W3C//DTD SVG 1.1//EN"
 "http://www.w3.org/Graphics/SVG/1.1/DTD/svg11.dtd">
<!-- Generated by graphviz version 2.38.0 (20140413.2041)
 -->
<!-- Title: inheritanceec53744177 Pages: 1 -->
<svg width="421pt" height="397pt"
 viewBox="0.00 0.00 421.00 397.00" xmlns="http://www.w3.org/2000/svg" xmlns:xlink="http://www.w3.org/1999/xlink">
<g id="graph0" class="graph" transform="scale(1 1) rotate(0) translate(4 393)">
<title>inheritanceec53744177</title>
<polygon fill="white" stroke="none" points="-4,4 -4,-393 417,-393 417,4 -4,4"/>
<!-- AstropyUserWarning -->
<g id="node1" class="node"><title>AstropyUserWarning</title>
<g id="a_node1"><a xlink:href="../../api/astropy.utils.exceptions.AstropyUserWarning.html#astropy.utils.exceptions.AstropyUserWarning" xlink:title="The primary warning class for Astropy.">
<polygon fill="none" stroke="black" stroke-width="0.5" points="283,-19 170,-19 170,-0 283,-0 283,-19"/>
<text text-anchor="middle" x="226.5" y="-7" font-family="Vera Sans, DejaVu Sans, Liberation Sans, Arial, Helvetica, sans" font-size="10.00">AstropyUserWarning</text>
</a>
</g>
</g>
<!-- SAMPWarning -->
<g id="node15" class="node"><title>SAMPWarning</title>
<g id="a_node15"><a xlink:href="../../api/astropy.vo.samp.SAMPWarning.html#astropy.vo.samp.SAMPWarning" xlink:title="SAMP&#45;specific Astropy warning class">
<polygon fill="none" stroke="black" stroke-width="0.5" points="407,-19 325,-19 325,-0 407,-0 407,-19"/>
<text text-anchor="middle" x="366" y="-7" font-family="Vera Sans, DejaVu Sans, Liberation Sans, Arial, Helvetica, sans" font-size="10.00">SAMPWarning</text>
</a>
</g>
</g>
<!-- AstropyUserWarning&#45;&gt;SAMPWarning -->
<g id="edge5" class="edge"><title>AstropyUserWarning&#45;&gt;SAMPWarning</title>
<path fill="none" stroke="black" stroke-width="0.5" d="M283.03,-9.5C295.182,-9.5 307.905,-9.5 319.605,-9.5"/>
<polygon fill="black" stroke="black" stroke-width="0.5" points="319.903,-11.2501 324.903,-9.5 319.903,-7.75009 319.903,-11.2501"/>
</g>
<!-- AstropyWarning -->
<g id="node2" class="node"><title>AstropyWarning</title>
<g id="a_node2"><a xlink:href="../../api/astropy.utils.exceptions.AstropyWarning.html#astropy.utils.exceptions.AstropyWarning" xlink:title="The base warning class from which all Astropy warnings should inherit.">
<polygon fill="none" stroke="black" stroke-width="0.5" points="112.5,-19 21.5,-19 21.5,-0 112.5,-0 112.5,-19"/>
<text text-anchor="middle" x="67" y="-7" font-family="Vera Sans, DejaVu Sans, Liberation Sans, Arial, Helvetica, sans" font-size="10.00">AstropyWarning</text>
</a>
</g>
</g>
<!-- AstropyWarning&#45;&gt;AstropyUserWarning -->
<g id="edge1" class="edge"><title>AstropyWarning&#45;&gt;AstropyUserWarning</title>
<path fill="none" stroke="black" stroke-width="0.5" d="M112.712,-9.5C128.784,-9.5 147.197,-9.5 164.422,-9.5"/>
<polygon fill="black" stroke="black" stroke-width="0.5" points="164.726,-11.2501 169.725,-9.5 164.725,-7.75009 164.726,-11.2501"/>
</g>
<!-- Conf -->
<g id="node3" class="node"><title>Conf</title>
<g id="a_node3"><a xlink:href="../../api/astropy.vo.samp.Conf.html#astropy.vo.samp.Conf" xlink:title="Configuration parameters for `astropy.vo.samp`.">
<polygon fill="none" stroke="black" stroke-width="0.5" points="253.5,-56 199.5,-56 199.5,-37 253.5,-37 253.5,-56"/>
<text text-anchor="middle" x="226.5" y="-44" font-family="Vera Sans, DejaVu Sans, Liberation Sans, Arial, Helvetica, sans" font-size="10.00">Conf</text>
</a>
</g>
</g>
<!-- ConfigNamespace -->
<g id="node4" class="node"><title>ConfigNamespace</title>
<g id="a_node4"><a xlink:href="../../api/astropy.config.ConfigNamespace.html#astropy.config.ConfigNamespace" xlink:title="A namespace of configuration items. &#160;Each subpackage with">
<polygon fill="none" stroke="black" stroke-width="0.5" points="119,-56 15,-56 15,-37 119,-37 119,-56"/>
<text text-anchor="middle" x="67" y="-44" font-family="Vera Sans, DejaVu Sans, Liberation Sans, Arial, Helvetica, sans" font-size="10.00">ConfigNamespace</text>
</a>
</g>
</g>
<!-- ConfigNamespace&#45;&gt;Conf -->
<g id="edge2" class="edge"><title>ConfigNamespace&#45;&gt;Conf</title>
<path fill="none" stroke="black" stroke-width="0.5" d="M119.136,-46.5C143.916,-46.5 172.873,-46.5 194.312,-46.5"/>
<polygon fill="black" stroke="black" stroke-width="0.5" points="194.317,-48.2501 199.317,-46.5 194.317,-44.7501 194.317,-48.2501"/>
</g>
<!-- Error -->
<g id="node5" class="node"><title>Error</title>
<g id="a_node5"><a xlink:title="Base class for client errors.">
<polygon fill="none" stroke="black" stroke-width="0.5" points="94,-93 40,-93 40,-74 94,-74 94,-93"/>
<text text-anchor="middle" x="67" y="-81" font-family="Vera Sans, DejaVu Sans, Liberation Sans, Arial, Helvetica, sans" font-size="10.00">Error</text>
</a>
</g>
</g>
<!-- Fault -->
<g id="node6" class="node"><title>Fault</title>
<g id="a_node6"><a xlink:title="Indicates an XML&#45;RPC fault package.">
<polygon fill="none" stroke="black" stroke-width="0.5" points="253.5,-93 199.5,-93 199.5,-74 253.5,-74 253.5,-93"/>
<text text-anchor="middle" x="226.5" y="-81" font-family="Vera Sans, DejaVu Sans, Liberation Sans, Arial, Helvetica, sans" font-size="10.00">Fault</text>
</a>
</g>
</g>
<!-- Error&#45;&gt;Fault -->
<g id="edge3" class="edge"><title>Error&#45;&gt;Fault</title>
<path fill="none" stroke="black" stroke-width="0.5" d="M94.0079,-83.5C121.48,-83.5 164.801,-83.5 194.144,-83.5"/>
<polygon fill="black" stroke="black" stroke-width="0.5" points="194.453,-85.2501 199.453,-83.5 194.453,-81.7501 194.453,-85.2501"/>
</g>
<!-- SAMPProxyError -->
<g id="node14" class="node"><title>SAMPProxyError</title>
<g id="a_node14"><a xlink:href="../../api/astropy.vo.samp.SAMPProxyError.html#astropy.vo.samp.SAMPProxyError" xlink:title="SAMP Proxy Hub exception">
<polygon fill="none" stroke="black" stroke-width="0.5" points="413,-93 319,-93 319,-74 413,-74 413,-93"/>
<text text-anchor="middle" x="366" y="-81" font-family="Vera Sans, DejaVu Sans, Liberation Sans, Arial, Helvetica, sans" font-size="10.00">SAMPProxyError</text>
</a>
</g>
</g>
<!-- Fault&#45;&gt;SAMPProxyError -->
<g id="edge4" class="edge"><title>Fault&#45;&gt;SAMPProxyError</title>
<path fill="none" stroke="black" stroke-width="0.5" d="M253.686,-83.5C270.639,-83.5 293.283,-83.5 313.721,-83.5"/>
<polygon fill="black" stroke="black" stroke-width="0.5" points="313.865,-85.2501 318.865,-83.5 313.865,-81.7501 313.865,-85.2501"/>
</g>
<!-- SAMPClient -->
<g id="node7" class="node"><title>SAMPClient</title>
<g id="a_node7"><a xlink:href="../../api/astropy.vo.samp.SAMPClient.html#astropy.vo.samp.SAMPClient" xlink:title="Utility class which provides facilities to create and manage a SAMP">
<polygon fill="none" stroke="black" stroke-width="0.5" points="102.5,-130 31.5,-130 31.5,-111 102.5,-111 102.5,-130"/>
<text text-anchor="middle" x="67" y="-118" font-family="Vera Sans, DejaVu Sans, Liberation Sans, Arial, Helvetica, sans" font-size="10.00">SAMPClient</text>
</a>
</g>
</g>
<!-- SAMPClientError -->
<g id="node8" class="node"><title>SAMPClientError</title>
<g id="a_node8"><a xlink:href="../../api/astropy.vo.samp.SAMPClientError.html#astropy.vo.samp.SAMPClientError" xlink:title="SAMP Client exceptions.">
<polygon fill="none" stroke="black" stroke-width="0.5" points="114.5,-167 19.5,-167 19.5,-148 114.5,-148 114.5,-167"/>
<text text-anchor="middle" x="67" y="-155" font-family="Vera Sans, DejaVu Sans, Liberation Sans, Arial, Helvetica, sans" font-size="10.00">SAMPClientError</text>
</a>
</g>
</g>
<!-- SAMPHubError -->
<g id="node9" class="node"><title>SAMPHubError</title>
<g id="a_node9"><a xlink:href="../../api/astropy.vo.samp.SAMPHubError.html#astropy.vo.samp.SAMPHubError" xlink:title="SAMP Hub exception.">
<polygon fill="none" stroke="black" stroke-width="0.5" points="110.5,-204 23.5,-204 23.5,-185 110.5,-185 110.5,-204"/>
<text text-anchor="middle" x="67" y="-192" font-family="Vera Sans, DejaVu Sans, Liberation Sans, Arial, Helvetica, sans" font-size="10.00">SAMPHubError</text>
</a>
</g>
</g>
<!-- SAMPHubProxy -->
<g id="node10" class="node"><title>SAMPHubProxy</title>
<g id="a_node10"><a xlink:href="../../api/astropy.vo.samp.SAMPHubProxy.html#astropy.vo.samp.SAMPHubProxy" xlink:title="Proxy class to simplify the client interaction with a SAMP hub (via the">
<polygon fill="none" stroke="black" stroke-width="0.5" points="112,-241 22,-241 22,-222 112,-222 112,-241"/>
<text text-anchor="middle" x="67" y="-229" font-family="Vera Sans, DejaVu Sans, Liberation Sans, Arial, Helvetica, sans" font-size="10.00">SAMPHubProxy</text>
</a>
</g>
</g>
<!-- SAMPHubServer -->
<g id="node11" class="node"><title>SAMPHubServer</title>
<g id="a_node11"><a xlink:href="../../api/astropy.vo.samp.SAMPHubServer.html#astropy.vo.samp.SAMPHubServer" xlink:title="SAMP Hub Server.">
<polygon fill="none" stroke="black" stroke-width="0.5" points="114.5,-278 19.5,-278 19.5,-259 114.5,-259 114.5,-278"/>
<text text-anchor="middle" x="67" y="-266" font-family="Vera Sans, DejaVu Sans, Liberation Sans, Arial, Helvetica, sans" font-size="10.00">SAMPHubServer</text>
</a>
</g>
</g>
<!-- SAMPIntegratedClient -->
<g id="node12" class="node"><title>SAMPIntegratedClient</title>
<g id="a_node12"><a xlink:href="../../api/astropy.vo.samp.SAMPIntegratedClient.html#astropy.vo.samp.SAMPIntegratedClient" xlink:title="A Simple SAMP client.">
<polygon fill="none" stroke="black" stroke-width="0.5" points="127.5,-315 6.5,-315 6.5,-296 127.5,-296 127.5,-315"/>
<text text-anchor="middle" x="67" y="-303" font-family="Vera Sans, DejaVu Sans, Liberation Sans, Arial, Helvetica, sans" font-size="10.00">SAMPIntegratedClient</text>
</a>
</g>
</g>
<!-- SAMPMsgReplierWrapper -->
<g id="node13" class="node"><title>SAMPMsgReplierWrapper</title>
<g id="a_node13"><a xlink:href="../../api/astropy.vo.samp.SAMPMsgReplierWrapper.html#astropy.vo.samp.SAMPMsgReplierWrapper" xlink:title="Function decorator that allows to automatically grab errors and returned">
<polygon fill="none" stroke="black" stroke-width="0.5" points="134,-352 0,-352 0,-333 134,-333 134,-352"/>
<text text-anchor="middle" x="67" y="-340" font-family="Vera Sans, DejaVu Sans, Liberation Sans, Arial, Helvetica, sans" font-size="10.00">SAMPMsgReplierWrapper</text>
</a>
</g>
</g>
<!-- WebProfileDialog -->
<g id="node16" class="node"><title>WebProfileDialog</title>
<g id="a_node16"><a xlink:href="../../api/astropy.vo.samp.WebProfileDialog.html#astropy.vo.samp.WebProfileDialog" xlink:title="A base class to make writing Web Profile GUI consent dialogs">
<polygon fill="none" stroke="black" stroke-width="0.5" points="114.5,-389 19.5,-389 19.5,-370 114.5,-370 114.5,-389"/>
<text text-anchor="middle" x="67" y="-377" font-family="Vera Sans, DejaVu Sans, Liberation Sans, Arial, Helvetica, sans" font-size="10.00">WebProfileDialog</text>
</a>
</g>
</g>
</g>
</svg>
