<?xml version="1.0" encoding="UTF-8" standalone="no"?>
<!DOCTYPE svg PUBLIC "-//W3C//DTD SVG 1.1//EN"
 "http://www.w3.org/Graphics/SVG/1.1/DTD/svg11.dtd">
<!-- Generated by graphviz version 2.38.0 (20140413.2041)
 -->
<!-- Title: inheritanced1c8716f0d Pages: 1 -->
<svg width="318pt" height="156pt"
 viewBox="0.00 0.00 318.00 156.00" xmlns="http://www.w3.org/2000/svg" xmlns:xlink="http://www.w3.org/1999/xlink">
<g id="graph0" class="graph" transform="scale(1 1) rotate(0) translate(4 152)">
<title>inheritanced1c8716f0d</title>
<polygon fill="white" stroke="none" points="-4,4 -4,-152 314,-152 314,4 -4,4"/>
<!-- AstropyWarning -->
<g id="node1" class="node"><title>AstropyWarning</title>
<g id="a_node1"><a xlink:href="../api/astropy.utils.exceptions.AstropyWarning.html#astropy.utils.exceptions.AstropyWarning" xlink:title="The base warning class from which all Astropy warnings should inherit.">
<polygon fill="none" stroke="black" stroke-width="0.5" points="97.5,-37 6.5,-37 6.5,-18 97.5,-18 97.5,-37"/>
<text text-anchor="middle" x="52" y="-25" font-family="Vera Sans, DejaVu Sans, Liberation Sans, Arial, Helvetica, sans" font-size="10.00">AstropyWarning</text>
</a>
</g>
</g>
<!-- ConfigurationMissingWarning -->
<g id="node6" class="node"><title>ConfigurationMissingWarning</title>
<g id="a_node6"><a xlink:href="../api/astropy.config.ConfigurationMissingWarning.html#astropy.config.ConfigurationMissingWarning" xlink:title="A Warning that is issued when the configuration directory cannot be">
<polygon fill="none" stroke="black" stroke-width="0.5" points="301.5,-56 148.5,-56 148.5,-37 301.5,-37 301.5,-56"/>
<text text-anchor="middle" x="225" y="-44" font-family="Vera Sans, DejaVu Sans, Liberation Sans, Arial, Helvetica, sans" font-size="10.00">ConfigurationMissingWarning</text>
</a>
</g>
</g>
<!-- AstropyWarning&#45;&gt;ConfigurationMissingWarning -->
<g id="edge3" class="edge"><title>AstropyWarning&#45;&gt;ConfigurationMissingWarning</title>
<path fill="none" stroke="black" stroke-width="0.5" d="M97.9282,-32.492C111.797,-34.033 127.52,-35.78 143.043,-37.5048"/>
<polygon fill="black" stroke="black" stroke-width="0.5" points="143.134,-39.2756 148.297,-38.0885 143.521,-35.797 143.134,-39.2756"/>
</g>
<!-- InvalidConfigurationItemWarning -->
<g id="node7" class="node"><title>InvalidConfigurationItemWarning</title>
<g id="a_node7"><a xlink:href="../api/astropy.config.InvalidConfigurationItemWarning.html#astropy.config.InvalidConfigurationItemWarning" xlink:title="A Warning that is issued when the configuration value specified in the">
<polygon fill="none" stroke="black" stroke-width="0.5" points="310,-19 140,-19 140,-0 310,-0 310,-19"/>
<text text-anchor="middle" x="225" y="-7" font-family="Vera Sans, DejaVu Sans, Liberation Sans, Arial, Helvetica, sans" font-size="10.00">InvalidConfigurationItemWarning</text>
</a>
</g>
</g>
<!-- AstropyWarning&#45;&gt;InvalidConfigurationItemWarning -->
<g id="edge4" class="edge"><title>AstropyWarning&#45;&gt;InvalidConfigurationItemWarning</title>
<path fill="none" stroke="black" stroke-width="0.5" d="M97.9282,-22.7707C109.372,-21.5661 122.078,-20.2286 134.893,-18.8797"/>
<polygon fill="black" stroke="black" stroke-width="0.5" points="135.21,-20.6061 139.999,-18.3422 134.843,-17.1253 135.21,-20.6061"/>
</g>
<!-- ConfigAlias -->
<g id="node2" class="node"><title>ConfigAlias</title>
<g id="a_node2"><a xlink:href="../api/astropy.config.ConfigAlias.html#astropy.config.ConfigAlias" xlink:title="A class that exists to support backward compatibility only.">
<polygon fill="none" stroke="black" stroke-width="0.5" points="259.5,-130 190.5,-130 190.5,-111 259.5,-111 259.5,-130"/>
<text text-anchor="middle" x="225" y="-118" font-family="Vera Sans, DejaVu Sans, Liberation Sans, Arial, Helvetica, sans" font-size="10.00">ConfigAlias</text>
</a>
</g>
</g>
<!-- ConfigItem -->
<g id="node3" class="node"><title>ConfigItem</title>
<g id="a_node3"><a xlink:href="../api/astropy.config.ConfigItem.html#astropy.config.ConfigItem" xlink:title="A setting and associated value stored in a configuration file.">
<polygon fill="none" stroke="black" stroke-width="0.5" points="86,-111 18,-111 18,-92 86,-92 86,-111"/>
<text text-anchor="middle" x="52" y="-99" font-family="Vera Sans, DejaVu Sans, Liberation Sans, Arial, Helvetica, sans" font-size="10.00">ConfigItem</text>
</a>
</g>
</g>
<!-- ConfigItem&#45;&gt;ConfigAlias -->
<g id="edge1" class="edge"><title>ConfigItem&#45;&gt;ConfigAlias</title>
<path fill="none" stroke="black" stroke-width="0.5" d="M86.3765,-105.208C114.767,-108.363 155.558,-112.895 185.359,-116.207"/>
<polygon fill="black" stroke="black" stroke-width="0.5" points="185.253,-117.955 190.416,-116.768 185.64,-114.477 185.253,-117.955"/>
</g>
<!-- ConfigurationItem -->
<g id="node5" class="node"><title>ConfigurationItem</title>
<g id="a_node5"><a xlink:href="../api/astropy.config.ConfigurationItem.html#astropy.config.ConfigurationItem" xlink:title="A backward&#45;compatibility layer to support the old">
<polygon fill="none" stroke="black" stroke-width="0.5" points="276,-93 174,-93 174,-74 276,-74 276,-93"/>
<text text-anchor="middle" x="225" y="-81" font-family="Vera Sans, DejaVu Sans, Liberation Sans, Arial, Helvetica, sans" font-size="10.00">ConfigurationItem</text>
</a>
</g>
</g>
<!-- ConfigItem&#45;&gt;ConfigurationItem -->
<g id="edge2" class="edge"><title>ConfigItem&#45;&gt;ConfigurationItem</title>
<path fill="none" stroke="black" stroke-width="0.5" d="M86.3765,-97.9867C109.801,-95.521 141.665,-92.1668 168.834,-89.3069"/>
<polygon fill="black" stroke="black" stroke-width="0.5" points="169.06,-91.0429 173.85,-88.779 168.694,-87.5621 169.06,-91.0429"/>
</g>
<!-- ConfigNamespace -->
<g id="node4" class="node"><title>ConfigNamespace</title>
<g id="a_node4"><a xlink:href="../api/astropy.config.ConfigNamespace.html#astropy.config.ConfigNamespace" xlink:title="A namespace of configuration items. &#160;Each subpackage with">
<polygon fill="none" stroke="black" stroke-width="0.5" points="104,-148 0,-148 0,-129 104,-129 104,-148"/>
<text text-anchor="middle" x="52" y="-136" font-family="Vera Sans, DejaVu Sans, Liberation Sans, Arial, Helvetica, sans" font-size="10.00">ConfigNamespace</text>
</a>
</g>
</g>
</g>
</svg>
