<?xml version="1.0" encoding="UTF-8" standalone="no"?>
<!DOCTYPE svg PUBLIC "-//W3C//DTD SVG 1.1//EN"
 "http://www.w3.org/Graphics/SVG/1.1/DTD/svg11.dtd">
<!-- Generated by graphviz version 2.38.0 (20140413.2041)
 -->
<!-- Title: inheritanced5bc330eda Pages: 1 -->
<svg width="394pt" height="864pt"
 viewBox="0.00 0.00 393.69 864.00" xmlns="http://www.w3.org/2000/svg" xmlns:xlink="http://www.w3.org/1999/xlink">
<g id="graph0" class="graph" transform="scale(0.703011 0.703011) rotate(0) translate(4 1225)">
<title>inheritanced5bc330eda</title>
<polygon fill="white" stroke="none" points="-4,4 -4,-1225 556,-1225 556,4 -4,4"/>
<!-- AltAz -->
<g id="node1" class="node"><title>AltAz</title>
<g id="a_node1"><a xlink:href="../api/astropy.coordinates.AltAz.html#astropy.coordinates.AltAz" xlink:title="A coordinate or frame in the Altitude&#45;Azimuth system (Horizontal">
<polygon fill="none" stroke="black" stroke-width="0.5" points="276,-389 222,-389 222,-370 276,-370 276,-389"/>
<text text-anchor="middle" x="249" y="-377" font-family="Vera Sans, DejaVu Sans, Liberation Sans, Arial, Helvetica, sans" font-size="10.00">AltAz</text>
</a>
</g>
</g>
<!-- BaseCoordinateFrame -->
<g id="node2" class="node"><title>BaseCoordinateFrame</title>
<g id="a_node2"><a xlink:href="../api/astropy.coordinates.BaseCoordinateFrame.html#astropy.coordinates.BaseCoordinateFrame" xlink:title="The base class for coordinate frames.">
<polygon fill="none" stroke="black" stroke-width="0.5" points="126,-204 3,-204 3,-185 126,-185 126,-204"/>
<text text-anchor="middle" x="64.5" y="-192" font-family="Vera Sans, DejaVu Sans, Liberation Sans, Arial, Helvetica, sans" font-size="10.00">BaseCoordinateFrame</text>
</a>
</g>
</g>
<!-- BaseCoordinateFrame&#45;&gt;AltAz -->
<g id="edge1" class="edge"><title>BaseCoordinateFrame&#45;&gt;AltAz</title>
<path fill="none" stroke="black" stroke-width="0.5" d="M68.3243,-204.224C77.236,-233.088 107.628,-318.851 165,-360.5 179.961,-371.361 200.113,-376.144 216.813,-378.197"/>
<polygon fill="black" stroke="black" stroke-width="0.5" points="216.715,-379.946 221.876,-378.75 217.095,-376.467 216.715,-379.946"/>
</g>
<!-- CIRS -->
<g id="node9" class="node"><title>CIRS</title>
<g id="a_node9"><a xlink:href="../api/astropy.coordinates.CIRS.html#astropy.coordinates.CIRS" xlink:title="A coordinate or frame in the Celestial Intermediate Reference System (CIRS).">
<polygon fill="none" stroke="black" stroke-width="0.5" points="276,-352 222,-352 222,-333 276,-333 276,-352"/>
<text text-anchor="middle" x="249" y="-340" font-family="Vera Sans, DejaVu Sans, Liberation Sans, Arial, Helvetica, sans" font-size="10.00">CIRS</text>
</a>
</g>
</g>
<!-- BaseCoordinateFrame&#45;&gt;CIRS -->
<g id="edge4" class="edge"><title>BaseCoordinateFrame&#45;&gt;CIRS</title>
<path fill="none" stroke="black" stroke-width="0.5" d="M69.9592,-204.097C81.7386,-228.323 116.167,-292.24 165,-323.5 180.457,-333.395 200.444,-338.161 216.931,-340.446"/>
<polygon fill="black" stroke="black" stroke-width="0.5" points="216.746,-342.186 221.926,-341.078 217.186,-338.714 216.746,-342.186"/>
</g>
<!-- FK4 -->
<g id="node20" class="node"><title>FK4</title>
<g id="a_node20"><a xlink:href="../api/astropy.coordinates.FK4.html#astropy.coordinates.FK4" xlink:title="A coordinate or frame in the FK4 system.">
<polygon fill="none" stroke="black" stroke-width="0.5" points="276,-315 222,-315 222,-296 276,-296 276,-315"/>
<text text-anchor="middle" x="249" y="-303" font-family="Vera Sans, DejaVu Sans, Liberation Sans, Arial, Helvetica, sans" font-size="10.00">FK4</text>
</a>
</g>
</g>
<!-- BaseCoordinateFrame&#45;&gt;FK4 -->
<g id="edge12" class="edge"><title>BaseCoordinateFrame&#45;&gt;FK4</title>
<path fill="none" stroke="black" stroke-width="0.5" d="M72.845,-204.034C87.9331,-222.915 124.427,-265.085 165,-286.5 180.856,-294.869 200.319,-299.573 216.411,-302.206"/>
<polygon fill="black" stroke="black" stroke-width="0.5" points="216.522,-303.993 221.729,-303.022 217.053,-300.534 216.522,-303.993"/>
</g>
<!-- FK4NoETerms -->
<g id="node21" class="node"><title>FK4NoETerms</title>
<g id="a_node21"><a xlink:href="../api/astropy.coordinates.FK4NoETerms.html#astropy.coordinates.FK4NoETerms" xlink:title="A coordinate or frame in the FK4 system, but with the E&#45;terms of aberration">
<polygon fill="none" stroke="black" stroke-width="0.5" points="290,-278 208,-278 208,-259 290,-259 290,-278"/>
<text text-anchor="middle" x="249" y="-266" font-family="Vera Sans, DejaVu Sans, Liberation Sans, Arial, Helvetica, sans" font-size="10.00">FK4NoETerms</text>
</a>
</g>
</g>
<!-- BaseCoordinateFrame&#45;&gt;FK4NoETerms -->
<g id="edge13" class="edge"><title>BaseCoordinateFrame&#45;&gt;FK4NoETerms</title>
<path fill="none" stroke="black" stroke-width="0.5" d="M79.7116,-204.041C98.4815,-216.238 132.919,-237.241 165,-249.5 176.947,-254.065 190.298,-257.715 202.74,-260.546"/>
<polygon fill="black" stroke="black" stroke-width="0.5" points="202.382,-262.259 207.642,-261.631 203.138,-258.842 202.382,-262.259"/>
</g>
<!-- FK5 -->
<g id="node22" class="node"><title>FK5</title>
<g id="a_node22"><a xlink:href="../api/astropy.coordinates.FK5.html#astropy.coordinates.FK5" xlink:title="A coordinate or frame in the FK5 system.">
<polygon fill="none" stroke="black" stroke-width="0.5" points="276,-241 222,-241 222,-222 276,-222 276,-241"/>
<text text-anchor="middle" x="249" y="-229" font-family="Vera Sans, DejaVu Sans, Liberation Sans, Arial, Helvetica, sans" font-size="10.00">FK5</text>
</a>
</g>
</g>
<!-- BaseCoordinateFrame&#45;&gt;FK5 -->
<g id="edge14" class="edge"><title>BaseCoordinateFrame&#45;&gt;FK5</title>
<path fill="none" stroke="black" stroke-width="0.5" d="M112.498,-204.028C145.209,-210.66 187.929,-219.321 216.579,-225.13"/>
<polygon fill="black" stroke="black" stroke-width="0.5" points="216.512,-226.902 221.76,-226.18 217.207,-223.471 216.512,-226.902"/>
</g>
<!-- GCRS -->
<g id="node24" class="node"><title>GCRS</title>
<g id="a_node24"><a xlink:href="../api/astropy.coordinates.GCRS.html#astropy.coordinates.GCRS" xlink:title="A coordinate or frame in the Geocentric Celestial Reference System (GCRS).">
<polygon fill="none" stroke="black" stroke-width="0.5" points="276,-204 222,-204 222,-185 276,-185 276,-204"/>
<text text-anchor="middle" x="249" y="-192" font-family="Vera Sans, DejaVu Sans, Liberation Sans, Arial, Helvetica, sans" font-size="10.00">GCRS</text>
</a>
</g>
</g>
<!-- BaseCoordinateFrame&#45;&gt;GCRS -->
<g id="edge16" class="edge"><title>BaseCoordinateFrame&#45;&gt;GCRS</title>
<path fill="none" stroke="black" stroke-width="0.5" d="M126.016,-194.5C156.433,-194.5 192.008,-194.5 216.863,-194.5"/>
<polygon fill="black" stroke="black" stroke-width="0.5" points="216.998,-196.25 221.998,-194.5 216.998,-192.75 216.998,-196.25"/>
</g>
<!-- Galactic -->
<g id="node25" class="node"><title>Galactic</title>
<g id="a_node25"><a xlink:href="../api/astropy.coordinates.Galactic.html#astropy.coordinates.Galactic" xlink:title="Galactic Coordinates.">
<polygon fill="none" stroke="black" stroke-width="0.5" points="276.5,-167 221.5,-167 221.5,-148 276.5,-148 276.5,-167"/>
<text text-anchor="middle" x="249" y="-155" font-family="Vera Sans, DejaVu Sans, Liberation Sans, Arial, Helvetica, sans" font-size="10.00">Galactic</text>
</a>
</g>
</g>
<!-- BaseCoordinateFrame&#45;&gt;Galactic -->
<g id="edge17" class="edge"><title>BaseCoordinateFrame&#45;&gt;Galactic</title>
<path fill="none" stroke="black" stroke-width="0.5" d="M112.498,-184.972C145.109,-178.36 187.67,-169.731 216.318,-163.923"/>
<polygon fill="black" stroke="black" stroke-width="0.5" points="216.947,-165.581 221.5,-162.873 216.251,-162.151 216.947,-165.581"/>
</g>
<!-- Galactocentric -->
<g id="node26" class="node"><title>Galactocentric</title>
<g id="a_node26"><a xlink:href="../api/astropy.coordinates.Galactocentric.html#astropy.coordinates.Galactocentric" xlink:title="A coordinate or frame in the Galactocentric system. This frame">
<polygon fill="none" stroke="black" stroke-width="0.5" points="292,-130 206,-130 206,-111 292,-111 292,-130"/>
<text text-anchor="middle" x="249" y="-118" font-family="Vera Sans, DejaVu Sans, Liberation Sans, Arial, Helvetica, sans" font-size="10.00">Galactocentric</text>
</a>
</g>
</g>
<!-- BaseCoordinateFrame&#45;&gt;Galactocentric -->
<g id="edge18" class="edge"><title>BaseCoordinateFrame&#45;&gt;Galactocentric</title>
<path fill="none" stroke="black" stroke-width="0.5" d="M79.3409,-184.929C97.9832,-172.465 132.573,-150.82 165,-138.5 176.337,-134.193 188.957,-130.795 200.865,-128.167"/>
<polygon fill="black" stroke="black" stroke-width="0.5" points="201.395,-129.844 205.919,-127.088 200.664,-126.421 201.395,-129.844"/>
</g>
<!-- GenericFrame -->
<g id="node27" class="node"><title>GenericFrame</title>
<g id="a_node27"><a xlink:href="../api/astropy.coordinates.GenericFrame.html#astropy.coordinates.GenericFrame" xlink:title="A frame object that can&#39;t store data but can hold any arbitrary frame">
<polygon fill="none" stroke="black" stroke-width="0.5" points="290.5,-93 207.5,-93 207.5,-74 290.5,-74 290.5,-93"/>
<text text-anchor="middle" x="249" y="-81" font-family="Vera Sans, DejaVu Sans, Liberation Sans, Arial, Helvetica, sans" font-size="10.00">GenericFrame</text>
</a>
</g>
</g>
<!-- BaseCoordinateFrame&#45;&gt;GenericFrame -->
<g id="edge19" class="edge"><title>BaseCoordinateFrame&#45;&gt;GenericFrame</title>
<path fill="none" stroke="black" stroke-width="0.5" d="M72.7992,-184.82C87.8048,-165.658 124.158,-122.898 165,-101.5 176.415,-95.5195 189.71,-91.5245 202.27,-88.8564"/>
<polygon fill="black" stroke="black" stroke-width="0.5" points="202.669,-90.5613 207.227,-87.8625 201.981,-87.1296 202.669,-90.5613"/>
</g>
<!-- ICRS -->
<g id="node28" class="node"><title>ICRS</title>
<g id="a_node28"><a xlink:href="../api/astropy.coordinates.ICRS.html#astropy.coordinates.ICRS" xlink:title="A coordinate or frame in the ICRS system.">
<polygon fill="none" stroke="black" stroke-width="0.5" points="276,-56 222,-56 222,-37 276,-37 276,-56"/>
<text text-anchor="middle" x="249" y="-44" font-family="Vera Sans, DejaVu Sans, Liberation Sans, Arial, Helvetica, sans" font-size="10.00">ICRS</text>
</a>
</g>
</g>
<!-- BaseCoordinateFrame&#45;&gt;ICRS -->
<g id="edge20" class="edge"><title>BaseCoordinateFrame&#45;&gt;ICRS</title>
<path fill="none" stroke="black" stroke-width="0.5" d="M69.9164,-184.795C81.5955,-160.303 115.808,-95.7221 165,-64.5 180.456,-54.6901 200.443,-50.1617 216.93,-48.0993"/>
<polygon fill="black" stroke="black" stroke-width="0.5" points="217.153,-49.8353 221.925,-47.5353 216.761,-46.3574 217.153,-49.8353"/>
</g>
<!-- ITRS -->
<g id="node29" class="node"><title>ITRS</title>
<g id="a_node29"><a xlink:href="../api/astropy.coordinates.ITRS.html#astropy.coordinates.ITRS" xlink:title="A coordinate or frame in the International Terrestrial Reference System">
<polygon fill="none" stroke="black" stroke-width="0.5" points="276,-19 222,-19 222,-0 276,-0 276,-19"/>
<text text-anchor="middle" x="249" y="-7" font-family="Vera Sans, DejaVu Sans, Liberation Sans, Arial, Helvetica, sans" font-size="10.00">ITRS</text>
</a>
</g>
</g>
<!-- BaseCoordinateFrame&#45;&gt;ITRS -->
<g id="edge21" class="edge"><title>BaseCoordinateFrame&#45;&gt;ITRS</title>
<path fill="none" stroke="black" stroke-width="0.5" d="M68.2836,-184.688C77.0818,-155.567 107.189,-69.0791 165,-27.5 179.97,-16.733 200.122,-12.1901 216.821,-10.3596"/>
<polygon fill="black" stroke="black" stroke-width="0.5" points="217.072,-12.0936 221.882,-9.87475 216.738,-8.6096 217.072,-12.0936"/>
</g>
<!-- Angle -->
<g id="node3" class="node"><title>Angle</title>
<g id="a_node3"><a xlink:href="../api/astropy.coordinates.Angle.html#astropy.coordinates.Angle" xlink:title="One or more angular value(s) with units equivalent to radians or degrees.">
<polygon fill="none" stroke="black" stroke-width="0.5" points="437.5,-463 383.5,-463 383.5,-444 437.5,-444 437.5,-463"/>
<text text-anchor="middle" x="410.5" y="-451" font-family="Vera Sans, DejaVu Sans, Liberation Sans, Arial, Helvetica, sans" font-size="10.00">Angle</text>
</a>
</g>
</g>
<!-- Latitude -->
<g id="node36" class="node"><title>Latitude</title>
<g id="a_node36"><a xlink:href="../api/astropy.coordinates.Latitude.html#astropy.coordinates.Latitude" xlink:title="Latitude&#45;like angle(s) which must be in the range &#45;90 to +90 deg.">
<polygon fill="none" stroke="black" stroke-width="0.5" points="548,-481 492,-481 492,-462 548,-462 548,-481"/>
<text text-anchor="middle" x="520" y="-469" font-family="Vera Sans, DejaVu Sans, Liberation Sans, Arial, Helvetica, sans" font-size="10.00">Latitude</text>
</a>
</g>
</g>
<!-- Angle&#45;&gt;Latitude -->
<g id="edge28" class="edge"><title>Angle&#45;&gt;Latitude</title>
<path fill="none" stroke="black" stroke-width="0.5" d="M437.523,-457.857C452.261,-460.325 470.83,-463.434 486.517,-466.061"/>
<polygon fill="black" stroke="black" stroke-width="0.5" points="486.496,-467.832 491.717,-466.932 487.075,-464.38 486.496,-467.832"/>
</g>
<!-- Longitude -->
<g id="node37" class="node"><title>Longitude</title>
<g id="a_node37"><a xlink:href="../api/astropy.coordinates.Longitude.html#astropy.coordinates.Longitude" xlink:title="Longitude&#45;like angle(s) which are wrapped within a contiguous 360 degree range.">
<polygon fill="none" stroke="black" stroke-width="0.5" points="552,-444 488,-444 488,-425 552,-425 552,-444"/>
<text text-anchor="middle" x="520" y="-432" font-family="Vera Sans, DejaVu Sans, Liberation Sans, Arial, Helvetica, sans" font-size="10.00">Longitude</text>
</a>
</g>
</g>
<!-- Angle&#45;&gt;Longitude -->
<g id="edge29" class="edge"><title>Angle&#45;&gt;Longitude</title>
<path fill="none" stroke="black" stroke-width="0.5" d="M437.523,-448.901C451.145,-446.493 468.038,-443.507 482.905,-440.88"/>
<polygon fill="black" stroke="black" stroke-width="0.5" points="483.242,-442.597 487.861,-440.004 482.633,-439.151 483.242,-442.597"/>
</g>
<!-- Quantity -->
<g id="node4" class="node"><title>Quantity</title>
<g id="a_node4"><a xlink:href="../api/astropy.units.quantity.Quantity.html#astropy.units.quantity.Quantity" xlink:title="A `~astropy.units.Quantity` represents a number with some associated unit.">
<polygon fill="none" stroke="black" stroke-width="0.5" points="277.5,-426 220.5,-426 220.5,-407 277.5,-407 277.5,-426"/>
<text text-anchor="middle" x="249" y="-414" font-family="Vera Sans, DejaVu Sans, Liberation Sans, Arial, Helvetica, sans" font-size="10.00">Quantity</text>
</a>
</g>
</g>
<!-- Quantity&#45;&gt;Angle -->
<g id="edge2" class="edge"><title>Quantity&#45;&gt;Angle</title>
<path fill="none" stroke="black" stroke-width="0.5" d="M277.713,-422.294C293.867,-425.725 314.617,-430.225 333,-434.5 347.958,-437.979 364.502,-442.058 378.367,-445.544"/>
<polygon fill="black" stroke="black" stroke-width="0.5" points="378.07,-447.274 383.346,-446.799 378.926,-443.88 378.07,-447.274"/>
</g>
<!-- Distance -->
<g id="node15" class="node"><title>Distance</title>
<g id="a_node15"><a xlink:href="../api/astropy.coordinates.Distance.html#astropy.coordinates.Distance" xlink:title="A one&#45;dimensional distance.">
<polygon fill="none" stroke="black" stroke-width="0.5" points="440,-426 381,-426 381,-407 440,-407 440,-426"/>
<text text-anchor="middle" x="410.5" y="-414" font-family="Vera Sans, DejaVu Sans, Liberation Sans, Arial, Helvetica, sans" font-size="10.00">Distance</text>
</a>
</g>
</g>
<!-- Quantity&#45;&gt;Distance -->
<g id="edge8" class="edge"><title>Quantity&#45;&gt;Distance</title>
<path fill="none" stroke="black" stroke-width="0.5" d="M277.783,-416.5C305.007,-416.5 346.54,-416.5 375.673,-416.5"/>
<polygon fill="black" stroke="black" stroke-width="0.5" points="375.962,-418.25 380.962,-416.5 375.962,-414.75 375.962,-418.25"/>
</g>
<!-- EarthLocation -->
<g id="node17" class="node"><title>EarthLocation</title>
<g id="a_node17"><a xlink:href="../api/astropy.coordinates.EarthLocation.html#astropy.coordinates.EarthLocation" xlink:title="Location on the Earth.">
<polygon fill="none" stroke="black" stroke-width="0.5" points="452,-389 369,-389 369,-370 452,-370 452,-389"/>
<text text-anchor="middle" x="410.5" y="-377" font-family="Vera Sans, DejaVu Sans, Liberation Sans, Arial, Helvetica, sans" font-size="10.00">EarthLocation</text>
</a>
</g>
</g>
<!-- Quantity&#45;&gt;EarthLocation -->
<g id="edge10" class="edge"><title>Quantity&#45;&gt;EarthLocation</title>
<path fill="none" stroke="black" stroke-width="0.5" d="M277.676,-410.209C293.818,-406.528 314.568,-401.778 333,-397.5 343.051,-395.167 353.84,-392.642 364.053,-390.241"/>
<polygon fill="black" stroke="black" stroke-width="0.5" points="364.548,-391.923 369.015,-389.074 363.747,-388.515 364.548,-391.923"/>
</g>
<!-- AstropyWarning -->
<g id="node5" class="node"><title>AstropyWarning</title>
<g id="a_node5"><a xlink:href="../api/astropy.utils.exceptions.AstropyWarning.html#astropy.utils.exceptions.AstropyWarning" xlink:title="The base warning class from which all Astropy warnings should inherit.">
<polygon fill="none" stroke="black" stroke-width="0.5" points="110,-500 19,-500 19,-481 110,-481 110,-500"/>
<text text-anchor="middle" x="64.5" y="-488" font-family="Vera Sans, DejaVu Sans, Liberation Sans, Arial, Helvetica, sans" font-size="10.00">AstropyWarning</text>
</a>
</g>
</g>
<!-- IllegalHourWarning -->
<g id="node31" class="node"><title>IllegalHourWarning</title>
<g id="a_node31"><a xlink:href="../api/astropy.coordinates.IllegalHourWarning.html#astropy.coordinates.IllegalHourWarning" xlink:title="Raised when an hour value is 24.">
<polygon fill="none" stroke="black" stroke-width="0.5" points="301,-537 197,-537 197,-518 301,-518 301,-537"/>
<text text-anchor="middle" x="249" y="-525" font-family="Vera Sans, DejaVu Sans, Liberation Sans, Arial, Helvetica, sans" font-size="10.00">IllegalHourWarning</text>
</a>
</g>
</g>
<!-- AstropyWarning&#45;&gt;IllegalHourWarning -->
<g id="edge23" class="edge"><title>AstropyWarning&#45;&gt;IllegalHourWarning</title>
<path fill="none" stroke="black" stroke-width="0.5" d="M110.145,-499.551C136.073,-504.808 168.863,-511.456 195.959,-516.949"/>
<polygon fill="black" stroke="black" stroke-width="0.5" points="195.701,-518.682 200.949,-517.961 196.396,-515.252 195.701,-518.682"/>
</g>
<!-- IllegalMinuteWarning -->
<g id="node33" class="node"><title>IllegalMinuteWarning</title>
<g id="a_node33"><a xlink:href="../api/astropy.coordinates.IllegalMinuteWarning.html#astropy.coordinates.IllegalMinuteWarning" xlink:title="Raised when a minute value is 60.">
<polygon fill="none" stroke="black" stroke-width="0.5" points="305.5,-500 192.5,-500 192.5,-481 305.5,-481 305.5,-500"/>
<text text-anchor="middle" x="249" y="-488" font-family="Vera Sans, DejaVu Sans, Liberation Sans, Arial, Helvetica, sans" font-size="10.00">IllegalMinuteWarning</text>
</a>
</g>
</g>
<!-- AstropyWarning&#45;&gt;IllegalMinuteWarning -->
<g id="edge25" class="edge"><title>AstropyWarning&#45;&gt;IllegalMinuteWarning</title>
<path fill="none" stroke="black" stroke-width="0.5" d="M110.145,-490.5C133.296,-490.5 161.919,-490.5 187.073,-490.5"/>
<polygon fill="black" stroke="black" stroke-width="0.5" points="187.385,-492.25 192.385,-490.5 187.385,-488.75 187.385,-492.25"/>
</g>
<!-- IllegalSecondWarning -->
<g id="node35" class="node"><title>IllegalSecondWarning</title>
<g id="a_node35"><a xlink:href="../api/astropy.coordinates.IllegalSecondWarning.html#astropy.coordinates.IllegalSecondWarning" xlink:title="Raised when a second value is 60.">
<polygon fill="none" stroke="black" stroke-width="0.5" points="307.5,-463 190.5,-463 190.5,-444 307.5,-444 307.5,-463"/>
<text text-anchor="middle" x="249" y="-451" font-family="Vera Sans, DejaVu Sans, Liberation Sans, Arial, Helvetica, sans" font-size="10.00">IllegalSecondWarning</text>
</a>
</g>
</g>
<!-- AstropyWarning&#45;&gt;IllegalSecondWarning -->
<g id="edge27" class="edge"><title>AstropyWarning&#45;&gt;IllegalSecondWarning</title>
<path fill="none" stroke="black" stroke-width="0.5" d="M110.145,-481.449C136.073,-476.192 168.863,-469.544 195.959,-464.051"/>
<polygon fill="black" stroke="black" stroke-width="0.5" points="196.396,-465.748 200.949,-463.039 195.701,-462.318 196.396,-465.748"/>
</g>
<!-- BaseRepresentation -->
<g id="node6" class="node"><title>BaseRepresentation</title>
<g id="a_node6"><a xlink:href="../api/astropy.coordinates.BaseRepresentation.html#astropy.coordinates.BaseRepresentation" xlink:title="Base Representation object, for representing a point in a 3D coordinate">
<polygon fill="none" stroke="black" stroke-width="0.5" points="121,-648 8,-648 8,-629 121,-629 121,-648"/>
<text text-anchor="middle" x="64.5" y="-636" font-family="Vera Sans, DejaVu Sans, Liberation Sans, Arial, Helvetica, sans" font-size="10.00">BaseRepresentation</text>
</a>
</g>
</g>
<!-- CartesianRepresentation -->
<g id="node10" class="node"><title>CartesianRepresentation</title>
<g id="a_node10"><a xlink:href="../api/astropy.coordinates.CartesianRepresentation.html#astropy.coordinates.CartesianRepresentation" xlink:title="Representation of points in 3D cartesian coordinates.">
<polygon fill="none" stroke="black" stroke-width="0.5" points="316,-722 182,-722 182,-703 316,-703 316,-722"/>
<text text-anchor="middle" x="249" y="-710" font-family="Vera Sans, DejaVu Sans, Liberation Sans, Arial, Helvetica, sans" font-size="10.00">CartesianRepresentation</text>
</a>
</g>
</g>
<!-- BaseRepresentation&#45;&gt;CartesianRepresentation -->
<g id="edge5" class="edge"><title>BaseRepresentation&#45;&gt;CartesianRepresentation</title>
<path fill="none" stroke="black" stroke-width="0.5" d="M79.7116,-648.041C98.4815,-660.238 132.919,-681.241 165,-693.5 173.272,-696.661 182.218,-699.383 191.069,-701.698"/>
<polygon fill="black" stroke="black" stroke-width="0.5" points="190.695,-703.409 195.972,-702.943 191.556,-700.017 190.695,-703.409"/>
</g>
<!-- CylindricalRepresentation -->
<g id="node14" class="node"><title>CylindricalRepresentation</title>
<g id="a_node14"><a xlink:href="../api/astropy.coordinates.CylindricalRepresentation.html#astropy.coordinates.CylindricalRepresentation" xlink:title="Representation of points in 3D cylindrical coordinates.">
<polygon fill="none" stroke="black" stroke-width="0.5" points="317.5,-685 180.5,-685 180.5,-666 317.5,-666 317.5,-685"/>
<text text-anchor="middle" x="249" y="-673" font-family="Vera Sans, DejaVu Sans, Liberation Sans, Arial, Helvetica, sans" font-size="10.00">CylindricalRepresentation</text>
</a>
</g>
</g>
<!-- BaseRepresentation&#45;&gt;CylindricalRepresentation -->
<g id="edge7" class="edge"><title>BaseRepresentation&#45;&gt;CylindricalRepresentation</title>
<path fill="none" stroke="black" stroke-width="0.5" d="M112.498,-648.028C137.944,-653.187 169.448,-659.574 195.673,-664.891"/>
<polygon fill="black" stroke="black" stroke-width="0.5" points="195.596,-666.661 200.844,-665.94 196.292,-663.231 195.596,-666.661"/>
</g>
<!-- PhysicsSphericalRepresentation -->
<g id="node38" class="node"><title>PhysicsSphericalRepresentation</title>
<g id="a_node38"><a xlink:href="../api/astropy.coordinates.PhysicsSphericalRepresentation.html#astropy.coordinates.PhysicsSphericalRepresentation" xlink:title="Representation of points in 3D spherical coordinates (using the physics">
<polygon fill="none" stroke="black" stroke-width="0.5" points="333,-648 165,-648 165,-629 333,-629 333,-648"/>
<text text-anchor="middle" x="249" y="-636" font-family="Vera Sans, DejaVu Sans, Liberation Sans, Arial, Helvetica, sans" font-size="10.00">PhysicsSphericalRepresentation</text>
</a>
</g>
</g>
<!-- BaseRepresentation&#45;&gt;PhysicsSphericalRepresentation -->
<g id="edge30" class="edge"><title>BaseRepresentation&#45;&gt;PhysicsSphericalRepresentation</title>
<path fill="none" stroke="black" stroke-width="0.5" d="M121.248,-638.5C133.37,-638.5 146.484,-638.5 159.521,-638.5"/>
<polygon fill="black" stroke="black" stroke-width="0.5" points="159.707,-640.25 164.707,-638.5 159.707,-636.75 159.707,-640.25"/>
</g>
<!-- SphericalRepresentation -->
<g id="node43" class="node"><title>SphericalRepresentation</title>
<g id="a_node43"><a xlink:href="../api/astropy.coordinates.SphericalRepresentation.html#astropy.coordinates.SphericalRepresentation" xlink:title="Representation of points in 3D spherical coordinates.">
<polygon fill="none" stroke="black" stroke-width="0.5" points="315.5,-611 182.5,-611 182.5,-592 315.5,-592 315.5,-611"/>
<text text-anchor="middle" x="249" y="-599" font-family="Vera Sans, DejaVu Sans, Liberation Sans, Arial, Helvetica, sans" font-size="10.00">SphericalRepresentation</text>
</a>
</g>
</g>
<!-- BaseRepresentation&#45;&gt;SphericalRepresentation -->
<g id="edge34" class="edge"><title>BaseRepresentation&#45;&gt;SphericalRepresentation</title>
<path fill="none" stroke="black" stroke-width="0.5" d="M112.498,-628.972C137.944,-623.813 169.448,-617.426 195.673,-612.109"/>
<polygon fill="black" stroke="black" stroke-width="0.5" points="196.292,-613.769 200.844,-611.06 195.596,-610.339 196.292,-613.769"/>
</g>
<!-- UnitSphericalRepresentation -->
<g id="node47" class="node"><title>UnitSphericalRepresentation</title>
<g id="a_node47"><a xlink:href="../api/astropy.coordinates.UnitSphericalRepresentation.html#astropy.coordinates.UnitSphericalRepresentation" xlink:title="Representation of points on a unit sphere.">
<polygon fill="none" stroke="black" stroke-width="0.5" points="325,-574 173,-574 173,-555 325,-555 325,-574"/>
<text text-anchor="middle" x="249" y="-562" font-family="Vera Sans, DejaVu Sans, Liberation Sans, Arial, Helvetica, sans" font-size="10.00">UnitSphericalRepresentation</text>
</a>
</g>
</g>
<!-- BaseRepresentation&#45;&gt;UnitSphericalRepresentation -->
<g id="edge37" class="edge"><title>BaseRepresentation&#45;&gt;UnitSphericalRepresentation</title>
<path fill="none" stroke="black" stroke-width="0.5" d="M79.3409,-628.929C97.9832,-616.465 132.573,-594.82 165,-582.5 172.305,-579.724 180.143,-577.327 187.98,-575.269"/>
<polygon fill="black" stroke="black" stroke-width="0.5" points="188.439,-576.958 192.855,-574.032 187.578,-573.566 188.439,-576.958"/>
</g>
<!-- BoundsError -->
<g id="node7" class="node"><title>BoundsError</title>
<g id="a_node7"><a xlink:href="../api/astropy.coordinates.BoundsError.html#astropy.coordinates.BoundsError" xlink:title="Raised when an angle is outside of its user&#45;specified bounds.">
<polygon fill="none" stroke="black" stroke-width="0.5" points="287,-870 211,-870 211,-851 287,-851 287,-870"/>
<text text-anchor="middle" x="249" y="-858" font-family="Vera Sans, DejaVu Sans, Liberation Sans, Arial, Helvetica, sans" font-size="10.00">BoundsError</text>
</a>
</g>
</g>
<!-- RangeError -->
<g id="node8" class="node"><title>RangeError</title>
<g id="a_node8"><a xlink:href="../api/astropy.coordinates.RangeError.html#astropy.coordinates.RangeError" xlink:title="Raised when some part of an angle is out of its valid range.">
<polygon fill="none" stroke="black" stroke-width="0.5" points="99.5,-814 29.5,-814 29.5,-795 99.5,-795 99.5,-814"/>
<text text-anchor="middle" x="64.5" y="-802" font-family="Vera Sans, DejaVu Sans, Liberation Sans, Arial, Helvetica, sans" font-size="10.00">RangeError</text>
</a>
</g>
</g>
<!-- RangeError&#45;&gt;BoundsError -->
<g id="edge3" class="edge"><title>RangeError&#45;&gt;BoundsError</title>
<path fill="none" stroke="black" stroke-width="0.5" d="M88.5287,-814.044C108.51,-822.088 138.337,-833.528 165,-841.5 178.128,-845.425 192.632,-848.999 205.793,-851.961"/>
<polygon fill="black" stroke="black" stroke-width="0.5" points="205.696,-853.732 210.957,-853.108 206.455,-850.315 205.696,-853.732"/>
</g>
<!-- IllegalHourError -->
<g id="node30" class="node"><title>IllegalHourError</title>
<g id="a_node30"><a xlink:href="../api/astropy.coordinates.IllegalHourError.html#astropy.coordinates.IllegalHourError" xlink:title="Raised when an hour value is not in the range [0,24).">
<polygon fill="none" stroke="black" stroke-width="0.5" points="294,-833 204,-833 204,-814 294,-814 294,-833"/>
<text text-anchor="middle" x="249" y="-821" font-family="Vera Sans, DejaVu Sans, Liberation Sans, Arial, Helvetica, sans" font-size="10.00">IllegalHourError</text>
</a>
</g>
</g>
<!-- RangeError&#45;&gt;IllegalHourError -->
<g id="edge22" class="edge"><title>RangeError&#45;&gt;IllegalHourError</title>
<path fill="none" stroke="black" stroke-width="0.5" d="M99.8269,-808.074C127.645,-810.97 167.214,-815.089 198.465,-818.343"/>
<polygon fill="black" stroke="black" stroke-width="0.5" points="198.647,-820.121 203.802,-818.899 199.01,-816.64 198.647,-820.121"/>
</g>
<!-- IllegalMinuteError -->
<g id="node32" class="node"><title>IllegalMinuteError</title>
<g id="a_node32"><a xlink:href="../api/astropy.coordinates.IllegalMinuteError.html#astropy.coordinates.IllegalMinuteError" xlink:title="Raised when an minute value is not in the range [0,60].">
<polygon fill="none" stroke="black" stroke-width="0.5" points="298.5,-796 199.5,-796 199.5,-777 298.5,-777 298.5,-796"/>
<text text-anchor="middle" x="249" y="-784" font-family="Vera Sans, DejaVu Sans, Liberation Sans, Arial, Helvetica, sans" font-size="10.00">IllegalMinuteError</text>
</a>
</g>
</g>
<!-- RangeError&#45;&gt;IllegalMinuteError -->
<g id="edge24" class="edge"><title>RangeError&#45;&gt;IllegalMinuteError</title>
<path fill="none" stroke="black" stroke-width="0.5" d="M99.8269,-801.114C126.376,-798.496 163.629,-794.822 194.139,-791.812"/>
<polygon fill="black" stroke="black" stroke-width="0.5" points="194.559,-793.529 199.363,-791.297 194.215,-790.046 194.559,-793.529"/>
</g>
<!-- IllegalSecondError -->
<g id="node34" class="node"><title>IllegalSecondError</title>
<g id="a_node34"><a xlink:href="../api/astropy.coordinates.IllegalSecondError.html#astropy.coordinates.IllegalSecondError" xlink:title="Raised when an second value (time) is not in the range [0,60].">
<polygon fill="none" stroke="black" stroke-width="0.5" points="300.5,-759 197.5,-759 197.5,-740 300.5,-740 300.5,-759"/>
<text text-anchor="middle" x="249" y="-747" font-family="Vera Sans, DejaVu Sans, Liberation Sans, Arial, Helvetica, sans" font-size="10.00">IllegalSecondError</text>
</a>
</g>
</g>
<!-- RangeError&#45;&gt;IllegalSecondError -->
<g id="edge26" class="edge"><title>RangeError&#45;&gt;IllegalSecondError</title>
<path fill="none" stroke="black" stroke-width="0.5" d="M88.5058,-794.879C108.473,-786.787 138.292,-775.319 165,-767.5 174.158,-764.819 183.991,-762.343 193.571,-760.14"/>
<polygon fill="black" stroke="black" stroke-width="0.5" points="194.062,-761.823 198.553,-759.013 193.29,-758.409 194.062,-761.823"/>
</g>
<!-- CompositeTransform -->
<g id="node11" class="node"><title>CompositeTransform</title>
<g id="a_node11"><a xlink:href="../api/astropy.coordinates.CompositeTransform.html#astropy.coordinates.CompositeTransform" xlink:title="A transformation constructed by combining together a series of single&#45;step">
<polygon fill="none" stroke="black" stroke-width="0.5" points="307,-1018 191,-1018 191,-999 307,-999 307,-1018"/>
<text text-anchor="middle" x="249" y="-1006" font-family="Vera Sans, DejaVu Sans, Liberation Sans, Arial, Helvetica, sans" font-size="10.00">CompositeTransform</text>
</a>
</g>
</g>
<!-- CoordinateTransform -->
<g id="node12" class="node"><title>CoordinateTransform</title>
<g id="a_node12"><a xlink:href="../api/astropy.coordinates.CoordinateTransform.html#astropy.coordinates.CoordinateTransform" xlink:title="An object that transforms a coordinate from one system to another.">
<polygon fill="none" stroke="black" stroke-width="0.5" points="122.5,-962 6.5,-962 6.5,-943 122.5,-943 122.5,-962"/>
<text text-anchor="middle" x="64.5" y="-950" font-family="Vera Sans, DejaVu Sans, Liberation Sans, Arial, Helvetica, sans" font-size="10.00">CoordinateTransform</text>
</a>
</g>
</g>
<!-- CoordinateTransform&#45;&gt;CompositeTransform -->
<g id="edge6" class="edge"><title>CoordinateTransform&#45;&gt;CompositeTransform</title>
<path fill="none" stroke="black" stroke-width="0.5" d="M88.5287,-962.044C108.51,-970.088 138.337,-981.528 165,-989.5 174.98,-992.484 185.755,-995.265 196.131,-997.728"/>
<polygon fill="black" stroke="black" stroke-width="0.5" points="195.92,-999.476 201.188,-998.912 196.718,-996.068 195.92,-999.476"/>
</g>
<!-- DynamicMatrixTransform -->
<g id="node16" class="node"><title>DynamicMatrixTransform</title>
<g id="a_node16"><a xlink:href="../api/astropy.coordinates.DynamicMatrixTransform.html#astropy.coordinates.DynamicMatrixTransform" xlink:title="A coordinate transformation specified as a function that yields a">
<polygon fill="none" stroke="black" stroke-width="0.5" points="316.5,-981 181.5,-981 181.5,-962 316.5,-962 316.5,-981"/>
<text text-anchor="middle" x="249" y="-969" font-family="Vera Sans, DejaVu Sans, Liberation Sans, Arial, Helvetica, sans" font-size="10.00">DynamicMatrixTransform</text>
</a>
</g>
</g>
<!-- CoordinateTransform&#45;&gt;DynamicMatrixTransform -->
<g id="edge9" class="edge"><title>CoordinateTransform&#45;&gt;DynamicMatrixTransform</title>
<path fill="none" stroke="black" stroke-width="0.5" d="M122.743,-958.46C139.751,-960.23 158.599,-962.192 176.399,-964.046"/>
<polygon fill="black" stroke="black" stroke-width="0.5" points="176.235,-965.788 181.389,-964.565 176.597,-962.307 176.235,-965.788"/>
</g>
<!-- FunctionTransform -->
<g id="node23" class="node"><title>FunctionTransform</title>
<g id="a_node23"><a xlink:href="../api/astropy.coordinates.FunctionTransform.html#astropy.coordinates.FunctionTransform" xlink:title="A coordinate transformation defined by a function that accepts a">
<polygon fill="none" stroke="black" stroke-width="0.5" points="301,-944 197,-944 197,-925 301,-925 301,-944"/>
<text text-anchor="middle" x="249" y="-932" font-family="Vera Sans, DejaVu Sans, Liberation Sans, Arial, Helvetica, sans" font-size="10.00">FunctionTransform</text>
</a>
</g>
</g>
<!-- CoordinateTransform&#45;&gt;FunctionTransform -->
<g id="edge15" class="edge"><title>CoordinateTransform&#45;&gt;FunctionTransform</title>
<path fill="none" stroke="black" stroke-width="0.5" d="M122.743,-946.854C144.711,-944.687 169.748,-942.218 191.633,-940.059"/>
<polygon fill="black" stroke="black" stroke-width="0.5" points="192.029,-941.779 196.833,-939.547 191.685,-938.296 192.029,-941.779"/>
</g>
<!-- StaticMatrixTransform -->
<g id="node44" class="node"><title>StaticMatrixTransform</title>
<g id="a_node44"><a xlink:href="../api/astropy.coordinates.StaticMatrixTransform.html#astropy.coordinates.StaticMatrixTransform" xlink:title="A coordinate transformation defined as a 3 x 3 cartesian">
<polygon fill="none" stroke="black" stroke-width="0.5" points="309.5,-907 188.5,-907 188.5,-888 309.5,-888 309.5,-907"/>
<text text-anchor="middle" x="249" y="-895" font-family="Vera Sans, DejaVu Sans, Liberation Sans, Arial, Helvetica, sans" font-size="10.00">StaticMatrixTransform</text>
</a>
</g>
</g>
<!-- CoordinateTransform&#45;&gt;StaticMatrixTransform -->
<g id="edge35" class="edge"><title>CoordinateTransform&#45;&gt;StaticMatrixTransform</title>
<path fill="none" stroke="black" stroke-width="0.5" d="M88.5058,-942.879C108.473,-934.787 138.292,-923.319 165,-915.5 174.158,-912.819 183.991,-910.343 193.571,-908.14"/>
<polygon fill="black" stroke="black" stroke-width="0.5" points="194.062,-909.823 198.553,-907.013 193.29,-906.409 194.062,-909.823"/>
</g>
<!-- ConvertError -->
<g id="node13" class="node"><title>ConvertError</title>
<g id="a_node13"><a xlink:href="../api/astropy.coordinates.ConvertError.html#astropy.coordinates.ConvertError" xlink:title="Raised if a coordinate system cannot be converted to another">
<polygon fill="none" stroke="black" stroke-width="0.5" points="103,-1036 26,-1036 26,-1017 103,-1017 103,-1036"/>
<text text-anchor="middle" x="64.5" y="-1024" font-family="Vera Sans, DejaVu Sans, Liberation Sans, Arial, Helvetica, sans" font-size="10.00">ConvertError</text>
</a>
</g>
</g>
<!-- EarthLocationAttribute -->
<g id="node18" class="node"><title>EarthLocationAttribute</title>
<g id="a_node18"><a xlink:href="../api/astropy.coordinates.EarthLocationAttribute.html#astropy.coordinates.EarthLocationAttribute" xlink:title="A frame attribute that can act as a `~astropy.coordinates.EarthLocation`.">
<polygon fill="none" stroke="black" stroke-width="0.5" points="311.5,-1129 186.5,-1129 186.5,-1110 311.5,-1110 311.5,-1129"/>
<text text-anchor="middle" x="249" y="-1117" font-family="Vera Sans, DejaVu Sans, Liberation Sans, Arial, Helvetica, sans" font-size="10.00">EarthLocationAttribute</text>
</a>
</g>
</g>
<!-- FrameAttribute -->
<g id="node19" class="node"><title>FrameAttribute</title>
<g id="a_node19"><a xlink:href="../api/astropy.coordinates.FrameAttribute.html#astropy.coordinates.FrameAttribute" xlink:title="A non&#45;mutable data descriptor to hold a frame attribute.">
<polygon fill="none" stroke="black" stroke-width="0.5" points="109,-1092 20,-1092 20,-1073 109,-1073 109,-1092"/>
<text text-anchor="middle" x="64.5" y="-1080" font-family="Vera Sans, DejaVu Sans, Liberation Sans, Arial, Helvetica, sans" font-size="10.00">FrameAttribute</text>
</a>
</g>
</g>
<!-- FrameAttribute&#45;&gt;EarthLocationAttribute -->
<g id="edge11" class="edge"><title>FrameAttribute&#45;&gt;EarthLocationAttribute</title>
<path fill="none" stroke="black" stroke-width="0.5" d="M109.213,-1091.36C135.322,-1096.66 168.634,-1103.41 196.077,-1108.97"/>
<polygon fill="black" stroke="black" stroke-width="0.5" points="195.882,-1110.72 201.13,-1110 196.578,-1107.29 195.882,-1110.72"/>
</g>
<!-- QuantityFrameAttribute -->
<g id="node40" class="node"><title>QuantityFrameAttribute</title>
<g id="a_node40"><a xlink:href="../api/astropy.coordinates.QuantityFrameAttribute.html#astropy.coordinates.QuantityFrameAttribute" xlink:title="A frame attribute that is a quantity with specified units and shape">
<polygon fill="none" stroke="black" stroke-width="0.5" points="313.5,-1092 184.5,-1092 184.5,-1073 313.5,-1073 313.5,-1092"/>
<text text-anchor="middle" x="249" y="-1080" font-family="Vera Sans, DejaVu Sans, Liberation Sans, Arial, Helvetica, sans" font-size="10.00">QuantityFrameAttribute</text>
</a>
</g>
</g>
<!-- FrameAttribute&#45;&gt;QuantityFrameAttribute -->
<g id="edge32" class="edge"><title>FrameAttribute&#45;&gt;QuantityFrameAttribute</title>
<path fill="none" stroke="black" stroke-width="0.5" d="M109.213,-1082.5C130.095,-1082.5 155.585,-1082.5 178.995,-1082.5"/>
<polygon fill="black" stroke="black" stroke-width="0.5" points="179.267,-1084.25 184.267,-1082.5 179.267,-1080.75 179.267,-1084.25"/>
</g>
<!-- TimeFrameAttribute -->
<g id="node45" class="node"><title>TimeFrameAttribute</title>
<g id="a_node45"><a xlink:href="../api/astropy.coordinates.TimeFrameAttribute.html#astropy.coordinates.TimeFrameAttribute" xlink:title="Frame attribute descriptor for quantities that are Time objects.">
<polygon fill="none" stroke="black" stroke-width="0.5" points="305,-1055 193,-1055 193,-1036 305,-1036 305,-1055"/>
<text text-anchor="middle" x="249" y="-1043" font-family="Vera Sans, DejaVu Sans, Liberation Sans, Arial, Helvetica, sans" font-size="10.00">TimeFrameAttribute</text>
</a>
</g>
</g>
<!-- FrameAttribute&#45;&gt;TimeFrameAttribute -->
<g id="edge36" class="edge"><title>FrameAttribute&#45;&gt;TimeFrameAttribute</title>
<path fill="none" stroke="black" stroke-width="0.5" d="M109.213,-1073.64C135.322,-1068.34 168.634,-1061.59 196.077,-1056.03"/>
<polygon fill="black" stroke="black" stroke-width="0.5" points="196.578,-1057.71 201.13,-1055 195.882,-1054.28 196.578,-1057.71"/>
</g>
<!-- ndarray -->
<g id="node39" class="node"><title>ndarray</title>
<g id="a_node39"><a xlink:title="ndarray(shape, dtype=float, buffer=None, offset=0,">
<polygon fill="none" stroke="black" stroke-width="0.5" points="91.5,-426 37.5,-426 37.5,-407 91.5,-407 91.5,-426"/>
<text text-anchor="middle" x="64.5" y="-414" font-family="Vera Sans, DejaVu Sans, Liberation Sans, Arial, Helvetica, sans" font-size="10.00">ndarray</text>
</a>
</g>
</g>
<!-- ndarray&#45;&gt;Quantity -->
<g id="edge31" class="edge"><title>ndarray&#45;&gt;Quantity</title>
<path fill="none" stroke="black" stroke-width="0.5" d="M91.6478,-416.5C124.245,-416.5 179.97,-416.5 215.342,-416.5"/>
<polygon fill="black" stroke="black" stroke-width="0.5" points="215.408,-418.25 220.408,-416.5 215.408,-414.75 215.408,-418.25"/>
</g>
<!-- RepresentationMapping -->
<g id="node41" class="node"><title>RepresentationMapping</title>
<g id="a_node41"><a xlink:href="../api/astropy.coordinates.RepresentationMapping.html#astropy.coordinates.RepresentationMapping" xlink:title="This `~collections.namedtuple` is used with the">
<polygon fill="none" stroke="black" stroke-width="0.5" points="129,-1129 0,-1129 0,-1110 129,-1110 129,-1129"/>
<text text-anchor="middle" x="64.5" y="-1117" font-family="Vera Sans, DejaVu Sans, Liberation Sans, Arial, Helvetica, sans" font-size="10.00">RepresentationMapping</text>
</a>
</g>
</g>
<!-- RepresentationMapping&#45;&gt;RepresentationMapping -->
<g id="edge33" class="edge"><title>RepresentationMapping&#45;&gt;RepresentationMapping</title>
<path fill="none" stroke="black" stroke-width="0.5" d="M36.1403,-1129.08C22.3436,-1137.73 31.7969,-1147 64.5,-1147 93.1152,-1147 103.93,-1139.91 96.9436,-1132.34"/>
<polygon fill="black" stroke="black" stroke-width="0.5" points="97.8609,-1130.83 92.8597,-1129.08 95.6799,-1133.57 97.8609,-1130.83"/>
</g>
<!-- SkyCoord -->
<g id="node42" class="node"><title>SkyCoord</title>
<g id="a_node42"><a xlink:href="../api/astropy.coordinates.SkyCoord.html#astropy.coordinates.SkyCoord" xlink:title="High&#45;level object providing a flexible interface for celestial coordinate">
<polygon fill="none" stroke="black" stroke-width="0.5" points="95.5,-1184 33.5,-1184 33.5,-1165 95.5,-1165 95.5,-1184"/>
<text text-anchor="middle" x="64.5" y="-1172" font-family="Vera Sans, DejaVu Sans, Liberation Sans, Arial, Helvetica, sans" font-size="10.00">SkyCoord</text>
</a>
</g>
</g>
<!-- TransformGraph -->
<g id="node46" class="node"><title>TransformGraph</title>
<g id="a_node46"><a xlink:href="../api/astropy.coordinates.TransformGraph.html#astropy.coordinates.TransformGraph" xlink:title="A graph representing the paths between coordinate frames.">
<polygon fill="none" stroke="black" stroke-width="0.5" points="111,-1221 18,-1221 18,-1202 111,-1202 111,-1221"/>
<text text-anchor="middle" x="64.5" y="-1209" font-family="Vera Sans, DejaVu Sans, Liberation Sans, Arial, Helvetica, sans" font-size="10.00">TransformGraph</text>
</a>
</g>
</g>
</g>
</svg>
