<?xml version="1.0" encoding="UTF-8" standalone="no"?>
<!DOCTYPE svg PUBLIC "-//W3C//DTD SVG 1.1//EN"
 "http://www.w3.org/Graphics/SVG/1.1/DTD/svg11.dtd">
<!-- Generated by graphviz version 2.38.0 (20140413.2041)
 -->
<!-- Title: inheritance54d1987e0c Pages: 1 -->
<svg width="411pt" height="434pt"
 viewBox="0.00 0.00 411.00 434.00" xmlns="http://www.w3.org/2000/svg" xmlns:xlink="http://www.w3.org/1999/xlink">
<g id="graph0" class="graph" transform="scale(1 1) rotate(0) translate(4 430)">
<title>inheritance54d1987e0c</title>
<polygon fill="white" stroke="none" points="-4,4 -4,-430 407,-430 407,4 -4,4"/>
<!-- AstropyWarning -->
<g id="node1" class="node"><title>AstropyWarning</title>
<g id="a_node1"><a xlink:href="../api/astropy.utils.exceptions.AstropyWarning.html#astropy.utils.exceptions.AstropyWarning" xlink:title="The base warning class from which all Astropy warnings should inherit.">
<polygon fill="none" stroke="black" stroke-width="0.5" points="106.5,-19 15.5,-19 15.5,-0 106.5,-0 106.5,-19"/>
<text text-anchor="middle" x="61" y="-7" font-family="Vera Sans, DejaVu Sans, Liberation Sans, Arial, Helvetica, sans" font-size="10.00">AstropyWarning</text>
</a>
</g>
</g>
<!-- FITSFixedWarning -->
<g id="node3" class="node"><title>FITSFixedWarning</title>
<g id="a_node3"><a xlink:href="../api/astropy.wcs.FITSFixedWarning.html#astropy.wcs.FITSFixedWarning" xlink:title="The warning raised when the contents of the FITS header have been">
<polygon fill="none" stroke="black" stroke-width="0.5" points="329.5,-19 231.5,-19 231.5,-0 329.5,-0 329.5,-19"/>
<text text-anchor="middle" x="280.5" y="-7" font-family="Vera Sans, DejaVu Sans, Liberation Sans, Arial, Helvetica, sans" font-size="10.00">FITSFixedWarning</text>
</a>
</g>
</g>
<!-- AstropyWarning&#45;&gt;FITSFixedWarning -->
<g id="edge1" class="edge"><title>AstropyWarning&#45;&gt;FITSFixedWarning</title>
<path fill="none" stroke="black" stroke-width="0.5" d="M106.539,-9.5C141.129,-9.5 189.22,-9.5 225.914,-9.5"/>
<polygon fill="black" stroke="black" stroke-width="0.5" points="226.242,-11.2501 231.242,-9.5 226.242,-7.75009 226.242,-11.2501"/>
</g>
<!-- DistortionLookupTable -->
<g id="node2" class="node"><title>DistortionLookupTable</title>
<g id="a_node2"><a xlink:href="../api/astropy.wcs.DistortionLookupTable.html#astropy.wcs.DistortionLookupTable" xlink:title="DistortionLookupTable(*table*, *crpix*, *crval*, *cdelt*)">
<polygon fill="none" stroke="black" stroke-width="0.5" points="122,-111 -7.10543e-15,-111 -7.10543e-15,-92 122,-92 122,-111"/>
<text text-anchor="middle" x="61" y="-99" font-family="Vera Sans, DejaVu Sans, Liberation Sans, Arial, Helvetica, sans" font-size="10.00">DistortionLookupTable</text>
</a>
</g>
</g>
<!-- InconsistentAxisTypesError -->
<g id="node4" class="node"><title>InconsistentAxisTypesError</title>
<g id="a_node4"><a xlink:href="../api/astropy.wcs.InconsistentAxisTypesError.html#astropy.wcs.InconsistentAxisTypesError" xlink:title="InconsistentAxisTypesError()">
<polygon fill="none" stroke="black" stroke-width="0.5" points="352,-352 209,-352 209,-333 352,-333 352,-352"/>
<text text-anchor="middle" x="280.5" y="-340" font-family="Vera Sans, DejaVu Sans, Liberation Sans, Arial, Helvetica, sans" font-size="10.00">InconsistentAxisTypesError</text>
</a>
</g>
</g>
<!-- WcsError -->
<g id="node5" class="node"><title>WcsError</title>
<g id="a_node5"><a xlink:href="../api/astropy.wcs.WcsError.html#astropy.wcs.WcsError" xlink:title="Base class of all invalid WCS errors.">
<polygon fill="none" stroke="black" stroke-width="0.5" points="90.5,-204 31.5,-204 31.5,-185 90.5,-185 90.5,-204"/>
<text text-anchor="middle" x="61" y="-192" font-family="Vera Sans, DejaVu Sans, Liberation Sans, Arial, Helvetica, sans" font-size="10.00">WcsError</text>
</a>
</g>
</g>
<!-- WcsError&#45;&gt;InconsistentAxisTypesError -->
<g id="edge2" class="edge"><title>WcsError&#45;&gt;InconsistentAxisTypesError</title>
<path fill="none" stroke="black" stroke-width="0.5" d="M84.7808,-204.114C97.2174,-210.351 112.062,-219.55 122,-231.5 150.341,-265.577 123.377,-296.829 158,-324.5 170.982,-334.876 187.321,-340.602 203.77,-343.549"/>
<polygon fill="black" stroke="black" stroke-width="0.5" points="203.659,-345.304 208.874,-344.376 204.219,-341.849 203.659,-345.304"/>
</g>
<!-- InvalidCoordinateError -->
<g id="node6" class="node"><title>InvalidCoordinateError</title>
<g id="a_node6"><a xlink:href="../api/astropy.wcs.InvalidCoordinateError.html#astropy.wcs.InvalidCoordinateError" xlink:title="InvalidCoordinateError()">
<polygon fill="none" stroke="black" stroke-width="0.5" points="341.5,-315 219.5,-315 219.5,-296 341.5,-296 341.5,-315"/>
<text text-anchor="middle" x="280.5" y="-303" font-family="Vera Sans, DejaVu Sans, Liberation Sans, Arial, Helvetica, sans" font-size="10.00">InvalidCoordinateError</text>
</a>
</g>
</g>
<!-- WcsError&#45;&gt;InvalidCoordinateError -->
<g id="edge3" class="edge"><title>WcsError&#45;&gt;InvalidCoordinateError</title>
<path fill="none" stroke="black" stroke-width="0.5" d="M82.1979,-204.021C94.6423,-210.558 110.383,-220.099 122,-231.5 143.117,-252.225 133.142,-271.452 158,-287.5 174.457,-298.125 194.749,-303.442 214.003,-305.893"/>
<polygon fill="black" stroke="black" stroke-width="0.5" points="214.236,-307.681 219.403,-306.51 214.634,-304.203 214.236,-307.681"/>
</g>
<!-- InvalidSubimageSpecificationError -->
<g id="node7" class="node"><title>InvalidSubimageSpecificationError</title>
<g id="a_node7"><a xlink:href="../api/astropy.wcs.InvalidSubimageSpecificationError.html#astropy.wcs.InvalidSubimageSpecificationError" xlink:title="InvalidSubimageSpecificationError()">
<polygon fill="none" stroke="black" stroke-width="0.5" points="370,-278 191,-278 191,-259 370,-259 370,-278"/>
<text text-anchor="middle" x="280.5" y="-266" font-family="Vera Sans, DejaVu Sans, Liberation Sans, Arial, Helvetica, sans" font-size="10.00">InvalidSubimageSpecificationError</text>
</a>
</g>
</g>
<!-- WcsError&#45;&gt;InvalidSubimageSpecificationError -->
<g id="edge4" class="edge"><title>WcsError&#45;&gt;InvalidSubimageSpecificationError</title>
<path fill="none" stroke="black" stroke-width="0.5" d="M77.709,-204.105C102.693,-219.313 149.534,-247.528 158,-250.5 166.91,-253.627 176.372,-256.211 185.93,-258.346"/>
<polygon fill="black" stroke="black" stroke-width="0.5" points="185.678,-260.082 190.934,-259.423 186.414,-256.66 185.678,-260.082"/>
</g>
<!-- InvalidTabularParametersError -->
<g id="node8" class="node"><title>InvalidTabularParametersError</title>
<g id="a_node8"><a xlink:href="../api/astropy.wcs.InvalidTabularParametersError.html#astropy.wcs.InvalidTabularParametersError" xlink:title="InvalidTabularParametersError()">
<polygon fill="none" stroke="black" stroke-width="0.5" points="360,-241 201,-241 201,-222 360,-222 360,-241"/>
<text text-anchor="middle" x="280.5" y="-229" font-family="Vera Sans, DejaVu Sans, Liberation Sans, Arial, Helvetica, sans" font-size="10.00">InvalidTabularParametersError</text>
</a>
</g>
</g>
<!-- WcsError&#45;&gt;InvalidTabularParametersError -->
<g id="edge5" class="edge"><title>WcsError&#45;&gt;InvalidTabularParametersError</title>
<path fill="none" stroke="black" stroke-width="0.5" d="M90.919,-200.602C109.938,-204.522 135.399,-209.592 158,-213.5 173.48,-216.177 190.113,-218.804 205.953,-221.188"/>
<polygon fill="black" stroke="black" stroke-width="0.5" points="206.087,-222.977 211.291,-221.987 206.605,-219.516 206.087,-222.977"/>
</g>
<!-- InvalidTransformError -->
<g id="node9" class="node"><title>InvalidTransformError</title>
<g id="a_node9"><a xlink:href="../api/astropy.wcs.InvalidTransformError.html#astropy.wcs.InvalidTransformError" xlink:title="InvalidTransformError()">
<polygon fill="none" stroke="black" stroke-width="0.5" points="339,-204 222,-204 222,-185 339,-185 339,-204"/>
<text text-anchor="middle" x="280.5" y="-192" font-family="Vera Sans, DejaVu Sans, Liberation Sans, Arial, Helvetica, sans" font-size="10.00">InvalidTransformError</text>
</a>
</g>
</g>
<!-- WcsError&#45;&gt;InvalidTransformError -->
<g id="edge6" class="edge"><title>WcsError&#45;&gt;InvalidTransformError</title>
<path fill="none" stroke="black" stroke-width="0.5" d="M90.8823,-194.5C122.862,-194.5 175.378,-194.5 216.887,-194.5"/>
<polygon fill="black" stroke="black" stroke-width="0.5" points="216.892,-196.25 221.892,-194.5 216.892,-192.75 216.892,-196.25"/>
</g>
<!-- NoSolutionError -->
<g id="node10" class="node"><title>NoSolutionError</title>
<g id="a_node10"><a xlink:href="../api/astropy.wcs.NoSolutionError.html#astropy.wcs.NoSolutionError" xlink:title="NoSolutionError()">
<polygon fill="none" stroke="black" stroke-width="0.5" points="326.5,-167 234.5,-167 234.5,-148 326.5,-148 326.5,-167"/>
<text text-anchor="middle" x="280.5" y="-155" font-family="Vera Sans, DejaVu Sans, Liberation Sans, Arial, Helvetica, sans" font-size="10.00">NoSolutionError</text>
</a>
</g>
</g>
<!-- WcsError&#45;&gt;NoSolutionError -->
<g id="edge7" class="edge"><title>WcsError&#45;&gt;NoSolutionError</title>
<path fill="none" stroke="black" stroke-width="0.5" d="M90.919,-188.398C109.938,-184.478 135.399,-179.408 158,-175.5 181.343,-171.463 207.307,-167.54 229.222,-164.393"/>
<polygon fill="black" stroke="black" stroke-width="0.5" points="229.709,-166.091 234.411,-163.651 229.213,-162.626 229.709,-166.091"/>
</g>
<!-- NoWcsKeywordsFoundError -->
<g id="node11" class="node"><title>NoWcsKeywordsFoundError</title>
<g id="a_node11"><a xlink:href="../api/astropy.wcs.NoWcsKeywordsFoundError.html#astropy.wcs.NoWcsKeywordsFoundError" xlink:title="NoWcsKeywordsFoundError()">
<polygon fill="none" stroke="black" stroke-width="0.5" points="353.5,-130 207.5,-130 207.5,-111 353.5,-111 353.5,-130"/>
<text text-anchor="middle" x="280.5" y="-118" font-family="Vera Sans, DejaVu Sans, Liberation Sans, Arial, Helvetica, sans" font-size="10.00">NoWcsKeywordsFoundError</text>
</a>
</g>
</g>
<!-- WcsError&#45;&gt;NoWcsKeywordsFoundError -->
<g id="edge8" class="edge"><title>WcsError&#45;&gt;NoWcsKeywordsFoundError</title>
<path fill="none" stroke="black" stroke-width="0.5" d="M74.8781,-184.807C92.5983,-171.998 125.957,-149.747 158,-138.5 172.01,-133.582 187.387,-130.008 202.351,-127.411"/>
<polygon fill="black" stroke="black" stroke-width="0.5" points="202.764,-129.116 207.407,-126.567 202.187,-125.664 202.764,-129.116"/>
</g>
<!-- NonseparableSubimageCoordinateSystemError -->
<g id="node12" class="node"><title>NonseparableSubimageCoordinateSystemError</title>
<g id="a_node12"><a xlink:href="../api/astropy.wcs.NonseparableSubimageCoordinateSystemError.html#astropy.wcs.NonseparableSubimageCoordinateSystemError" xlink:title="NonseparableSubimageCoordinateSystemError()">
<polygon fill="none" stroke="black" stroke-width="0.5" points="403,-93 158,-93 158,-74 403,-74 403,-93"/>
<text text-anchor="middle" x="280.5" y="-81" font-family="Vera Sans, DejaVu Sans, Liberation Sans, Arial, Helvetica, sans" font-size="10.00">NonseparableSubimageCoordinateSystemError</text>
</a>
</g>
</g>
<!-- WcsError&#45;&gt;NonseparableSubimageCoordinateSystemError -->
<g id="edge9" class="edge"><title>WcsError&#45;&gt;NonseparableSubimageCoordinateSystemError</title>
<path fill="none" stroke="black" stroke-width="0.5" d="M68.6267,-184.885C82.6072,-165.447 117.212,-121.622 158,-101.5 163.378,-98.8466 169.042,-96.559 174.862,-94.5888"/>
<polygon fill="black" stroke="black" stroke-width="0.5" points="175.56,-96.2027 179.785,-93.0074 174.49,-92.8704 175.56,-96.2027"/>
</g>
<!-- SingularMatrixError -->
<g id="node13" class="node"><title>SingularMatrixError</title>
<g id="a_node13"><a xlink:href="../api/astropy.wcs.SingularMatrixError.html#astropy.wcs.SingularMatrixError" xlink:title="SingularMatrixError()">
<polygon fill="none" stroke="black" stroke-width="0.5" points="334.5,-56 226.5,-56 226.5,-37 334.5,-37 334.5,-56"/>
<text text-anchor="middle" x="280.5" y="-44" font-family="Vera Sans, DejaVu Sans, Liberation Sans, Arial, Helvetica, sans" font-size="10.00">SingularMatrixError</text>
</a>
</g>
</g>
<!-- WcsError&#45;&gt;SingularMatrixError -->
<g id="edge10" class="edge"><title>WcsError&#45;&gt;SingularMatrixError</title>
<path fill="none" stroke="black" stroke-width="0.5" d="M70.4649,-184.548C82.3783,-170.404 104.582,-143.533 122,-119.5 139.145,-95.8444 133.39,-80.2447 158,-64.5 176.542,-52.6375 199.885,-47.4148 221.143,-45.4061"/>
<polygon fill="black" stroke="black" stroke-width="0.5" points="221.375,-47.1429 226.212,-44.9832 221.084,-43.655 221.375,-47.1429"/>
</g>
<!-- Sip -->
<g id="node14" class="node"><title>Sip</title>
<g id="a_node14"><a xlink:href="../api/astropy.wcs.Sip.html#astropy.wcs.Sip" xlink:title="Sip(*a, b, ap, bp, crpix*)">
<polygon fill="none" stroke="black" stroke-width="0.5" points="88,-259 34,-259 34,-240 88,-240 88,-259"/>
<text text-anchor="middle" x="61" y="-247" font-family="Vera Sans, DejaVu Sans, Liberation Sans, Arial, Helvetica, sans" font-size="10.00">Sip</text>
</a>
</g>
</g>
<!-- Tabprm -->
<g id="node15" class="node"><title>Tabprm</title>
<g id="a_node15"><a xlink:href="../api/astropy.wcs.Tabprm.html#astropy.wcs.Tabprm" xlink:title="A class to store the information related to tabular coordinates,">
<polygon fill="none" stroke="black" stroke-width="0.5" points="88,-333 34,-333 34,-314 88,-314 88,-333"/>
<text text-anchor="middle" x="61" y="-321" font-family="Vera Sans, DejaVu Sans, Liberation Sans, Arial, Helvetica, sans" font-size="10.00">Tabprm</text>
</a>
</g>
</g>
<!-- WCS -->
<g id="node16" class="node"><title>WCS</title>
<g id="a_node16"><a xlink:href="../api/astropy.wcs.WCS.html#astropy.wcs.WCS" xlink:title="WCS objects perform standard WCS transformations, and correct for">
<polygon fill="none" stroke="black" stroke-width="0.5" points="307.5,-389 253.5,-389 253.5,-370 307.5,-370 307.5,-389"/>
<text text-anchor="middle" x="280.5" y="-377" font-family="Vera Sans, DejaVu Sans, Liberation Sans, Arial, Helvetica, sans" font-size="10.00">WCS</text>
</a>
</g>
</g>
<!-- WCSBase -->
<g id="node17" class="node"><title>WCSBase</title>
<g id="a_node17"><a xlink:href="../api/astropy.wcs.WCSBase.html#astropy.wcs.WCSBase" xlink:title="Wcs(*sip, cpdis, wcsprm, det2im*)">
<polygon fill="none" stroke="black" stroke-width="0.5" points="92,-389 30,-389 30,-370 92,-370 92,-389"/>
<text text-anchor="middle" x="61" y="-377" font-family="Vera Sans, DejaVu Sans, Liberation Sans, Arial, Helvetica, sans" font-size="10.00">WCSBase</text>
</a>
</g>
</g>
<!-- WCSBase&#45;&gt;WCS -->
<g id="edge11" class="edge"><title>WCSBase&#45;&gt;WCS</title>
<path fill="none" stroke="black" stroke-width="0.5" d="M92.2424,-379.5C133.323,-379.5 206.408,-379.5 248.087,-379.5"/>
<polygon fill="black" stroke="black" stroke-width="0.5" points="248.258,-381.25 253.258,-379.5 248.258,-377.75 248.258,-381.25"/>
</g>
<!-- Wcsprm -->
<g id="node18" class="node"><title>Wcsprm</title>
<g id="a_node18"><a xlink:href="../api/astropy.wcs.Wcsprm.html#astropy.wcs.Wcsprm" xlink:title="Wcsprm(header=None, key=&#39; &#39;, relax=False, naxis=2, keysel=0, colsel=None)">
<polygon fill="none" stroke="black" stroke-width="0.5" points="88.5,-426 33.5,-426 33.5,-407 88.5,-407 88.5,-426"/>
<text text-anchor="middle" x="61" y="-414" font-family="Vera Sans, DejaVu Sans, Liberation Sans, Arial, Helvetica, sans" font-size="10.00">Wcsprm</text>
</a>
</g>
</g>
</g>
</svg>
