<?xml version="1.0" encoding="UTF-8" standalone="no"?>
<!DOCTYPE svg PUBLIC "-//W3C//DTD SVG 1.1//EN"
 "http://www.w3.org/Graphics/SVG/1.1/DTD/svg11.dtd">
<!-- Generated by graphviz version 2.38.0 (20140413.2041)
 -->
<!-- Title: inheritanceb72993dc76 Pages: 1 -->
<svg width="504pt" height="138pt"
 viewBox="0.00 0.00 504.00 138.00" xmlns="http://www.w3.org/2000/svg" xmlns:xlink="http://www.w3.org/1999/xlink">
<g id="graph0" class="graph" transform="scale(1 1) rotate(0) translate(4 134)">
<title>inheritanceb72993dc76</title>
<polygon fill="white" stroke="none" points="-4,4 -4,-134 500,-134 500,4 -4,4"/>
<!-- BrokenPowerLaw1D -->
<g id="node1" class="node"><title>BrokenPowerLaw1D</title>
<g id="a_node1"><a xlink:href="../api/astropy.modeling.powerlaws.BrokenPowerLaw1D.html#astropy.modeling.powerlaws.BrokenPowerLaw1D" xlink:title="One dimensional power law model with a break.">
<polygon fill="none" stroke="black" stroke-width="0.5" points="470.5,-130 360.5,-130 360.5,-111 470.5,-111 470.5,-130"/>
<text text-anchor="middle" x="415.5" y="-118" font-family="Vera Sans, DejaVu Sans, Liberation Sans, Arial, Helvetica, sans" font-size="10.00">BrokenPowerLaw1D</text>
</a>
</g>
</g>
<!-- Fittable1DModel -->
<g id="node2" class="node"><title>Fittable1DModel</title>
<g id="a_node2"><a xlink:href="../api/astropy.modeling.Fittable1DModel.html#astropy.modeling.Fittable1DModel" xlink:title="Base class for one&#45;dimensional fittable models.">
<polygon fill="none" stroke="black" stroke-width="0.5" points="299,-74 206,-74 206,-55 299,-55 299,-74"/>
<text text-anchor="middle" x="252.5" y="-62" font-family="Vera Sans, DejaVu Sans, Liberation Sans, Arial, Helvetica, sans" font-size="10.00">Fittable1DModel</text>
</a>
</g>
</g>
<!-- Fittable1DModel&#45;&gt;BrokenPowerLaw1D -->
<g id="edge1" class="edge"><title>Fittable1DModel&#45;&gt;BrokenPowerLaw1D</title>
<path fill="none" stroke="black" stroke-width="0.5" d="M271.17,-74.0859C287.379,-82.55 312.251,-94.7213 335,-102.5 342.873,-105.192 351.323,-107.597 359.67,-109.705"/>
<polygon fill="black" stroke="black" stroke-width="0.5" points="359.575,-111.483 364.848,-110.979 360.411,-108.085 359.575,-111.483"/>
</g>
<!-- ExponentialCutoffPowerLaw1D -->
<g id="node3" class="node"><title>ExponentialCutoffPowerLaw1D</title>
<g id="a_node3"><a xlink:href="../api/astropy.modeling.powerlaws.ExponentialCutoffPowerLaw1D.html#astropy.modeling.powerlaws.ExponentialCutoffPowerLaw1D" xlink:title="One dimensional power law model with an exponential cutoff.">
<polygon fill="none" stroke="black" stroke-width="0.5" points="496,-93 335,-93 335,-74 496,-74 496,-93"/>
<text text-anchor="middle" x="415.5" y="-81" font-family="Vera Sans, DejaVu Sans, Liberation Sans, Arial, Helvetica, sans" font-size="10.00">ExponentialCutoffPowerLaw1D</text>
</a>
</g>
</g>
<!-- Fittable1DModel&#45;&gt;ExponentialCutoffPowerLaw1D -->
<g id="edge2" class="edge"><title>Fittable1DModel&#45;&gt;ExponentialCutoffPowerLaw1D</title>
<path fill="none" stroke="black" stroke-width="0.5" d="M299.205,-69.8938C308.793,-71.0252 319.195,-72.2528 329.695,-73.492"/>
<polygon fill="black" stroke="black" stroke-width="0.5" points="329.684,-75.2527 334.855,-74.1009 330.094,-71.7769 329.684,-75.2527"/>
</g>
<!-- LogParabola1D -->
<g id="node6" class="node"><title>LogParabola1D</title>
<g id="a_node6"><a xlink:href="../api/astropy.modeling.powerlaws.LogParabola1D.html#astropy.modeling.powerlaws.LogParabola1D" xlink:title="One dimensional log parabola model (sometimes called curved power law).">
<polygon fill="none" stroke="black" stroke-width="0.5" points="460,-56 371,-56 371,-37 460,-37 460,-56"/>
<text text-anchor="middle" x="415.5" y="-44" font-family="Vera Sans, DejaVu Sans, Liberation Sans, Arial, Helvetica, sans" font-size="10.00">LogParabola1D</text>
</a>
</g>
</g>
<!-- Fittable1DModel&#45;&gt;LogParabola1D -->
<g id="edge5" class="edge"><title>Fittable1DModel&#45;&gt;LogParabola1D</title>
<path fill="none" stroke="black" stroke-width="0.5" d="M299.205,-59.3901C320.034,-57.0615 344.71,-54.3026 365.878,-51.936"/>
<polygon fill="black" stroke="black" stroke-width="0.5" points="366.123,-53.6696 370.898,-51.3748 365.734,-50.1912 366.123,-53.6696"/>
</g>
<!-- PowerLaw1D -->
<g id="node7" class="node"><title>PowerLaw1D</title>
<g id="a_node7"><a xlink:href="../api/astropy.modeling.powerlaws.PowerLaw1D.html#astropy.modeling.powerlaws.PowerLaw1D" xlink:title="One dimensional power law model.">
<polygon fill="none" stroke="black" stroke-width="0.5" points="454,-19 377,-19 377,-0 454,-0 454,-19"/>
<text text-anchor="middle" x="415.5" y="-7" font-family="Vera Sans, DejaVu Sans, Liberation Sans, Arial, Helvetica, sans" font-size="10.00">PowerLaw1D</text>
</a>
</g>
</g>
<!-- Fittable1DModel&#45;&gt;PowerLaw1D -->
<g id="edge6" class="edge"><title>Fittable1DModel&#45;&gt;PowerLaw1D</title>
<path fill="none" stroke="black" stroke-width="0.5" d="M271.839,-54.8698C288.078,-46.6611 312.613,-35.0288 335,-27.5 346.737,-23.553 359.738,-20.2014 371.768,-17.4991"/>
<polygon fill="black" stroke="black" stroke-width="0.5" points="372.35,-19.1631 376.858,-16.3809 371.599,-15.7446 372.35,-19.1631"/>
</g>
<!-- FittableModel -->
<g id="node4" class="node"><title>FittableModel</title>
<g id="a_node4"><a xlink:href="../api/astropy.modeling.FittableModel.html#astropy.modeling.FittableModel" xlink:title="Base class for models that can be fitted using the built&#45;in fitting">
<polygon fill="none" stroke="black" stroke-width="0.5" points="170,-74 90,-74 90,-55 170,-55 170,-74"/>
<text text-anchor="middle" x="130" y="-62" font-family="Vera Sans, DejaVu Sans, Liberation Sans, Arial, Helvetica, sans" font-size="10.00">FittableModel</text>
</a>
</g>
</g>
<!-- FittableModel&#45;&gt;Fittable1DModel -->
<g id="edge3" class="edge"><title>FittableModel&#45;&gt;Fittable1DModel</title>
<path fill="none" stroke="black" stroke-width="0.5" d="M170.123,-64.5C179.926,-64.5 190.584,-64.5 200.86,-64.5"/>
<polygon fill="black" stroke="black" stroke-width="0.5" points="200.868,-66.2501 205.868,-64.5 200.868,-62.7501 200.868,-66.2501"/>
</g>
<!-- Model -->
<g id="node5" class="node"><title>Model</title>
<g id="a_node5"><a xlink:href="../api/astropy.modeling.Model.html#astropy.modeling.Model" xlink:title="Base class for all models.">
<polygon fill="none" stroke="black" stroke-width="0.5" points="54,-74 0,-74 0,-55 54,-55 54,-74"/>
<text text-anchor="middle" x="27" y="-62" font-family="Vera Sans, DejaVu Sans, Liberation Sans, Arial, Helvetica, sans" font-size="10.00">Model</text>
</a>
</g>
</g>
<!-- Model&#45;&gt;FittableModel -->
<g id="edge4" class="edge"><title>Model&#45;&gt;FittableModel</title>
<path fill="none" stroke="black" stroke-width="0.5" d="M54.01,-64.5C63.3526,-64.5 74.1707,-64.5 84.6325,-64.5"/>
<polygon fill="black" stroke="black" stroke-width="0.5" points="84.7317,-66.2501 89.7316,-64.5 84.7316,-62.7501 84.7317,-66.2501"/>
</g>
</g>
</svg>
