<?xml version="1.0" encoding="UTF-8" standalone="no"?>
<!DOCTYPE svg PUBLIC "-//W3C//DTD SVG 1.1//EN"
 "http://www.w3.org/Graphics/SVG/1.1/DTD/svg11.dtd">
<!-- Generated by graphviz version 2.38.0 (20140413.2041)
 -->
<!-- Title: inheritancef50307d8ea Pages: 1 -->
<svg width="576pt" height="783pt"
 viewBox="0.00 0.00 576.00 783.21" xmlns="http://www.w3.org/2000/svg" xmlns:xlink="http://www.w3.org/1999/xlink">
<g id="graph0" class="graph" transform="scale(0.950495 0.950495) rotate(0) translate(4 820)">
<title>inheritancef50307d8ea</title>
<polygon fill="white" stroke="none" points="-4,4 -4,-820 602,-820 602,4 -4,4"/>
<!-- AASTex -->
<g id="node1" class="node"><title>AASTex</title>
<g id="a_node1"><a xlink:href="../../api/astropy.io.ascii.AASTex.html#astropy.io.ascii.AASTex" xlink:title="Write and read AASTeX tables.">
<polygon fill="none" stroke="black" stroke-width="0.5" points="417,-296 363,-296 363,-277 417,-277 417,-296"/>
<text text-anchor="middle" x="390" y="-284" font-family="Vera Sans, DejaVu Sans, Liberation Sans, Arial, Helvetica, sans" font-size="10.00">AASTex</text>
</a>
</g>
</g>
<!-- Latex -->
<g id="node2" class="node"><title>Latex</title>
<g id="a_node2"><a xlink:href="../../api/astropy.io.ascii.Latex.html#astropy.io.ascii.Latex" xlink:title="Write and read LaTeX tables.">
<polygon fill="none" stroke="black" stroke-width="0.5" points="255,-250 201,-250 201,-231 255,-231 255,-250"/>
<text text-anchor="middle" x="228" y="-238" font-family="Vera Sans, DejaVu Sans, Liberation Sans, Arial, Helvetica, sans" font-size="10.00">Latex</text>
</a>
</g>
</g>
<!-- Latex&#45;&gt;AASTex -->
<g id="edge1" class="edge"><title>Latex&#45;&gt;AASTex</title>
<path fill="none" stroke="black" stroke-width="0.5" d="M255.063,-247.993C283.189,-256.079 327.964,-268.952 357.907,-277.561"/>
<polygon fill="black" stroke="black" stroke-width="0.5" points="357.659,-279.31 362.948,-279.01 358.627,-275.947 357.659,-279.31"/>
</g>
<!-- AllType -->
<g id="node3" class="node"><title>AllType</title>
<g id="a_node3"><a xlink:href="../../api/astropy.io.ascii.AllType.html#astropy.io.ascii.AllType" xlink:title="Subclass of all other data types.">
<polygon fill="none" stroke="black" stroke-width="0.5" points="567,-370 513,-370 513,-351 567,-351 567,-370"/>
<text text-anchor="middle" x="540" y="-358" font-family="Vera Sans, DejaVu Sans, Liberation Sans, Arial, Helvetica, sans" font-size="10.00">AllType</text>
</a>
</g>
</g>
<!-- StrType -->
<g id="node4" class="node"><title>StrType</title>
<g id="a_node4"><a xlink:href="../../api/astropy.io.ascii.StrType.html#astropy.io.ascii.StrType" xlink:title="Indicates that a column consists of text data.">
<polygon fill="none" stroke="black" stroke-width="0.5" points="255,-408 201,-408 201,-389 255,-389 255,-408"/>
<text text-anchor="middle" x="228" y="-396" font-family="Vera Sans, DejaVu Sans, Liberation Sans, Arial, Helvetica, sans" font-size="10.00">StrType</text>
</a>
</g>
</g>
<!-- StrType&#45;&gt;AllType -->
<g id="edge2" class="edge"><title>StrType&#45;&gt;AllType</title>
<path fill="none" stroke="black" stroke-width="0.5" d="M255.152,-396.931C296.022,-394.29 377.457,-388.267 446,-378.5 466.686,-375.552 489.746,-371.097 507.729,-367.356"/>
<polygon fill="black" stroke="black" stroke-width="0.5" points="508.126,-369.061 512.66,-366.322 507.408,-365.636 508.126,-369.061"/>
</g>
<!-- FloatType -->
<g id="node5" class="node"><title>FloatType</title>
<g id="a_node5"><a xlink:href="../../api/astropy.io.ascii.FloatType.html#astropy.io.ascii.FloatType" xlink:title="Describes floating&#45;point data.">
<polygon fill="none" stroke="black" stroke-width="0.5" points="420.5,-370 359.5,-370 359.5,-351 420.5,-351 420.5,-370"/>
<text text-anchor="middle" x="390" y="-358" font-family="Vera Sans, DejaVu Sans, Liberation Sans, Arial, Helvetica, sans" font-size="10.00">FloatType</text>
</a>
</g>
</g>
<!-- FloatType&#45;&gt;AllType -->
<g id="edge3" class="edge"><title>FloatType&#45;&gt;AllType</title>
<path fill="none" stroke="black" stroke-width="0.5" d="M420.594,-360.5C445.796,-360.5 481.9,-360.5 507.604,-360.5"/>
<polygon fill="black" stroke="black" stroke-width="0.5" points="507.924,-362.25 512.924,-360.5 507.924,-358.75 507.924,-362.25"/>
</g>
<!-- IntType -->
<g id="node6" class="node"><title>IntType</title>
<g id="a_node6"><a xlink:href="../../api/astropy.io.ascii.IntType.html#astropy.io.ascii.IntType" xlink:title="Describes integer data.">
<polygon fill="none" stroke="black" stroke-width="0.5" points="417,-333 363,-333 363,-314 417,-314 417,-333"/>
<text text-anchor="middle" x="390" y="-321" font-family="Vera Sans, DejaVu Sans, Liberation Sans, Arial, Helvetica, sans" font-size="10.00">IntType</text>
</a>
</g>
</g>
<!-- IntType&#45;&gt;AllType -->
<g id="edge4" class="edge"><title>IntType&#45;&gt;AllType</title>
<path fill="none" stroke="black" stroke-width="0.5" d="M417.119,-330.03C442.43,-336.358 480.839,-345.96 507.758,-352.689"/>
<polygon fill="black" stroke="black" stroke-width="0.5" points="507.369,-354.396 512.645,-353.911 508.218,-351.001 507.369,-354.396"/>
</g>
<!-- BaseData -->
<g id="node7" class="node"><title>BaseData</title>
<g id="a_node7"><a xlink:href="../../api/astropy.io.ascii.BaseData.html#astropy.io.ascii.BaseData" xlink:title="Base table data reader.">
<polygon fill="none" stroke="black" stroke-width="0.5" points="93,-446 29,-446 29,-427 93,-427 93,-446"/>
<text text-anchor="middle" x="61" y="-434" font-family="Vera Sans, DejaVu Sans, Liberation Sans, Arial, Helvetica, sans" font-size="10.00">BaseData</text>
</a>
</g>
</g>
<!-- BasicData -->
<g id="node14" class="node"><title>BasicData</title>
<g id="a_node14"><a xlink:href="../../api/astropy.io.ascii.BasicData.html#astropy.io.ascii.BasicData" xlink:title="Basic table Data Reader">
<polygon fill="none" stroke="black" stroke-width="0.5" points="260.5,-446 195.5,-446 195.5,-427 260.5,-427 260.5,-446"/>
<text text-anchor="middle" x="228" y="-434" font-family="Vera Sans, DejaVu Sans, Liberation Sans, Arial, Helvetica, sans" font-size="10.00">BasicData</text>
</a>
</g>
</g>
<!-- BaseData&#45;&gt;BasicData -->
<g id="edge6" class="edge"><title>BaseData&#45;&gt;BasicData</title>
<path fill="none" stroke="black" stroke-width="0.5" d="M93.0352,-436.5C120.542,-436.5 160.759,-436.5 189.945,-436.5"/>
<polygon fill="black" stroke="black" stroke-width="0.5" points="190.261,-438.25 195.261,-436.5 190.261,-434.75 190.261,-438.25"/>
</g>
<!-- BaseHeader -->
<g id="node8" class="node"><title>BaseHeader</title>
<g id="a_node8"><a xlink:href="../../api/astropy.io.ascii.BaseHeader.html#astropy.io.ascii.BaseHeader" xlink:title="Base table header reader">
<polygon fill="none" stroke="black" stroke-width="0.5" points="99,-483 23,-483 23,-464 99,-464 99,-483"/>
<text text-anchor="middle" x="61" y="-471" font-family="Vera Sans, DejaVu Sans, Liberation Sans, Arial, Helvetica, sans" font-size="10.00">BaseHeader</text>
</a>
</g>
</g>
<!-- BasicHeader -->
<g id="node15" class="node"><title>BasicHeader</title>
<g id="a_node15"><a xlink:href="../../api/astropy.io.ascii.BasicHeader.html#astropy.io.ascii.BasicHeader" xlink:title="Basic table Header Reader">
<polygon fill="none" stroke="black" stroke-width="0.5" points="266.5,-483 189.5,-483 189.5,-464 266.5,-464 266.5,-483"/>
<text text-anchor="middle" x="228" y="-471" font-family="Vera Sans, DejaVu Sans, Liberation Sans, Arial, Helvetica, sans" font-size="10.00">BasicHeader</text>
</a>
</g>
</g>
<!-- BaseHeader&#45;&gt;BasicHeader -->
<g id="edge7" class="edge"><title>BaseHeader&#45;&gt;BasicHeader</title>
<path fill="none" stroke="black" stroke-width="0.5" d="M99.0292,-473.5C124.238,-473.5 157.683,-473.5 184.06,-473.5"/>
<polygon fill="black" stroke="black" stroke-width="0.5" points="184.237,-475.25 189.237,-473.5 184.237,-471.75 184.237,-475.25"/>
</g>
<!-- BaseInputter -->
<g id="node9" class="node"><title>BaseInputter</title>
<g id="a_node9"><a xlink:href="../../api/astropy.io.ascii.BaseInputter.html#astropy.io.ascii.BaseInputter" xlink:title="Get the lines from the table input and return a list of lines.">
<polygon fill="none" stroke="black" stroke-width="0.5" points="100,-520 22,-520 22,-501 100,-501 100,-520"/>
<text text-anchor="middle" x="61" y="-508" font-family="Vera Sans, DejaVu Sans, Liberation Sans, Arial, Helvetica, sans" font-size="10.00">BaseInputter</text>
</a>
</g>
</g>
<!-- ContinuationLinesInputter -->
<g id="node19" class="node"><title>ContinuationLinesInputter</title>
<g id="a_node19"><a xlink:href="../../api/astropy.io.ascii.ContinuationLinesInputter.html#astropy.io.ascii.ContinuationLinesInputter" xlink:title="Inputter where lines ending in ``continuation_char`` are joined">
<polygon fill="none" stroke="black" stroke-width="0.5" points="298,-520 158,-520 158,-501 298,-501 298,-520"/>
<text text-anchor="middle" x="228" y="-508" font-family="Vera Sans, DejaVu Sans, Liberation Sans, Arial, Helvetica, sans" font-size="10.00">ContinuationLinesInputter</text>
</a>
</g>
</g>
<!-- BaseInputter&#45;&gt;ContinuationLinesInputter -->
<g id="edge10" class="edge"><title>BaseInputter&#45;&gt;ContinuationLinesInputter</title>
<path fill="none" stroke="black" stroke-width="0.5" d="M100.269,-510.5C115.933,-510.5 134.616,-510.5 152.761,-510.5"/>
<polygon fill="black" stroke="black" stroke-width="0.5" points="152.862,-512.25 157.862,-510.5 152.862,-508.75 152.862,-512.25"/>
</g>
<!-- BaseOutputter -->
<g id="node10" class="node"><title>BaseOutputter</title>
<g id="a_node10"><a xlink:href="../../api/astropy.io.ascii.BaseOutputter.html#astropy.io.ascii.BaseOutputter" xlink:title="Output table as a dict of column objects keyed on column name. &#160;The">
<polygon fill="none" stroke="black" stroke-width="0.5" points="104.5,-557 17.5,-557 17.5,-538 104.5,-538 104.5,-557"/>
<text text-anchor="middle" x="61" y="-545" font-family="Vera Sans, DejaVu Sans, Liberation Sans, Arial, Helvetica, sans" font-size="10.00">BaseOutputter</text>
</a>
</g>
</g>
<!-- TableOutputter -->
<g id="node46" class="node"><title>TableOutputter</title>
<g id="a_node46"><a xlink:href="../../api/astropy.io.ascii.TableOutputter.html#astropy.io.ascii.TableOutputter" xlink:title="Output the table as an astropy.table.Table object.">
<polygon fill="none" stroke="black" stroke-width="0.5" points="271.5,-557 184.5,-557 184.5,-538 271.5,-538 271.5,-557"/>
<text text-anchor="middle" x="228" y="-545" font-family="Vera Sans, DejaVu Sans, Liberation Sans, Arial, Helvetica, sans" font-size="10.00">TableOutputter</text>
</a>
</g>
</g>
<!-- BaseOutputter&#45;&gt;TableOutputter -->
<g id="edge37" class="edge"><title>BaseOutputter&#45;&gt;TableOutputter</title>
<path fill="none" stroke="black" stroke-width="0.5" d="M104.921,-547.5C127.647,-547.5 155.623,-547.5 179.059,-547.5"/>
<polygon fill="black" stroke="black" stroke-width="0.5" points="179.294,-549.25 184.294,-547.5 179.294,-545.75 179.294,-549.25"/>
</g>
<!-- BaseReader -->
<g id="node11" class="node"><title>BaseReader</title>
<g id="a_node11"><a xlink:href="../../api/astropy.io.ascii.BaseReader.html#astropy.io.ascii.BaseReader" xlink:title="Class providing methods to read and write an ASCII table using the specified">
<polygon fill="none" stroke="black" stroke-width="0.5" points="98,-111 24,-111 24,-92 98,-92 98,-111"/>
<text text-anchor="middle" x="61" y="-99" font-family="Vera Sans, DejaVu Sans, Liberation Sans, Arial, Helvetica, sans" font-size="10.00">BaseReader</text>
</a>
</g>
</g>
<!-- BaseReader&#45;&gt;Latex -->
<g id="edge30" class="edge"><title>BaseReader&#45;&gt;Latex</title>
<path fill="none" stroke="black" stroke-width="0.5" d="M73.3411,-111.054C102.189,-135.356 178.407,-199.564 211.404,-227.362"/>
<polygon fill="black" stroke="black" stroke-width="0.5" points="210.628,-228.996 215.58,-230.879 212.883,-226.319 210.628,-228.996"/>
</g>
<!-- Basic -->
<g id="node13" class="node"><title>Basic</title>
<g id="a_node13"><a xlink:href="../../api/astropy.io.ascii.Basic.html#astropy.io.ascii.Basic" xlink:title="Read a character&#45;delimited table with a single header line at the top">
<polygon fill="none" stroke="black" stroke-width="0.5" points="255,-167 201,-167 201,-148 255,-148 255,-167"/>
<text text-anchor="middle" x="228" y="-155" font-family="Vera Sans, DejaVu Sans, Liberation Sans, Arial, Helvetica, sans" font-size="10.00">Basic</text>
</a>
</g>
</g>
<!-- BaseReader&#45;&gt;Basic -->
<g id="edge5" class="edge"><title>BaseReader&#45;&gt;Basic</title>
<path fill="none" stroke="black" stroke-width="0.5" d="M85.0459,-111.123C104.349,-119.004 132.723,-130.171 158,-138.5 170.288,-142.549 183.995,-146.447 195.934,-149.648"/>
<polygon fill="black" stroke="black" stroke-width="0.5" points="195.651,-151.383 200.933,-150.975 196.549,-148.001 195.651,-151.383"/>
</g>
<!-- Cds -->
<g id="node16" class="node"><title>Cds</title>
<g id="a_node16"><a xlink:href="../../api/astropy.io.ascii.Cds.html#astropy.io.ascii.Cds" xlink:title="Read a CDS format table. &#160;See http://vizier.u&#45;strasbg.fr/doc/catstd.htx.">
<polygon fill="none" stroke="black" stroke-width="0.5" points="255,-130 201,-130 201,-111 255,-111 255,-130"/>
<text text-anchor="middle" x="228" y="-118" font-family="Vera Sans, DejaVu Sans, Liberation Sans, Arial, Helvetica, sans" font-size="10.00">Cds</text>
</a>
</g>
</g>
<!-- BaseReader&#45;&gt;Cds -->
<g id="edge8" class="edge"><title>BaseReader&#45;&gt;Cds</title>
<path fill="none" stroke="black" stroke-width="0.5" d="M98.21,-105.67C127.413,-109.032 168.057,-113.713 195.828,-116.91"/>
<polygon fill="black" stroke="black" stroke-width="0.5" points="195.69,-118.656 200.857,-117.49 196.09,-115.179 195.69,-118.656"/>
</g>
<!-- Daophot -->
<g id="node21" class="node"><title>Daophot</title>
<g id="a_node21"><a xlink:href="../../api/astropy.io.ascii.Daophot.html#astropy.io.ascii.Daophot" xlink:title="Read a DAOphot file.">
<polygon fill="none" stroke="black" stroke-width="0.5" points="257,-93 199,-93 199,-74 257,-74 257,-93"/>
<text text-anchor="middle" x="228" y="-81" font-family="Vera Sans, DejaVu Sans, Liberation Sans, Arial, Helvetica, sans" font-size="10.00">Daophot</text>
</a>
</g>
</g>
<!-- BaseReader&#45;&gt;Daophot -->
<g id="edge12" class="edge"><title>BaseReader&#45;&gt;Daophot</title>
<path fill="none" stroke="black" stroke-width="0.5" d="M98.21,-97.5498C126.698,-94.442 166.075,-90.1463 193.767,-87.1255"/>
<polygon fill="black" stroke="black" stroke-width="0.5" points="194.015,-88.8588 198.796,-86.5768 193.636,-85.3795 194.015,-88.8588"/>
</g>
<!-- HTML -->
<g id="node37" class="node"><title>HTML</title>
<g id="a_node37"><a xlink:href="../../api/astropy.io.ascii.HTML.html#astropy.io.ascii.HTML" xlink:title="Read and write HTML tables.">
<polygon fill="none" stroke="black" stroke-width="0.5" points="255,-56 201,-56 201,-37 255,-37 255,-56"/>
<text text-anchor="middle" x="228" y="-44" font-family="Vera Sans, DejaVu Sans, Liberation Sans, Arial, Helvetica, sans" font-size="10.00">HTML</text>
</a>
</g>
</g>
<!-- BaseReader&#45;&gt;HTML -->
<g id="edge27" class="edge"><title>BaseReader&#45;&gt;HTML</title>
<path fill="none" stroke="black" stroke-width="0.5" d="M84.6296,-91.9465C103.921,-84.0037 132.497,-72.7123 158,-64.5 170.27,-60.5488 183.974,-56.834 195.915,-53.8169"/>
<polygon fill="black" stroke="black" stroke-width="0.5" points="196.489,-55.4775 200.916,-52.5679 195.641,-52.0818 196.489,-55.4775"/>
</g>
<!-- SExtractor -->
<g id="node45" class="node"><title>SExtractor</title>
<g id="a_node45"><a xlink:href="../../api/astropy.io.ascii.SExtractor.html#astropy.io.ascii.SExtractor" xlink:title="Read a SExtractor file.">
<polygon fill="none" stroke="black" stroke-width="0.5" points="261.5,-19 194.5,-19 194.5,-0 261.5,-0 261.5,-19"/>
<text text-anchor="middle" x="228" y="-7" font-family="Vera Sans, DejaVu Sans, Liberation Sans, Arial, Helvetica, sans" font-size="10.00">SExtractor</text>
</a>
</g>
</g>
<!-- BaseReader&#45;&gt;SExtractor -->
<g id="edge34" class="edge"><title>BaseReader&#45;&gt;SExtractor</title>
<path fill="none" stroke="black" stroke-width="0.5" d="M71.7253,-91.7929C88.1037,-75.989 122.857,-44.7341 158,-27.5 167.743,-22.7218 178.904,-19.1054 189.369,-16.4154"/>
<polygon fill="black" stroke="black" stroke-width="0.5" points="190.004,-18.0616 194.441,-15.1683 189.168,-14.6628 190.004,-18.0616"/>
</g>
<!-- BaseSplitter -->
<g id="node12" class="node"><title>BaseSplitter</title>
<g id="a_node12"><a xlink:href="../../api/astropy.io.ascii.BaseSplitter.html#astropy.io.ascii.BaseSplitter" xlink:title="Base splitter that uses python&#39;s split method to do the work.">
<polygon fill="none" stroke="black" stroke-width="0.5" points="98.5,-612 23.5,-612 23.5,-593 98.5,-593 98.5,-612"/>
<text text-anchor="middle" x="61" y="-600" font-family="Vera Sans, DejaVu Sans, Liberation Sans, Arial, Helvetica, sans" font-size="10.00">BaseSplitter</text>
</a>
</g>
</g>
<!-- DefaultSplitter -->
<g id="node22" class="node"><title>DefaultSplitter</title>
<g id="a_node22"><a xlink:href="../../api/astropy.io.ascii.DefaultSplitter.html#astropy.io.ascii.DefaultSplitter" xlink:title="Default class to split strings into columns using python csv. &#160;The class">
<polygon fill="none" stroke="black" stroke-width="0.5" points="271,-631 185,-631 185,-612 271,-612 271,-631"/>
<text text-anchor="middle" x="228" y="-619" font-family="Vera Sans, DejaVu Sans, Liberation Sans, Arial, Helvetica, sans" font-size="10.00">DefaultSplitter</text>
</a>
</g>
</g>
<!-- BaseSplitter&#45;&gt;DefaultSplitter -->
<g id="edge13" class="edge"><title>BaseSplitter&#45;&gt;DefaultSplitter</title>
<path fill="none" stroke="black" stroke-width="0.5" d="M98.6188,-606.717C122.562,-609.474 154.065,-613.101 179.872,-616.073"/>
<polygon fill="black" stroke="black" stroke-width="0.5" points="179.786,-617.825 184.953,-616.658 180.186,-614.348 179.786,-617.825"/>
</g>
<!-- FixedWidthSplitter -->
<g id="node34" class="node"><title>FixedWidthSplitter</title>
<g id="a_node34"><a xlink:href="../../api/astropy.io.ascii.FixedWidthSplitter.html#astropy.io.ascii.FixedWidthSplitter" xlink:title="Split line based on fixed start and end positions for each ``col`` in">
<polygon fill="none" stroke="black" stroke-width="0.5" points="278.5,-594 177.5,-594 177.5,-575 278.5,-575 278.5,-594"/>
<text text-anchor="middle" x="228" y="-582" font-family="Vera Sans, DejaVu Sans, Liberation Sans, Arial, Helvetica, sans" font-size="10.00">FixedWidthSplitter</text>
</a>
</g>
</g>
<!-- BaseSplitter&#45;&gt;FixedWidthSplitter -->
<g id="edge24" class="edge"><title>BaseSplitter&#45;&gt;FixedWidthSplitter</title>
<path fill="none" stroke="black" stroke-width="0.5" d="M98.6188,-598.505C120.246,-596.146 148.042,-593.114 172.236,-590.474"/>
<polygon fill="black" stroke="black" stroke-width="0.5" points="172.56,-592.199 177.341,-589.917 172.18,-588.72 172.56,-592.199"/>
</g>
<!-- CommentedHeader -->
<g id="node18" class="node"><title>CommentedHeader</title>
<g id="a_node18"><a xlink:href="../../api/astropy.io.ascii.CommentedHeader.html#astropy.io.ascii.CommentedHeader" xlink:title="Read a file where the column names are given in a line that begins with">
<polygon fill="none" stroke="black" stroke-width="0.5" points="446,-259 334,-259 334,-240 446,-240 446,-259"/>
<text text-anchor="middle" x="390" y="-247" font-family="Vera Sans, DejaVu Sans, Liberation Sans, Arial, Helvetica, sans" font-size="10.00">CommentedHeader</text>
</a>
</g>
</g>
<!-- Basic&#45;&gt;CommentedHeader -->
<g id="edge9" class="edge"><title>Basic&#45;&gt;CommentedHeader</title>
<path fill="none" stroke="black" stroke-width="0.5" d="M240.602,-167.184C259.27,-182.38 297.579,-211.996 334,-230.5 339.559,-233.324 345.634,-235.891 351.654,-238.16"/>
<polygon fill="black" stroke="black" stroke-width="0.5" points="351.387,-239.926 356.684,-239.996 352.587,-236.638 351.387,-239.926"/>
</g>
<!-- Csv -->
<g id="node20" class="node"><title>Csv</title>
<g id="a_node20"><a xlink:href="../../api/astropy.io.ascii.Csv.html#astropy.io.ascii.Csv" xlink:title="Read a CSV (comma&#45;separated&#45;values) file.">
<polygon fill="none" stroke="black" stroke-width="0.5" points="417,-222 363,-222 363,-203 417,-203 417,-222"/>
<text text-anchor="middle" x="390" y="-210" font-family="Vera Sans, DejaVu Sans, Liberation Sans, Arial, Helvetica, sans" font-size="10.00">Csv</text>
</a>
</g>
</g>
<!-- Basic&#45;&gt;Csv -->
<g id="edge11" class="edge"><title>Basic&#45;&gt;Csv</title>
<path fill="none" stroke="black" stroke-width="0.5" d="M255.063,-166.459C283.189,-176.127 327.964,-191.519 357.907,-201.812"/>
<polygon fill="black" stroke="black" stroke-width="0.5" points="357.651,-203.574 362.948,-203.545 358.789,-200.264 357.651,-203.574"/>
</g>
<!-- Ecsv -->
<g id="node23" class="node"><title>Ecsv</title>
<g id="a_node23"><a xlink:href="../../api/astropy.io.ascii.Ecsv.html#astropy.io.ascii.Ecsv" xlink:title="Read a file which conforms to the ECSV (Enhanced Character Separated">
<polygon fill="none" stroke="black" stroke-width="0.5" points="417,-185 363,-185 363,-166 417,-166 417,-185"/>
<text text-anchor="middle" x="390" y="-173" font-family="Vera Sans, DejaVu Sans, Liberation Sans, Arial, Helvetica, sans" font-size="10.00">Ecsv</text>
</a>
</g>
</g>
<!-- Basic&#45;&gt;Ecsv -->
<g id="edge14" class="edge"><title>Basic&#45;&gt;Ecsv</title>
<path fill="none" stroke="black" stroke-width="0.5" d="M255.063,-160.432C283.189,-163.596 327.964,-168.633 357.907,-172.002"/>
<polygon fill="black" stroke="black" stroke-width="0.5" points="357.784,-173.749 362.948,-172.569 358.175,-170.271 357.784,-173.749"/>
</g>
<!-- FixedWidth -->
<g id="node30" class="node"><title>FixedWidth</title>
<g id="a_node30"><a xlink:href="../../api/astropy.io.ascii.FixedWidth.html#astropy.io.ascii.FixedWidth" xlink:title="Read or write a fixed width table with a single header line that defines column">
<polygon fill="none" stroke="black" stroke-width="0.5" points="423.5,-148 356.5,-148 356.5,-129 423.5,-129 423.5,-148"/>
<text text-anchor="middle" x="390" y="-136" font-family="Vera Sans, DejaVu Sans, Liberation Sans, Arial, Helvetica, sans" font-size="10.00">FixedWidth</text>
</a>
</g>
</g>
<!-- Basic&#45;&gt;FixedWidth -->
<g id="edge20" class="edge"><title>Basic&#45;&gt;FixedWidth</title>
<path fill="none" stroke="black" stroke-width="0.5" d="M255.063,-154.405C281.18,-151.304 321.652,-146.498 351.275,-142.98"/>
<polygon fill="black" stroke="black" stroke-width="0.5" points="351.543,-144.71 356.302,-142.383 351.13,-141.235 351.543,-144.71"/>
</g>
<!-- Ipac -->
<g id="node39" class="node"><title>Ipac</title>
<g id="a_node39"><a xlink:href="../../api/astropy.io.ascii.Ipac.html#astropy.io.ascii.Ipac" xlink:title="Read or write an IPAC format table. &#160;See">
<polygon fill="none" stroke="black" stroke-width="0.5" points="417,-111 363,-111 363,-92 417,-92 417,-111"/>
<text text-anchor="middle" x="390" y="-99" font-family="Vera Sans, DejaVu Sans, Liberation Sans, Arial, Helvetica, sans" font-size="10.00">Ipac</text>
</a>
</g>
</g>
<!-- Basic&#45;&gt;Ipac -->
<g id="edge29" class="edge"><title>Basic&#45;&gt;Ipac</title>
<path fill="none" stroke="black" stroke-width="0.5" d="M255.322,-151.678C268.377,-148.434 284.253,-143.945 298,-138.5 314.82,-131.837 317.343,-126.561 334,-119.5 341.66,-116.253 350.12,-113.223 358.06,-110.609"/>
<polygon fill="black" stroke="black" stroke-width="0.5" points="358.705,-112.24 362.925,-109.038 357.629,-108.909 358.705,-112.24"/>
</g>
<!-- NoHeader -->
<g id="node40" class="node"><title>NoHeader</title>
<g id="a_node40"><a xlink:href="../../api/astropy.io.ascii.NoHeader.html#astropy.io.ascii.NoHeader" xlink:title="Read a table with no header line. &#160;Columns are autonamed using">
<polygon fill="none" stroke="black" stroke-width="0.5" points="422.5,-74 357.5,-74 357.5,-55 422.5,-55 422.5,-74"/>
<text text-anchor="middle" x="390" y="-62" font-family="Vera Sans, DejaVu Sans, Liberation Sans, Arial, Helvetica, sans" font-size="10.00">NoHeader</text>
</a>
</g>
</g>
<!-- Basic&#45;&gt;NoHeader -->
<g id="edge31" class="edge"><title>Basic&#45;&gt;NoHeader</title>
<path fill="none" stroke="black" stroke-width="0.5" d="M255.217,-154.835C269.011,-152.371 285.588,-147.628 298,-138.5 321.837,-120.971 310.587,-100.591 334,-82.5 339.448,-78.2901 345.921,-75.0442 352.479,-72.5479"/>
<polygon fill="black" stroke="black" stroke-width="0.5" points="353.361,-74.093 357.496,-70.7816 352.198,-70.7917 353.361,-74.093"/>
</g>
<!-- Tab -->
<g id="node44" class="node"><title>Tab</title>
<g id="a_node44"><a xlink:href="../../api/astropy.io.ascii.Tab.html#astropy.io.ascii.Tab" xlink:title="Read a tab&#45;separated file. &#160;Unlike the :class:`Basic` reader, whitespace is">
<polygon fill="none" stroke="black" stroke-width="0.5" points="417,-37 363,-37 363,-18 417,-18 417,-37"/>
<text text-anchor="middle" x="390" y="-25" font-family="Vera Sans, DejaVu Sans, Liberation Sans, Arial, Helvetica, sans" font-size="10.00">Tab</text>
</a>
</g>
</g>
<!-- Basic&#45;&gt;Tab -->
<g id="edge36" class="edge"><title>Basic&#45;&gt;Tab</title>
<path fill="none" stroke="black" stroke-width="0.5" d="M255.325,-155.9C269.491,-153.766 286.387,-148.999 298,-138.5 330.877,-108.775 301.839,-75.9982 334,-45.5 340.46,-39.3741 349.037,-35.3324 357.492,-32.666"/>
<polygon fill="black" stroke="black" stroke-width="0.5" points="358.391,-34.2297 362.721,-31.1772 357.433,-30.8635 358.391,-34.2297"/>
</g>
<!-- FixedWidthData -->
<g id="node31" class="node"><title>FixedWidthData</title>
<g id="a_node31"><a xlink:href="../../api/astropy.io.ascii.FixedWidthData.html#astropy.io.ascii.FixedWidthData" xlink:title="Base table data reader.">
<polygon fill="none" stroke="black" stroke-width="0.5" points="435,-446 345,-446 345,-427 435,-427 435,-446"/>
<text text-anchor="middle" x="390" y="-434" font-family="Vera Sans, DejaVu Sans, Liberation Sans, Arial, Helvetica, sans" font-size="10.00">FixedWidthData</text>
</a>
</g>
</g>
<!-- BasicData&#45;&gt;FixedWidthData -->
<g id="edge21" class="edge"><title>BasicData&#45;&gt;FixedWidthData</title>
<path fill="none" stroke="black" stroke-width="0.5" d="M260.611,-436.5C283.151,-436.5 313.901,-436.5 339.656,-436.5"/>
<polygon fill="black" stroke="black" stroke-width="0.5" points="339.736,-438.25 344.736,-436.5 339.736,-434.75 339.736,-438.25"/>
</g>
<!-- FixedWidthHeader -->
<g id="node32" class="node"><title>FixedWidthHeader</title>
<g id="a_node32"><a xlink:href="../../api/astropy.io.ascii.FixedWidthHeader.html#astropy.io.ascii.FixedWidthHeader" xlink:title="Fixed width table header reader.">
<polygon fill="none" stroke="black" stroke-width="0.5" points="441,-483 339,-483 339,-464 441,-464 441,-483"/>
<text text-anchor="middle" x="390" y="-471" font-family="Vera Sans, DejaVu Sans, Liberation Sans, Arial, Helvetica, sans" font-size="10.00">FixedWidthHeader</text>
</a>
</g>
</g>
<!-- BasicHeader&#45;&gt;FixedWidthHeader -->
<g id="edge22" class="edge"><title>BasicHeader&#45;&gt;FixedWidthHeader</title>
<path fill="none" stroke="black" stroke-width="0.5" d="M266.513,-473.5C286.522,-473.5 311.527,-473.5 333.718,-473.5"/>
<polygon fill="black" stroke="black" stroke-width="0.5" points="333.997,-475.25 338.997,-473.5 333.997,-471.75 333.997,-475.25"/>
</g>
<!-- Column -->
<g id="node17" class="node"><title>Column</title>
<g id="a_node17"><a xlink:href="../../api/astropy.io.ascii.Column.html#astropy.io.ascii.Column" xlink:title="Table column.">
<polygon fill="none" stroke="black" stroke-width="0.5" points="88,-686 34,-686 34,-667 88,-667 88,-686"/>
<text text-anchor="middle" x="61" y="-674" font-family="Vera Sans, DejaVu Sans, Liberation Sans, Arial, Helvetica, sans" font-size="10.00">Column</text>
</a>
</g>
</g>
<!-- WhitespaceSplitter -->
<g id="node47" class="node"><title>WhitespaceSplitter</title>
<g id="a_node47"><a xlink:href="../../api/astropy.io.ascii.WhitespaceSplitter.html#astropy.io.ascii.WhitespaceSplitter" xlink:title="WhitespaceSplitter">
<polygon fill="none" stroke="black" stroke-width="0.5" points="443,-631 337,-631 337,-612 443,-612 443,-631"/>
<text text-anchor="middle" x="390" y="-619" font-family="Vera Sans, DejaVu Sans, Liberation Sans, Arial, Helvetica, sans" font-size="10.00">WhitespaceSplitter</text>
</a>
</g>
</g>
<!-- DefaultSplitter&#45;&gt;WhitespaceSplitter -->
<g id="edge38" class="edge"><title>DefaultSplitter&#45;&gt;WhitespaceSplitter</title>
<path fill="none" stroke="black" stroke-width="0.5" d="M271.038,-621.5C289.645,-621.5 311.82,-621.5 331.894,-621.5"/>
<polygon fill="black" stroke="black" stroke-width="0.5" points="331.949,-623.25 336.949,-621.5 331.949,-619.75 331.949,-623.25"/>
</g>
<!-- FastBasic -->
<g id="node24" class="node"><title>FastBasic</title>
<g id="a_node24"><a xlink:href="../../api/astropy.io.ascii.FastBasic.html#astropy.io.ascii.FastBasic" xlink:title="This class is intended to handle the same format addressed by the">
<polygon fill="none" stroke="black" stroke-width="0.5" points="92,-742 30,-742 30,-723 92,-723 92,-742"/>
<text text-anchor="middle" x="61" y="-730" font-family="Vera Sans, DejaVu Sans, Liberation Sans, Arial, Helvetica, sans" font-size="10.00">FastBasic</text>
</a>
</g>
</g>
<!-- FastCommentedHeader -->
<g id="node25" class="node"><title>FastCommentedHeader</title>
<g id="a_node25"><a xlink:href="../../api/astropy.io.ascii.FastCommentedHeader.html#astropy.io.ascii.FastCommentedHeader" xlink:title="A faster version of the :class:`CommentedHeader` reader, which looks for">
<polygon fill="none" stroke="black" stroke-width="0.5" points="293.5,-816 162.5,-816 162.5,-797 293.5,-797 293.5,-816"/>
<text text-anchor="middle" x="228" y="-804" font-family="Vera Sans, DejaVu Sans, Liberation Sans, Arial, Helvetica, sans" font-size="10.00">FastCommentedHeader</text>
</a>
</g>
</g>
<!-- FastBasic&#45;&gt;FastCommentedHeader -->
<g id="edge15" class="edge"><title>FastBasic&#45;&gt;FastCommentedHeader</title>
<path fill="none" stroke="black" stroke-width="0.5" d="M92.2472,-738.942C102.182,-741.858 112.98,-745.934 122,-751.5 141.525,-763.549 138.171,-776.958 158,-788.5 162.414,-791.069 167.196,-793.277 172.115,-795.175"/>
<polygon fill="black" stroke="black" stroke-width="0.5" points="171.772,-796.912 177.069,-796.97 172.965,-793.622 171.772,-796.912"/>
</g>
<!-- FastCsv -->
<g id="node26" class="node"><title>FastCsv</title>
<g id="a_node26"><a xlink:href="../../api/astropy.io.ascii.FastCsv.html#astropy.io.ascii.FastCsv" xlink:title="A faster version of the ordinary :class:`Csv` writer that uses the">
<polygon fill="none" stroke="black" stroke-width="0.5" points="255,-779 201,-779 201,-760 255,-760 255,-779"/>
<text text-anchor="middle" x="228" y="-767" font-family="Vera Sans, DejaVu Sans, Liberation Sans, Arial, Helvetica, sans" font-size="10.00">FastCsv</text>
</a>
</g>
</g>
<!-- FastBasic&#45;&gt;FastCsv -->
<g id="edge16" class="edge"><title>FastBasic&#45;&gt;FastCsv</title>
<path fill="none" stroke="black" stroke-width="0.5" d="M92.2635,-739.286C121.638,-745.873 166.021,-755.826 195.732,-762.488"/>
<polygon fill="black" stroke="black" stroke-width="0.5" points="195.474,-764.224 200.736,-763.61 196.24,-760.809 195.474,-764.224"/>
</g>
<!-- FastNoHeader -->
<g id="node27" class="node"><title>FastNoHeader</title>
<g id="a_node27"><a xlink:href="../../api/astropy.io.ascii.FastNoHeader.html#astropy.io.ascii.FastNoHeader" xlink:title="This class uses the fast C engine to read tables with no header line. If">
<polygon fill="none" stroke="black" stroke-width="0.5" points="270.5,-742 185.5,-742 185.5,-723 270.5,-723 270.5,-742"/>
<text text-anchor="middle" x="228" y="-730" font-family="Vera Sans, DejaVu Sans, Liberation Sans, Arial, Helvetica, sans" font-size="10.00">FastNoHeader</text>
</a>
</g>
</g>
<!-- FastBasic&#45;&gt;FastNoHeader -->
<g id="edge17" class="edge"><title>FastBasic&#45;&gt;FastNoHeader</title>
<path fill="none" stroke="black" stroke-width="0.5" d="M92.2635,-732.5C116.875,-732.5 152.022,-732.5 180.248,-732.5"/>
<polygon fill="black" stroke="black" stroke-width="0.5" points="180.433,-734.25 185.433,-732.5 180.433,-730.75 180.433,-734.25"/>
</g>
<!-- FastRdb -->
<g id="node28" class="node"><title>FastRdb</title>
<g id="a_node28"><a xlink:href="../../api/astropy.io.ascii.FastRdb.html#astropy.io.ascii.FastRdb" xlink:title="A faster version of the :class:`Rdb` reader. This format is similar to">
<polygon fill="none" stroke="black" stroke-width="0.5" points="255,-705 201,-705 201,-686 255,-686 255,-705"/>
<text text-anchor="middle" x="228" y="-693" font-family="Vera Sans, DejaVu Sans, Liberation Sans, Arial, Helvetica, sans" font-size="10.00">FastRdb</text>
</a>
</g>
</g>
<!-- FastBasic&#45;&gt;FastRdb -->
<g id="edge18" class="edge"><title>FastBasic&#45;&gt;FastRdb</title>
<path fill="none" stroke="black" stroke-width="0.5" d="M92.2635,-725.714C121.638,-719.127 166.021,-709.174 195.732,-702.512"/>
<polygon fill="black" stroke="black" stroke-width="0.5" points="196.24,-704.191 200.736,-701.39 195.474,-700.776 196.24,-704.191"/>
</g>
<!-- FastTab -->
<g id="node29" class="node"><title>FastTab</title>
<g id="a_node29"><a xlink:href="../../api/astropy.io.ascii.FastTab.html#astropy.io.ascii.FastTab" xlink:title="A faster version of the ordinary :class:`Tab` reader that uses">
<polygon fill="none" stroke="black" stroke-width="0.5" points="255,-668 201,-668 201,-649 255,-649 255,-668"/>
<text text-anchor="middle" x="228" y="-656" font-family="Vera Sans, DejaVu Sans, Liberation Sans, Arial, Helvetica, sans" font-size="10.00">FastTab</text>
</a>
</g>
</g>
<!-- FastBasic&#45;&gt;FastTab -->
<g id="edge19" class="edge"><title>FastBasic&#45;&gt;FastTab</title>
<path fill="none" stroke="black" stroke-width="0.5" d="M77.759,-722.824C100.607,-708.909 141.952,-684.181 158,-677.5 170.044,-672.486 183.816,-668.389 195.872,-665.3"/>
<polygon fill="black" stroke="black" stroke-width="0.5" points="196.497,-666.947 200.924,-664.038 195.649,-663.552 196.497,-666.947"/>
</g>
<!-- FixedWidthNoHeader -->
<g id="node33" class="node"><title>FixedWidthNoHeader</title>
<g id="a_node33"><a xlink:href="../../api/astropy.io.ascii.FixedWidthNoHeader.html#astropy.io.ascii.FixedWidthNoHeader" xlink:title="Read or write a fixed width table which has no header line. &#160;Column">
<polygon fill="none" stroke="black" stroke-width="0.5" points="598,-166 482,-166 482,-147 598,-147 598,-166"/>
<text text-anchor="middle" x="540" y="-154" font-family="Vera Sans, DejaVu Sans, Liberation Sans, Arial, Helvetica, sans" font-size="10.00">FixedWidthNoHeader</text>
</a>
</g>
</g>
<!-- FixedWidth&#45;&gt;FixedWidthNoHeader -->
<g id="edge23" class="edge"><title>FixedWidth&#45;&gt;FixedWidthNoHeader</title>
<path fill="none" stroke="black" stroke-width="0.5" d="M423.846,-142.495C439.414,-144.388 458.546,-146.715 476.712,-148.924"/>
<polygon fill="black" stroke="black" stroke-width="0.5" points="476.631,-150.677 481.806,-149.544 477.054,-147.203 476.631,-150.677"/>
</g>
<!-- FixedWidthTwoLine -->
<g id="node35" class="node"><title>FixedWidthTwoLine</title>
<g id="a_node35"><a xlink:href="../../api/astropy.io.ascii.FixedWidthTwoLine.html#astropy.io.ascii.FixedWidthTwoLine" xlink:title="Read or write a fixed width table which has two header lines. &#160;The first">
<polygon fill="none" stroke="black" stroke-width="0.5" points="591.5,-129 488.5,-129 488.5,-110 591.5,-110 591.5,-129"/>
<text text-anchor="middle" x="540" y="-117" font-family="Vera Sans, DejaVu Sans, Liberation Sans, Arial, Helvetica, sans" font-size="10.00">FixedWidthTwoLine</text>
</a>
</g>
</g>
<!-- FixedWidth&#45;&gt;FixedWidthTwoLine -->
<g id="edge25" class="edge"><title>FixedWidth&#45;&gt;FixedWidthTwoLine</title>
<path fill="none" stroke="black" stroke-width="0.5" d="M423.846,-134.283C441.275,-132.046 463.169,-129.235 483.174,-126.667"/>
<polygon fill="black" stroke="black" stroke-width="0.5" points="483.479,-128.392 488.216,-126.02 483.033,-124.921 483.479,-128.392"/>
</g>
<!-- NumType -->
<g id="node36" class="node"><title>NumType</title>
<g id="a_node36"><a xlink:href="../../api/astropy.io.ascii.NumType.html#astropy.io.ascii.NumType" xlink:title="Indicates that a column consists of numerical data.">
<polygon fill="none" stroke="black" stroke-width="0.5" points="258.5,-370 197.5,-370 197.5,-351 258.5,-351 258.5,-370"/>
<text text-anchor="middle" x="228" y="-358" font-family="Vera Sans, DejaVu Sans, Liberation Sans, Arial, Helvetica, sans" font-size="10.00">NumType</text>
</a>
</g>
</g>
<!-- NumType&#45;&gt;FloatType -->
<g id="edge26" class="edge"><title>NumType&#45;&gt;FloatType</title>
<path fill="none" stroke="black" stroke-width="0.5" d="M258.72,-360.5C285.774,-360.5 325.731,-360.5 354.253,-360.5"/>
<polygon fill="black" stroke="black" stroke-width="0.5" points="354.439,-362.25 359.439,-360.5 354.439,-358.75 354.439,-362.25"/>
</g>
<!-- NumType&#45;&gt;IntType -->
<g id="edge28" class="edge"><title>NumType&#45;&gt;IntType</title>
<path fill="none" stroke="black" stroke-width="0.5" d="M258.72,-353.627C286.88,-347.115 329.019,-337.371 357.691,-330.74"/>
<polygon fill="black" stroke="black" stroke-width="0.5" points="358.405,-332.371 362.882,-329.54 357.616,-328.961 358.405,-332.371"/>
</g>
<!-- InconsistentTableError -->
<g id="node38" class="node"><title>InconsistentTableError</title>
<g id="a_node38"><a xlink:href="../../api/astropy.io.ascii.InconsistentTableError.html#astropy.io.ascii.InconsistentTableError" xlink:title="Indicates that an input table is inconsistent in some way.">
<polygon fill="none" stroke="black" stroke-width="0.5" points="122,-779 -7.10543e-15,-779 -7.10543e-15,-760 122,-760 122,-779"/>
<text text-anchor="middle" x="61" y="-767" font-family="Vera Sans, DejaVu Sans, Liberation Sans, Arial, Helvetica, sans" font-size="10.00">InconsistentTableError</text>
</a>
</g>
</g>
<!-- NoType -->
<g id="node41" class="node"><title>NoType</title>
<g id="a_node41"><a xlink:href="../../api/astropy.io.ascii.NoType.html#astropy.io.ascii.NoType" xlink:title="Superclass for ``StrType`` and ``NumType`` classes.">
<polygon fill="none" stroke="black" stroke-width="0.5" points="88,-389 34,-389 34,-370 88,-370 88,-389"/>
<text text-anchor="middle" x="61" y="-377" font-family="Vera Sans, DejaVu Sans, Liberation Sans, Arial, Helvetica, sans" font-size="10.00">NoType</text>
</a>
</g>
</g>
<!-- NoType&#45;&gt;StrType -->
<g id="edge35" class="edge"><title>NoType&#45;&gt;StrType</title>
<path fill="none" stroke="black" stroke-width="0.5" d="M88.1447,-382.511C117.351,-385.874 164.607,-391.315 195.742,-394.901"/>
<polygon fill="black" stroke="black" stroke-width="0.5" points="195.81,-396.67 200.978,-395.503 196.211,-393.193 195.81,-396.67"/>
</g>
<!-- NoType&#45;&gt;NumType -->
<g id="edge32" class="edge"><title>NoType&#45;&gt;NumType</title>
<path fill="none" stroke="black" stroke-width="0.5" d="M88.1447,-376.489C116.234,-373.255 161.02,-368.098 192.102,-364.519"/>
<polygon fill="black" stroke="black" stroke-width="0.5" points="192.586,-366.224 197.353,-363.914 192.186,-362.747 192.586,-366.224"/>
</g>
<!-- ParameterError -->
<g id="node42" class="node"><title>ParameterError</title>
<g id="a_node42"><a xlink:href="../../api/astropy.io.ascii.ParameterError.html#astropy.io.ascii.ParameterError" xlink:title="Indicates that a reader cannot handle a passed parameter.">
<polygon fill="none" stroke="black" stroke-width="0.5" points="106,-816 16,-816 16,-797 106,-797 106,-816"/>
<text text-anchor="middle" x="61" y="-804" font-family="Vera Sans, DejaVu Sans, Liberation Sans, Arial, Helvetica, sans" font-size="10.00">ParameterError</text>
</a>
</g>
</g>
<!-- Rdb -->
<g id="node43" class="node"><title>Rdb</title>
<g id="a_node43"><a xlink:href="../../api/astropy.io.ascii.Rdb.html#astropy.io.ascii.Rdb" xlink:title="Read a tab&#45;separated file with an extra line after the column definition">
<polygon fill="none" stroke="black" stroke-width="0.5" points="567,-37 513,-37 513,-18 567,-18 567,-37"/>
<text text-anchor="middle" x="540" y="-25" font-family="Vera Sans, DejaVu Sans, Liberation Sans, Arial, Helvetica, sans" font-size="10.00">Rdb</text>
</a>
</g>
</g>
<!-- Tab&#45;&gt;Rdb -->
<g id="edge33" class="edge"><title>Tab&#45;&gt;Rdb</title>
<path fill="none" stroke="black" stroke-width="0.5" d="M417.119,-27.5C442.325,-27.5 480.521,-27.5 507.422,-27.5"/>
<polygon fill="black" stroke="black" stroke-width="0.5" points="507.645,-29.2501 512.645,-27.5 507.645,-25.7501 507.645,-29.2501"/>
</g>
</g>
</svg>
