<?xml version="1.0" encoding="UTF-8" standalone="no"?>
<!DOCTYPE svg PUBLIC "-//W3C//DTD SVG 1.1//EN"
 "http://www.w3.org/Graphics/SVG/1.1/DTD/svg11.dtd">
<!-- Generated by graphviz version 2.38.0 (20140413.2041)
 -->
<!-- Title: inheritance5a3416a143 Pages: 1 -->
<svg width="366pt" height="82pt"
 viewBox="0.00 0.00 366.00 82.00" xmlns="http://www.w3.org/2000/svg" xmlns:xlink="http://www.w3.org/1999/xlink">
<g id="graph0" class="graph" transform="scale(1 1) rotate(0) translate(4 78)">
<title>inheritance5a3416a143</title>
<polygon fill="white" stroke="none" points="-4,4 -4,-78 362,-78 362,4 -4,4"/>
<!-- EulerAngleRotation -->
<g id="node1" class="node"><title>EulerAngleRotation</title>
<g id="a_node1"><a xlink:href="../api/astropy.modeling.rotations.EulerAngleRotation.html#astropy.modeling.rotations.EulerAngleRotation" xlink:title="Base class for Euler angle rotations.">
<polygon fill="none" stroke="black" stroke-width="0.5" points="197,-56 90,-56 90,-37 197,-37 197,-56"/>
<text text-anchor="middle" x="143.5" y="-44" font-family="Vera Sans, DejaVu Sans, Liberation Sans, Arial, Helvetica, sans" font-size="10.00">EulerAngleRotation</text>
</a>
</g>
</g>
<!-- RotateCelestial2Native -->
<g id="node3" class="node"><title>RotateCelestial2Native</title>
<g id="a_node3"><a xlink:href="../api/astropy.modeling.rotations.RotateCelestial2Native.html#astropy.modeling.rotations.RotateCelestial2Native" xlink:title="Transformation from Celestial to Native to Spherical Coordinates.">
<polygon fill="none" stroke="black" stroke-width="0.5" points="358,-74 233,-74 233,-55 358,-55 358,-74"/>
<text text-anchor="middle" x="295.5" y="-62" font-family="Vera Sans, DejaVu Sans, Liberation Sans, Arial, Helvetica, sans" font-size="10.00">RotateCelestial2Native</text>
</a>
</g>
</g>
<!-- EulerAngleRotation&#45;&gt;RotateCelestial2Native -->
<g id="edge2" class="edge"><title>EulerAngleRotation&#45;&gt;RotateCelestial2Native</title>
<path fill="none" stroke="black" stroke-width="0.5" d="M197.384,-52.8461C207.242,-54.0291 217.66,-55.2793 227.869,-56.5043"/>
<polygon fill="black" stroke="black" stroke-width="0.5" points="227.687,-58.2449 232.86,-57.1032 228.104,-54.7699 227.687,-58.2449"/>
</g>
<!-- RotateNative2Celestial -->
<g id="node4" class="node"><title>RotateNative2Celestial</title>
<g id="a_node4"><a xlink:href="../api/astropy.modeling.rotations.RotateNative2Celestial.html#astropy.modeling.rotations.RotateNative2Celestial" xlink:title="Transformation from Native to Celestial Spherical Coordinates.">
<polygon fill="none" stroke="black" stroke-width="0.5" points="358,-37 233,-37 233,-18 358,-18 358,-37"/>
<text text-anchor="middle" x="295.5" y="-25" font-family="Vera Sans, DejaVu Sans, Liberation Sans, Arial, Helvetica, sans" font-size="10.00">RotateNative2Celestial</text>
</a>
</g>
</g>
<!-- EulerAngleRotation&#45;&gt;RotateNative2Celestial -->
<g id="edge3" class="edge"><title>EulerAngleRotation&#45;&gt;RotateNative2Celestial</title>
<path fill="none" stroke="black" stroke-width="0.5" d="M197.384,-39.8013C207.242,-38.5526 217.66,-37.233 227.869,-35.9399"/>
<polygon fill="black" stroke="black" stroke-width="0.5" points="228.12,-37.6722 232.86,-35.3077 227.68,-34.2 228.12,-37.6722"/>
</g>
<!-- Model -->
<g id="node2" class="node"><title>Model</title>
<g id="a_node2"><a xlink:href="../api/astropy.modeling.Model.html#astropy.modeling.Model" xlink:title="Base class for all models.">
<polygon fill="none" stroke="black" stroke-width="0.5" points="54,-37 0,-37 0,-18 54,-18 54,-37"/>
<text text-anchor="middle" x="27" y="-25" font-family="Vera Sans, DejaVu Sans, Liberation Sans, Arial, Helvetica, sans" font-size="10.00">Model</text>
</a>
</g>
</g>
<!-- Model&#45;&gt;EulerAngleRotation -->
<g id="edge1" class="edge"><title>Model&#45;&gt;EulerAngleRotation</title>
<path fill="none" stroke="black" stroke-width="0.5" d="M54.2686,-31.859C63.3469,-33.3654 73.9126,-35.1187 84.512,-36.8775"/>
<polygon fill="black" stroke="black" stroke-width="0.5" points="84.4926,-38.6482 89.7116,-37.7404 85.0656,-35.1954 84.4926,-38.6482"/>
</g>
<!-- Rotation2D -->
<g id="node5" class="node"><title>Rotation2D</title>
<g id="a_node5"><a xlink:href="../api/astropy.modeling.rotations.Rotation2D.html#astropy.modeling.rotations.Rotation2D" xlink:title="Perform a 2D rotation given an angle in degrees.">
<polygon fill="none" stroke="black" stroke-width="0.5" points="178,-19 109,-19 109,-0 178,-0 178,-19"/>
<text text-anchor="middle" x="143.5" y="-7" font-family="Vera Sans, DejaVu Sans, Liberation Sans, Arial, Helvetica, sans" font-size="10.00">Rotation2D</text>
</a>
</g>
</g>
<!-- Model&#45;&gt;Rotation2D -->
<g id="edge4" class="edge"><title>Model&#45;&gt;Rotation2D</title>
<path fill="none" stroke="black" stroke-width="0.5" d="M54.2686,-23.3704C68.9878,-21.0565 87.6171,-18.1279 103.961,-15.5586"/>
<polygon fill="black" stroke="black" stroke-width="0.5" points="104.285,-17.2792 108.952,-14.7739 103.741,-13.8217 104.285,-17.2792"/>
</g>
</g>
</svg>
