<?xml version="1.0" encoding="UTF-8" standalone="no"?>
<!DOCTYPE svg PUBLIC "-//W3C//DTD SVG 1.1//EN"
 "http://www.w3.org/Graphics/SVG/1.1/DTD/svg11.dtd">
<!-- Generated by graphviz version 2.38.0 (20140413.2041)
 -->
<!-- Title: inheritance77b4864455 Pages: 1 -->
<svg width="361pt" height="27pt"
 viewBox="0.00 0.00 361.00 27.00" xmlns="http://www.w3.org/2000/svg" xmlns:xlink="http://www.w3.org/1999/xlink">
<g id="graph0" class="graph" transform="scale(1 1) rotate(0) translate(4 23)">
<title>inheritance77b4864455</title>
<polygon fill="white" stroke="none" points="-4,4 -4,-23 357,-23 357,4 -4,4"/>
<!-- Constant -->
<g id="node1" class="node"><title>Constant</title>
<g id="a_node1"><a xlink:href="../api/astropy.constants.Constant.html#astropy.constants.Constant" xlink:title="A physical or astronomical constant.">
<polygon fill="none" stroke="black" stroke-width="0.5" points="243,-19 183,-19 183,-0 243,-0 243,-19"/>
<text text-anchor="middle" x="213" y="-7" font-family="Vera Sans, DejaVu Sans, Liberation Sans, Arial, Helvetica, sans" font-size="10.00">Constant</text>
</a>
</g>
</g>
<!-- EMConstant -->
<g id="node3" class="node"><title>EMConstant</title>
<g id="a_node3"><a xlink:href="../api/astropy.constants.EMConstant.html#astropy.constants.EMConstant" xlink:title="An electromagnetic constant.">
<polygon fill="none" stroke="black" stroke-width="0.5" points="353,-19 279,-19 279,-0 353,-0 353,-19"/>
<text text-anchor="middle" x="316" y="-7" font-family="Vera Sans, DejaVu Sans, Liberation Sans, Arial, Helvetica, sans" font-size="10.00">EMConstant</text>
</a>
</g>
</g>
<!-- Constant&#45;&gt;EMConstant -->
<g id="edge2" class="edge"><title>Constant&#45;&gt;EMConstant</title>
<path fill="none" stroke="black" stroke-width="0.5" d="M243.213,-9.5C252.64,-9.5 263.277,-9.5 273.419,-9.5"/>
<polygon fill="black" stroke="black" stroke-width="0.5" points="273.668,-11.2501 278.668,-9.5 273.668,-7.7501 273.668,-11.2501"/>
</g>
<!-- Quantity -->
<g id="node2" class="node"><title>Quantity</title>
<g id="a_node2"><a xlink:href="../api/astropy.units.quantity.Quantity.html#astropy.units.quantity.Quantity" xlink:title="A `~astropy.units.Quantity` represents a number with some associated unit.">
<polygon fill="none" stroke="black" stroke-width="0.5" points="147,-19 90,-19 90,-0 147,-0 147,-19"/>
<text text-anchor="middle" x="118.5" y="-7" font-family="Vera Sans, DejaVu Sans, Liberation Sans, Arial, Helvetica, sans" font-size="10.00">Quantity</text>
</a>
</g>
</g>
<!-- Quantity&#45;&gt;Constant -->
<g id="edge1" class="edge"><title>Quantity&#45;&gt;Constant</title>
<path fill="none" stroke="black" stroke-width="0.5" d="M147.003,-9.5C156.617,-9.5 167.532,-9.5 177.635,-9.5"/>
<polygon fill="black" stroke="black" stroke-width="0.5" points="177.834,-11.2501 182.834,-9.5 177.834,-7.7501 177.834,-11.2501"/>
</g>
<!-- ndarray -->
<g id="node4" class="node"><title>ndarray</title>
<g id="a_node4"><a xlink:title="ndarray(shape, dtype=float, buffer=None, offset=0,">
<polygon fill="none" stroke="black" stroke-width="0.5" points="54,-19 0,-19 0,-0 54,-0 54,-19"/>
<text text-anchor="middle" x="27" y="-7" font-family="Vera Sans, DejaVu Sans, Liberation Sans, Arial, Helvetica, sans" font-size="10.00">ndarray</text>
</a>
</g>
</g>
<!-- ndarray&#45;&gt;Quantity -->
<g id="edge3" class="edge"><title>ndarray&#45;&gt;Quantity</title>
<path fill="none" stroke="black" stroke-width="0.5" d="M54.3689,-9.5C63.8533,-9.5 74.6709,-9.5 84.6398,-9.5"/>
<polygon fill="black" stroke="black" stroke-width="0.5" points="84.764,-11.2501 89.764,-9.5 84.764,-7.7501 84.764,-11.2501"/>
</g>
</g>
</svg>
