<?xml version="1.0" encoding="UTF-8" standalone="no"?>
<!DOCTYPE svg PUBLIC "-//W3C//DTD SVG 1.1//EN"
 "http://www.w3.org/Graphics/SVG/1.1/DTD/svg11.dtd">
<!-- Generated by graphviz version 2.38.0 (20140413.2041)
 -->
<!-- Title: inheritancef2d95c1abd Pages: 1 -->
<svg width="245pt" height="27pt"
 viewBox="0.00 0.00 245.00 27.00" xmlns="http://www.w3.org/2000/svg" xmlns:xlink="http://www.w3.org/1999/xlink">
<g id="graph0" class="graph" transform="scale(1 1) rotate(0) translate(4 23)">
<title>inheritancef2d95c1abd</title>
<polygon fill="white" stroke="none" points="-4,4 -4,-23 241,-23 241,4 -4,4"/>
<!-- Identity -->
<g id="node1" class="node"><title>Identity</title>
<g id="a_node1"><a xlink:href="../api/astropy.modeling.mappings.Identity.html#astropy.modeling.mappings.Identity" xlink:title="Returns inputs unchanged.">
<polygon fill="none" stroke="black" stroke-width="0.5" points="237,-19 183,-19 183,-0 237,-0 237,-19"/>
<text text-anchor="middle" x="210" y="-7" font-family="Vera Sans, DejaVu Sans, Liberation Sans, Arial, Helvetica, sans" font-size="10.00">Identity</text>
</a>
</g>
</g>
<!-- Mapping -->
<g id="node2" class="node"><title>Mapping</title>
<g id="a_node2"><a xlink:href="../api/astropy.modeling.mappings.Mapping.html#astropy.modeling.mappings.Mapping" xlink:title="Allows inputs to be reordered, duplicated or dropped.">
<polygon fill="none" stroke="black" stroke-width="0.5" points="147,-19 90,-19 90,-0 147,-0 147,-19"/>
<text text-anchor="middle" x="118.5" y="-7" font-family="Vera Sans, DejaVu Sans, Liberation Sans, Arial, Helvetica, sans" font-size="10.00">Mapping</text>
</a>
</g>
</g>
<!-- Mapping&#45;&gt;Identity -->
<g id="edge1" class="edge"><title>Mapping&#45;&gt;Identity</title>
<path fill="none" stroke="black" stroke-width="0.5" d="M147.328,-9.5C156.941,-9.5 167.776,-9.5 177.652,-9.5"/>
<polygon fill="black" stroke="black" stroke-width="0.5" points="177.718,-11.2501 182.718,-9.5 177.718,-7.7501 177.718,-11.2501"/>
</g>
<!-- Model -->
<g id="node3" class="node"><title>Model</title>
<g id="a_node3"><a xlink:href="../api/astropy.modeling.Model.html#astropy.modeling.Model" xlink:title="Base class for all models.">
<polygon fill="none" stroke="black" stroke-width="0.5" points="54,-19 0,-19 0,-0 54,-0 54,-19"/>
<text text-anchor="middle" x="27" y="-7" font-family="Vera Sans, DejaVu Sans, Liberation Sans, Arial, Helvetica, sans" font-size="10.00">Model</text>
</a>
</g>
</g>
<!-- Model&#45;&gt;Mapping -->
<g id="edge2" class="edge"><title>Model&#45;&gt;Mapping</title>
<path fill="none" stroke="black" stroke-width="0.5" d="M54.3689,-9.5C63.8533,-9.5 74.6709,-9.5 84.6398,-9.5"/>
<polygon fill="black" stroke="black" stroke-width="0.5" points="84.764,-11.2501 89.764,-9.5 84.764,-7.7501 84.764,-11.2501"/>
</g>
</g>
</svg>
