<?xml version="1.0" encoding="UTF-8" standalone="no"?>
<!DOCTYPE svg PUBLIC "-//W3C//DTD SVG 1.1//EN"
 "http://www.w3.org/Graphics/SVG/1.1/DTD/svg11.dtd">
<!-- Generated by graphviz version 2.38.0 (20140413.2041)
 -->
<!-- Title: inheritanced22fbda0ab Pages: 1 -->
<svg width="469pt" height="767pt"
 viewBox="0.00 0.00 469.00 767.00" xmlns="http://www.w3.org/2000/svg" xmlns:xlink="http://www.w3.org/1999/xlink">
<g id="graph0" class="graph" transform="scale(1 1) rotate(0) translate(4 763)">
<title>inheritanced22fbda0ab</title>
<polygon fill="white" stroke="none" points="-4,4 -4,-763 465,-763 465,4 -4,4"/>
<!-- AiryDisk2D -->
<g id="node1" class="node"><title>AiryDisk2D</title>
<g id="a_node1"><a xlink:href="../api/astropy.modeling.functional_models.AiryDisk2D.html#astropy.modeling.functional_models.AiryDisk2D" xlink:title="Two dimensional Airy disk model.">
<polygon fill="none" stroke="black" stroke-width="0.5" points="432,-759 364,-759 364,-740 432,-740 432,-759"/>
<text text-anchor="middle" x="398" y="-747" font-family="Vera Sans, DejaVu Sans, Liberation Sans, Arial, Helvetica, sans" font-size="10.00">AiryDisk2D</text>
</a>
</g>
</g>
<!-- Fittable2DModel -->
<g id="node2" class="node"><title>Fittable2DModel</title>
<g id="a_node2"><a xlink:href="../api/astropy.modeling.Fittable2DModel.html#astropy.modeling.Fittable2DModel" xlink:title="Base class for two&#45;dimensional fittable models.">
<polygon fill="none" stroke="black" stroke-width="0.5" points="299,-574 206,-574 206,-555 299,-555 299,-574"/>
<text text-anchor="middle" x="252.5" y="-562" font-family="Vera Sans, DejaVu Sans, Liberation Sans, Arial, Helvetica, sans" font-size="10.00">Fittable2DModel</text>
</a>
</g>
</g>
<!-- Fittable2DModel&#45;&gt;AiryDisk2D -->
<g id="edge1" class="edge"><title>Fittable2DModel&#45;&gt;AiryDisk2D</title>
<path fill="none" stroke="black" stroke-width="0.5" d="M255.342,-574.103C261.325,-602.64 282.921,-687.664 335,-731.5 341.746,-737.178 350.201,-741.067 358.678,-743.729"/>
<polygon fill="black" stroke="black" stroke-width="0.5" points="358.655,-745.542 363.943,-745.233 359.616,-742.177 358.655,-745.542"/>
</g>
<!-- Box2D -->
<g id="node5" class="node"><title>Box2D</title>
<g id="a_node5"><a xlink:href="../api/astropy.modeling.functional_models.Box2D.html#astropy.modeling.functional_models.Box2D" xlink:title="Two dimensional Box model.">
<polygon fill="none" stroke="black" stroke-width="0.5" points="425,-722 371,-722 371,-703 425,-703 425,-722"/>
<text text-anchor="middle" x="398" y="-710" font-family="Vera Sans, DejaVu Sans, Liberation Sans, Arial, Helvetica, sans" font-size="10.00">Box2D</text>
</a>
</g>
</g>
<!-- Fittable2DModel&#45;&gt;Box2D -->
<g id="edge3" class="edge"><title>Fittable2DModel&#45;&gt;Box2D</title>
<path fill="none" stroke="black" stroke-width="0.5" d="M256.726,-574.005C265.373,-598.027 291.418,-661.596 335,-694.5 343.917,-701.232 355.291,-705.451 365.856,-708.093"/>
<polygon fill="black" stroke="black" stroke-width="0.5" points="365.698,-709.852 370.963,-709.267 366.483,-706.441 365.698,-709.852"/>
</g>
<!-- Const2D -->
<g id="node7" class="node"><title>Const2D</title>
<g id="a_node7"><a xlink:href="../api/astropy.modeling.functional_models.Const2D.html#astropy.modeling.functional_models.Const2D" xlink:title="Two dimensional Constant model.">
<polygon fill="none" stroke="black" stroke-width="0.5" points="427,-685 369,-685 369,-666 427,-666 427,-685"/>
<text text-anchor="middle" x="398" y="-673" font-family="Vera Sans, DejaVu Sans, Liberation Sans, Arial, Helvetica, sans" font-size="10.00">Const2D</text>
</a>
</g>
</g>
<!-- Fittable2DModel&#45;&gt;Const2D -->
<g id="edge5" class="edge"><title>Fittable2DModel&#45;&gt;Const2D</title>
<path fill="none" stroke="black" stroke-width="0.5" d="M259.343,-574.287C271.178,-593.259 299.866,-635.135 335,-657.5 343.615,-662.984 353.952,-666.845 363.694,-669.543"/>
<polygon fill="black" stroke="black" stroke-width="0.5" points="363.442,-671.285 368.721,-670.85 364.323,-667.898 363.442,-671.285"/>
</g>
<!-- Disk2D -->
<g id="node8" class="node"><title>Disk2D</title>
<g id="a_node8"><a xlink:href="../api/astropy.modeling.functional_models.Disk2D.html#astropy.modeling.functional_models.Disk2D" xlink:title="Two dimensional radial symmetric Disk model.">
<polygon fill="none" stroke="black" stroke-width="0.5" points="425,-648 371,-648 371,-629 425,-629 425,-648"/>
<text text-anchor="middle" x="398" y="-636" font-family="Vera Sans, DejaVu Sans, Liberation Sans, Arial, Helvetica, sans" font-size="10.00">Disk2D</text>
</a>
</g>
</g>
<!-- Fittable2DModel&#45;&gt;Disk2D -->
<g id="edge6" class="edge"><title>Fittable2DModel&#45;&gt;Disk2D</title>
<path fill="none" stroke="black" stroke-width="0.5" d="M264.919,-574.121C280.054,-586.439 308.003,-607.715 335,-620.5 344.75,-625.117 355.933,-628.807 366.092,-631.614"/>
<polygon fill="black" stroke="black" stroke-width="0.5" points="365.705,-633.322 370.987,-632.921 366.608,-629.94 365.705,-633.322"/>
</g>
<!-- Ellipse2D -->
<g id="node9" class="node"><title>Ellipse2D</title>
<g id="a_node9"><a xlink:href="../api/astropy.modeling.functional_models.Ellipse2D.html#astropy.modeling.functional_models.Ellipse2D" xlink:title="A 2D Ellipse model.">
<polygon fill="none" stroke="black" stroke-width="0.5" points="428,-611 368,-611 368,-592 428,-592 428,-611"/>
<text text-anchor="middle" x="398" y="-599" font-family="Vera Sans, DejaVu Sans, Liberation Sans, Arial, Helvetica, sans" font-size="10.00">Ellipse2D</text>
</a>
</g>
</g>
<!-- Fittable2DModel&#45;&gt;Ellipse2D -->
<g id="edge7" class="edge"><title>Fittable2DModel&#45;&gt;Ellipse2D</title>
<path fill="none" stroke="black" stroke-width="0.5" d="M290.455,-574.028C312.75,-579.777 340.959,-587.05 362.75,-592.669"/>
<polygon fill="black" stroke="black" stroke-width="0.5" points="362.582,-594.433 367.861,-593.987 363.456,-591.044 362.582,-594.433"/>
</g>
<!-- Gaussian2D -->
<g id="node13" class="node"><title>Gaussian2D</title>
<g id="a_node13"><a xlink:href="../api/astropy.modeling.functional_models.Gaussian2D.html#astropy.modeling.functional_models.Gaussian2D" xlink:title="Two dimensional Gaussian model.">
<polygon fill="none" stroke="black" stroke-width="0.5" points="435,-574 361,-574 361,-555 435,-555 435,-574"/>
<text text-anchor="middle" x="398" y="-562" font-family="Vera Sans, DejaVu Sans, Liberation Sans, Arial, Helvetica, sans" font-size="10.00">Gaussian2D</text>
</a>
</g>
</g>
<!-- Fittable2DModel&#45;&gt;Gaussian2D -->
<g id="edge12" class="edge"><title>Fittable2DModel&#45;&gt;Gaussian2D</title>
<path fill="none" stroke="black" stroke-width="0.5" d="M299.299,-564.5C317.288,-564.5 337.792,-564.5 355.356,-564.5"/>
<polygon fill="black" stroke="black" stroke-width="0.5" points="355.706,-566.25 360.706,-564.5 355.706,-562.75 355.706,-566.25"/>
</g>
<!-- MexicanHat2D -->
<g id="node18" class="node"><title>MexicanHat2D</title>
<g id="a_node18"><a xlink:href="../api/astropy.modeling.functional_models.MexicanHat2D.html#astropy.modeling.functional_models.MexicanHat2D" xlink:title="Two dimensional symmetric Mexican Hat model.">
<polygon fill="none" stroke="black" stroke-width="0.5" points="441,-537 355,-537 355,-518 441,-518 441,-537"/>
<text text-anchor="middle" x="398" y="-525" font-family="Vera Sans, DejaVu Sans, Liberation Sans, Arial, Helvetica, sans" font-size="10.00">MexicanHat2D</text>
</a>
</g>
</g>
<!-- Fittable2DModel&#45;&gt;MexicanHat2D -->
<g id="edge17" class="edge"><title>Fittable2DModel&#45;&gt;MexicanHat2D</title>
<path fill="none" stroke="black" stroke-width="0.5" d="M290.455,-554.972C310.053,-549.918 334.221,-543.687 354.582,-538.437"/>
<polygon fill="black" stroke="black" stroke-width="0.5" points="355.267,-540.068 359.672,-537.125 354.393,-536.679 355.267,-540.068"/>
</g>
<!-- Moffat2D -->
<g id="node20" class="node"><title>Moffat2D</title>
<g id="a_node20"><a xlink:href="../api/astropy.modeling.functional_models.Moffat2D.html#astropy.modeling.functional_models.Moffat2D" xlink:title="Two dimensional Moffat model.">
<polygon fill="none" stroke="black" stroke-width="0.5" points="428,-500 368,-500 368,-481 428,-481 428,-500"/>
<text text-anchor="middle" x="398" y="-488" font-family="Vera Sans, DejaVu Sans, Liberation Sans, Arial, Helvetica, sans" font-size="10.00">Moffat2D</text>
</a>
</g>
</g>
<!-- Fittable2DModel&#45;&gt;Moffat2D -->
<g id="edge19" class="edge"><title>Fittable2DModel&#45;&gt;Moffat2D</title>
<path fill="none" stroke="black" stroke-width="0.5" d="M265.242,-554.917C280.501,-542.869 308.352,-522.225 335,-509.5 343.824,-505.286 353.798,-501.745 363.125,-498.904"/>
<polygon fill="black" stroke="black" stroke-width="0.5" points="363.635,-500.578 367.934,-497.483 362.643,-497.222 363.635,-500.578"/>
</g>
<!-- Ring2D -->
<g id="node22" class="node"><title>Ring2D</title>
<g id="a_node22"><a xlink:href="../api/astropy.modeling.functional_models.Ring2D.html#astropy.modeling.functional_models.Ring2D" xlink:title="Two dimensional radial symmetric Ring model.">
<polygon fill="none" stroke="black" stroke-width="0.5" points="425,-463 371,-463 371,-444 425,-444 425,-463"/>
<text text-anchor="middle" x="398" y="-451" font-family="Vera Sans, DejaVu Sans, Liberation Sans, Arial, Helvetica, sans" font-size="10.00">Ring2D</text>
</a>
</g>
</g>
<!-- Fittable2DModel&#45;&gt;Ring2D -->
<g id="edge21" class="edge"><title>Fittable2DModel&#45;&gt;Ring2D</title>
<path fill="none" stroke="black" stroke-width="0.5" d="M259.399,-554.866C271.332,-536.181 300.185,-494.894 335,-472.5 344.276,-466.533 355.532,-462.351 365.895,-459.461"/>
<polygon fill="black" stroke="black" stroke-width="0.5" points="366.508,-461.109 370.898,-458.144 365.617,-457.724 366.508,-461.109"/>
</g>
<!-- TrapezoidDisk2D -->
<g id="node27" class="node"><title>TrapezoidDisk2D</title>
<g id="a_node27"><a xlink:href="../api/astropy.modeling.functional_models.TrapezoidDisk2D.html#astropy.modeling.functional_models.TrapezoidDisk2D" xlink:title="Two dimensional circular Trapezoid model.">
<polygon fill="none" stroke="black" stroke-width="0.5" points="445.5,-426 350.5,-426 350.5,-407 445.5,-407 445.5,-426"/>
<text text-anchor="middle" x="398" y="-414" font-family="Vera Sans, DejaVu Sans, Liberation Sans, Arial, Helvetica, sans" font-size="10.00">TrapezoidDisk2D</text>
</a>
</g>
</g>
<!-- Fittable2DModel&#45;&gt;TrapezoidDisk2D -->
<g id="edge26" class="edge"><title>Fittable2DModel&#45;&gt;TrapezoidDisk2D</title>
<path fill="none" stroke="black" stroke-width="0.5" d="M256.906,-554.755C265.8,-530.744 292.055,-468.306 335,-435.5 338.745,-432.639 342.923,-430.206 347.292,-428.137"/>
<polygon fill="black" stroke="black" stroke-width="0.5" points="348.219,-429.641 352.096,-426.032 346.814,-426.436 348.219,-429.641"/>
</g>
<!-- Box1D -->
<g id="node3" class="node"><title>Box1D</title>
<g id="a_node3"><a xlink:href="../api/astropy.modeling.functional_models.Box1D.html#astropy.modeling.functional_models.Box1D" xlink:title="One dimensional Box model.">
<polygon fill="none" stroke="black" stroke-width="0.5" points="425,-389 371,-389 371,-370 425,-370 425,-389"/>
<text text-anchor="middle" x="398" y="-377" font-family="Vera Sans, DejaVu Sans, Liberation Sans, Arial, Helvetica, sans" font-size="10.00">Box1D</text>
</a>
</g>
</g>
<!-- Fittable1DModel -->
<g id="node4" class="node"><title>Fittable1DModel</title>
<g id="a_node4"><a xlink:href="../api/astropy.modeling.Fittable1DModel.html#astropy.modeling.Fittable1DModel" xlink:title="Base class for one&#45;dimensional fittable models.">
<polygon fill="none" stroke="black" stroke-width="0.5" points="299,-222 206,-222 206,-203 299,-203 299,-222"/>
<text text-anchor="middle" x="252.5" y="-210" font-family="Vera Sans, DejaVu Sans, Liberation Sans, Arial, Helvetica, sans" font-size="10.00">Fittable1DModel</text>
</a>
</g>
</g>
<!-- Fittable1DModel&#45;&gt;Box1D -->
<g id="edge2" class="edge"><title>Fittable1DModel&#45;&gt;Box1D</title>
<path fill="none" stroke="black" stroke-width="0.5" d="M255.977,-222.201C263.263,-248.74 287.175,-323.108 335,-361.5 343.713,-368.495 355.042,-372.771 365.628,-375.386"/>
<polygon fill="black" stroke="black" stroke-width="0.5" points="365.488,-377.148 370.75,-376.541 366.258,-373.734 365.488,-377.148"/>
</g>
<!-- Const1D -->
<g id="node6" class="node"><title>Const1D</title>
<g id="a_node6"><a xlink:href="../api/astropy.modeling.functional_models.Const1D.html#astropy.modeling.functional_models.Const1D" xlink:title="One dimensional Constant model.">
<polygon fill="none" stroke="black" stroke-width="0.5" points="427,-352 369,-352 369,-333 427,-333 427,-352"/>
<text text-anchor="middle" x="398" y="-340" font-family="Vera Sans, DejaVu Sans, Liberation Sans, Arial, Helvetica, sans" font-size="10.00">Const1D</text>
</a>
</g>
</g>
<!-- Fittable1DModel&#45;&gt;Const1D -->
<g id="edge4" class="edge"><title>Fittable1DModel&#45;&gt;Const1D</title>
<path fill="none" stroke="black" stroke-width="0.5" d="M257.897,-222.137C268.199,-243.64 296.013,-295.819 335,-323.5 343.442,-329.494 353.821,-333.634 363.654,-336.477"/>
<polygon fill="black" stroke="black" stroke-width="0.5" points="363.451,-338.235 368.734,-337.849 364.363,-334.856 363.451,-338.235"/>
</g>
<!-- Gaussian1D -->
<g id="node12" class="node"><title>Gaussian1D</title>
<g id="a_node12"><a xlink:href="../api/astropy.modeling.functional_models.Gaussian1D.html#astropy.modeling.functional_models.Gaussian1D" xlink:title="One dimensional Gaussian model.">
<polygon fill="none" stroke="black" stroke-width="0.5" points="435,-315 361,-315 361,-296 435,-296 435,-315"/>
<text text-anchor="middle" x="398" y="-303" font-family="Vera Sans, DejaVu Sans, Liberation Sans, Arial, Helvetica, sans" font-size="10.00">Gaussian1D</text>
</a>
</g>
</g>
<!-- Fittable1DModel&#45;&gt;Gaussian1D -->
<g id="edge11" class="edge"><title>Fittable1DModel&#45;&gt;Gaussian1D</title>
<path fill="none" stroke="black" stroke-width="0.5" d="M261.518,-222.13C275.08,-237.822 304.103,-268.921 335,-286.5 341.44,-290.164 348.666,-293.2 355.849,-295.688"/>
<polygon fill="black" stroke="black" stroke-width="0.5" points="355.508,-297.419 360.804,-297.325 356.605,-294.095 355.508,-297.419"/>
</g>
<!-- GaussianAbsorption1D -->
<g id="node14" class="node"><title>GaussianAbsorption1D</title>
<g id="a_node14"><a xlink:href="../api/astropy.modeling.functional_models.GaussianAbsorption1D.html#astropy.modeling.functional_models.GaussianAbsorption1D" xlink:title="One dimensional Gaussian absorption line model.">
<polygon fill="none" stroke="black" stroke-width="0.5" points="461,-278 335,-278 335,-259 461,-259 461,-278"/>
<text text-anchor="middle" x="398" y="-266" font-family="Vera Sans, DejaVu Sans, Liberation Sans, Arial, Helvetica, sans" font-size="10.00">GaussianAbsorption1D</text>
</a>
</g>
</g>
<!-- Fittable1DModel&#45;&gt;GaussianAbsorption1D -->
<g id="edge13" class="edge"><title>Fittable1DModel&#45;&gt;GaussianAbsorption1D</title>
<path fill="none" stroke="black" stroke-width="0.5" d="M272.635,-222.034C288.966,-229.965 313.2,-241.25 335,-249.5 342.272,-252.252 350.132,-254.902 357.735,-257.304"/>
<polygon fill="black" stroke="black" stroke-width="0.5" points="357.652,-259.111 362.946,-258.926 358.692,-255.769 357.652,-259.111"/>
</g>
<!-- Linear1D -->
<g id="node15" class="node"><title>Linear1D</title>
<g id="a_node15"><a xlink:href="../api/astropy.modeling.functional_models.Linear1D.html#astropy.modeling.functional_models.Linear1D" xlink:title="One dimensional Line model.">
<polygon fill="none" stroke="black" stroke-width="0.5" points="427.5,-241 368.5,-241 368.5,-222 427.5,-222 427.5,-241"/>
<text text-anchor="middle" x="398" y="-229" font-family="Vera Sans, DejaVu Sans, Liberation Sans, Arial, Helvetica, sans" font-size="10.00">Linear1D</text>
</a>
</g>
</g>
<!-- Fittable1DModel&#45;&gt;Linear1D -->
<g id="edge14" class="edge"><title>Fittable1DModel&#45;&gt;Linear1D</title>
<path fill="none" stroke="black" stroke-width="0.5" d="M299.299,-218.564C319.992,-221.304 344.013,-224.484 363.059,-227.006"/>
<polygon fill="black" stroke="black" stroke-width="0.5" points="363.106,-228.777 368.292,-227.699 363.565,-225.308 363.106,-228.777"/>
</g>
<!-- Lorentz1D -->
<g id="node16" class="node"><title>Lorentz1D</title>
<g id="a_node16"><a xlink:href="../api/astropy.modeling.functional_models.Lorentz1D.html#astropy.modeling.functional_models.Lorentz1D" xlink:title="One dimensional Lorentzian model.">
<polygon fill="none" stroke="black" stroke-width="0.5" points="431,-204 365,-204 365,-185 431,-185 431,-204"/>
<text text-anchor="middle" x="398" y="-192" font-family="Vera Sans, DejaVu Sans, Liberation Sans, Arial, Helvetica, sans" font-size="10.00">Lorentz1D</text>
</a>
</g>
</g>
<!-- Fittable1DModel&#45;&gt;Lorentz1D -->
<g id="edge15" class="edge"><title>Fittable1DModel&#45;&gt;Lorentz1D</title>
<path fill="none" stroke="black" stroke-width="0.5" d="M299.299,-206.755C318.792,-204.31 341.239,-201.494 359.698,-199.179"/>
<polygon fill="black" stroke="black" stroke-width="0.5" points="360.05,-200.899 364.793,-198.54 359.614,-197.426 360.05,-200.899"/>
</g>
<!-- MexicanHat1D -->
<g id="node17" class="node"><title>MexicanHat1D</title>
<g id="a_node17"><a xlink:href="../api/astropy.modeling.functional_models.MexicanHat1D.html#astropy.modeling.functional_models.MexicanHat1D" xlink:title="One dimensional Mexican Hat model.">
<polygon fill="none" stroke="black" stroke-width="0.5" points="441,-167 355,-167 355,-148 441,-148 441,-167"/>
<text text-anchor="middle" x="398" y="-155" font-family="Vera Sans, DejaVu Sans, Liberation Sans, Arial, Helvetica, sans" font-size="10.00">MexicanHat1D</text>
</a>
</g>
</g>
<!-- Fittable1DModel&#45;&gt;MexicanHat1D -->
<g id="edge16" class="edge"><title>Fittable1DModel&#45;&gt;MexicanHat1D</title>
<path fill="none" stroke="black" stroke-width="0.5" d="M272.604,-202.883C288.916,-194.901 313.139,-183.588 335,-175.5 341.747,-173.004 349.009,-170.627 356.103,-168.468"/>
<polygon fill="black" stroke="black" stroke-width="0.5" points="356.69,-170.119 360.978,-167.009 355.687,-166.766 356.69,-170.119"/>
</g>
<!-- Moffat1D -->
<g id="node19" class="node"><title>Moffat1D</title>
<g id="a_node19"><a xlink:href="../api/astropy.modeling.functional_models.Moffat1D.html#astropy.modeling.functional_models.Moffat1D" xlink:title="One dimensional Moffat model.">
<polygon fill="none" stroke="black" stroke-width="0.5" points="428,-130 368,-130 368,-111 428,-111 428,-130"/>
<text text-anchor="middle" x="398" y="-118" font-family="Vera Sans, DejaVu Sans, Liberation Sans, Arial, Helvetica, sans" font-size="10.00">Moffat1D</text>
</a>
</g>
</g>
<!-- Fittable1DModel&#45;&gt;Moffat1D -->
<g id="edge18" class="edge"><title>Fittable1DModel&#45;&gt;Moffat1D</title>
<path fill="none" stroke="black" stroke-width="0.5" d="M261.489,-202.819C275.009,-187.052 303.974,-155.85 335,-138.5 343.58,-133.702 353.559,-130.079 362.971,-127.388"/>
<polygon fill="black" stroke="black" stroke-width="0.5" points="363.466,-129.067 367.831,-126.065 362.547,-125.69 363.466,-129.067"/>
</g>
<!-- Redshift -->
<g id="node21" class="node"><title>Redshift</title>
<g id="a_node21"><a xlink:href="../api/astropy.modeling.functional_models.Redshift.html#astropy.modeling.functional_models.Redshift" xlink:title="One dimensional redshift model.">
<polygon fill="none" stroke="black" stroke-width="0.5" points="425,-93 371,-93 371,-74 425,-74 425,-93"/>
<text text-anchor="middle" x="398" y="-81" font-family="Vera Sans, DejaVu Sans, Liberation Sans, Arial, Helvetica, sans" font-size="10.00">Redshift</text>
</a>
</g>
</g>
<!-- Fittable1DModel&#45;&gt;Redshift -->
<g id="edge20" class="edge"><title>Fittable1DModel&#45;&gt;Redshift</title>
<path fill="none" stroke="black" stroke-width="0.5" d="M257.867,-202.821C268.11,-181.233 295.809,-128.892 335,-101.5 344.079,-95.1543 355.388,-91.0255 365.853,-88.3476"/>
<polygon fill="black" stroke="black" stroke-width="0.5" points="366.449,-90.0049 370.908,-87.1462 365.639,-86.5997 366.449,-90.0049"/>
</g>
<!-- Sine1D -->
<g id="node25" class="node"><title>Sine1D</title>
<g id="a_node25"><a xlink:href="../api/astropy.modeling.functional_models.Sine1D.html#astropy.modeling.functional_models.Sine1D" xlink:title="One dimensional Sine model.">
<polygon fill="none" stroke="black" stroke-width="0.5" points="425,-56 371,-56 371,-37 425,-37 425,-56"/>
<text text-anchor="middle" x="398" y="-44" font-family="Vera Sans, DejaVu Sans, Liberation Sans, Arial, Helvetica, sans" font-size="10.00">Sine1D</text>
</a>
</g>
</g>
<!-- Fittable1DModel&#45;&gt;Sine1D -->
<g id="edge24" class="edge"><title>Fittable1DModel&#45;&gt;Sine1D</title>
<path fill="none" stroke="black" stroke-width="0.5" d="M255.997,-202.863C263.335,-176.5 287.367,-102.626 335,-64.5 343.723,-57.5179 355.054,-53.244 365.639,-50.628"/>
<polygon fill="black" stroke="black" stroke-width="0.5" points="366.268,-52.28 370.761,-49.4723 365.498,-48.8659 366.268,-52.28"/>
</g>
<!-- Trapezoid1D -->
<g id="node26" class="node"><title>Trapezoid1D</title>
<g id="a_node26"><a xlink:href="../api/astropy.modeling.functional_models.Trapezoid1D.html#astropy.modeling.functional_models.Trapezoid1D" xlink:title="One dimensional Trapezoid model.">
<polygon fill="none" stroke="black" stroke-width="0.5" points="435.5,-19 360.5,-19 360.5,-0 435.5,-0 435.5,-19"/>
<text text-anchor="middle" x="398" y="-7" font-family="Vera Sans, DejaVu Sans, Liberation Sans, Arial, Helvetica, sans" font-size="10.00">Trapezoid1D</text>
</a>
</g>
</g>
<!-- Fittable1DModel&#45;&gt;Trapezoid1D -->
<g id="edge25" class="edge"><title>Fittable1DModel&#45;&gt;Trapezoid1D</title>
<path fill="none" stroke="black" stroke-width="0.5" d="M254.865,-202.763C259.686,-172.115 278.759,-76.7476 335,-27.5 340.755,-22.4605 347.848,-18.8288 355.157,-16.2123"/>
<polygon fill="black" stroke="black" stroke-width="0.5" points="356.025,-17.7702 360.238,-14.5582 354.942,-14.4421 356.025,-17.7702"/>
</g>
<!-- FittableModel -->
<g id="node10" class="node"><title>FittableModel</title>
<g id="a_node10"><a xlink:href="../api/astropy.modeling.FittableModel.html#astropy.modeling.FittableModel" xlink:title="Base class for models that can be fitted using the built&#45;in fitting">
<polygon fill="none" stroke="black" stroke-width="0.5" points="170,-389 90,-389 90,-370 170,-370 170,-389"/>
<text text-anchor="middle" x="130" y="-377" font-family="Vera Sans, DejaVu Sans, Liberation Sans, Arial, Helvetica, sans" font-size="10.00">FittableModel</text>
</a>
</g>
</g>
<!-- FittableModel&#45;&gt;Fittable2DModel -->
<g id="edge9" class="edge"><title>FittableModel&#45;&gt;Fittable2DModel</title>
<path fill="none" stroke="black" stroke-width="0.5" d="M137.309,-389.186C157.237,-419.781 218.901,-514.451 242.335,-550.43"/>
<polygon fill="black" stroke="black" stroke-width="0.5" points="241.058,-551.675 245.254,-554.91 243.991,-549.765 241.058,-551.675"/>
</g>
<!-- FittableModel&#45;&gt;Fittable1DModel -->
<g id="edge8" class="edge"><title>FittableModel&#45;&gt;Fittable1DModel</title>
<path fill="none" stroke="black" stroke-width="0.5" d="M158.021,-369.81C162.331,-367.512 166.512,-364.758 170,-361.5 211.988,-322.278 237.277,-256.431 246.961,-227.221"/>
<polygon fill="black" stroke="black" stroke-width="0.5" points="248.709,-227.504 248.588,-222.208 245.38,-226.423 248.709,-227.504"/>
</g>
<!-- Model -->
<g id="node11" class="node"><title>Model</title>
<g id="a_node11"><a xlink:href="../api/astropy.modeling.Model.html#astropy.modeling.Model" xlink:title="Base class for all models.">
<polygon fill="none" stroke="black" stroke-width="0.5" points="54,-352 0,-352 0,-333 54,-333 54,-352"/>
<text text-anchor="middle" x="27" y="-340" font-family="Vera Sans, DejaVu Sans, Liberation Sans, Arial, Helvetica, sans" font-size="10.00">Model</text>
</a>
</g>
</g>
<!-- Model&#45;&gt;FittableModel -->
<g id="edge10" class="edge"><title>Model&#45;&gt;FittableModel</title>
<path fill="none" stroke="black" stroke-width="0.5" d="M54.01,-352.028C67.3362,-356.91 83.6646,-362.892 97.6786,-368.026"/>
<polygon fill="black" stroke="black" stroke-width="0.5" points="97.4302,-369.799 102.727,-369.875 98.6342,-366.512 97.4302,-369.799"/>
</g>
<!-- Scale -->
<g id="node23" class="node"><title>Scale</title>
<g id="a_node23"><a xlink:href="../api/astropy.modeling.functional_models.Scale.html#astropy.modeling.functional_models.Scale" xlink:title="Multiply a model by a factor.">
<polygon fill="none" stroke="black" stroke-width="0.5" points="157,-352 103,-352 103,-333 157,-333 157,-352"/>
<text text-anchor="middle" x="130" y="-340" font-family="Vera Sans, DejaVu Sans, Liberation Sans, Arial, Helvetica, sans" font-size="10.00">Scale</text>
</a>
</g>
</g>
<!-- Model&#45;&gt;Scale -->
<g id="edge22" class="edge"><title>Model&#45;&gt;Scale</title>
<path fill="none" stroke="black" stroke-width="0.5" d="M54.01,-342.5C67.3362,-342.5 83.6646,-342.5 97.6786,-342.5"/>
<polygon fill="black" stroke="black" stroke-width="0.5" points="97.7271,-344.25 102.727,-342.5 97.7271,-340.75 97.7271,-344.25"/>
</g>
<!-- Shift -->
<g id="node24" class="node"><title>Shift</title>
<g id="a_node24"><a xlink:href="../api/astropy.modeling.functional_models.Shift.html#astropy.modeling.functional_models.Shift" xlink:title="Shift a coordinate.">
<polygon fill="none" stroke="black" stroke-width="0.5" points="157,-315 103,-315 103,-296 157,-296 157,-315"/>
<text text-anchor="middle" x="130" y="-303" font-family="Vera Sans, DejaVu Sans, Liberation Sans, Arial, Helvetica, sans" font-size="10.00">Shift</text>
</a>
</g>
</g>
<!-- Model&#45;&gt;Shift -->
<g id="edge23" class="edge"><title>Model&#45;&gt;Shift</title>
<path fill="none" stroke="black" stroke-width="0.5" d="M54.01,-332.972C67.3362,-328.09 83.6646,-322.108 97.6786,-316.974"/>
<polygon fill="black" stroke="black" stroke-width="0.5" points="98.6342,-318.488 102.727,-315.125 97.4302,-315.201 98.6342,-318.488"/>
</g>
</g>
</svg>
