<?xml version="1.0" encoding="UTF-8" standalone="no"?>
<!DOCTYPE svg PUBLIC "-//W3C//DTD SVG 1.1//EN"
 "http://www.w3.org/Graphics/SVG/1.1/DTD/svg11.dtd">
<!-- Generated by graphviz version 2.38.0 (20140413.2041)
 -->
<!-- Title: inheritance0a7985b00b Pages: 1 -->
<svg width="576pt" height="434pt"
 viewBox="0.00 0.00 576.00 434.00" xmlns="http://www.w3.org/2000/svg" xmlns:xlink="http://www.w3.org/1999/xlink">
<g id="graph0" class="graph" transform="scale(1 1) rotate(0) translate(4 430)">
<title>inheritance0a7985b00b</title>
<polygon fill="white" stroke="none" points="-4,4 -4,-430 572,-430 572,4 -4,4"/>
<!-- AsinhStretch -->
<g id="node1" class="node"><title>AsinhStretch</title>
<g id="a_node1"><a xlink:href="../api/astropy.visualization.AsinhStretch.html#astropy.visualization.AsinhStretch" xlink:title="An asinh stretch.">
<polygon fill="none" stroke="black" stroke-width="0.5" points="393.5,-426 315.5,-426 315.5,-407 393.5,-407 393.5,-426"/>
<text text-anchor="middle" x="354.5" y="-414" font-family="Vera Sans, DejaVu Sans, Liberation Sans, Arial, Helvetica, sans" font-size="10.00">AsinhStretch</text>
</a>
</g>
</g>
<!-- BaseStretch -->
<g id="node2" class="node"><title>BaseStretch</title>
<g id="a_node2"><a xlink:href="../api/astropy.visualization.BaseStretch.html#astropy.visualization.BaseStretch" xlink:title="Base class for the stretch classes, which, when called with an array of">
<polygon fill="none" stroke="black" stroke-width="0.5" points="220,-259 144,-259 144,-240 220,-240 220,-259"/>
<text text-anchor="middle" x="182" y="-247" font-family="Vera Sans, DejaVu Sans, Liberation Sans, Arial, Helvetica, sans" font-size="10.00">BaseStretch</text>
</a>
</g>
</g>
<!-- BaseStretch&#45;&gt;AsinhStretch -->
<g id="edge1" class="edge"><title>BaseStretch&#45;&gt;AsinhStretch</title>
<path fill="none" stroke="black" stroke-width="0.5" d="M186.14,-259.361C195.255,-286.307 224.397,-361.621 276,-398.5 285.932,-405.598 298.242,-409.94 310.105,-412.584"/>
<polygon fill="black" stroke="black" stroke-width="0.5" points="309.905,-414.329 315.154,-413.616 310.606,-410.9 309.905,-414.329"/>
</g>
<!-- ContrastBiasStretch -->
<g id="node7" class="node"><title>ContrastBiasStretch</title>
<g id="a_node7"><a xlink:href="../api/astropy.visualization.ContrastBiasStretch.html#astropy.visualization.ContrastBiasStretch" xlink:title="A stretch that takes into account contrast and bias.">
<polygon fill="none" stroke="black" stroke-width="0.5" points="411,-389 298,-389 298,-370 411,-370 411,-389"/>
<text text-anchor="middle" x="354.5" y="-377" font-family="Vera Sans, DejaVu Sans, Liberation Sans, Arial, Helvetica, sans" font-size="10.00">ContrastBiasStretch</text>
</a>
</g>
</g>
<!-- BaseStretch&#45;&gt;ContrastBiasStretch -->
<g id="edge6" class="edge"><title>BaseStretch&#45;&gt;ContrastBiasStretch</title>
<path fill="none" stroke="black" stroke-width="0.5" d="M188.048,-259.093C200.093,-280.99 232.771,-334.817 276,-361.5 281.234,-364.731 286.993,-367.382 292.934,-369.558"/>
<polygon fill="black" stroke="black" stroke-width="0.5" points="292.664,-371.315 297.961,-371.277 293.796,-368.003 292.664,-371.315"/>
</g>
<!-- HistEqStretch -->
<g id="node8" class="node"><title>HistEqStretch</title>
<g id="a_node8"><a xlink:href="../api/astropy.visualization.HistEqStretch.html#astropy.visualization.HistEqStretch" xlink:title="A histogram equalization stretch.">
<polygon fill="none" stroke="black" stroke-width="0.5" points="396,-352 313,-352 313,-333 396,-333 396,-352"/>
<text text-anchor="middle" x="354.5" y="-340" font-family="Vera Sans, DejaVu Sans, Liberation Sans, Arial, Helvetica, sans" font-size="10.00">HistEqStretch</text>
</a>
</g>
</g>
<!-- BaseStretch&#45;&gt;HistEqStretch -->
<g id="edge7" class="edge"><title>BaseStretch&#45;&gt;HistEqStretch</title>
<path fill="none" stroke="black" stroke-width="0.5" d="M192.027,-259.205C207.581,-275.322 241.132,-307.509 276,-324.5 285.907,-329.327 297.165,-332.894 307.972,-335.517"/>
<polygon fill="black" stroke="black" stroke-width="0.5" points="307.633,-337.235 312.898,-336.657 308.422,-333.825 307.633,-337.235"/>
</g>
<!-- LinearStretch -->
<g id="node9" class="node"><title>LinearStretch</title>
<g id="a_node9"><a xlink:href="../api/astropy.visualization.LinearStretch.html#astropy.visualization.LinearStretch" xlink:title="A linear stretch.">
<polygon fill="none" stroke="black" stroke-width="0.5" points="395,-315 314,-315 314,-296 395,-296 395,-315"/>
<text text-anchor="middle" x="354.5" y="-303" font-family="Vera Sans, DejaVu Sans, Liberation Sans, Arial, Helvetica, sans" font-size="10.00">LinearStretch</text>
</a>
</g>
</g>
<!-- BaseStretch&#45;&gt;LinearStretch -->
<g id="edge8" class="edge"><title>BaseStretch&#45;&gt;LinearStretch</title>
<path fill="none" stroke="black" stroke-width="0.5" d="M203.701,-259.075C222.318,-267.416 250.571,-279.409 276,-287.5 286.501,-290.841 297.984,-293.848 308.817,-296.405"/>
<polygon fill="black" stroke="black" stroke-width="0.5" points="308.477,-298.122 313.743,-297.547 309.268,-294.713 308.477,-298.122"/>
</g>
<!-- LogStretch -->
<g id="node10" class="node"><title>LogStretch</title>
<g id="a_node10"><a xlink:href="../api/astropy.visualization.LogStretch.html#astropy.visualization.LogStretch" xlink:title="A log stretch.">
<polygon fill="none" stroke="black" stroke-width="0.5" points="389,-278 320,-278 320,-259 389,-259 389,-278"/>
<text text-anchor="middle" x="354.5" y="-266" font-family="Vera Sans, DejaVu Sans, Liberation Sans, Arial, Helvetica, sans" font-size="10.00">LogStretch</text>
</a>
</g>
</g>
<!-- BaseStretch&#45;&gt;LogStretch -->
<g id="edge9" class="edge"><title>BaseStretch&#45;&gt;LogStretch</title>
<path fill="none" stroke="black" stroke-width="0.5" d="M220.417,-253.67C248.379,-256.786 286.491,-261.033 314.765,-264.183"/>
<polygon fill="black" stroke="black" stroke-width="0.5" points="314.762,-265.944 319.925,-264.759 315.15,-262.465 314.762,-265.944"/>
</g>
<!-- PowerDistStretch -->
<g id="node14" class="node"><title>PowerDistStretch</title>
<g id="a_node14"><a xlink:href="../api/astropy.visualization.PowerDistStretch.html#astropy.visualization.PowerDistStretch" xlink:title="An alternative power stretch.">
<polygon fill="none" stroke="black" stroke-width="0.5" points="404,-241 305,-241 305,-222 404,-222 404,-241"/>
<text text-anchor="middle" x="354.5" y="-229" font-family="Vera Sans, DejaVu Sans, Liberation Sans, Arial, Helvetica, sans" font-size="10.00">PowerDistStretch</text>
</a>
</g>
</g>
<!-- BaseStretch&#45;&gt;PowerDistStretch -->
<g id="edge13" class="edge"><title>BaseStretch&#45;&gt;PowerDistStretch</title>
<path fill="none" stroke="black" stroke-width="0.5" d="M220.417,-245.55C243.668,-243.095 273.937,-239.9 299.732,-237.176"/>
<polygon fill="black" stroke="black" stroke-width="0.5" points="300.039,-238.904 304.828,-236.638 299.672,-235.423 300.039,-238.904"/>
</g>
<!-- PowerStretch -->
<g id="node15" class="node"><title>PowerStretch</title>
<g id="a_node15"><a xlink:href="../api/astropy.visualization.PowerStretch.html#astropy.visualization.PowerStretch" xlink:title="A power stretch.">
<polygon fill="none" stroke="black" stroke-width="0.5" points="394.5,-204 314.5,-204 314.5,-185 394.5,-185 394.5,-204"/>
<text text-anchor="middle" x="354.5" y="-192" font-family="Vera Sans, DejaVu Sans, Liberation Sans, Arial, Helvetica, sans" font-size="10.00">PowerStretch</text>
</a>
</g>
</g>
<!-- BaseStretch&#45;&gt;PowerStretch -->
<g id="edge14" class="edge"><title>BaseStretch&#45;&gt;PowerStretch</title>
<path fill="none" stroke="black" stroke-width="0.5" d="M205.263,-239.948C223.925,-232.169 251.393,-221.244 276,-213.5 286.657,-210.146 298.291,-207.02 309.229,-204.311"/>
<polygon fill="black" stroke="black" stroke-width="0.5" points="309.758,-205.983 314.199,-203.096 308.927,-202.583 309.758,-205.983"/>
</g>
<!-- SinhStretch -->
<g id="node16" class="node"><title>SinhStretch</title>
<g id="a_node16"><a xlink:href="../api/astropy.visualization.SinhStretch.html#astropy.visualization.SinhStretch" xlink:title="A sinh stretch.">
<polygon fill="none" stroke="black" stroke-width="0.5" points="391,-167 318,-167 318,-148 391,-148 391,-167"/>
<text text-anchor="middle" x="354.5" y="-155" font-family="Vera Sans, DejaVu Sans, Liberation Sans, Arial, Helvetica, sans" font-size="10.00">SinhStretch</text>
</a>
</g>
</g>
<!-- BaseStretch&#45;&gt;SinhStretch -->
<g id="edge15" class="edge"><title>BaseStretch&#45;&gt;SinhStretch</title>
<path fill="none" stroke="black" stroke-width="0.5" d="M192.358,-239.858C208.133,-224.173 241.672,-193.208 276,-176.5 287.335,-170.983 300.405,-166.988 312.543,-164.129"/>
<polygon fill="black" stroke="black" stroke-width="0.5" points="313.187,-165.778 317.68,-162.972 312.418,-162.363 313.187,-165.778"/>
</g>
<!-- SqrtStretch -->
<g id="node17" class="node"><title>SqrtStretch</title>
<g id="a_node17"><a xlink:href="../api/astropy.visualization.SqrtStretch.html#astropy.visualization.SqrtStretch" xlink:title="A square root stretch.">
<polygon fill="none" stroke="black" stroke-width="0.5" points="390.5,-130 318.5,-130 318.5,-111 390.5,-111 390.5,-130"/>
<text text-anchor="middle" x="354.5" y="-118" font-family="Vera Sans, DejaVu Sans, Liberation Sans, Arial, Helvetica, sans" font-size="10.00">SqrtStretch</text>
</a>
</g>
</g>
<!-- BaseStretch&#45;&gt;SqrtStretch -->
<g id="edge16" class="edge"><title>BaseStretch&#45;&gt;SqrtStretch</title>
<path fill="none" stroke="black" stroke-width="0.5" d="M188.3,-239.793C200.636,-218.163 233.483,-165.842 276,-139.5 287.228,-132.544 300.842,-128.133 313.508,-125.338"/>
<polygon fill="black" stroke="black" stroke-width="0.5" points="313.952,-127.033 318.494,-124.307 313.244,-123.605 313.952,-127.033"/>
</g>
<!-- AsymmetricPercentileInterval -->
<g id="node3" class="node"><title>AsymmetricPercentileInterval</title>
<g id="a_node3"><a xlink:href="../api/astropy.visualization.AsymmetricPercentileInterval.html#astropy.visualization.AsymmetricPercentileInterval" xlink:title="Interval based on a keeping a specified fraction of pixels (can be asymmetric).">
<polygon fill="none" stroke="black" stroke-width="0.5" points="433,-93 276,-93 276,-74 433,-74 433,-93"/>
<text text-anchor="middle" x="354.5" y="-81" font-family="Vera Sans, DejaVu Sans, Liberation Sans, Arial, Helvetica, sans" font-size="10.00">AsymmetricPercentileInterval</text>
</a>
</g>
</g>
<!-- PercentileInterval -->
<g id="node13" class="node"><title>PercentileInterval</title>
<g id="a_node13"><a xlink:href="../api/astropy.visualization.PercentileInterval.html#astropy.visualization.PercentileInterval" xlink:title="Interval based on a keeping a specified fraction of pixels.">
<polygon fill="none" stroke="black" stroke-width="0.5" points="568,-93 469,-93 469,-74 568,-74 568,-93"/>
<text text-anchor="middle" x="518.5" y="-81" font-family="Vera Sans, DejaVu Sans, Liberation Sans, Arial, Helvetica, sans" font-size="10.00">PercentileInterval</text>
</a>
</g>
</g>
<!-- AsymmetricPercentileInterval&#45;&gt;PercentileInterval -->
<g id="edge12" class="edge"><title>AsymmetricPercentileInterval&#45;&gt;PercentileInterval</title>
<path fill="none" stroke="black" stroke-width="0.5" d="M433.179,-83.5C443.551,-83.5 453.996,-83.5 463.832,-83.5"/>
<polygon fill="black" stroke="black" stroke-width="0.5" points="463.917,-85.2501 468.917,-83.5 463.917,-81.7501 463.917,-85.2501"/>
</g>
<!-- BaseInterval -->
<g id="node4" class="node"><title>BaseInterval</title>
<g id="a_node4"><a xlink:href="../api/astropy.visualization.BaseInterval.html#astropy.visualization.BaseInterval" xlink:title="Base class for the interval classes, which, when called with an array of">
<polygon fill="none" stroke="black" stroke-width="0.5" points="220,-75 144,-75 144,-56 220,-56 220,-75"/>
<text text-anchor="middle" x="182" y="-63" font-family="Vera Sans, DejaVu Sans, Liberation Sans, Arial, Helvetica, sans" font-size="10.00">BaseInterval</text>
</a>
</g>
</g>
<!-- BaseInterval&#45;&gt;AsymmetricPercentileInterval -->
<g id="edge2" class="edge"><title>BaseInterval&#45;&gt;AsymmetricPercentileInterval</title>
<path fill="none" stroke="black" stroke-width="0.5" d="M220.417,-69.4502C235.381,-71.0299 253.251,-72.9165 270.965,-74.7866"/>
<polygon fill="black" stroke="black" stroke-width="0.5" points="270.799,-76.5287 275.955,-75.3134 271.166,-73.048 270.799,-76.5287"/>
</g>
<!-- ManualInterval -->
<g id="node11" class="node"><title>ManualInterval</title>
<g id="a_node11"><a xlink:href="../api/astropy.visualization.ManualInterval.html#astropy.visualization.ManualInterval" xlink:title="Interval based on user&#45;specified values.">
<polygon fill="none" stroke="black" stroke-width="0.5" points="397.5,-56 311.5,-56 311.5,-37 397.5,-37 397.5,-56"/>
<text text-anchor="middle" x="354.5" y="-44" font-family="Vera Sans, DejaVu Sans, Liberation Sans, Arial, Helvetica, sans" font-size="10.00">ManualInterval</text>
</a>
</g>
</g>
<!-- BaseInterval&#45;&gt;ManualInterval -->
<g id="edge10" class="edge"><title>BaseInterval&#45;&gt;ManualInterval</title>
<path fill="none" stroke="black" stroke-width="0.5" d="M220.417,-61.3304C245.702,-58.5126 279.289,-54.7699 306.394,-51.7494"/>
<polygon fill="black" stroke="black" stroke-width="0.5" points="306.601,-53.4872 311.376,-51.1942 306.213,-50.0088 306.601,-53.4872"/>
</g>
<!-- MinMaxInterval -->
<g id="node12" class="node"><title>MinMaxInterval</title>
<g id="a_node12"><a xlink:href="../api/astropy.visualization.MinMaxInterval.html#astropy.visualization.MinMaxInterval" xlink:title="Interval based on the minimum and maximum values in the data.">
<polygon fill="none" stroke="black" stroke-width="0.5" points="398.5,-19 310.5,-19 310.5,-0 398.5,-0 398.5,-19"/>
<text text-anchor="middle" x="354.5" y="-7" font-family="Vera Sans, DejaVu Sans, Liberation Sans, Arial, Helvetica, sans" font-size="10.00">MinMaxInterval</text>
</a>
</g>
</g>
<!-- BaseInterval&#45;&gt;MinMaxInterval -->
<g id="edge11" class="edge"><title>BaseInterval&#45;&gt;MinMaxInterval</title>
<path fill="none" stroke="black" stroke-width="0.5" d="M216.818,-55.9238C224.532,-53.4362 232.627,-50.5804 240,-47.5 256.693,-40.5256 259.087,-34.9243 276,-28.5 285.264,-24.9812 295.401,-21.9454 305.201,-19.3974"/>
<polygon fill="black" stroke="black" stroke-width="0.5" points="305.871,-21.0331 310.289,-18.1095 305.012,-17.6401 305.871,-21.0331"/>
</g>
<!-- BaseTransform -->
<g id="node5" class="node"><title>BaseTransform</title>
<g id="a_node5"><a xlink:href="../api/astropy.visualization.BaseTransform.html#astropy.visualization.BaseTransform" xlink:title="A transformation object.">
<polygon fill="none" stroke="black" stroke-width="0.5" points="88,-75 0,-75 0,-56 88,-56 88,-75"/>
<text text-anchor="middle" x="44" y="-63" font-family="Vera Sans, DejaVu Sans, Liberation Sans, Arial, Helvetica, sans" font-size="10.00">BaseTransform</text>
</a>
</g>
</g>
<!-- BaseTransform&#45;&gt;BaseStretch -->
<g id="edge4" class="edge"><title>BaseTransform&#45;&gt;BaseStretch</title>
<path fill="none" stroke="black" stroke-width="0.5" d="M52.1205,-75.1336C74.612,-105.563 144.207,-199.722 170.657,-235.506"/>
<polygon fill="black" stroke="black" stroke-width="0.5" points="169.571,-236.981 173.95,-239.962 172.385,-234.901 169.571,-236.981"/>
</g>
<!-- BaseTransform&#45;&gt;BaseInterval -->
<g id="edge3" class="edge"><title>BaseTransform&#45;&gt;BaseInterval</title>
<path fill="none" stroke="black" stroke-width="0.5" d="M88.0312,-65.5C104.112,-65.5 122.356,-65.5 138.398,-65.5"/>
<polygon fill="black" stroke="black" stroke-width="0.5" points="138.748,-67.2501 143.747,-65.5 138.747,-63.7501 138.748,-67.2501"/>
</g>
<!-- CompositeTransform -->
<g id="node6" class="node"><title>CompositeTransform</title>
<g id="a_node6"><a xlink:href="../api/astropy.visualization.CompositeTransform.html#astropy.visualization.CompositeTransform" xlink:title="A combination of two transforms.">
<polygon fill="none" stroke="black" stroke-width="0.5" points="240,-38 124,-38 124,-19 240,-19 240,-38"/>
<text text-anchor="middle" x="182" y="-26" font-family="Vera Sans, DejaVu Sans, Liberation Sans, Arial, Helvetica, sans" font-size="10.00">CompositeTransform</text>
</a>
</g>
</g>
<!-- BaseTransform&#45;&gt;CompositeTransform -->
<g id="edge5" class="edge"><title>BaseTransform&#45;&gt;CompositeTransform</title>
<path fill="none" stroke="black" stroke-width="0.5" d="M80.0234,-55.9716C98.4398,-50.9612 121.114,-44.7924 140.308,-39.5707"/>
<polygon fill="black" stroke="black" stroke-width="0.5" points="141.257,-41.126 145.623,-38.1247 140.339,-37.7488 141.257,-41.126"/>
</g>
<!-- SquaredStretch -->
<g id="node18" class="node"><title>SquaredStretch</title>
<g id="a_node18"><a xlink:href="../api/astropy.visualization.SquaredStretch.html#astropy.visualization.SquaredStretch" xlink:title="A convenience class for a power stretch of 2.">
<polygon fill="none" stroke="black" stroke-width="0.5" points="564.5,-204 472.5,-204 472.5,-185 564.5,-185 564.5,-204"/>
<text text-anchor="middle" x="518.5" y="-192" font-family="Vera Sans, DejaVu Sans, Liberation Sans, Arial, Helvetica, sans" font-size="10.00">SquaredStretch</text>
</a>
</g>
</g>
<!-- PowerStretch&#45;&gt;SquaredStretch -->
<g id="edge17" class="edge"><title>PowerStretch&#45;&gt;SquaredStretch</title>
<path fill="none" stroke="black" stroke-width="0.5" d="M394.716,-194.5C416.48,-194.5 443.787,-194.5 467.119,-194.5"/>
<polygon fill="black" stroke="black" stroke-width="0.5" points="467.34,-196.25 472.34,-194.5 467.34,-192.75 467.34,-196.25"/>
</g>
</g>
</svg>
