<?xml version="1.0" encoding="UTF-8" standalone="no"?>
<!DOCTYPE svg PUBLIC "-//W3C//DTD SVG 1.1//EN"
 "http://www.w3.org/Graphics/SVG/1.1/DTD/svg11.dtd">
<!-- Generated by graphviz version 2.38.0 (20140413.2041)
 -->
<!-- Title: inheritancee60c3de4ec Pages: 1 -->
<svg width="176pt" height="64pt"
 viewBox="0.00 0.00 176.00 64.00" xmlns="http://www.w3.org/2000/svg" xmlns:xlink="http://www.w3.org/1999/xlink">
<g id="graph0" class="graph" transform="scale(1 1) rotate(0) translate(4 60)">
<title>inheritancee60c3de4ec</title>
<polygon fill="white" stroke="none" points="-4,4 -4,-60 172,-60 172,4 -4,4"/>
<!-- Optimization -->
<g id="node1" class="node"><title>Optimization</title>
<g id="a_node1"><a xlink:href="../api/astropy.modeling.optimizers.Optimization.html#astropy.modeling.optimizers.Optimization" xlink:title="Base class for optimizers.">
<polygon fill="none" stroke="black" stroke-width="0.5" points="77,-37 0,-37 0,-18 77,-18 77,-37"/>
<text text-anchor="middle" x="38.5" y="-25" font-family="Vera Sans, DejaVu Sans, Liberation Sans, Arial, Helvetica, sans" font-size="10.00">Optimization</text>
</a>
</g>
</g>
<!-- SLSQP -->
<g id="node2" class="node"><title>SLSQP</title>
<g id="a_node2"><a xlink:href="../api/astropy.modeling.optimizers.SLSQP.html#astropy.modeling.optimizers.SLSQP" xlink:title="Sequential Least Squares Programming optimization algorithm.">
<polygon fill="none" stroke="black" stroke-width="0.5" points="167.5,-56 113.5,-56 113.5,-37 167.5,-37 167.5,-56"/>
<text text-anchor="middle" x="140.5" y="-44" font-family="Vera Sans, DejaVu Sans, Liberation Sans, Arial, Helvetica, sans" font-size="10.00">SLSQP</text>
</a>
</g>
</g>
<!-- Optimization&#45;&gt;SLSQP -->
<g id="edge1" class="edge"><title>Optimization&#45;&gt;SLSQP</title>
<path fill="none" stroke="black" stroke-width="0.5" d="M77.0208,-34.629C87.3092,-36.5837 98.3506,-38.6816 108.246,-40.5618"/>
<polygon fill="black" stroke="black" stroke-width="0.5" points="108.068,-42.3092 113.307,-41.5233 108.721,-38.8707 108.068,-42.3092"/>
</g>
<!-- Simplex -->
<g id="node3" class="node"><title>Simplex</title>
<g id="a_node3"><a xlink:href="../api/astropy.modeling.optimizers.Simplex.html#astropy.modeling.optimizers.Simplex" xlink:title="Neald&#45;Mead (downhill simplex) algorithm [1].">
<polygon fill="none" stroke="black" stroke-width="0.5" points="168,-19 113,-19 113,-0 168,-0 168,-19"/>
<text text-anchor="middle" x="140.5" y="-7" font-family="Vera Sans, DejaVu Sans, Liberation Sans, Arial, Helvetica, sans" font-size="10.00">Simplex</text>
</a>
</g>
</g>
<!-- Optimization&#45;&gt;Simplex -->
<g id="edge2" class="edge"><title>Optimization&#45;&gt;Simplex</title>
<path fill="none" stroke="black" stroke-width="0.5" d="M77.0208,-20.7463C87.1204,-18.9283 97.9456,-16.9798 107.701,-15.2239"/>
<polygon fill="black" stroke="black" stroke-width="0.5" points="108.084,-16.9331 112.695,-14.325 107.464,-13.4885 108.084,-16.9331"/>
</g>
</g>
</svg>
