<?xml version="1.0" encoding="UTF-8" standalone="no"?>
<!DOCTYPE svg PUBLIC "-//W3C//DTD SVG 1.1//EN"
 "http://www.w3.org/Graphics/SVG/1.1/DTD/svg11.dtd">
<!-- Generated by graphviz version 2.38.0 (20140413.2041)
 -->
<!-- Title: inheritance42dbef4688 Pages: 1 -->
<svg width="477pt" height="361pt"
 viewBox="0.00 0.00 477.00 361.00" xmlns="http://www.w3.org/2000/svg" xmlns:xlink="http://www.w3.org/1999/xlink">
<g id="graph0" class="graph" transform="scale(1 1) rotate(0) translate(4 357)">
<title>inheritance42dbef4688</title>
<polygon fill="white" stroke="none" points="-4,4 -4,-357 473,-357 473,4 -4,4"/>
<!-- BaseColumn -->
<g id="node1" class="node"><title>BaseColumn</title>
<polygon fill="none" stroke="black" stroke-width="0.5" points="222.5,-57 145.5,-57 145.5,-38 222.5,-38 222.5,-57"/>
<text text-anchor="middle" x="184" y="-45" font-family="Vera Sans, DejaVu Sans, Liberation Sans, Arial, Helvetica, sans" font-size="10.00">BaseColumn</text>
</g>
<!-- Column -->
<g id="node4" class="node"><title>Column</title>
<g id="a_node4"><a xlink:href="../api/astropy.table.Column.html#astropy.table.Column" xlink:title="Define a data column for use in a Table object.">
<polygon fill="none" stroke="black" stroke-width="0.5" points="330.5,-56 276.5,-56 276.5,-37 330.5,-37 330.5,-56"/>
<text text-anchor="middle" x="303.5" y="-44" font-family="Vera Sans, DejaVu Sans, Liberation Sans, Arial, Helvetica, sans" font-size="10.00">Column</text>
</a>
</g>
</g>
<!-- BaseColumn&#45;&gt;Column -->
<g id="edge2" class="edge"><title>BaseColumn&#45;&gt;Column</title>
<path fill="none" stroke="black" stroke-width="0.5" d="M222.501,-47.1808C238.173,-47.0475 256.176,-46.8942 271.131,-46.767"/>
<polygon fill="black" stroke="black" stroke-width="0.5" points="271.508,-48.5139 276.492,-46.7213 271.478,-45.014 271.508,-48.5139"/>
</g>
<!-- ndarray -->
<g id="node2" class="node"><title>ndarray</title>
<g id="a_node2"><a xlink:title="ndarray(shape, dtype=float, buffer=None, offset=0,">
<polygon fill="none" stroke="black" stroke-width="0.5" points="79,-38 25,-38 25,-19 79,-19 79,-38"/>
<text text-anchor="middle" x="52" y="-26" font-family="Vera Sans, DejaVu Sans, Liberation Sans, Arial, Helvetica, sans" font-size="10.00">ndarray</text>
</a>
</g>
</g>
<!-- ndarray&#45;&gt;BaseColumn -->
<g id="edge1" class="edge"><title>ndarray&#45;&gt;BaseColumn</title>
<path fill="none" stroke="black" stroke-width="0.5" d="M79.3074,-32.3449C96.8168,-34.904 120.216,-38.3238 140.354,-41.2672"/>
<polygon fill="black" stroke="black" stroke-width="0.5" points="140.198,-43.0128 145.399,-42.0044 140.704,-39.5496 140.198,-43.0128"/>
</g>
<!-- MaskedArray -->
<g id="node8" class="node"><title>MaskedArray</title>
<g id="a_node8"><a xlink:title="An array class with possibly masked values.">
<polygon fill="none" stroke="black" stroke-width="0.5" points="343,-19 264,-19 264,-0 343,-0 343,-19"/>
<text text-anchor="middle" x="303.5" y="-7" font-family="Vera Sans, DejaVu Sans, Liberation Sans, Arial, Helvetica, sans" font-size="10.00">MaskedArray</text>
</a>
</g>
</g>
<!-- ndarray&#45;&gt;MaskedArray -->
<g id="edge5" class="edge"><title>ndarray&#45;&gt;MaskedArray</title>
<path fill="none" stroke="black" stroke-width="0.5" d="M79.2293,-26.5026C121.807,-23.2602 206.423,-16.8165 258.383,-12.8596"/>
<polygon fill="black" stroke="black" stroke-width="0.5" points="258.766,-14.5856 263.618,-12.4609 258.5,-11.0957 258.766,-14.5856"/>
</g>
<!-- BaseGroups -->
<g id="node3" class="node"><title>BaseGroups</title>
<g id="a_node3"><a xlink:title="A class to represent groups within a table of heterogeneous data.">
<polygon fill="none" stroke="black" stroke-width="0.5" points="89.5,-112 14.5,-112 14.5,-93 89.5,-93 89.5,-112"/>
<text text-anchor="middle" x="52" y="-100" font-family="Vera Sans, DejaVu Sans, Liberation Sans, Arial, Helvetica, sans" font-size="10.00">BaseGroups</text>
</a>
</g>
</g>
<!-- ColumnGroups -->
<g id="node5" class="node"><title>ColumnGroups</title>
<g id="a_node5"><a xlink:href="../api/astropy.table.ColumnGroups.html#astropy.table.ColumnGroups" xlink:title="ColumnGroups">
<polygon fill="none" stroke="black" stroke-width="0.5" points="228,-131 140,-131 140,-112 228,-112 228,-131"/>
<text text-anchor="middle" x="184" y="-119" font-family="Vera Sans, DejaVu Sans, Liberation Sans, Arial, Helvetica, sans" font-size="10.00">ColumnGroups</text>
</a>
</g>
</g>
<!-- BaseGroups&#45;&gt;ColumnGroups -->
<g id="edge3" class="edge"><title>BaseGroups&#45;&gt;ColumnGroups</title>
<path fill="none" stroke="black" stroke-width="0.5" d="M89.5582,-107.843C103.592,-109.894 119.83,-112.267 134.793,-114.454"/>
<polygon fill="black" stroke="black" stroke-width="0.5" points="134.613,-116.197 139.813,-115.188 135.119,-112.733 134.613,-116.197"/>
</g>
<!-- TableGroups -->
<g id="node16" class="node"><title>TableGroups</title>
<g id="a_node16"><a xlink:href="../api/astropy.table.TableGroups.html#astropy.table.TableGroups" xlink:title="TableGroups">
<polygon fill="none" stroke="black" stroke-width="0.5" points="221.5,-94 146.5,-94 146.5,-75 221.5,-75 221.5,-94"/>
<text text-anchor="middle" x="184" y="-82" font-family="Vera Sans, DejaVu Sans, Liberation Sans, Arial, Helvetica, sans" font-size="10.00">TableGroups</text>
</a>
</g>
</g>
<!-- BaseGroups&#45;&gt;TableGroups -->
<g id="edge10" class="edge"><title>BaseGroups&#45;&gt;TableGroups</title>
<path fill="none" stroke="black" stroke-width="0.5" d="M89.5582,-97.4381C105.62,-95.2141 124.568,-92.5906 141.188,-90.2893"/>
<polygon fill="black" stroke="black" stroke-width="0.5" points="141.553,-92.0056 146.266,-89.5863 141.073,-88.5387 141.553,-92.0056"/>
</g>
<!-- MaskedColumn -->
<g id="node9" class="node"><title>MaskedColumn</title>
<g id="a_node9"><a xlink:href="../api/astropy.table.MaskedColumn.html#astropy.table.MaskedColumn" xlink:title="Define a masked data column for use in a Table object.">
<polygon fill="none" stroke="black" stroke-width="0.5" points="469,-37 379,-37 379,-18 469,-18 469,-37"/>
<text text-anchor="middle" x="424" y="-25" font-family="Vera Sans, DejaVu Sans, Liberation Sans, Arial, Helvetica, sans" font-size="10.00">MaskedColumn</text>
</a>
</g>
</g>
<!-- Column&#45;&gt;MaskedColumn -->
<g id="edge6" class="edge"><title>Column&#45;&gt;MaskedColumn</title>
<path fill="none" stroke="black" stroke-width="0.5" d="M330.505,-42.3304C343.237,-40.289 358.997,-37.7621 373.878,-35.3761"/>
<polygon fill="black" stroke="black" stroke-width="0.5" points="374.226,-37.0928 378.886,-34.5732 373.671,-33.6369 374.226,-37.0928"/>
</g>
<!-- Conf -->
<g id="node6" class="node"><title>Conf</title>
<g id="a_node6"><a xlink:href="../api/astropy.table.Conf.html#astropy.table.Conf" xlink:title="Configuration parameters for `astropy.table`.">
<polygon fill="none" stroke="black" stroke-width="0.5" points="211,-168 157,-168 157,-149 211,-149 211,-168"/>
<text text-anchor="middle" x="184" y="-156" font-family="Vera Sans, DejaVu Sans, Liberation Sans, Arial, Helvetica, sans" font-size="10.00">Conf</text>
</a>
</g>
</g>
<!-- ConfigNamespace -->
<g id="node7" class="node"><title>ConfigNamespace</title>
<g id="a_node7"><a xlink:href="../api/astropy.config.ConfigNamespace.html#astropy.config.ConfigNamespace" xlink:title="A namespace of configuration items. &#160;Each subpackage with">
<polygon fill="none" stroke="black" stroke-width="0.5" points="104,-168 0,-168 0,-149 104,-149 104,-168"/>
<text text-anchor="middle" x="52" y="-156" font-family="Vera Sans, DejaVu Sans, Liberation Sans, Arial, Helvetica, sans" font-size="10.00">ConfigNamespace</text>
</a>
</g>
</g>
<!-- ConfigNamespace&#45;&gt;Conf -->
<g id="edge4" class="edge"><title>ConfigNamespace&#45;&gt;Conf</title>
<path fill="none" stroke="black" stroke-width="0.5" d="M104.006,-158.5C120.098,-158.5 137.391,-158.5 151.682,-158.5"/>
<polygon fill="black" stroke="black" stroke-width="0.5" points="151.804,-160.25 156.804,-158.5 151.804,-156.75 151.804,-160.25"/>
</g>
<!-- MaskedArray&#45;&gt;MaskedColumn -->
<g id="edge7" class="edge"><title>MaskedArray&#45;&gt;MaskedColumn</title>
<path fill="none" stroke="black" stroke-width="0.5" d="M343.301,-15.3939C353.047,-16.8742 363.633,-18.4822 373.811,-20.0283"/>
<polygon fill="black" stroke="black" stroke-width="0.5" points="373.564,-21.7607 378.77,-20.7815 374.089,-18.3003 373.564,-21.7607"/>
</g>
<!-- OrderedDict -->
<g id="node10" class="node"><title>OrderedDict</title>
<g id="a_node10"><a xlink:title="Dictionary that remembers insertion order">
<polygon fill="none" stroke="black" stroke-width="0.5" points="89,-205 15,-205 15,-186 89,-186 89,-205"/>
<text text-anchor="middle" x="52" y="-193" font-family="Vera Sans, DejaVu Sans, Liberation Sans, Arial, Helvetica, sans" font-size="10.00">OrderedDict</text>
</a>
</g>
</g>
<!-- TableColumns -->
<g id="node14" class="node"><title>TableColumns</title>
<g id="a_node14"><a xlink:href="../api/astropy.table.TableColumns.html#astropy.table.TableColumns" xlink:title="OrderedDict subclass for a set of columns.">
<polygon fill="none" stroke="black" stroke-width="0.5" points="225.5,-205 142.5,-205 142.5,-186 225.5,-186 225.5,-205"/>
<text text-anchor="middle" x="184" y="-193" font-family="Vera Sans, DejaVu Sans, Liberation Sans, Arial, Helvetica, sans" font-size="10.00">TableColumns</text>
</a>
</g>
</g>
<!-- OrderedDict&#45;&gt;TableColumns -->
<g id="edge9" class="edge"><title>OrderedDict&#45;&gt;TableColumns</title>
<path fill="none" stroke="black" stroke-width="0.5" d="M89.2122,-195.5C104.062,-195.5 121.424,-195.5 137.145,-195.5"/>
<polygon fill="black" stroke="black" stroke-width="0.5" points="137.408,-197.25 142.407,-195.5 137.407,-193.75 137.408,-197.25"/>
</g>
<!-- QTable -->
<g id="node11" class="node"><title>QTable</title>
<g id="a_node11"><a xlink:href="../api/astropy.table.QTable.html#astropy.table.QTable" xlink:title="A class to represent tables of heterogeneous data.">
<polygon fill="none" stroke="black" stroke-width="0.5" points="211,-242 157,-242 157,-223 211,-223 211,-242"/>
<text text-anchor="middle" x="184" y="-230" font-family="Vera Sans, DejaVu Sans, Liberation Sans, Arial, Helvetica, sans" font-size="10.00">QTable</text>
</a>
</g>
</g>
<!-- Table -->
<g id="node12" class="node"><title>Table</title>
<g id="a_node12"><a xlink:href="../api/astropy.table.Table.html#astropy.table.Table" xlink:title="A class to represent tables of heterogeneous data.">
<polygon fill="none" stroke="black" stroke-width="0.5" points="79,-242 25,-242 25,-223 79,-223 79,-242"/>
<text text-anchor="middle" x="52" y="-230" font-family="Vera Sans, DejaVu Sans, Liberation Sans, Arial, Helvetica, sans" font-size="10.00">Table</text>
</a>
</g>
</g>
<!-- Table&#45;&gt;QTable -->
<g id="edge8" class="edge"><title>Table&#45;&gt;QTable</title>
<path fill="none" stroke="black" stroke-width="0.5" d="M79.3074,-232.5C100.188,-232.5 129.444,-232.5 151.559,-232.5"/>
<polygon fill="black" stroke="black" stroke-width="0.5" points="151.732,-234.25 156.732,-232.5 151.732,-230.75 151.732,-234.25"/>
</g>
<!-- Row -->
<g id="node13" class="node"><title>Row</title>
<g id="a_node13"><a xlink:href="../api/astropy.table.Row.html#astropy.table.Row" xlink:title="A class to represent one row of a Table object.">
<polygon fill="none" stroke="black" stroke-width="0.5" points="79,-279 25,-279 25,-260 79,-260 79,-279"/>
<text text-anchor="middle" x="52" y="-267" font-family="Vera Sans, DejaVu Sans, Liberation Sans, Arial, Helvetica, sans" font-size="10.00">Row</text>
</a>
</g>
</g>
<!-- TableFormatter -->
<g id="node15" class="node"><title>TableFormatter</title>
<g id="a_node15"><a xlink:href="../api/astropy.table.TableFormatter.html#astropy.table.TableFormatter" xlink:title="TableFormatter">
<polygon fill="none" stroke="black" stroke-width="0.5" points="96.5,-316 7.5,-316 7.5,-297 96.5,-297 96.5,-316"/>
<text text-anchor="middle" x="52" y="-304" font-family="Vera Sans, DejaVu Sans, Liberation Sans, Arial, Helvetica, sans" font-size="10.00">TableFormatter</text>
</a>
</g>
</g>
<!-- TableMergeError -->
<g id="node17" class="node"><title>TableMergeError</title>
<g id="a_node17"><a xlink:href="../api/astropy.table.TableMergeError.html#astropy.table.TableMergeError" xlink:title="TableMergeError">
<polygon fill="none" stroke="black" stroke-width="0.5" points="99,-353 5,-353 5,-334 99,-334 99,-353"/>
<text text-anchor="middle" x="52" y="-341" font-family="Vera Sans, DejaVu Sans, Liberation Sans, Arial, Helvetica, sans" font-size="10.00">TableMergeError</text>
</a>
</g>
</g>
</g>
</svg>
