<?xml version="1.0" encoding="UTF-8" standalone="no"?>
<!DOCTYPE svg PUBLIC "-//W3C//DTD SVG 1.1//EN"
 "http://www.w3.org/Graphics/SVG/1.1/DTD/svg11.dtd">
<!-- Generated by graphviz version 2.38.0 (20140413.2041)
 -->
<!-- Title: inheritance0f2ce7df59 Pages: 1 -->
<svg width="476pt" height="175pt"
 viewBox="0.00 0.00 476.00 175.00" xmlns="http://www.w3.org/2000/svg" xmlns:xlink="http://www.w3.org/1999/xlink">
<g id="graph0" class="graph" transform="scale(1 1) rotate(0) translate(4 171)">
<title>inheritance0f2ce7df59</title>
<polygon fill="white" stroke="none" points="-4,4 -4,-171 472,-171 472,4 -4,4"/>
<!-- Cosmology -->
<g id="node1" class="node"><title>Cosmology</title>
<g id="a_node1"><a xlink:title="Placeholder for when a more general Cosmology class is">
<polygon fill="none" stroke="black" stroke-width="0.5" points="75,-93 5,-93 5,-74 75,-74 75,-93"/>
<text text-anchor="middle" x="40" y="-81" font-family="Vera Sans, DejaVu Sans, Liberation Sans, Arial, Helvetica, sans" font-size="10.00">Cosmology</text>
</a>
</g>
</g>
<!-- FLRW -->
<g id="node2" class="node"><title>FLRW</title>
<g id="a_node2"><a xlink:href="../api/astropy.cosmology.FLRW.html#astropy.cosmology.FLRW" xlink:title="A class describing an isotropic and homogeneous">
<polygon fill="none" stroke="black" stroke-width="0.5" points="196.5,-93 142.5,-93 142.5,-74 196.5,-74 196.5,-93"/>
<text text-anchor="middle" x="169.5" y="-81" font-family="Vera Sans, DejaVu Sans, Liberation Sans, Arial, Helvetica, sans" font-size="10.00">FLRW</text>
</a>
</g>
</g>
<!-- Cosmology&#45;&gt;FLRW -->
<g id="edge1" class="edge"><title>Cosmology&#45;&gt;FLRW</title>
<path fill="none" stroke="black" stroke-width="0.5" d="M75.1677,-83.5C94.4511,-83.5 118.375,-83.5 137.173,-83.5"/>
<polygon fill="black" stroke="black" stroke-width="0.5" points="137.331,-85.2501 142.331,-83.5 137.331,-81.7501 137.331,-85.2501"/>
</g>
<!-- LambdaCDM -->
<g id="node4" class="node"><title>LambdaCDM</title>
<g id="a_node4"><a xlink:href="../api/astropy.cosmology.LambdaCDM.html#astropy.cosmology.LambdaCDM" xlink:title="FLRW cosmology with a cosmological constant and curvature.">
<polygon fill="none" stroke="black" stroke-width="0.5" points="337,-167 259,-167 259,-148 337,-148 337,-167"/>
<text text-anchor="middle" x="298" y="-155" font-family="Vera Sans, DejaVu Sans, Liberation Sans, Arial, Helvetica, sans" font-size="10.00">LambdaCDM</text>
</a>
</g>
</g>
<!-- FLRW&#45;&gt;LambdaCDM -->
<g id="edge5" class="edge"><title>FLRW&#45;&gt;LambdaCDM</title>
<path fill="none" stroke="black" stroke-width="0.5" d="M196.694,-89.8313C205.46,-92.6244 215.023,-96.4466 223,-101.5 242.382,-113.779 240.479,-124.957 259,-138.5 262.424,-141.003 266.226,-143.341 270.065,-145.46"/>
<polygon fill="black" stroke="black" stroke-width="0.5" points="269.33,-147.051 274.568,-147.845 270.968,-143.958 269.33,-147.051"/>
</g>
<!-- w0waCDM -->
<g id="node6" class="node"><title>w0waCDM</title>
<g id="a_node6"><a xlink:href="../api/astropy.cosmology.w0waCDM.html#astropy.cosmology.w0waCDM" xlink:title="FLRW cosmology with a CPL dark energy equation of state and curvature.">
<polygon fill="none" stroke="black" stroke-width="0.5" points="330.5,-130 265.5,-130 265.5,-111 330.5,-111 330.5,-130"/>
<text text-anchor="middle" x="298" y="-118" font-family="Vera Sans, DejaVu Sans, Liberation Sans, Arial, Helvetica, sans" font-size="10.00">w0waCDM</text>
</a>
</g>
</g>
<!-- FLRW&#45;&gt;w0waCDM -->
<g id="edge7" class="edge"><title>FLRW&#45;&gt;w0waCDM</title>
<path fill="none" stroke="black" stroke-width="0.5" d="M196.711,-91.1664C215.202,-96.5749 240.215,-103.891 260.634,-109.863"/>
<polygon fill="black" stroke="black" stroke-width="0.5" points="260.161,-111.548 265.451,-111.272 261.143,-108.189 260.161,-111.548"/>
</g>
<!-- wCDM -->
<g id="node8" class="node"><title>wCDM</title>
<g id="a_node8"><a xlink:href="../api/astropy.cosmology.wCDM.html#astropy.cosmology.wCDM" xlink:title="FLRW cosmology with a constant dark energy equation of state">
<polygon fill="none" stroke="black" stroke-width="0.5" points="325,-93 271,-93 271,-74 325,-74 325,-93"/>
<text text-anchor="middle" x="298" y="-81" font-family="Vera Sans, DejaVu Sans, Liberation Sans, Arial, Helvetica, sans" font-size="10.00">wCDM</text>
</a>
</g>
</g>
<!-- FLRW&#45;&gt;wCDM -->
<g id="edge9" class="edge"><title>FLRW&#45;&gt;wCDM</title>
<path fill="none" stroke="black" stroke-width="0.5" d="M196.711,-83.5C216.725,-83.5 244.379,-83.5 265.58,-83.5"/>
<polygon fill="black" stroke="black" stroke-width="0.5" points="265.823,-85.2501 270.823,-83.5 265.823,-81.7501 265.823,-85.2501"/>
</g>
<!-- w0wzCDM -->
<g id="node11" class="node"><title>w0wzCDM</title>
<g id="a_node11"><a xlink:href="../api/astropy.cosmology.w0wzCDM.html#astropy.cosmology.w0wzCDM" xlink:title="FLRW cosmology with a variable dark energy equation of state">
<polygon fill="none" stroke="black" stroke-width="0.5" points="330,-56 266,-56 266,-37 330,-37 330,-56"/>
<text text-anchor="middle" x="298" y="-44" font-family="Vera Sans, DejaVu Sans, Liberation Sans, Arial, Helvetica, sans" font-size="10.00">w0wzCDM</text>
</a>
</g>
</g>
<!-- FLRW&#45;&gt;w0wzCDM -->
<g id="edge8" class="edge"><title>FLRW&#45;&gt;w0wzCDM</title>
<path fill="none" stroke="black" stroke-width="0.5" d="M196.711,-75.8336C215.336,-70.3859 240.577,-63.003 261.077,-57.007"/>
<polygon fill="black" stroke="black" stroke-width="0.5" points="261.603,-58.6768 265.91,-55.5934 260.62,-55.3175 261.603,-58.6768"/>
</g>
<!-- wpwaCDM -->
<g id="node12" class="node"><title>wpwaCDM</title>
<g id="a_node12"><a xlink:href="../api/astropy.cosmology.wpwaCDM.html#astropy.cosmology.wpwaCDM" xlink:title="FLRW cosmology with a CPL dark energy equation of state, a pivot">
<polygon fill="none" stroke="black" stroke-width="0.5" points="330.5,-19 265.5,-19 265.5,-0 330.5,-0 330.5,-19"/>
<text text-anchor="middle" x="298" y="-7" font-family="Vera Sans, DejaVu Sans, Liberation Sans, Arial, Helvetica, sans" font-size="10.00">wpwaCDM</text>
</a>
</g>
</g>
<!-- FLRW&#45;&gt;wpwaCDM -->
<g id="edge10" class="edge"><title>FLRW&#45;&gt;wpwaCDM</title>
<path fill="none" stroke="black" stroke-width="0.5" d="M184.585,-73.8338C201.781,-62.2108 231.923,-42.4075 259,-27.5 262.769,-25.425 266.817,-23.3513 270.815,-21.3884"/>
<polygon fill="black" stroke="black" stroke-width="0.5" points="271.725,-22.8923 275.466,-19.1416 270.203,-19.7407 271.725,-22.8923"/>
</g>
<!-- FlatLambdaCDM -->
<g id="node3" class="node"><title>FlatLambdaCDM</title>
<g id="a_node3"><a xlink:href="../api/astropy.cosmology.FlatLambdaCDM.html#astropy.cosmology.FlatLambdaCDM" xlink:title="FLRW cosmology with a cosmological constant and no curvature.">
<polygon fill="none" stroke="black" stroke-width="0.5" points="468,-167 373,-167 373,-148 468,-148 468,-167"/>
<text text-anchor="middle" x="420.5" y="-155" font-family="Vera Sans, DejaVu Sans, Liberation Sans, Arial, Helvetica, sans" font-size="10.00">FlatLambdaCDM</text>
</a>
</g>
</g>
<!-- LambdaCDM&#45;&gt;FlatLambdaCDM -->
<g id="edge2" class="edge"><title>LambdaCDM&#45;&gt;FlatLambdaCDM</title>
<path fill="none" stroke="black" stroke-width="0.5" d="M337.127,-157.5C346.845,-157.5 357.454,-157.5 367.728,-157.5"/>
<polygon fill="black" stroke="black" stroke-width="0.5" points="367.739,-159.25 372.739,-157.5 367.739,-155.75 367.739,-159.25"/>
</g>
<!-- Flatw0waCDM -->
<g id="node5" class="node"><title>Flatw0waCDM</title>
<g id="a_node5"><a xlink:href="../api/astropy.cosmology.Flatw0waCDM.html#astropy.cosmology.Flatw0waCDM" xlink:title="FLRW cosmology with a CPL dark energy equation of state and no curvature.">
<polygon fill="none" stroke="black" stroke-width="0.5" points="461.5,-130 379.5,-130 379.5,-111 461.5,-111 461.5,-130"/>
<text text-anchor="middle" x="420.5" y="-118" font-family="Vera Sans, DejaVu Sans, Liberation Sans, Arial, Helvetica, sans" font-size="10.00">Flatw0waCDM</text>
</a>
</g>
</g>
<!-- w0waCDM&#45;&gt;Flatw0waCDM -->
<g id="edge3" class="edge"><title>w0waCDM&#45;&gt;Flatw0waCDM</title>
<path fill="none" stroke="black" stroke-width="0.5" d="M330.66,-120.5C343.95,-120.5 359.657,-120.5 374.139,-120.5"/>
<polygon fill="black" stroke="black" stroke-width="0.5" points="374.412,-122.25 379.412,-120.5 374.412,-118.75 374.412,-122.25"/>
</g>
<!-- FlatwCDM -->
<g id="node7" class="node"><title>FlatwCDM</title>
<g id="a_node7"><a xlink:href="../api/astropy.cosmology.FlatwCDM.html#astropy.cosmology.FlatwCDM" xlink:title="FLRW cosmology with a constant dark energy equation of state">
<polygon fill="none" stroke="black" stroke-width="0.5" points="452,-93 389,-93 389,-74 452,-74 452,-93"/>
<text text-anchor="middle" x="420.5" y="-81" font-family="Vera Sans, DejaVu Sans, Liberation Sans, Arial, Helvetica, sans" font-size="10.00">FlatwCDM</text>
</a>
</g>
</g>
<!-- wCDM&#45;&gt;FlatwCDM -->
<g id="edge4" class="edge"><title>wCDM&#45;&gt;FlatwCDM</title>
<path fill="none" stroke="black" stroke-width="0.5" d="M325.147,-83.5C342.23,-83.5 364.767,-83.5 383.53,-83.5"/>
<polygon fill="black" stroke="black" stroke-width="0.5" points="383.715,-85.2501 388.715,-83.5 383.715,-81.7501 383.715,-85.2501"/>
</g>
<!-- ScienceState -->
<g id="node9" class="node"><title>ScienceState</title>
<g id="a_node9"><a xlink:href="../api/astropy.utils.state.ScienceState.html#astropy.utils.state.ScienceState" xlink:title="Science state subclasses are used to manage global items that can">
<polygon fill="none" stroke="black" stroke-width="0.5" points="80,-130 0,-130 0,-111 80,-111 80,-130"/>
<text text-anchor="middle" x="40" y="-118" font-family="Vera Sans, DejaVu Sans, Liberation Sans, Arial, Helvetica, sans" font-size="10.00">ScienceState</text>
</a>
</g>
</g>
<!-- default_cosmology -->
<g id="node10" class="node"><title>default_cosmology</title>
<g id="a_node10"><a xlink:href="../api/astropy.cosmology.default_cosmology.html#astropy.cosmology.default_cosmology" xlink:title="The default cosmology to use. &#160;To change it::">
<polygon fill="none" stroke="black" stroke-width="0.5" points="223,-130 116,-130 116,-111 223,-111 223,-130"/>
<text text-anchor="middle" x="169.5" y="-118" font-family="Vera Sans, DejaVu Sans, Liberation Sans, Arial, Helvetica, sans" font-size="10.00">default_cosmology</text>
</a>
</g>
</g>
<!-- ScienceState&#45;&gt;default_cosmology -->
<g id="edge6" class="edge"><title>ScienceState&#45;&gt;default_cosmology</title>
<path fill="none" stroke="black" stroke-width="0.5" d="M80.2946,-120.5C89.978,-120.5 100.549,-120.5 110.901,-120.5"/>
<polygon fill="black" stroke="black" stroke-width="0.5" points="110.961,-122.25 115.961,-120.5 110.961,-118.75 110.961,-122.25"/>
</g>
</g>
</svg>
