<?xml version="1.0" encoding="UTF-8" standalone="no"?>
<!DOCTYPE svg PUBLIC "-//W3C//DTD SVG 1.1//EN"
 "http://www.w3.org/Graphics/SVG/1.1/DTD/svg11.dtd">
<!-- Generated by graphviz version 2.38.0 (20140413.2041)
 -->
<!-- Title: inheritance00e6963d07 Pages: 1 -->
<svg width="257pt" height="212pt"
 viewBox="0.00 0.00 257.00 212.00" xmlns="http://www.w3.org/2000/svg" xmlns:xlink="http://www.w3.org/1999/xlink">
<g id="graph0" class="graph" transform="scale(1 1) rotate(0) translate(4 208)">
<title>inheritance00e6963d07</title>
<polygon fill="white" stroke="none" points="-4,4 -4,-208 253,-208 253,4 -4,4"/>
<!-- Base -->
<g id="node1" class="node"><title>Base</title>
<g id="a_node1"><a xlink:href="../api/astropy.units.format.Base.html#astropy.units.format.Base" xlink:title="The abstract base class of all unit formats.">
<polygon fill="none" stroke="black" stroke-width="0.5" points="54,-129 0,-129 0,-110 54,-110 54,-129"/>
<text text-anchor="middle" x="27" y="-117" font-family="Vera Sans, DejaVu Sans, Liberation Sans, Arial, Helvetica, sans" font-size="10.00">Base</text>
</a>
</g>
</g>
<!-- CDS -->
<g id="node2" class="node"><title>CDS</title>
<g id="a_node2"><a xlink:href="../api/astropy.units.format.CDS.html#astropy.units.format.CDS" xlink:title="Support the `Centre de Données astronomiques de Strasbourg">
<polygon fill="none" stroke="black" stroke-width="0.5" points="144.5,-185 90.5,-185 90.5,-166 144.5,-166 144.5,-185"/>
<text text-anchor="middle" x="117.5" y="-173" font-family="Vera Sans, DejaVu Sans, Liberation Sans, Arial, Helvetica, sans" font-size="10.00">CDS</text>
</a>
</g>
</g>
<!-- Base&#45;&gt;CDS -->
<g id="edge1" class="edge"><title>Base&#45;&gt;CDS</title>
<path fill="none" stroke="black" stroke-width="0.5" d="M43.4155,-129.254C58.2632,-138.65 80.7823,-152.899 96.8974,-163.096"/>
<polygon fill="black" stroke="black" stroke-width="0.5" points="96.1002,-164.663 101.261,-165.857 97.9717,-161.705 96.1002,-164.663"/>
</g>
<!-- Console -->
<g id="node3" class="node"><title>Console</title>
<g id="a_node3"><a xlink:href="../api/astropy.units.format.Console.html#astropy.units.format.Console" xlink:title="Output&#45;only format for to display pretty formatting at the">
<polygon fill="none" stroke="black" stroke-width="0.5" points="145,-148 90,-148 90,-129 145,-129 145,-148"/>
<text text-anchor="middle" x="117.5" y="-136" font-family="Vera Sans, DejaVu Sans, Liberation Sans, Arial, Helvetica, sans" font-size="10.00">Console</text>
</a>
</g>
</g>
<!-- Base&#45;&gt;Console -->
<g id="edge2" class="edge"><title>Base&#45;&gt;Console</title>
<path fill="none" stroke="black" stroke-width="0.5" d="M54.0743,-125.098C63.8016,-127.186 74.9473,-129.579 85.1037,-131.76"/>
<polygon fill="black" stroke="black" stroke-width="0.5" points="84.7436,-133.472 89.9995,-132.811 85.4783,-130.05 84.7436,-133.472"/>
</g>
<!-- Generic -->
<g id="node5" class="node"><title>Generic</title>
<g id="a_node5"><a xlink:href="../api/astropy.units.format.Generic.html#astropy.units.format.Generic" xlink:title="A &quot;generic&quot; format.">
<polygon fill="none" stroke="black" stroke-width="0.5" points="144.5,-111 90.5,-111 90.5,-92 144.5,-92 144.5,-111"/>
<text text-anchor="middle" x="117.5" y="-99" font-family="Vera Sans, DejaVu Sans, Liberation Sans, Arial, Helvetica, sans" font-size="10.00">Generic</text>
</a>
</g>
</g>
<!-- Base&#45;&gt;Generic -->
<g id="edge4" class="edge"><title>Base&#45;&gt;Generic</title>
<path fill="none" stroke="black" stroke-width="0.5" d="M54.0743,-114.197C63.8892,-112.2 75.1482,-109.911 85.3779,-107.83"/>
<polygon fill="black" stroke="black" stroke-width="0.5" points="85.7554,-109.539 90.3063,-106.828 85.0578,-106.109 85.7554,-109.539"/>
</g>
<!-- Latex -->
<g id="node6" class="node"><title>Latex</title>
<g id="a_node6"><a xlink:href="../api/astropy.units.format.Latex.html#astropy.units.format.Latex" xlink:title="Output LaTeX to display the unit based on IAU style guidelines.">
<polygon fill="none" stroke="black" stroke-width="0.5" points="144.5,-56 90.5,-56 90.5,-37 144.5,-37 144.5,-56"/>
<text text-anchor="middle" x="117.5" y="-44" font-family="Vera Sans, DejaVu Sans, Liberation Sans, Arial, Helvetica, sans" font-size="10.00">Latex</text>
</a>
</g>
</g>
<!-- Base&#45;&gt;Latex -->
<g id="edge5" class="edge"><title>Base&#45;&gt;Latex</title>
<path fill="none" stroke="black" stroke-width="0.5" d="M39.5698,-109.957C55.2057,-97.0591 83.1415,-74.016 100.701,-59.5323"/>
<polygon fill="black" stroke="black" stroke-width="0.5" points="102.184,-60.5774 104.927,-56.0458 99.9566,-57.8774 102.184,-60.5774"/>
</g>
<!-- Unicode -->
<g id="node9" class="node"><title>Unicode</title>
<g id="a_node9"><a xlink:href="../api/astropy.units.format.Unicode.html#astropy.units.format.Unicode" xlink:title="Output&#45;only format to display pretty formatting at the console">
<polygon fill="none" stroke="black" stroke-width="0.5" points="243,-204 187,-204 187,-185 243,-185 243,-204"/>
<text text-anchor="middle" x="215" y="-192" font-family="Vera Sans, DejaVu Sans, Liberation Sans, Arial, Helvetica, sans" font-size="10.00">Unicode</text>
</a>
</g>
</g>
<!-- Console&#45;&gt;Unicode -->
<g id="edge8" class="edge"><title>Console&#45;&gt;Unicode</title>
<path fill="none" stroke="black" stroke-width="0.5" d="M133.791,-148.072C146.371,-155.881 164.716,-167.116 181,-176.5 184.343,-178.427 187.902,-180.423 191.399,-182.355"/>
<polygon fill="black" stroke="black" stroke-width="0.5" points="190.878,-184.065 196.103,-184.937 192.562,-180.997 190.878,-184.065"/>
</g>
<!-- Fits -->
<g id="node4" class="node"><title>Fits</title>
<g id="a_node4"><a xlink:href="../api/astropy.units.format.Fits.html#astropy.units.format.Fits" xlink:title="The FITS standard unit format.">
<polygon fill="none" stroke="black" stroke-width="0.5" points="242,-167 188,-167 188,-148 242,-148 242,-167"/>
<text text-anchor="middle" x="215" y="-155" font-family="Vera Sans, DejaVu Sans, Liberation Sans, Arial, Helvetica, sans" font-size="10.00">Fits</text>
</a>
</g>
</g>
<!-- Generic&#45;&gt;Fits -->
<g id="edge3" class="edge"><title>Generic&#45;&gt;Fits</title>
<path fill="none" stroke="black" stroke-width="0.5" d="M133.791,-111.072C146.371,-118.881 164.716,-130.116 181,-139.5 184.343,-141.427 187.902,-143.423 191.399,-145.355"/>
<polygon fill="black" stroke="black" stroke-width="0.5" points="190.878,-147.065 196.103,-147.937 192.562,-143.997 190.878,-147.065"/>
</g>
<!-- OGIP -->
<g id="node8" class="node"><title>OGIP</title>
<g id="a_node8"><a xlink:href="../api/astropy.units.format.OGIP.html#astropy.units.format.OGIP" xlink:title="Support the units in `Office of Guest Investigator Programs (OGIP)">
<polygon fill="none" stroke="black" stroke-width="0.5" points="242,-130 188,-130 188,-111 242,-111 242,-130"/>
<text text-anchor="middle" x="215" y="-118" font-family="Vera Sans, DejaVu Sans, Liberation Sans, Arial, Helvetica, sans" font-size="10.00">OGIP</text>
</a>
</g>
</g>
<!-- Generic&#45;&gt;OGIP -->
<g id="edge7" class="edge"><title>Generic&#45;&gt;OGIP</title>
<path fill="none" stroke="black" stroke-width="0.5" d="M144.596,-106.692C156.387,-109.038 170.412,-111.828 182.759,-114.284"/>
<polygon fill="black" stroke="black" stroke-width="0.5" points="182.69,-116.055 187.936,-115.314 183.373,-112.622 182.69,-116.055"/>
</g>
<!-- Unscaled -->
<g id="node10" class="node"><title>Unscaled</title>
<g id="a_node10"><a xlink:href="../api/astropy.units.format.Unscaled.html#astropy.units.format.Unscaled" xlink:title="A format that doesn&#39;t display the scale part of the unit, other">
<polygon fill="none" stroke="black" stroke-width="0.5" points="245.5,-93 184.5,-93 184.5,-74 245.5,-74 245.5,-93"/>
<text text-anchor="middle" x="215" y="-81" font-family="Vera Sans, DejaVu Sans, Liberation Sans, Arial, Helvetica, sans" font-size="10.00">Unscaled</text>
</a>
</g>
</g>
<!-- Generic&#45;&gt;Unscaled -->
<g id="edge9" class="edge"><title>Generic&#45;&gt;Unscaled</title>
<path fill="none" stroke="black" stroke-width="0.5" d="M144.596,-96.5814C155.228,-94.5775 167.677,-92.2311 179.073,-90.0831"/>
<polygon fill="black" stroke="black" stroke-width="0.5" points="179.636,-91.7579 184.225,-89.112 178.987,-88.3185 179.636,-91.7579"/>
</g>
<!-- VOUnit -->
<g id="node11" class="node"><title>VOUnit</title>
<g id="a_node11"><a xlink:href="../api/astropy.units.format.VOUnit.html#astropy.units.format.VOUnit" xlink:title="The IVOA standard for units used by the VO.">
<polygon fill="none" stroke="black" stroke-width="0.5" points="242,-56 188,-56 188,-37 242,-37 242,-56"/>
<text text-anchor="middle" x="215" y="-44" font-family="Vera Sans, DejaVu Sans, Liberation Sans, Arial, Helvetica, sans" font-size="10.00">VOUnit</text>
</a>
</g>
</g>
<!-- Generic&#45;&gt;VOUnit -->
<g id="edge10" class="edge"><title>Generic&#45;&gt;VOUnit</title>
<path fill="none" stroke="black" stroke-width="0.5" d="M135.135,-91.9197C151.059,-82.7486 175.161,-68.8679 192.528,-58.8661"/>
<polygon fill="black" stroke="black" stroke-width="0.5" points="193.776,-60.1669 197.235,-56.155 192.029,-57.1339 193.776,-60.1669"/>
</g>
<!-- LatexInline -->
<g id="node7" class="node"><title>LatexInline</title>
<g id="a_node7"><a xlink:href="../api/astropy.units.format.LatexInline.html#astropy.units.format.LatexInline" xlink:title="Output LaTeX to display the unit based on IAU style guidelines with negative">
<polygon fill="none" stroke="black" stroke-width="0.5" points="249,-19 181,-19 181,-0 249,-0 249,-19"/>
<text text-anchor="middle" x="215" y="-7" font-family="Vera Sans, DejaVu Sans, Liberation Sans, Arial, Helvetica, sans" font-size="10.00">LatexInline</text>
</a>
</g>
</g>
<!-- Latex&#45;&gt;LatexInline -->
<g id="edge6" class="edge"><title>Latex&#45;&gt;LatexInline</title>
<path fill="none" stroke="black" stroke-width="0.5" d="M143.094,-36.9716C155.694,-32.0897 171.133,-26.108 184.384,-20.9742"/>
<polygon fill="black" stroke="black" stroke-width="0.5" points="185.128,-22.5629 189.158,-19.1247 183.863,-19.2993 185.128,-22.5629"/>
</g>
</g>
</svg>
