<?xml version="1.0" encoding="UTF-8" standalone="no"?>
<!DOCTYPE svg PUBLIC "-//W3C//DTD SVG 1.1//EN"
 "http://www.w3.org/Graphics/SVG/1.1/DTD/svg11.dtd">
<!-- Generated by graphviz version 2.38.0 (20140413.2041)
 -->
<!-- Title: inheritance3ceb671924 Pages: 1 -->
<svg width="483pt" height="184pt"
 viewBox="0.00 0.00 483.00 184.00" xmlns="http://www.w3.org/2000/svg" xmlns:xlink="http://www.w3.org/1999/xlink">
<g id="graph0" class="graph" transform="scale(1 1) rotate(0) translate(4 180)">
<title>inheritance3ceb671924</title>
<polygon fill="white" stroke="none" points="-4,4 -4,-180 479,-180 479,4 -4,4"/>
<!-- AstropyWarning -->
<g id="node1" class="node"><title>AstropyWarning</title>
<g id="a_node1"><a xlink:href="../api/astropy.utils.exceptions.AstropyWarning.html#astropy.utils.exceptions.AstropyWarning" xlink:title="The base warning class from which all Astropy warnings should inherit.">
<polygon fill="none" stroke="black" stroke-width="0.5" points="91,-19 0,-19 0,-0 91,-0 91,-19"/>
<text text-anchor="middle" x="45.5" y="-7" font-family="Vera Sans, DejaVu Sans, Liberation Sans, Arial, Helvetica, sans" font-size="10.00">AstropyWarning</text>
</a>
</g>
</g>
<!-- UnitsWarning -->
<g id="node11" class="node"><title>UnitsWarning</title>
<g id="a_node11"><a xlink:href="../api/astropy.units.UnitsWarning.html#astropy.units.UnitsWarning" xlink:title="The base class for unit&#45;specific exceptions.">
<polygon fill="none" stroke="black" stroke-width="0.5" points="210.5,-19 131.5,-19 131.5,-0 210.5,-0 210.5,-19"/>
<text text-anchor="middle" x="171" y="-7" font-family="Vera Sans, DejaVu Sans, Liberation Sans, Arial, Helvetica, sans" font-size="10.00">UnitsWarning</text>
</a>
</g>
</g>
<!-- AstropyWarning&#45;&gt;UnitsWarning -->
<g id="edge7" class="edge"><title>AstropyWarning&#45;&gt;UnitsWarning</title>
<path fill="none" stroke="black" stroke-width="0.5" d="M91.0863,-9.5C102.47,-9.5 114.7,-9.5 126.051,-9.5"/>
<polygon fill="black" stroke="black" stroke-width="0.5" points="126.199,-11.2501 131.199,-9.5 126.199,-7.7501 126.199,-11.2501"/>
</g>
<!-- CompositeUnit -->
<g id="node2" class="node"><title>CompositeUnit</title>
<g id="a_node2"><a xlink:href="../api/astropy.units.CompositeUnit.html#astropy.units.CompositeUnit" xlink:title="Create a composite unit using expressions of previously defined">
<polygon fill="none" stroke="black" stroke-width="0.5" points="215,-102 127,-102 127,-83 215,-83 215,-102"/>
<text text-anchor="middle" x="171" y="-90" font-family="Vera Sans, DejaVu Sans, Liberation Sans, Arial, Helvetica, sans" font-size="10.00">CompositeUnit</text>
</a>
</g>
</g>
<!-- UnitBase -->
<g id="node3" class="node"><title>UnitBase</title>
<g id="a_node3"><a xlink:href="../api/astropy.units.UnitBase.html#astropy.units.UnitBase" xlink:title="Abstract base class for units.">
<polygon fill="none" stroke="black" stroke-width="0.5" points="75.5,-74 15.5,-74 15.5,-55 75.5,-55 75.5,-74"/>
<text text-anchor="middle" x="45.5" y="-62" font-family="Vera Sans, DejaVu Sans, Liberation Sans, Arial, Helvetica, sans" font-size="10.00">UnitBase</text>
</a>
</g>
</g>
<!-- UnitBase&#45;&gt;CompositeUnit -->
<g id="edge1" class="edge"><title>UnitBase&#45;&gt;CompositeUnit</title>
<path fill="none" stroke="black" stroke-width="0.5" d="M75.7678,-71.1356C89.7383,-74.303 106.81,-78.1735 122.565,-81.7456"/>
<polygon fill="black" stroke="black" stroke-width="0.5" points="122.589,-83.5452 127.852,-82.9441 123.363,-80.1318 122.589,-83.5452"/>
</g>
<!-- NamedUnit -->
<g id="node5" class="node"><title>NamedUnit</title>
<g id="a_node5"><a xlink:href="../api/astropy.units.NamedUnit.html#astropy.units.NamedUnit" xlink:title="The base class of units that have a name.">
<polygon fill="none" stroke="black" stroke-width="0.5" points="206.5,-65 135.5,-65 135.5,-46 206.5,-46 206.5,-65"/>
<text text-anchor="middle" x="171" y="-53" font-family="Vera Sans, DejaVu Sans, Liberation Sans, Arial, Helvetica, sans" font-size="10.00">NamedUnit</text>
</a>
</g>
</g>
<!-- UnitBase&#45;&gt;NamedUnit -->
<g id="edge3" class="edge"><title>UnitBase&#45;&gt;NamedUnit</title>
<path fill="none" stroke="black" stroke-width="0.5" d="M75.7678,-62.3671C91.9283,-61.1894 112.238,-59.7094 129.861,-58.4251"/>
<polygon fill="black" stroke="black" stroke-width="0.5" points="130.377,-60.1423 135.236,-58.0334 130.122,-56.6515 130.377,-60.1423"/>
</g>
<!-- IrreducibleUnit -->
<g id="node4" class="node"><title>IrreducibleUnit</title>
<g id="a_node4"><a xlink:href="../api/astropy.units.IrreducibleUnit.html#astropy.units.IrreducibleUnit" xlink:title="Irreducible units are the units that all other units are defined">
<polygon fill="none" stroke="black" stroke-width="0.5" points="337,-83 251,-83 251,-64 337,-64 337,-83"/>
<text text-anchor="middle" x="294" y="-71" font-family="Vera Sans, DejaVu Sans, Liberation Sans, Arial, Helvetica, sans" font-size="10.00">IrreducibleUnit</text>
</a>
</g>
</g>
<!-- UnrecognizedUnit -->
<g id="node12" class="node"><title>UnrecognizedUnit</title>
<g id="a_node12"><a xlink:href="../api/astropy.units.UnrecognizedUnit.html#astropy.units.UnrecognizedUnit" xlink:title="A unit that did not parse correctly. &#160;This allows for">
<polygon fill="none" stroke="black" stroke-width="0.5" points="475,-83 373,-83 373,-64 475,-64 475,-83"/>
<text text-anchor="middle" x="424" y="-71" font-family="Vera Sans, DejaVu Sans, Liberation Sans, Arial, Helvetica, sans" font-size="10.00">UnrecognizedUnit</text>
</a>
</g>
</g>
<!-- IrreducibleUnit&#45;&gt;UnrecognizedUnit -->
<g id="edge8" class="edge"><title>IrreducibleUnit&#45;&gt;UnrecognizedUnit</title>
<path fill="none" stroke="black" stroke-width="0.5" d="M337.267,-73.5C346.94,-73.5 357.366,-73.5 367.501,-73.5"/>
<polygon fill="black" stroke="black" stroke-width="0.5" points="367.77,-75.2501 372.77,-73.5 367.77,-71.7501 367.77,-75.2501"/>
</g>
<!-- NamedUnit&#45;&gt;IrreducibleUnit -->
<g id="edge2" class="edge"><title>NamedUnit&#45;&gt;IrreducibleUnit</title>
<path fill="none" stroke="black" stroke-width="0.5" d="M206.674,-60.6581C218.757,-62.4556 232.533,-64.5049 245.477,-66.4305"/>
<polygon fill="black" stroke="black" stroke-width="0.5" points="245.379,-68.185 250.582,-67.1899 245.894,-64.7231 245.379,-68.185"/>
</g>
<!-- Unit -->
<g id="node7" class="node"><title>Unit</title>
<g id="a_node7"><a xlink:href="../api/astropy.units.Unit.html#astropy.units.Unit" xlink:title="The main unit class.">
<polygon fill="none" stroke="black" stroke-width="0.5" points="321,-46 267,-46 267,-27 321,-27 321,-46"/>
<text text-anchor="middle" x="294" y="-34" font-family="Vera Sans, DejaVu Sans, Liberation Sans, Arial, Helvetica, sans" font-size="10.00">Unit</text>
</a>
</g>
</g>
<!-- NamedUnit&#45;&gt;Unit -->
<g id="edge6" class="edge"><title>NamedUnit&#45;&gt;Unit</title>
<path fill="none" stroke="black" stroke-width="0.5" d="M206.674,-50.0554C224.015,-47.3324 244.84,-44.0623 261.692,-41.4162"/>
<polygon fill="black" stroke="black" stroke-width="0.5" points="262.118,-43.1208 266.786,-40.6163 261.575,-39.6632 262.118,-43.1208"/>
</g>
<!-- PrefixUnit -->
<g id="node6" class="node"><title>PrefixUnit</title>
<g id="a_node6"><a xlink:href="../api/astropy.units.PrefixUnit.html#astropy.units.PrefixUnit" xlink:title="A unit that is simply a SI&#45;prefixed version of another unit.">
<polygon fill="none" stroke="black" stroke-width="0.5" points="455,-46 393,-46 393,-27 455,-27 455,-46"/>
<text text-anchor="middle" x="424" y="-34" font-family="Vera Sans, DejaVu Sans, Liberation Sans, Arial, Helvetica, sans" font-size="10.00">PrefixUnit</text>
</a>
</g>
</g>
<!-- Unit&#45;&gt;PrefixUnit -->
<g id="edge4" class="edge"><title>Unit&#45;&gt;PrefixUnit</title>
<path fill="none" stroke="black" stroke-width="0.5" d="M321.212,-36.5C340.361,-36.5 366.542,-36.5 387.556,-36.5"/>
<polygon fill="black" stroke="black" stroke-width="0.5" points="387.78,-38.2501 392.78,-36.5 387.78,-34.7501 387.78,-38.2501"/>
</g>
<!-- Quantity -->
<g id="node8" class="node"><title>Quantity</title>
<g id="a_node8"><a xlink:href="../api/astropy.units.quantity.Quantity.html#astropy.units.quantity.Quantity" xlink:title="A `~astropy.units.Quantity` represents a number with some associated unit.">
<polygon fill="none" stroke="black" stroke-width="0.5" points="199.5,-139 142.5,-139 142.5,-120 199.5,-120 199.5,-139"/>
<text text-anchor="middle" x="171" y="-127" font-family="Vera Sans, DejaVu Sans, Liberation Sans, Arial, Helvetica, sans" font-size="10.00">Quantity</text>
</a>
</g>
</g>
<!-- ndarray -->
<g id="node9" class="node"><title>ndarray</title>
<g id="a_node9"><a xlink:title="ndarray(shape, dtype=float, buffer=None, offset=0,">
<polygon fill="none" stroke="black" stroke-width="0.5" points="72.5,-139 18.5,-139 18.5,-120 72.5,-120 72.5,-139"/>
<text text-anchor="middle" x="45.5" y="-127" font-family="Vera Sans, DejaVu Sans, Liberation Sans, Arial, Helvetica, sans" font-size="10.00">ndarray</text>
</a>
</g>
</g>
<!-- ndarray&#45;&gt;Quantity -->
<g id="edge5" class="edge"><title>ndarray&#45;&gt;Quantity</title>
<path fill="none" stroke="black" stroke-width="0.5" d="M72.6912,-129.5C91.49,-129.5 116.959,-129.5 137.125,-129.5"/>
<polygon fill="black" stroke="black" stroke-width="0.5" points="137.13,-131.25 142.13,-129.5 137.13,-127.75 137.13,-131.25"/>
</g>
<!-- UnitsError -->
<g id="node10" class="node"><title>UnitsError</title>
<g id="a_node10"><a xlink:href="../api/astropy.units.UnitsError.html#astropy.units.UnitsError" xlink:title="The base class for unit&#45;specific exceptions.">
<polygon fill="none" stroke="black" stroke-width="0.5" points="78,-176 13,-176 13,-157 78,-157 78,-176"/>
<text text-anchor="middle" x="45.5" y="-164" font-family="Vera Sans, DejaVu Sans, Liberation Sans, Arial, Helvetica, sans" font-size="10.00">UnitsError</text>
</a>
</g>
</g>
</g>
</svg>
